<?xml version="1.0"?>
<svg xmlns="http://www.w3.org/2000/svg" id="Layer_3" height="512px" viewBox="0 0 64 64" width="512px" data-name="Layer 3" class=""><g><path d="m9 58v-39a11 11 0 0 1 11-11h24a11 11 0 0 1 11 11v39z" fill="#c1c8d1" data-original="#C1C8D1" class=""/><path d="m24 32h16a8 8 0 0 1 8 8v18a0 0 0 0 1 0 0h-32a0 0 0 0 1 0 0v-18a8 8 0 0 1 8-8z" fill="#f7d881" data-original="#F7D881" class="active-path" style="fill:#00D8D6" data-old_color="#f7d881"/><path d="m40 32-24 24v2h5l24.13-24.13a7.92 7.92 0 0 0 -5.13-1.87z" fill="#a0a8b2" data-original="#A0A8B2" class=""/><path d="m42 15v4a10 10 0 0 1 -10 10 10 10 0 0 1 -10-10v-4h7.39a6.75 6.75 0 0 0 5.61-3 6.75 6.75 0 0 0 5.61 3z" fill="#fcd4a5" data-original="#FCD4A5"/><path d="m32 2a10 10 0 0 0 -10 10v3h7.39a6.75 6.75 0 0 0 5.61-3 6.75 6.75 0 0 0 5.61 3h1.39v-3a10 10 0 0 0 -10-10z" fill="#c18e5c" data-original="#C18E5C"/><g fill="#fcd4a5"><path d="m22 19v-3h-1a3 3 0 0 0 0 6h1.46a9.91 9.91 0 0 1 -.46-3z" data-original="#FCD4A5"/><path d="m43 16h-1v3a9.91 9.91 0 0 1 -.46 3h1.46a3 3 0 0 0 0-6z" data-original="#FCD4A5"/><path d="m32 29a9.92 9.92 0 0 1 -4-.84v3.84l4 5 4-5v-3.84a9.92 9.92 0 0 1 -4 .84z" data-original="#FCD4A5"/></g><path d="m19 58a13 13 0 0 1 26 0h4a17 17 0 0 0 -34 0z" fill="#88929f" data-original="#88929F" class="" style="fill:#88929F"/><path d="m39.56 47.44-7.56 7.56-7.56-7.56a12.94 12.94 0 0 0 -3 3l7.56 7.56h6l7.56-7.56a12.94 12.94 0 0 0 -3-3z" fill="#c1c8d1" data-original="#C1C8D1" class=""/><path d="m2 58h60v4h-60z" fill="#a0a8b2" data-original="#A0A8B2" class=""/></g> </svg>
