<?xml version="1.0"?>
<svg xmlns="http://www.w3.org/2000/svg" height="512px" viewBox="0 0 64 64" width="512px" class=""><g><g id="Driver_License-Id-License-Transport-Identification" data-name="Driver License-Id-License-Transport-Identification"><path d="m62 14v36a4 4 0 0 1 -4 4h-52a4 4 0 0 1 -4-4v-36z" fill="#ffd422" data-original="#FFD422" class="" style="fill:#34E7E4" data-old_color="#ffd422"/><path d="m62 12v2h-60v-2a4 4 0 0 1 4-4h52a4 4 0 0 1 4 4z" fill="#3d9ae2" data-original="#3D9AE2" class="" style="fill:#00D8D6" data-old_color="#3d9ae2"/><path d="m29.44 44.42-2.74-1.22-2.7-1.2v-2.68a6.952 6.952 0 0 0 3.92-5.32h1.08a2 2 0 0 0 0-4h-1v-3a7 7 0 0 0 -14 0v3h-1a2 2 0 0 0 0 4h1.08a6.946 6.946 0 0 0 3.92 5.32v2.68l-2.7 1.2-2.74 1.22a6 6 0 0 0 -3.56 5.48v2.1h24v-2.1a6 6 0 0 0 -3.56-5.48z" fill="#ebbf00" data-original="#EBBF00" class="" style="fill:#00D8D6" data-old_color="#ebbf00"/><path d="m31 47.9v2.1h-9l-1.82-6.18.82-.82 3 1 .7-2.8 2.74 1.22a6 6 0 0 1 3.56 5.48z" fill="#898890" data-original="#898890" class=""/><path d="m29 30a2.006 2.006 0 0 1 -2 2h-2v-4h2a2.006 2.006 0 0 1 2 2z" fill="#ffb655" data-original="#FFB655"/><path d="m26 25v2h-.66a3.014 3.014 0 0 1 -2.91-2.27l-.43-1.73a4 4 0 0 1 -4 4h-6v-2a7 7 0 1 1 14 0z" fill="#57565c" data-original="#57565C" class=""/><path d="m24.7 41.2-.7 2.8-3-1-1-2 2-1z" fill="#57565c" data-original="#57565C" class=""/><path d="m20.18 43.82 1.82 6.18h-6l1.82-6.18 1.18 1.18z" fill="#c6c5ca" data-original="#C6C5CA"/><path d="m20 41 1 2-.82.82-1.18 1.18-1.18-1.18-.82-.82 1-2z" fill="#acabb1" data-original="#ACABB1"/><path d="m18 41-1 2-3 1-.7-2.8 2.7-1.2z" fill="#57565c" data-original="#57565C" class=""/><path d="m17.82 43.82-1.82 6.18h-9v-2.1a6 6 0 0 1 3.56-5.48l2.74-1.22.7 2.8 3-1z" fill="#898890" data-original="#898890" class=""/><path d="m13 28v4h-2a2 2 0 0 1 0-4z" fill="#ffb655" data-original="#FFB655"/><path d="m22 37v3l-2 1h-2l-2-1v-3z" fill="#ffc477" data-original="#FFC477"/><path d="m22 37v2.32a6.958 6.958 0 0 1 -6 0v-2.32z" fill="#ffb655" data-original="#FFB655"/><path d="m26 27v4a5.474 5.474 0 0 1 -.08 1 6.952 6.952 0 0 1 -3.92 5.32 6.982 6.982 0 0 1 -9.92-5.32 5.474 5.474 0 0 1 -.08-1v-4h6a4 4 0 0 0 4-4l.43 1.73a3.014 3.014 0 0 0 2.91 2.27z" fill="#ffc477" data-original="#FFC477"/><path d="m15 29h2v2h-2z" fill="#ee8700" data-original="#EE8700"/><path d="m21 29h2v2h-2z" fill="#ee8700" data-original="#EE8700"/><path d="m34 18h4v2h-4z" fill="#ddb200" data-original="#DDB200" class="active-path" style="fill:#00D8D6" data-old_color="#ddb200"/><path d="m42 18h2v2h-2z" fill="#ebbf00" data-original="#EBBF00" class="" style="fill:#00D8D6" data-old_color="#ebbf00"/><path d="m46 18h2v2h-2z" fill="#ebbf00" data-original="#EBBF00" class="" style="fill:#00D8D6" data-old_color="#ebbf00"/><path d="m50 18h2v2h-2z" fill="#ebbf00" data-original="#EBBF00" class="" style="fill:#00D8D6" data-old_color="#ebbf00"/><path d="m54 18h2v2h-2z" fill="#ebbf00" data-original="#EBBF00" class="" style="fill:#00D8D6" data-old_color="#ebbf00"/><path d="m34 31h6v2h-6z" fill="#ddb200" data-original="#DDB200" class="active-path" style="fill:#00D8D6" data-old_color="#ddb200"/><g fill="#ebbf00"><path d="m42 27h4v2h-4z" data-original="#EBBF00" class="" style="fill:#00D8D6" data-old_color="#EBBF00"/><path d="m48 27h8v2h-8z" data-original="#EBBF00" class="" style="fill:#00D8D6" data-old_color="#EBBF00"/><path d="m42 31h14v2h-14z" data-original="#EBBF00" class="" style="fill:#00D8D6" data-old_color="#EBBF00"/><path d="m42 37h2v2h-2z" data-original="#EBBF00" class="" style="fill:#00D8D6" data-old_color="#EBBF00"/><path d="m46 37h2v2h-2z" data-original="#EBBF00" class="" style="fill:#00D8D6" data-old_color="#EBBF00"/><path d="m50 37h2v2h-2z" data-original="#EBBF00" class="" style="fill:#00D8D6" data-old_color="#EBBF00"/><path d="m54 37h2v2h-2z" data-original="#EBBF00" class="" style="fill:#00D8D6" data-old_color="#EBBF00"/><path d="m42 48h4v2h-4z" data-original="#EBBF00" class="" style="fill:#00D8D6" data-old_color="#EBBF00"/><path d="m48 48h4v2h-4z" data-original="#EBBF00" class="" style="fill:#00D8D6" data-old_color="#EBBF00"/><path d="m54 48h2v2h-2z" data-original="#EBBF00" class="" style="fill:#00D8D6" data-old_color="#EBBF00"/></g></g></g> </svg>
