<?xml version="1.0" encoding="iso-8859-1"?>
<!-- Generator: Adobe Illustrator 19.0.0, SVG Export Plug-In . SVG Version: 6.00 Build 0)  -->
<svg version="1.1" id="Capa_1" xmlns="http://www.w3.org/2000/svg" xmlns:xlink="http://www.w3.org/1999/xlink" x="0px" y="0px"
	 viewBox="0 0 477.13 477.13" style="enable-background:new 0 0 477.13 477.13;" xml:space="preserve">
<g>
	<g>
		<path style="fill:#00EFD1;" d="M102.618,155.19c-38.885,62.848-29.392,144.195,22.92,196.4c7.216,7.222,15.105,13.739,23.56,19.46
			c72.938,49.214,171.963,29.982,221.177-42.957c11.604-17.198,19.737-36.497,23.943-56.813c4.663-22.592,4.387-45.925-0.81-68.4
			c-4.371-18.952-12.199-36.936-23.09-53.05c-13.098-19.345-30.257-35.603-50.28-47.64c-15.791-9.47-33.115-16.109-51.19-19.62
			c-22.04-4.302-44.739-3.917-66.62,1.13c-18.336,4.219-35.773,11.676-51.49,22.02C131.303,118.529,114.884,135.409,102.618,155.19
			L102.618,155.19z M399.558,77.57c89.12,89.11,89.12,233.61,0,322.72s-233.61,89.12-322.72,0s-89.12-233.61,0-322.72
			S310.448-11.55,399.558,77.57z"/>
		<path style="fill:#D4E1F4;" d="M393.408,202.88c5.197,22.475,5.473,45.808,0.81,68.4l-77.25,0.68l54.44,54.43
			c-12.809,19.435-29.688,35.854-49.47,48.12l-53.76-53.76l1.07,72.99l0.28,1.41c-22.416,4.484-45.533,4.106-67.79-1.11l0.31-1.29
			l0.07-75.05l-52.36,52.37l-0.66,0.98c-19.345-13.098-35.603-30.257-47.64-50.28l51.87-51.86l-71.41,1.05
			c-4.343-21.926-4.037-44.52,0.9-66.32l1.6,0.36l68.18,1.17l-49.98-49.98c12.266-19.782,28.685-36.661,48.12-49.47l50.74,50.75
			l0.75-72.77c21.881-5.047,44.58-5.432,66.62-1.13l-0.67,71.49l51.86-51.87c20.023,12.037,37.182,28.295,50.28,47.64l-0.98,0.66
			l-52.37,52.36l74.52,0.46L393.408,202.88z M269.208,269.94c17.127-17.126,17.127-44.894,0-62.02s-44.894-17.127-62.02,0
			s-17.127,44.894,0,62.02c0,0,0,0,0,0C224.317,287.06,252.079,287.06,269.208,269.94z"/>
	</g>
	<g>
		<path style="fill:#083863;" d="M238.198,292.751c-29.725-0.026-53.801-24.144-53.775-53.869s24.144-53.801,53.869-53.775
			s53.801,24.144,53.775,53.869c-0.013,14.269-5.691,27.949-15.786,38.033l0,0C266.186,287.112,252.481,292.777,238.198,292.751z
			 M238.198,205.097c-18.685,0.017-33.818,15.177-33.802,33.862s15.177,33.818,33.862,33.802s33.818-15.177,33.802-33.862
			c-0.008-8.971-3.579-17.571-9.926-23.91C255.788,208.641,247.175,205.082,238.198,205.097z"/>
		<path style="fill:#083863;" d="M403.151,200.629c-4.638-20.153-12.962-39.274-24.553-56.4
			c-13.916-20.554-32.146-37.826-53.42-50.613c-16.783-10.074-35.2-17.134-54.417-20.86c-23.42-4.536-47.53-4.127-70.783,1.2
			c-19.496,4.477-38.034,12.405-54.739,23.41c-20.649,13.609-38.094,31.544-51.125,52.563c-9.828,15.878-16.941,33.283-21.048,51.5
			c-5.212,23.167-5.538,47.166-0.959,70.466c3.744,19.071,10.772,37.347,20.771,54.012c12.789,21.278,30.063,39.511,50.62,53.429
			c17,11.5,35.966,19.784,55.955,24.44c23.652,5.508,48.205,5.911,72.025,1.182c19.741-3.909,38.615-11.343,55.72-21.945
			c21.019-13.031,38.954-30.475,52.562-51.126c11.733-17.81,19.963-37.692,24.25-58.584
			C408.933,249.297,408.64,224.513,403.151,200.629z M380.387,193.243L340.966,193l27.371-27.371
			c4.949,8.768,8.987,18.021,12.05,27.612V193.243z M278.73,95.187c8.521,2.384,16.811,5.53,24.768,9.4l-25.091,25.1L278.73,95.187z
			 M192.098,96.866l-0.37,35.7l-24.861-24.867C174.922,103.311,183.369,99.685,192.098,96.866z M128.038,194.747l-32.326-0.555
			c2.429-7.773,5.497-15.332,9.171-22.6L128.038,194.747z M103.858,304.229c-3.821-7.86-6.937-16.044-9.31-24.456l34.273-0.5
			L103.858,304.229z M192.058,380.973c-9.43-3.046-18.53-7.035-27.16-11.906l27.194-27.2L192.058,380.973z M278.537,345.252l27,27
			c-8.466,4.282-17.325,7.736-26.455,10.313L278.537,345.252z M343.786,344.518c-6.322,6.32-13.194,12.063-20.535,17.163l-48-48
			c-3.905-3.905-10.237-3.905-14.142,0c-1.911,1.911-2.967,4.515-2.928,7.217l0.965,65.874c-15.643,2.189-31.533,1.911-47.09-0.821
			l0.064-68.24c0.005-5.523-4.467-10.004-9.99-10.01c-2.656-0.003-5.204,1.052-7.082,2.93l-47.194,47.2
			c-13.094-9.965-24.461-22.015-33.646-35.667l46.19-46.183c3.906-3.905,3.907-10.236,0.002-14.142
			c-1.911-1.912-4.516-2.969-7.219-2.929l-62.83,0.925c-2.117-15.183-1.914-30.6,0.6-45.722l61.474,1.055h0.172
			c5.523,0,10-4.477,10-10c0-2.653-1.054-5.196-2.93-7.072l-44.222-44.222c9.382-13.508,20.916-25.386,34.144-35.159l44.815,44.823
			c3.905,3.906,10.237,3.906,14.142,0.001c1.85-1.85,2.902-4.352,2.929-6.968l0.667-64.677c15.403-2.702,31.132-2.992,46.624-0.859
			l-0.59,62.929c-0.052,5.523,4.383,10.042,9.905,10.094c2.685,0.025,5.268-1.031,7.167-2.93l46.184-46.193
			c13.652,9.186,25.702,20.554,35.666,33.649l-47.2,47.194c-3.906,3.905-3.907,10.236-0.002,14.142
			c1.86,1.861,4.379,2.914,7.01,2.93l68.4,0.422c2.736,15.897,2.915,32.13,0.528,48.083l-68.953,0.605
			c-5.523,0.05-9.959,4.567-9.91,10.089c0.024,2.62,1.075,5.126,2.927,6.98l48.513,48.505c-4.447,6.016-9.335,11.693-14.624,16.984
			H343.786z M369.421,310.263l-28.518-28.514l40.477-0.356c-2.953,10.02-6.961,19.697-11.958,28.87L369.421,310.263z"/>
		<path style="fill:#083863;" d="M238.198,477.129C106.644,477.127,0,370.48,0.002,238.926
			c0.001-63.172,25.096-123.757,69.765-168.427c92.619-93.425,243.438-94.078,336.863-1.459s94.078,243.438,1.459,336.862
			c-0.484,0.489-0.971,0.975-1.46,1.46l0,0C362.058,452.18,301.407,477.303,238.198,477.129z M238.198,20.729
			C117.69,20.731,19.999,118.423,20.001,238.932C20.001,296.801,42.99,352.3,83.909,393.219
			c85.207,85.211,223.359,85.215,308.57,0.008c0.003-0.003,0.005-0.005,0.008-0.008l0,0c85.212-85.213,85.211-223.369-0.001-308.581
			C351.566,43.719,296.067,20.73,238.198,20.729L238.198,20.729z"/>
	</g>
</g>
<g>
</g>
<g>
</g>
<g>
</g>
<g>
</g>
<g>
</g>
<g>
</g>
<g>
</g>
<g>
</g>
<g>
</g>
<g>
</g>
<g>
</g>
<g>
</g>
<g>
</g>
<g>
</g>
<g>
</g>
</svg>
