<?xml version="1.0" encoding="iso-8859-1"?>
<!-- Generator: Adobe Illustrator 19.0.0, SVG Export Plug-In . SVG Version: 6.00 Build 0)  -->
<svg version="1.1" id="Capa_1" xmlns="http://www.w3.org/2000/svg" xmlns:xlink="http://www.w3.org/1999/xlink" x="0px" y="0px"
	 viewBox="0 0 476.217 476.217" style="enable-background:new 0 0 476.217 476.217;" xml:space="preserve">
<g>
	<g>
		<circle style="fill:#00ACEA;" cx="376.939" cy="48.917" r="38.78"/>
		<path style="fill:#00EFD1;" d="M349.429,311.688c3.329-16.125,3.131-32.779-0.58-48.82c-10.129-43.619-44.925-77.225-88.87-85.83
			c-15.725-3.063-31.918-2.787-47.53,0.81c-42.455,9.827-75.552,43.064-85.2,85.56c-3.524,15.558-3.746,31.681-0.65,47.33
			c8.67,43.725,42.104,78.343,85.5,88.53c15.881,3.723,32.375,3.996,48.37,0.8C305.164,391.118,340.186,356.325,349.429,311.688
			L349.429,311.688z M353.239,173.468c63.587,63.585,63.59,166.678,0.005,230.265s-166.678,63.59-230.265,0.005
			s-63.59-166.678-0.005-230.265c0.002-0.002,0.003-0.003,0.005-0.005C186.564,109.885,289.653,109.885,353.239,173.468z"/>
		<path style="fill:#D4E1F4;" d="M348.849,262.868c3.711,16.041,3.909,32.695,0.58,48.82l-55.12,0.48l38.84,38.84
			c-9.136,13.869-21.182,25.584-35.3,34.33l-38.35-38.35l0.76,52.07l0.21,1.01c-15.995,3.196-32.489,2.923-48.37-0.8l0.21-0.91
			l0.06-53.55l-37.36,37.36l-0.47,0.69c-13.807-9.334-25.408-21.573-33.99-35.86l37-37l-50.95,0.74
			c-3.096-15.649-2.874-31.772,0.65-47.33l1.14,0.27l48.64,0.84l-35.65-35.66c8.75-14.113,20.464-26.154,34.33-35.29l36.2,36.2
			l0.54-51.92c15.612-3.597,31.805-3.873,47.53-0.81l-0.48,51.01l37-37c14.284,8.582,26.522,20.179,35.86,33.98l-0.69,0.47
			l-37.36,37.37l53.17,0.32L348.849,262.868z M260.229,310.728c12.219-12.217,12.222-32.026,0.005-44.245
			c-12.217-12.219-32.026-12.222-44.245-0.005c-12.219,12.217-12.222,32.026-0.005,44.245c0.002,0.002,0.003,0.003,0.005,0.005
			C228.206,322.942,248.011,322.942,260.229,310.728z"/>
	</g>
	<g>
		<path style="fill:#083863;" d="M238.109,329.871c-22.792-0.014-41.257-18.502-41.243-41.293s18.502-41.257,41.293-41.243
			s41.257,18.502,41.243,41.293c-0.007,10.944-4.36,21.436-12.102,29.171l0,0C259.563,325.546,249.057,329.891,238.109,329.871z
			 M238.109,267.332c-11.748,0.011-21.262,9.544-21.251,21.291c0.011,11.748,9.544,21.262,21.291,21.251
			c11.748-0.011,21.262-9.544,21.251-21.291c-0.005-5.641-2.251-11.049-6.243-15.034
			C249.166,269.56,243.751,267.323,238.109,267.332z"/>
		<path style="fill:#083863;" d="M358.591,260.617c-5.223-22.521-16.669-43.122-33.031-59.455
			c-7.177-7.183-15.209-13.458-23.915-18.684c-12.26-7.363-25.714-12.524-39.753-15.251c-17.104-3.306-34.709-3.005-51.69,0.882
			c-14.242,3.274-27.783,9.067-39.986,17.107c-15.081,9.934-27.821,23.03-37.336,38.379c-7.188,11.588-12.387,24.297-15.383,37.6
			c-3.809,16.924-4.05,34.456-0.709,51.478c2.737,13.936,7.875,27.291,15.184,39.468c9.333,15.538,21.948,28.849,36.964,39
			c12.414,8.409,26.269,14.464,40.873,17.862c17.275,4.026,35.211,4.323,52.61,0.872c14.411-2.859,28.19-8.288,40.678-16.028
			c15.36-9.514,28.464-22.258,38.4-37.348c8.576-13.003,14.592-27.524,17.725-42.782
			C362.819,296.177,362.603,278.068,358.591,260.617z M330.247,241.069c2.017,3.9,3.78,7.925,5.28,12.051l-17.225-0.1
			L330.247,241.069z M269.859,189.9c3.365,1.075,6.671,2.323,9.907,3.739l-10.037,10.036L269.859,189.9z M202.311,191.29
			l-0.154,14.583l-10.148-10.143c3.349-1.668,6.788-3.15,10.3-4.44H202.311z M152.466,254.09l-12.065-0.208
			c1.015-2.867,2.152-5.682,3.412-8.447L152.466,254.09z M143.14,330.262c-1.386-3.173-2.611-6.413-3.67-9.71l13.58-0.2
			L143.14,330.262z M202.323,385.907c-4.02-1.474-7.944-3.199-11.747-5.166l11.766-11.766L202.323,385.907z M269.858,371.486
			l11.4,11.4c-3.636,1.663-7.366,3.111-11.171,4.337L269.858,371.486z M299.098,372.443l-32.528-32.526
			c-3.905-3.905-10.237-3.905-14.142,0c-1.911,1.911-2.968,4.515-2.928,7.218l0.649,44.439c-9.259,1.064-18.618,0.892-27.832-0.511
			l0.052-46.243c0.007-5.523-4.465-10.005-9.988-10.012c-2.657-0.003-5.206,1.051-7.084,2.93l-31.868,31.867
			c-7.672-6.096-14.43-13.261-20.069-21.276l31.26-31.26c3.905-3.905,3.905-10.237,0-14.142c-1.911-1.911-4.514-2.967-7.216-2.928
			l-42.269,0.613c-1.023-8.915-0.902-17.925,0.361-26.81l41.36,0.714h0.174c5.523-0.001,9.999-4.478,9.999-10.001
			c0-2.651-1.053-5.194-2.928-7.069l-29.83-29.84c5.769-7.912,12.622-14.974,20.358-20.978l30.209,30.209
			c3.906,3.905,10.237,3.904,14.142-0.001c1.849-1.85,2.9-4.35,2.928-6.966l0.455-43.732c9.115-1.391,18.375-1.569,27.537-0.532
			l-0.4,42.345c-0.053,5.523,4.382,10.042,9.904,10.095c2.685,0.026,5.268-1.03,7.167-2.929l31.26-31.26
			c8.011,5.64,15.176,12.395,21.278,20.06l-31.87,31.879c-3.905,3.906-3.904,10.237,0.002,14.142c1.861,1.86,4.379,2.912,7.01,2.928
			l46.378,0.279c1.407,9.479,1.514,19.105,0.317,28.613l-46.722,0.408c-5.523,0.048-9.961,4.564-9.913,10.086
			c0.023,2.622,1.075,5.13,2.929,6.985l32.85,32.849c-6.005,7.738-13.071,14.591-20.99,20.357L299.098,372.443z M318.244,321.958
			l18.086-0.158c-1.486,4.417-3.273,8.727-5.348,12.9L318.244,321.958z"/>
		<path style="fill:#083863;" d="M421.109,456.217H280.026c30.451-7.406,58.245-23.127,80.283-45.408
			c67.384-67.385,67.384-176.943,0-244.328c-4.407-4.407-9-8.264-13.743-12.264h10.543c16.533-0.085,29.915-13.467,30-30V96.663
			c26.404-5.523,43.332-31.405,37.809-57.809c-5.523-26.404-31.405-43.332-57.809-37.809s-43.332,31.405-37.809,57.809
			c3.973,18.995,18.814,33.836,37.809,37.809v27.554c-0.072,5.493-4.507,9.928-10,10h-39.67c-0.562-0.024-1.126-0.002-1.684,0.068
			c-64.768-32.51-145.865-21.827-199.847,32.154c-67.484,67.466-67.498,176.864-0.032,244.348c0.011,0.011,0.021,0.021,0.032,0.032
			c22.038,22.279,49.834,37.996,80.284,45.398H55.109c-5.523,0-10,4.477-10,10s4.477,10,10,10h366c5.523,0,10-4.477,10-10
			S426.631,456.217,421.109,456.217z M348.159,48.917c0-15.895,12.885-28.78,28.78-28.78c15.895,0,28.78,12.885,28.78,28.78
			s-12.885,28.78-28.78,28.78C361.051,77.679,348.177,64.804,348.159,48.917z M85.286,288.603
			c0.067-84.429,68.565-152.819,152.994-152.752c40.459,0.032,79.256,16.101,107.888,44.687c59.587,59.588,59.587,156.542,0,216.128
			s-156.534,59.585-216.118,0C101.295,368.069,85.176,329.157,85.286,288.603z"/>
		<path style="fill:#083863;" d="M377.109,60.217c-5.523,0-10-4.477-10-10v-15c0-5.523,4.477-10,10-10s10,4.477,10,10v15
			C387.109,55.74,382.631,60.217,377.109,60.217z"/>
	</g>
</g>
<g>
</g>
<g>
</g>
<g>
</g>
<g>
</g>
<g>
</g>
<g>
</g>
<g>
</g>
<g>
</g>
<g>
</g>
<g>
</g>
<g>
</g>
<g>
</g>
<g>
</g>
<g>
</g>
<g>
</g>
</svg>
