<?xml version="1.0" encoding="iso-8859-1"?>
<!-- Generator: Adobe Illustrator 19.0.0, SVG Export Plug-In . SVG Version: 6.00 Build 0)  -->
<svg version="1.1" id="Capa_1" xmlns="http://www.w3.org/2000/svg" xmlns:xlink="http://www.w3.org/1999/xlink" x="0px" y="0px"
	 viewBox="0 0 358.846 358.846" style="enable-background:new 0 0 358.846 358.846;" xml:space="preserve">
<g>
	<g>
		<g>
			<path style="fill:#00EFD1;" d="M238.242,10.353c43.18,0,77.82,75.4,77.82,169s-35.37,169-78.55,169l-29.68,0.1
				c3.53-3.22,6.9-10.82,10.71-13.13c5.84-3.56,15.78-3.48,20.99-9.72c4.43-5.31,3.02-15.33,6.87-22.33
				c3.39-6.17,12.66-10.08,15.53-17.4c2.6-6.64-1.45-15.89,0.66-23.35c1.96-6.93,10.29-12.62,11.78-20.16
				c1.41-7.12-4.09-15.57-3.14-23.16c0.91-7.24,8.35-14.04,8.81-21.63c0.44-7.32-6.1-14.98-6.1-22.56s6.54-15.25,6.1-22.57
				c-0.46-7.6-7.9-14.4-8.81-21.65c-0.96-7.58,4.54-16.03,3.14-23.14c-1.49-7.55-9.82-13.23-11.78-20.16
				c-2.11-7.47,1.94-16.71-0.66-23.35c-2.86-7.31-12.14-11.22-15.53-17.39c-3.85-7.01-2.44-17.02-6.87-22.33
				c-5.21-6.24-15.14-10.51-20.98-14.06v-0.1L238.242,10.353z"/>
			<path style="fill:#00EFD1;" d="M280.042,152.444c0.44,7.32-6.1,14.99-6.1,22.57c0,7.58,6.54,15.24,6.1,22.56
				c-0.46,7.59-7.9,14.39-8.81,21.63c-0.95,7.59,4.55,16.04,3.14,23.16c-1.49,7.54-9.82,13.23-11.78,20.16
				c-2.11,7.46,1.94,16.71-0.66,23.35c-2.87,7.32-12.14,11.23-15.53,17.4c-3.85,7-2.44,17.02-6.87,22.33
				c-5.21,6.24-15.15,6.16-20.99,9.72c-3.81,2.31-7.18,9.91-10.71,13.13l-34.97,0.12v-0.03c3.61-3.54,7.04-10.86,10.93-13.22
				c5.85-3.56,15.78-3.48,20.99-9.72c4.43-5.31,3.02-15.33,6.87-22.33c3.39-6.17,12.67-10.08,15.53-17.4
				c2.6-6.64-1.44-15.89,0.67-23.35c1.96-6.93,10.28-12.62,11.77-20.16c1.41-7.12-4.09-15.57-3.14-23.16
				c0.91-7.24,8.35-14.04,8.81-21.63c0.45-7.32-6.1-14.98-6.1-22.56s6.55-15.25,6.1-22.57c-0.46-7.6-7.9-14.4-8.81-21.65
				c-0.95-7.58,4.55-16.03,3.14-23.14c-1.49-7.55-9.82-13.23-11.78-20.16c-2.11-7.47,1.94-16.71-0.66-23.35
				c-2.86-7.31-12.14-11.22-15.53-17.39c-3.85-7.01-2.44-17.02-6.87-22.33c-5.2-6.24-15.14-10.51-20.98-14.06v-0.25l34.75,0.15v0.1
				c5.84,3.55,15.77,7.82,20.98,14.06c4.43,5.31,3.02,15.32,6.87,22.33c3.39,6.17,12.67,10.08,15.53,17.39
				c2.6,6.64-1.45,15.88,0.66,23.35c1.96,6.93,10.29,12.61,11.78,20.16c1.4,7.11-4.1,15.56-3.14,23.14
				C272.142,138.044,279.582,144.844,280.042,152.444z"/>
			<path style="fill:#00EFD1;" d="M245.292,152.444c0.45,7.32-6.1,14.99-6.1,22.57c0,7.58,6.55,15.24,6.1,22.56
				c-0.46,7.59-7.9,14.39-8.81,21.63c-0.95,7.59,4.55,16.04,3.14,23.16c-1.49,7.54-9.81,13.23-11.77,20.16
				c-2.11,7.46,1.93,16.71-0.67,23.35c-2.86,7.32-12.14,11.23-15.53,17.4c-3.85,7-2.44,17.02-6.87,22.33
				c-5.21,6.24-15.14,6.16-20.99,9.72c-3.89,2.36-7.32,9.68-10.93,13.22v0.03l-49.25,0.17v-0.01c41.95-3.03,75.54-77.7,75.54-169.38
				c0-91.82-33.69-166.59-75.74-169.39l0.01-0.11l60.38,0.26v0.25c5.84,3.55,15.78,7.82,20.98,14.06
				c4.43,5.31,3.02,15.32,6.87,22.33c3.39,6.17,12.67,10.08,15.53,17.39c2.6,6.64-1.45,15.88,0.66,23.35
				c1.96,6.93,10.29,12.61,11.78,20.16c1.41,7.11-4.09,15.56-3.14,23.14C237.392,138.044,244.832,144.844,245.292,152.444z"/>
		</g>
		<path style="fill:#00CEB4;" d="M123.412,9.964c42.05,2.8,75.74,77.57,75.74,169.39c0,91.68-33.59,166.35-75.54,169.38
			c-0.88,0.07-1.76,0.1-2.65,0.1c-43.18,0-78.18-75.88-78.18-169.48s35-169.48,78.18-169.48
			C121.782,9.874,122.602,9.904,123.412,9.964z M153.832,179.353c0-44.55-12.31-80.67-32.87-80.67s-32.87,36.12-32.87,80.67
			s12.32,80.67,32.87,80.67S153.832,223.904,153.832,179.353z"/>
		<ellipse style="fill:#00ACEA;" cx="120.962" cy="179.353" rx="32.87" ry="80.67"/>
	</g>
	<g>
		<path style="fill:#083863;" d="M120.962,270.024c-26.043,0-42.87-35.59-42.87-90.671s16.827-90.669,42.87-90.669
			s42.87,35.589,42.87,90.669S147.005,270.024,120.962,270.024z M120.962,108.684c-7.352,0-12.81,12.054-14.815,17.237
			c-5.195,13.424-8.055,32.4-8.055,53.432s2.86,40.009,8.055,53.434c2,5.182,7.463,17.237,14.815,17.237
			s12.814-12.054,14.818-17.237c5.193-13.422,8.052-32.4,8.052-53.434s-2.859-40.011-8.052-53.433
			C133.776,120.738,128.322,108.684,120.962,108.684z"/>
		<path style="fill:#083863;" d="M302.429,55.574c-16.386-35.61-39.181-54.971-64.141-54.971l-114.823-0.25h-0.043
			c-0.32,0-0.636-0.231-0.948-0.2C121.974,0.135,121.465,0,120.963,0C95.952,0,73.095,19.631,56.601,55.39
			c-15.36,33.3-23.818,77.311-23.818,124s8.458,90.717,23.818,124.013c16.494,35.758,39.351,55.443,64.362,55.443
			c0.977,0,1.887-0.039,2.757-0.094l113.792-0.399c25.028,0,47.946-19.6,64.531-55.176c15.488-33.224,24.019-77.202,24.019-123.824
			C326.063,132.653,317.669,88.693,302.429,55.574z M252.969,90.215c1.454,5.14,4.585,9.151,7.347,12.689
			c1.835,2.352,3.917,5.019,4.245,6.681c0.262,1.336-0.615,4.538-1.319,7.111c-1.242,4.537-2.65,9.681-1.932,15.344
			c0.683,5.444,3.262,9.951,5.538,13.927c1.459,2.55,3.113,5.441,3.212,7.076c0.087,1.434-1.207,4.526-2.246,7.011
			c-1.816,4.339-3.872,9.257-3.872,14.96c0,5.703,2.057,10.62,3.873,14.958c1.039,2.481,2.332,5.57,2.246,7
			c-0.1,1.634-1.753,4.522-3.212,7.069c-2.276,3.974-4.856,8.479-5.54,13.925c-0.708,5.663,0.7,10.8,1.936,15.328
			c0.705,2.578,1.583,5.788,1.317,7.134c-0.328,1.663-2.41,4.329-4.244,6.682c-2.763,3.541-5.9,7.555-7.348,12.695
			c-1.544,5.457-1,10.709-0.512,15.342c0.261,2.5,0.618,5.919,0.164,7.079c-0.663,1.69-3.207,3.859-5.668,5.959
			c-3.237,2.761-6.907,5.891-9.313,10.272c-2.613,4.75-3.445,9.731-4.178,14.126c-0.383,2.292-0.961,5.755-1.607,6.614
			c-1.245,1.491-4.69,2.492-8.023,3.46c-2.585,0.693-5.118,1.566-7.581,2.613c1.017-3.057,1.749-6.202,2.188-9.394
			c0.494-2.958,1-6.016,1.977-7.784c0.645-1.174,2.833-3.04,4.765-4.686c3.933-3.354,8.829-7.528,11.311-13.883
			c2.229-5.691,1.636-11.406,1.113-16.449c-0.31-2.982-0.629-6.065-0.131-7.826c0.387-1.372,2.237-3.745,3.869-5.838
			c3.046-3.909,6.837-8.773,8.088-15.1c1.18-5.964-0.322-11.453-1.647-16.3c-0.785-2.87-1.6-5.839-1.382-7.561
			c0.185-1.469,1.707-4.128,3.051-6.474c2.423-4.23,5.438-9.5,5.82-15.79c0.374-6.08-1.824-11.323-3.761-15.949
			c-1.142-2.724-2.321-5.541-2.321-7.224s1.18-4.5,2.322-7.231c1.937-4.628,4.134-9.874,3.76-15.943
			c-0.382-6.308-3.4-11.575-5.818-15.807c-1.344-2.348-2.867-5.011-3.052-6.482c-0.215-1.722,0.6-4.687,1.381-7.554
			c1.325-4.841,2.828-10.329,1.648-16.28c-1.252-6.343-5.05-11.209-8.1-15.118c-1.631-2.09-3.479-4.459-3.866-5.824
			c-0.5-1.765-0.177-4.848,0.135-7.829c0.526-5.041,1.123-10.755-1.106-16.445c-2.485-6.355-7.378-10.524-11.309-13.875
			c-1.933-1.647-4.123-3.513-4.768-4.687c-0.973-1.77-1.483-4.829-1.976-7.787c-0.749-4.485-1.59-9.478-4.37-13.9l1.6,0.007
			c0.992,0.558,2.02,1.119,3.087,1.7c4.636,2.52,10.4,5.657,13.085,8.867c0.655,0.87,1.233,4.333,1.616,6.625
			c0.733,4.392,1.564,9.371,4.175,14.123c2.411,4.388,6.084,7.518,9.324,10.28c2.345,2,5,4.261,5.658,5.942
			c0.456,1.162,0.1,4.581-0.162,7.077C251.975,79.501,251.422,84.753,252.969,90.215z M184.022,21.953
			c4.634,2.519,10.4,5.653,13.079,8.864c0.655,0.87,1.233,4.333,1.616,6.625c0.733,4.392,1.564,9.371,4.175,14.123
			c2.411,4.388,6.084,7.518,9.324,10.28c2.345,2,5,4.261,5.658,5.941c0.456,1.163,0.1,4.582-0.162,7.078
			c-0.483,4.633-1.032,9.884,0.511,15.347c1.454,5.14,4.585,9.151,7.347,12.689c1.835,2.352,3.917,5.019,4.248,6.7
			c0.264,1.336-0.614,4.541-1.319,7.116c-1.24,4.529-2.644,9.661-1.935,15.325c0.683,5.444,3.262,9.951,5.538,13.927
			c1.459,2.55,3.113,5.441,3.213,7.091c0.088,1.427-1.206,4.518-2.245,7c-1.817,4.337-3.874,9.252-3.874,14.955
			s2.058,10.617,3.875,14.952c1.039,2.481,2.332,5.568,2.244,7c-0.1,1.634-1.753,4.522-3.212,7.069
			c-2.276,3.974-4.856,8.479-5.54,13.925c-0.708,5.663,0.7,10.8,1.936,15.328c0.705,2.578,1.583,5.788,1.317,7.134
			c-0.329,1.665-2.409,4.333-4.243,6.687c-2.759,3.54-5.887,7.553-7.34,12.691c-1.542,5.453-1,10.7-0.516,15.333
			c0.259,2.5,0.614,5.924,0.154,7.1c-0.657,1.682-3.315,3.949-5.661,5.949c-3.238,2.76-6.909,5.89-9.315,10.27
			c-2.613,4.75-3.445,9.731-4.178,14.126c-0.383,2.292-0.961,5.755-1.607,6.615c-1.246,1.491-4.691,2.492-8.023,3.461
			c-3.659,0.904-7.183,2.288-10.478,4.118c-4.091,2.483-6.961,6.64-9.494,10.307c-0.341,0.5-0.7,1.01-1.05,1.51l-5.6,0.019
			c8.886-9.391,16.925-21.906,23.781-37.24c14.774-33.039,22.91-76.372,22.91-122.017c0-45.722-8.16-89.109-22.976-122.167
			c-6.861-15.309-14.9-27.795-23.782-37.163l18.262,0.08C181.732,20.711,182.852,21.323,184.022,21.953z M74.76,295.005
			c-14.172-30.725-21.978-71.797-21.978-115.652S60.588,94.427,74.76,63.702c12.849-27.853,29.688-43.828,46.2-43.828
			c0.571,0,1.148,0.021,1.711,0.062l0.075,0.006c16.258,1.082,32.725,17.639,45.178,45.424
			c13.69,30.541,21.228,71.023,21.228,113.987c0,42.893-7.517,83.326-21.168,113.852c-12.42,27.778-28.856,44.382-45.162,45.56
			c-0.58,0.046-1.188,0.068-1.86,0.068C104.448,338.833,87.609,322.858,74.76,295.005z M283.915,294.728
			c-12.5,26.812-28.726,42.564-44.8,43.572c3.1-1.52,5.854-3.661,8.093-6.29c4.107-4.923,5.1-10.881,5.979-16.137
			c0.494-2.958,1-6.016,1.977-7.784c0.646-1.176,2.835-3.044,4.767-4.691c3.927-3.351,8.817-7.521,11.309-13.878
			c2.23-5.693,1.633-11.41,1.107-16.453c-0.312-2.981-0.633-6.063-0.135-7.821c0.387-1.371,2.238-3.743,3.871-5.836
			c3.05-3.909,6.845-8.774,8.1-15.1c1.18-5.964-0.322-11.453-1.647-16.3c-0.785-2.87-1.6-5.839-1.382-7.561
			c0.185-1.469,1.707-4.128,3.051-6.474c2.423-4.23,5.438-9.5,5.821-15.8c0.364-6.069-1.828-11.3-3.761-15.924
			c-1.142-2.727-2.322-5.547-2.322-7.235s1.18-4.513,2.323-7.243c1.932-4.621,4.124-9.859,3.759-15.931
			c-0.382-6.308-3.4-11.575-5.818-15.807c-1.344-2.348-2.867-5.011-3.054-6.5c-0.217-1.722,0.595-4.691,1.38-7.561
			c1.324-4.832,2.823-10.308,1.651-16.26c-1.252-6.343-5.05-11.209-8.1-15.118c-1.631-2.09-3.479-4.459-3.866-5.824
			c-0.5-1.765-0.177-4.848,0.135-7.829c0.526-5.041,1.123-10.755-1.106-16.445c-2.485-6.355-7.378-10.524-11.309-13.875
			c-1.933-1.647-4.123-3.513-4.768-4.687c-0.973-1.77-1.483-4.829-1.976-7.787c-0.481-3.767-1.432-7.459-2.831-10.99
			c12.363,5.693,24.279,19.864,33.9,40.772c14.059,30.553,21.8,71.544,21.8,115.419C306.063,223.116,298.196,264.09,283.915,294.728
			L283.915,294.728z"/>
	</g>
</g>
<g>
</g>
<g>
</g>
<g>
</g>
<g>
</g>
<g>
</g>
<g>
</g>
<g>
</g>
<g>
</g>
<g>
</g>
<g>
</g>
<g>
</g>
<g>
</g>
<g>
</g>
<g>
</g>
<g>
</g>
</svg>
