<?xml version="1.0" encoding="iso-8859-1"?>
<!-- Generator: Adobe Illustrator 19.0.0, SVG Export Plug-In . SVG Version: 6.00 Build 0)  -->
<svg version="1.1" id="Capa_1" xmlns="http://www.w3.org/2000/svg" xmlns:xlink="http://www.w3.org/1999/xlink" x="0px" y="0px"
	 viewBox="0 0 452.014 452.014" style="enable-background:new 0 0 452.014 452.014;" xml:space="preserve">
<g>
	<g>
		<path style="fill:#00EFD1;" d="M441.57,205.787v76.25c0.001,8.648-7.008,15.659-15.656,15.66c-0.001,0-0.003,0-0.004,0h-23.43
			c-3.72-22.793-25.213-38.254-48.005-34.535c-17.737,2.895-31.64,16.798-34.535,34.535h-31.49v-120.87h109.69l33.95,14.57
			C437.842,193.868,441.569,199.527,441.57,205.787z"/>
		<g>
			<path style="fill:#D4E1F4;" d="M319.94,297.697c3.701-22.809,25.191-38.3,48.001-34.599c22.809,3.701,38.3,25.191,34.599,48.001
				c-3.701,22.809-25.191,38.3-48.001,34.599c-20.245-3.285-35.125-20.76-35.139-41.271
				C319.398,302.173,319.579,299.922,319.94,297.697z"/>
			<path style="fill:#D4E1F4;" d="M366.13,114.727l32.01,62.1H288.45v-54.93c0.003-8.648,7.012-15.657,15.66-15.66h48.1
				C358.073,106.241,363.443,109.516,366.13,114.727z"/>
		</g>
		<path style="fill:#00CEB4;" d="M288.45,213.717v83.98H137.09c-3.72-22.793-25.213-38.256-48.006-34.536
			c-17.848,2.913-31.801,16.968-34.584,34.836l-1.84-0.3H26.09c-8.648,0.001-15.659-7.008-15.66-15.656c0-0.001,0-0.003,0-0.004
			v-52.66c-0.001-8.648,7.008-15.659,15.656-15.66c0.001,0,0.003,0,0.004,0L288.45,213.717L288.45,213.717z"/>
		<path style="fill:#D4E1F4;" d="M137.09,297.697c3.713,22.792-11.754,44.278-34.545,47.991
			c-22.792,3.713-44.278-11.754-47.991-34.545c-0.362-2.22-0.544-4.466-0.544-6.716c0.001-2.153,0.164-4.302,0.49-6.43
			c3.554-22.82,24.934-38.438,47.754-34.884C120.122,265.896,134.177,279.849,137.09,297.697L137.09,297.697z"/>
	</g>
	<path style="fill:#083863;" d="M436.249,182.208l-30.758-13.155l-30.422-58.916c-4.41-8.554-13.236-13.92-22.859-13.9h-48.1
		c-14.149,0-26.11,11.511-26.11,25.66v81.34H26.09C11.748,203.444,0.179,215.035,0,229.377v52.66c0,14.149,11.941,25.2,26.09,25.2
		h18.034c1.694,28,24.227,48.54,51.7,48.54s50-20.54,51.7-48.54h162c1.694,28,24.227,48.54,51.7,48.54s50-20.54,51.7-48.54h13
		c14.149,0,26.09-11.051,26.09-25.2v-76.25C451.929,195.487,445.735,186.222,436.249,182.208z M304.11,116.237h48.1
		c2.153,0.082,4.086,1.341,5.031,3.277l24.494,47.723H298v-45.34C298,118.776,300.989,116.237,304.11,116.237z M95.82,336.237
		c-17.56-0.02-31.79-14.25-31.81-31.81c0.001-1.643,0.126-3.284,0.374-4.908c2.493-15.446,15.79-26.824,31.436-26.9
		c17.568,0.005,31.806,14.251,31.8,31.82c-0.005,17.561-14.24,31.795-31.8,31.8L95.82,336.237z M95.82,252.387
		c-12.429-0.042-24.457,4.396-33.88,12.5c-6.817,6.089-12.025,13.766-15.163,22.35H26.09c-3.121,0-6.09-2.079-6.09-5.2v-52.66
		c0.166-3.301,2.791-5.947,6.09-6.14H278v64H144.871C137.494,266.448,117.879,252.511,95.82,252.387z M361.21,336.237
		c-17.586-0.02-31.827-14.293-31.807-31.879c0.002-1.688,0.138-3.373,0.407-5.039v-0.024c2.833-17.34,19.186-29.1,36.526-26.268
		c17.34,2.833,29.1,19.186,26.268,36.526C390.09,324.938,376.799,336.235,361.21,336.237z M432,282.037c0,3.121-2.969,5.2-6.09,5.2
		h-15.649c-7-20-26.437-35.08-49.051-35.08s-42.048,15.08-49.051,35.08H298v-100h98.085l32.273,13.554
		c2.111,0.78,3.547,2.752,3.642,5V282.037z"/>
</g>
<g>
</g>
<g>
</g>
<g>
</g>
<g>
</g>
<g>
</g>
<g>
</g>
<g>
</g>
<g>
</g>
<g>
</g>
<g>
</g>
<g>
</g>
<g>
</g>
<g>
</g>
<g>
</g>
<g>
</g>
</svg>
