<?xml version="1.0" encoding="iso-8859-1"?>
<!-- Generator: Adobe Illustrator 19.0.0, SVG Export Plug-In . SVG Version: 6.00 Build 0)  -->
<svg version="1.1" id="Capa_1" xmlns="http://www.w3.org/2000/svg" xmlns:xlink="http://www.w3.org/1999/xlink" x="0px" y="0px"
	 viewBox="0 0 496.001 496.001" style="enable-background:new 0 0 496.001 496.001;" xml:space="preserve">
<g>
	<g>
		<path style="fill:#00EFD1;" d="M486.33,274.405v75.77c0.001,8.592-6.964,15.559-15.556,15.56c-0.001,0-0.003,0-0.004,0h-23.29
			c-3.694-22.646-25.048-38.01-47.694-34.316c-17.625,2.875-31.441,16.691-34.316,34.316h-31.3v-120.11h109l33.74,14.48
			C482.627,262.559,486.332,268.183,486.33,274.405z"/>
		<g>
			<path style="fill:#D4E1F4;" d="M365.47,365.735c3.694-22.646,25.048-38.01,47.694-34.316
				c17.625,2.875,31.441,16.691,34.316,34.316c0.363,2.211,0.543,4.449,0.54,6.69c0,22.945-18.6,41.545-41.545,41.545
				c-22.945,0-41.545-18.6-41.545-41.545C364.927,370.184,365.107,367.946,365.47,365.735z"/>
			<path style="fill:#D4E1F4;" d="M411.36,183.915l31.81,61.71h-109v-54.58c-0.001-8.599,6.969-15.569,15.568-15.57
				c0.001,0,0.001,0,0.002,0h47.79C403.356,175.479,408.692,178.736,411.36,183.915z"/>
		</g>
		<path style="fill:#00CEB4;" d="M334.17,282.285v83.45H152.63c-3.694-22.647-25.048-38.012-47.695-34.318
			c-17.736,2.893-31.602,16.861-34.365,34.618l-1.84-0.3h-26.4c-8.589,0.004-15.556-6.955-15.56-15.544c0-0.005,0-0.011,0-0.016
			v-52.33c-0.004-8.589,6.955-15.556,15.544-15.56c0.005,0,0.011,0,0.016,0H334.17z"/>
		<path style="fill:#00EFD1;" d="M280.79,184.195v14.69c0,10.14-8.22,18.36-18.36,18.36l0,0h-9.49l-0.09-0.01
			c0.06-0.7,0.09-1.41,0.09-2.13c0-14.533-11.782-26.315-26.315-26.315s-26.315,11.782-26.315,26.315l0,0
			c0,0.72,0.03,1.43,0.09,2.13l-0.09,0.01h-70.37v-63.64h87.81l0.02-0.13c0.706,0.089,1.418,0.132,2.13,0.13h30.29
			C267.086,153.605,280.784,167.299,280.79,184.195z"/>
		<g>
			<path style="fill:#D4E1F4;" d="M252.94,215.105c0,0.72-0.03,1.43-0.09,2.13c-1.174,14.484-13.867,25.273-28.351,24.099
				c-12.854-1.042-23.058-11.246-24.099-24.099c-0.06-0.7-0.09-1.41-0.09-2.13c-0.01-14.533,11.764-26.323,26.298-26.332
				s26.323,11.764,26.332,26.298C252.94,215.082,252.94,215.093,252.94,215.105z"/>
			<path style="fill:#D4E1F4;" d="M217.77,153.475l-0.02,0.13h-87.81v-47.74h29.36c5.083,0.002,9.938,2.109,13.41,5.82l33.79,36.1
				C209.464,150.957,213.458,152.973,217.77,153.475z"/>
			<path style="fill:#D4E1F4;" d="M152.63,365.735c0.363,2.211,0.543,4.449,0.54,6.69c0,22.945-18.6,41.545-41.545,41.545
				s-41.545-18.6-41.545-41.545c0.001-2.139,0.164-4.276,0.49-6.39c3.528-22.673,24.769-38.194,47.442-34.665
				C135.769,334.133,149.737,347.999,152.63,365.735z"/>
		</g>
		<path style="fill:#00CEB4;" d="M129.94,214.975v2.27H92l-0.09-0.01c0.06-0.7,0.09-1.41,0.09-2.13
			c0-14.533-11.782-26.315-26.315-26.315S39.37,200.571,39.37,215.105c0,0.72,0.03,1.43,0.09,2.13l-0.09,0.01h-9.18
			c-10.14,0-18.36-8.22-18.36-18.36v-37.31c-0.002-2.76,0.62-5.485,1.82-7.97h116.29V214.975z"/>
		<g>
			<polygon style="fill:#D4E1F4;" points="129.94,105.865 129.94,153.605 72.72,153.605 94.75,106.175 94.75,105.865 			"/>
			<path style="fill:#D4E1F4;" d="M94.75,105.865v0.31l-22.03,47.43H13.65c0.988-2.049,2.348-3.897,4.01-5.45l39.98-37.34
				c3.398-3.179,7.877-4.949,12.53-4.95C70.17,105.865,94.75,105.865,94.75,105.865z"/>
			<path style="fill:#D4E1F4;" d="M92,215.105c0,0.72-0.03,1.43-0.09,2.13c-1.174,14.484-13.867,25.273-28.351,24.099
				c-12.854-1.042-23.058-11.246-24.099-24.099c-0.06-0.7-0.09-1.41-0.09-2.13c-0.005-14.533,11.772-26.319,26.305-26.325
				c14.533-0.005,26.319,11.772,26.325,26.305C92,215.092,92,215.098,92,215.105z"/>
		</g>
	</g>
	<g>
		<path style="fill:#083863;" d="M480.689,250.916l-30.358-13.064l-30.124-58.567c-4.343-8.529-13.105-13.9-22.677-13.9h-47.79
			c-14.166,0.045-25.651,11.494-25.74,25.66v81.34H42.33C28.353,272.372,17.012,283.693,17,297.67c0,0.058,0,0.116,0,0.174v52.33
			c-0.061,13.862,11.126,25.149,24.989,25.211c0.114,0,0.228,0,0.341-0.001H60.2c1.825,28.402,26.328,49.948,54.731,48.123
			c25.858-1.661,46.462-22.265,48.123-48.123h192c1.859,28.4,26.388,49.916,54.788,48.058c25.81-1.689,46.369-22.248,48.058-48.058
			h12.87c13.813,0.121,25.108-10.978,25.23-24.79c0.001-0.14,0.001-0.28,0-0.42v-75.77
			C496.077,264.211,490.047,254.96,480.689,250.916z M349.74,185.385h47.79c2.072-0.032,3.985,1.109,4.941,2.947l24.294,47.053H344
			v-44.34C344.075,187.92,346.614,185.416,349.74,185.385z M111.62,403.965c-17.411-0.02-31.52-14.129-31.54-31.54
			c0.001-1.629,0.126-3.256,0.373-4.866c2.469-15.318,15.652-26.604,31.167-26.684c17.422-0.006,31.55,14.112,31.556,31.534
			c0.006,17.422-14.112,31.55-31.534,31.556C111.635,403.965,111.628,403.965,111.62,403.965z M111.62,320.7
			c-12.368-0.033-24.335,4.392-33.706,12.464c-6.781,6.048-11.957,13.683-15.064,22.221H42.33c-2.804,0.137-5.189-2.026-5.326-4.83
			c-0.006-0.126-0.008-0.253-0.004-0.38v-52.33c-0.095-2.919,2.196-5.363,5.115-5.457c0.072-0.002,0.143-0.003,0.215-0.003H324v63
			H160.411C153.11,334.675,133.579,320.791,111.62,320.7z M406.48,403.965c-17.414-0.017-31.527-14.126-31.55-31.54
			c-0.002-1.695,0.134-3.388,0.406-5.061l0.006-0.036c2.812-17.194,19.03-28.853,36.224-26.041
			c17.194,2.812,28.853,19.03,26.041,36.224C435.113,392.763,421.935,403.962,406.48,403.965z M476,350.175
			c0.119,2.759-2.021,5.092-4.78,5.211c-0.15,0.006-0.3,0.006-0.45-0.001h-15.509c-6.971-20-26.293-34.86-48.781-34.86
			s-41.819,14.86-48.791,34.86H344v-100h97.115l31.685,13.79c2.015,0.948,3.274,3.004,3.2,5.23V350.175z"/>
		<path style="fill:#083863;" d="M305,207.385c-5.523,0-10,4.477-10,10v33h-59.831c11.783-3.04,21.353-11.618,25.66-23h1.6
			c15.724-0.066,28.466-12.776,28.571-28.5v-14.69c-0.109-22.493-18.317-40.701-40.81-40.81H219.9c-0.317,0-0.6,0.094-0.85,0.062
			c-0.041-0.005-0.081,0.045-0.122,0.04c-1.959-0.218-3.777-1.127-5.127-2.563L180.013,104.6
			c-5.346-5.786-12.836-9.118-20.713-9.215H153v-3h6.01c5.523,0,10-4.477,10-10s-4.477-10-10-10H70.88c-5.523,0-10,4.477-10,10
			s4.477,10,10,10H76v3h-5.83c-7.218,0.08-14.136,2.897-19.356,7.882l-39.981,37.461c-1.513,1.445-2.863,3.051-4.027,4.789
			c-2.552,1.892-4.056,4.881-4.056,8.058c0,0.243,0.1,0.5,0.121,0.733c-0.601,2.375-0.894,4.817-0.871,7.267v37.31
			c-0.074,15.65,12.54,28.403,28.19,28.5h1.291c4.307,11.382,13.877,19.96,25.661,23H10c-5.523,0-10,4.477-10,10
			c0,5.523,4.477,10,10,10h295c5.523,0,10-4.477,10-10v-43C315,211.862,310.523,207.385,305,207.385z M242.882,216.44
			c-0.737,8.979-8.614,15.66-17.592,14.922c-7.976-0.655-14.299-6.999-14.927-14.977c-0.035-0.413-0.053-0.843-0.053-1.276
			c0-9.011,7.304-16.315,16.315-16.315s16.315,7.304,16.315,16.315c0,0.433-0.018,0.863-0.053,1.276L242.882,216.44z M271,184.195
			v14.69c-0.093,4.683-3.887,8.446-8.57,8.5h-0.356c-4.331-19.578-23.713-31.939-43.292-27.608
			c-13.789,3.05-24.558,13.819-27.608,27.608H140v-44h77.75c0.272,0,0.539-0.019,0.805-0.041c0.445,0.022,0.891,0.041,1.345,0.041
			h30.29C261.643,163.482,270.903,172.742,271,184.195z M165.409,118.168l23.482,25.217H140v-28h19.3
			C161.631,115.438,163.839,116.444,165.409,118.168z M101.275,115.385H120v28H88.391L101.275,115.385z M96,92.385h37v3H96V92.385z
			 M64.471,117.768c1.531-1.485,3.567-2.336,5.699-2.383h9.053l-12.884,28H37.182L64.471,117.768z M22,198.885v-35.5h50.668h0.046
			h0.034H120v44h-18.866c-4.331-19.578-23.713-31.939-43.292-27.608c-13.789,3.05-24.558,13.819-27.608,27.608H30.19
			C25.581,207.299,21.915,203.494,22,198.885z M49.424,216.385c-0.036-0.414-0.054-0.844-0.054-1.277
			c0-9.011,7.304-16.315,16.315-16.315S82,206.097,82,215.108c0,0.433-0.018,0.863-0.054,1.277v0.058
			c-0.728,8.979-8.597,15.669-17.576,14.941C56.379,230.736,50.043,224.378,49.424,216.385z M99.888,227.385h92.534
			c4.308,11.383,13.881,19.961,25.667,23H74.221C86.006,247.346,95.579,238.768,99.888,227.385z"/>
	</g>
</g>
<g>
</g>
<g>
</g>
<g>
</g>
<g>
</g>
<g>
</g>
<g>
</g>
<g>
</g>
<g>
</g>
<g>
</g>
<g>
</g>
<g>
</g>
<g>
</g>
<g>
</g>
<g>
</g>
<g>
</g>
</svg>
