<?xml version="1.0" encoding="iso-8859-1"?>
<!-- Generator: Adobe Illustrator 19.0.0, SVG Export Plug-In . SVG Version: 6.00 Build 0)  -->
<svg version="1.1" id="Capa_1" xmlns="http://www.w3.org/2000/svg" xmlns:xlink="http://www.w3.org/1999/xlink" x="0px" y="0px"
	 viewBox="0 0 500.002 500.002" style="enable-background:new 0 0 500.002 500.002;" xml:space="preserve">
<g>
	<g>
		<path style="fill:#00EFD1;" d="M490.481,268.086v75.78c-0.004,8.596-6.974,15.562-15.57,15.56h-23.28
			c-3.694-22.649-25.05-38.015-47.699-34.321c-17.627,2.875-31.445,16.693-34.321,34.321h-31.29v-120.11h108.99l33.74,14.47
			C486.769,256.24,490.477,261.863,490.481,268.086z"/>
		<g>
			<path style="fill:#D4E1F4;" d="M369.611,359.426c3.694-22.649,25.05-38.015,47.699-34.321
				c17.627,2.875,31.445,16.693,34.321,34.321c0.362,2.208,0.543,4.442,0.54,6.68c0,22.947-18.603,41.55-41.55,41.55
				c-22.947,0-41.55-18.603-41.55-41.55C369.068,363.868,369.249,361.634,369.611,359.426z"/>
			<path style="fill:#D4E1F4;" d="M415.511,177.596l31.8,61.72h-108.99v-54.59c0.003-8.592,6.968-15.557,15.56-15.56h47.79
				C407.497,169.168,412.836,172.42,415.511,177.596z"/>
		</g>
		<g>
			<path style="fill:#00CEB4;" d="M338.321,275.966v83.46h-181.54c-3.697-22.65-25.055-38.014-47.705-34.317
				c-17.687,2.887-31.531,16.788-34.345,34.487l-1.04-0.17h-27.22c-8.592-0.003-15.557-6.968-15.56-15.56v-52.34
				c0.003-8.592,6.968-15.557,15.56-15.56L338.321,275.966L338.321,275.966z"/>
			<path style="fill:#00CEB4;" d="M283.621,172.716v17.29c0.004,11.301-9.153,20.466-20.454,20.47c-0.002,0-0.004,0-0.006,0h-8.98
				c0.077-0.794,0.113-1.592,0.11-2.39c-0.006-15.26-12.381-27.625-27.641-27.619c-15.251,0.006-27.613,12.368-27.619,27.619
				c-0.004,0.788,0.033,1.576,0.11,2.36l-0.45,0.03H97.871l-0.45-0.03c0.077-0.784,0.114-1.572,0.11-2.36
				c-0.002-15.26-12.374-27.628-27.634-27.626c-15.256,0.002-27.624,12.369-27.626,27.626c0,0.76,0.03,1.51,0.1,2.26l-1.81,0.13
				h-10.57c-11.305,0-20.47-9.165-20.47-20.47l0,0v-19.73c0-8.028,4.692-15.316,12-18.64l25.52-11.6l22-35.12
				c4.992-7.964,13.731-12.8,23.13-12.8h79.02c8.514,0.004,16.539,3.979,21.7,10.75l28.31,37.17l47.35,12.94
				C277.449,155.407,283.621,163.491,283.621,172.716z"/>
		</g>
		<g>
			<path style="fill:#D4E1F4;" d="M254.181,210.476c-1.318,15.198-14.707,26.45-29.905,25.132
				c-13.382-1.161-23.989-11.779-25.135-25.162c-0.077-0.784-0.114-1.572-0.11-2.36c0.006-15.26,12.381-27.625,27.641-27.619
				c15.251,0.006,27.613,12.368,27.619,27.619C254.294,208.884,254.257,209.682,254.181,210.476z"/>
			<path style="fill:#D4E1F4;" d="M156.781,359.426c0.362,2.208,0.543,4.442,0.54,6.68c-0.002,22.94-18.6,41.534-41.54,41.532
				c-22.94-0.002-41.534-18.6-41.532-41.54s18.6-41.534,41.54-41.532C136.15,324.568,153.508,339.329,156.781,359.426z"/>
			<path style="fill:#D4E1F4;" d="M97.531,208.086c0.004,0.788-0.033,1.576-0.11,2.36c-1.298,15.199-14.672,26.469-29.871,25.17
				c-13.437-1.148-24.08-11.83-25.179-25.27c-0.07-0.75-0.1-1.5-0.1-2.26c0.002-15.26,12.374-27.628,27.634-27.626
				C85.161,180.462,97.528,192.829,97.531,208.086z"/>
		</g>
	</g>
	<g>
		<path style="fill:#083863;" d="M484.752,244.595l-30.317-13.053l-30.1-58.675c-4.332-8.544-13.084-13.943-22.664-13.981h-47.79
			c-14.228,0.119-25.739,11.612-25.88,25.84v81.16H46.471c-14.108,0.061-25.503,11.532-25.47,25.64v52.34
			c0,14.094,11.376,26.02,25.47,26.02h17.868c1.719,26,24.123,48.23,51.432,48.23s49.713-22.23,51.43-48.23h191.988
			c1.719,26,24.123,48.23,51.432,48.23s49.713-22.23,51.432-48.23h12.858c14.1,0,25.09-11.926,25.09-26.02v-75.78
			C500.101,257.902,494.094,248.649,484.752,244.595z M353.881,178.886h47.79c2.072-0.035,3.987,1.1,4.951,2.935l24.288,47.065
			h-82.909v-44.16C348.131,181.541,350.695,178.995,353.881,178.886z M115.771,397.656c-17.417-0.019-31.531-14.133-31.55-31.55
			c-0.002-1.65,0.126-3.297,0.384-4.927v-0.03c2.737-17.209,18.906-28.94,36.115-26.203s28.94,18.906,26.203,36.115
			C144.487,386.378,131.28,397.653,115.771,397.656z M115.771,315.026c-22.527,0-41.833,13.86-48.8,34.86h-20.5
			c-3.07,0-5.47-2.954-5.47-6.02v-52.34c-0.045-3.067,2.403-5.591,5.47-5.64h281.53v64H164.562
			C157.589,328.886,138.263,315.026,115.771,315.026L115.771,315.026z M410.621,397.656c-17.417-0.019-31.531-14.133-31.55-31.55
			c-0.002-1.692,0.134-3.381,0.406-5.051l0.006-0.035c2.809-17.197,19.027-28.86,36.223-26.051
			c17.197,2.809,28.86,19.027,26.051,36.223C439.265,386.451,426.082,397.656,410.621,397.656z M480.001,343.866
			c0,3.066-2.019,6.02-5.09,6.02h-15.5c-6.973-21-26.3-34.86-48.791-34.86s-41.819,13.86-48.789,34.86h-13.83v-101h97.256
			l31.6,13.871c2.011,0.997,3.244,3.087,3.144,5.329V343.866z"/>
		<path style="fill:#083863;" d="M312.001,198.886c-5.523,0-10,4.477-10,10v32h-57.02c7.833-4.523,13.895-11.576,17.189-20h0.991
			c16.971-0.184,30.678-13.908,30.84-30.88v-17.29c-0.104-13.759-9.349-25.768-22.624-29.387l-44.176-12.043l-26.309-34.6
			c-7.08-9.26-18.045-14.723-29.701-14.8h-79.02c-12.871,0.006-24.825,6.665-31.605,17.606l-20.4,32.628l-22.551,10.387
			c-10.807,5.003-17.694,15.86-17.614,27.769v19.73c0,16.801,13.189,30.88,29.99,30.88h4.4c3.287,8.423,9.344,15.477,17.173,20
			H17.001c-5.523,0-10,4.477-10,10c0,5.523,4.477,10,10,10h295c5.523,0,10-4.477,10-10v-42
			C322.001,203.363,317.524,198.886,312.001,198.886z M209.031,208.086c0.004-9.737,7.901-17.627,17.638-17.622
			c9.731,0.004,17.618,7.892,17.622,17.622c0.003,0.462-0.016,0.923-0.059,1.383c-0.006,0.054-0.011,0.107-0.015,0.161
			c-0.851,9.695-9.4,16.865-19.095,16.014c-8.524-0.748-15.279-7.511-16.016-16.036c0-0.06-0.011-0.121-0.017-0.181
			C209.047,208.981,209.027,208.534,209.031,208.086z M33.045,200.886h-3.054c-5.773,0-9.99-5.107-9.99-10.88v-19.73
			c-0.09-4.065,2.222-7.802,5.9-9.536l25.4-11.6c1.77-0.814,3.258-2.135,4.277-3.795l21.968-35.232
			c3.124-5.087,8.655-8.198,14.625-8.227h79.02c5.405,0.06,10.479,2.616,13.745,6.924l28.31,37.227
			c1.329,1.756,3.198,3.027,5.319,3.617l47.542,12.954c4.587,1.237,7.805,5.357,7.894,10.108v17.29
			c-0.095,5.674-4.628,10.274-10.3,10.452c-3.704-17.43-19.128-29.871-36.947-29.8c-18.024-0.236-33.611,12.515-36.953,30.228
			h-83.044c-3.529-18-18.713-30.02-36.856-30.02S36.574,182.886,33.045,200.886z M87.531,208.086
			c0.003,0.448-0.016,0.895-0.058,1.341c-0.006,0.06-0.012,0.121-0.017,0.181c-0.836,9.696-9.374,16.878-19.069,16.042
			c-8.56-0.738-15.34-7.542-16.048-16.104c0-0.043-0.007-0.086-0.011-0.129c-0.038-0.409-0.057-0.844-0.057-1.331
			c0-9.737,7.893-17.63,17.63-17.63S87.531,198.349,87.531,208.086L87.531,208.086L87.531,208.086z M105.406,220.886h85.75
			c3.294,8.423,9.354,15.476,17.185,20H88.221C96.052,236.362,102.112,229.309,105.406,220.886z"/>
	</g>
</g>
<g>
</g>
<g>
</g>
<g>
</g>
<g>
</g>
<g>
</g>
<g>
</g>
<g>
</g>
<g>
</g>
<g>
</g>
<g>
</g>
<g>
</g>
<g>
</g>
<g>
</g>
<g>
</g>
<g>
</g>
</svg>
