<?xml version="1.0" encoding="iso-8859-1"?>
<!-- Generator: Adobe Illustrator 19.0.0, SVG Export Plug-In . SVG Version: 6.00 Build 0)  -->
<svg version="1.1" id="Capa_1" xmlns="http://www.w3.org/2000/svg" xmlns:xlink="http://www.w3.org/1999/xlink" x="0px" y="0px"
	 viewBox="0 0 467.582 467.582" style="enable-background:new 0 0 467.582 467.582;" xml:space="preserve">
<g>
	<g>
		<path style="fill:#00ACEA;" d="M413.55,207.261c2.54,17.448,2.547,35.171,0.02,52.62l-1.63-0.24h-128l-0.55-0.29
			c8.309-15.998,8.376-35.024,0.18-51.08l2.37-0.63h125L413.55,207.261z"/>
		<g>
			<path style="fill:#00EFD1;" d="M54.27,259.641C68.63,360.034,161.655,429.778,262.048,415.419
				c100.393-14.359,170.137-107.385,155.778-207.778S310.441,37.503,210.048,51.863C119.598,64.8,52.42,142.27,52.42,233.641
				C52.413,242.341,53.031,251.03,54.27,259.641z M233.94,9.701c123.68,0,223.94,100.26,223.94,223.94s-100.26,223.94-223.94,223.94
				S10,357.321,10,233.641S110.26,9.701,233.94,9.701z"/>
			<path style="fill:#00EFD1;" d="M283.57,208.271c13.998,27.397,3.137,60.954-24.26,74.952
				c-27.397,13.998-60.954,3.137-74.952-24.26c-13.998-27.397-3.137-60.954,24.26-74.952c15.918-8.133,34.773-8.133,50.692,0
				C269.758,189.33,278.251,197.823,283.57,208.271z"/>
		</g>
		<g>
			<path style="fill:#00ACEA;" d="M263.83,54.571l-0.2,2.08l-1.57,126.86l-2.75,0.5c-16.784-8.566-36.758-8.084-53.11,1.28
				l-0.03-1.34l-0.73-127.55l-0.32-2C224.572,51.305,244.396,51.362,263.83,54.571L263.83,54.571z"/>
			<path style="fill:#00ACEA;" d="M183.94,207.641l0.55,0.29c-8.373,16.117-8.373,35.303,0,51.42l-0.55,0.29H54.27
				c-2.467-17.246-2.467-34.754,0-52H183.94z"/>
		</g>
	</g>
	<g>
		<path style="fill:#083863;" d="M233.94,467.581C104.738,467.58,0,362.84,0.001,233.638c0-62.044,24.647-121.547,68.518-165.418
			c91.525-91.194,239.648-90.925,330.842,0.6c90.96,91.29,90.96,238.951,0,330.242C355.585,443.078,296.019,467.75,233.94,467.581z
			 M233.94,19.701C115.784,19.701,20,115.487,20,233.643c0,56.74,22.54,111.155,62.661,151.277
			c83.66,83.438,219.12,83.258,302.558-0.403c83.281-83.503,83.281-218.653,0-302.155C345.185,42.109,290.711,19.545,233.94,19.701z
			"/>
		<path style="fill:#083863;" d="M423.445,205.813c-12.118-82.296-75.938-147.379-157.981-161.108
			c-20.498-3.368-41.403-3.429-61.92-0.179c-81.754,13.169-145.8,77.362-158.781,159.146c-0.544,1.252-0.824,2.604-0.823,3.969
			c0.003,0.401,0.029,0.802,0.079,1.2c-2.132,16.465-2.132,33.135,0,49.6c-0.05,0.398-0.076,0.799-0.079,1.2
			c-0.001,1.37,0.282,2.725,0.829,3.981c16.588,104.473,114.727,175.718,219.2,159.13
			C367.562,406.304,438.655,309.594,423.445,205.813z M297.687,249.641c2.635-10.503,2.644-21.493,0.026-32h107.005
			c0.492,5.3,0.742,10.656,0.742,16s-0.275,10.7-0.766,16H297.687z M63.187,249.641c-0.49-5.308-0.764-10.659-0.764-16
			s0.274-10.692,0.764-16h107.006c-2.644,10.503-2.644,21.497,0,32H63.187z M193.36,254.727c-6.866-13.222-6.866-28.96,0-42.182
			c7.861-15.149,23.513-24.65,40.58-24.634c7.239-0.024,14.378,1.69,20.816,5c8.55,4.4,15.511,11.361,19.911,19.911v0.007
			c11.57,22.454,2.747,50.036-19.706,61.607c-22.454,11.57-50.036,2.747-61.607-19.707l0,0L193.36,254.727z M401.67,197.641H288.922
			c-4.487-6.814-10.189-12.746-16.82-17.5l1.4-113.435C337.879,82.019,387.735,132.951,401.67,197.641z M253.548,63.241
			l-1.328,107.27c-11.793-3.422-24.31-3.465-36.127-0.125l-0.614-107.271C228.135,61.75,240.902,61.792,253.548,63.241z
			 M111.748,113.275c22.842-23.323,51.915-39.579,83.747-46.825l0.65,113.415c-6.807,4.782-12.644,10.815-17.199,17.776H66.206
			c6.772-31.91,22.582-61.197,45.544-84.367L111.748,113.275z M346.666,362.919c-71.425,62.257-179.796,54.826-242.054-16.6
			c-19.086-21.896-32.3-48.28-38.403-76.678H178.94c19.881,30.376,60.622,38.883,90.998,19.002
			c7.575-4.958,14.044-11.427,19.002-19.002h112.728C393.884,305.856,374.589,338.579,346.666,362.919z"/>
	</g>
</g>
<g>
</g>
<g>
</g>
<g>
</g>
<g>
</g>
<g>
</g>
<g>
</g>
<g>
</g>
<g>
</g>
<g>
</g>
<g>
</g>
<g>
</g>
<g>
</g>
<g>
</g>
<g>
</g>
<g>
</g>
</svg>
