<?xml version="1.0" encoding="iso-8859-1"?>
<!-- Generator: Adobe Illustrator 19.0.0, SVG Export Plug-In . SVG Version: 6.00 Build 0)  -->
<svg version="1.1" id="Capa_1" xmlns="http://www.w3.org/2000/svg" xmlns:xlink="http://www.w3.org/1999/xlink" x="0px" y="0px"
	 viewBox="0 0 467.582 467.582" style="enable-background:new 0 0 467.582 467.582;" xml:space="preserve">
<g>
	<g>
		<path style="fill:#00ACEA;" d="M406.91,212.071c1.76,14.326,1.76,28.814,0,43.14h-0.01l-1.91-0.23H302.67v-42.68h102.32l1.91-0.23
			L406.91,212.071z"/>
		<g>
			<path style="fill:#00EFD1;" d="M233.94,9.701c123.68,0,223.94,100.26,223.94,223.94s-100.26,223.94-223.94,223.94
				S10,357.321,10,233.641S110.26,9.701,233.94,9.701z M408.23,233.641c0.001-7.21-0.44-14.414-1.32-21.57h-0.01
				c-11.913-95.518-99.002-163.293-194.52-151.38S49.087,159.693,61,255.211s99.002,163.293,194.52,151.38
				c79.156-9.872,141.508-72.224,151.38-151.38h0.01C407.79,248.055,408.231,240.851,408.23,233.641z"/>
			<path style="fill:#00EFD1;" d="M302.67,254.981v11.31c-0.001,11.531-9.349,20.879-20.88,20.88h-95.7
				c-11.531-0.001-20.879-9.349-20.88-20.88v-65.3c0.001-11.531,9.349-20.879,20.88-20.88h95.7
				c11.531,0.001,20.879,9.349,20.88,20.88V254.981z"/>
		</g>
		<path style="fill:#00ACEA;" d="M165.21,212.301v42.68H63.89l-2.9,0.34c-1.787-14.398-1.787-28.962,0-43.36l2.9,0.34
			L165.21,212.301L165.21,212.301z"/>
	</g>
	<g>
		<path style="fill:#083863;" d="M233.94,467.581C104.738,467.58,0,362.84,0.001,233.638c0-62.044,24.647-121.547,68.518-165.418
			c91.525-91.194,239.648-90.925,330.842,0.6c90.96,91.29,90.96,238.951,0,330.242C355.585,443.078,296.019,467.75,233.94,467.581z
			 M233.94,19.701C115.784,19.701,20,115.487,20,233.643c0,56.74,22.54,111.155,62.661,151.277
			c83.66,83.438,219.12,83.258,302.558-0.403c83.281-83.503,83.281-218.653,0-302.155C345.185,42.109,290.711,19.545,233.94,19.701z
			"/>
		<path style="fill:#083863;" d="M416.84,210.849c-0.019-0.152-0.041-0.3-0.067-0.453C405.208,118.555,326.689,49.351,233.94,49.351
			c-92.845,0-171.464,69.378-182.873,161.367c-1.889,15.22-1.889,30.614,0,45.834c11.41,92,90.029,161.379,182.874,161.379
			c92.749,0,171.268-69.2,182.828-161.044c0.026-0.151,0.048-0.3,0.067-0.454c1.86-15.138,1.86-30.446,0-45.584H416.84z
			 M312.94,244.641v-22h84.889c0.257,3,0.4,7.227,0.4,11c0,3.773-0.144,8-0.4,11H312.94z M233.94,69.691
			c78.707-0.14,146.411,55.664,161.3,132.95h-82.3v-1.65c0-17.027-14.123-31.35-31.15-31.35h-95.7
			c-17.027,0-31.15,14.323-31.15,31.35v1.65h-82.3C87.536,125.359,155.236,69.558,233.94,69.691z M291.94,265.761
			c-0.001,6.009-4.872,10.88-10.881,10.88h-95.238c-6.009,0-10.88-4.871-10.881-10.88v-65.24c0.001-6.009,4.872-10.88,10.881-10.88
			h95.238c6.009,0,10.88,4.871,10.881,10.88V265.761z M70.048,244.641c-0.256-3-0.4-7.208-0.4-11s0.142-8,0.4-11h84.892v22H70.048z
			 M233.94,397.591c-78.704,0.132-146.403-55.668-161.3-132.95h82.3v1.65c0,17.027,14.123,31.35,31.15,31.35h95.7
			c17.027,0,31.15-14.323,31.15-31.35v-1.65h82.3C380.351,341.927,312.647,397.731,233.94,397.591z"/>
	</g>
</g>
<g>
</g>
<g>
</g>
<g>
</g>
<g>
</g>
<g>
</g>
<g>
</g>
<g>
</g>
<g>
</g>
<g>
</g>
<g>
</g>
<g>
</g>
<g>
</g>
<g>
</g>
<g>
</g>
<g>
</g>
</svg>
