<?xml version="1.0" encoding="iso-8859-1"?>
<!-- Generator: Adobe Illustrator 19.0.0, SVG Export Plug-In . SVG Version: 6.00 Build 0)  -->
<svg version="1.1" id="Capa_1" xmlns="http://www.w3.org/2000/svg" xmlns:xlink="http://www.w3.org/1999/xlink" x="0px" y="0px"
	 viewBox="0 0 458.447 458.447" style="enable-background:new 0 0 458.447 458.447;" xml:space="preserve">
<g>
	<g>
		<path style="fill:#00ACEA;" d="M229.224,10.204c120.96,0,219.02,98.06,219.02,219.02s-98.06,219.02-219.02,219.02
			s-219.02-98.06-219.02-219.02S108.264,10.204,229.224,10.204z M253.704,247.174c0-13.52-10.96-24.48-24.48-24.48
			c-13.52,0-24.48,10.96-24.48,24.48c0,13.52,10.96,24.48,24.48,24.48c0,0,0,0,0,0C242.744,271.654,253.704,260.693,253.704,247.174
			z"/>
		<circle style="fill:#00ACEA;" cx="229.224" cy="247.174" r="24.48"/>
	</g>
	<g>
		<path style="fill:#083863;" d="M239.224,214.177V105.074c0-5.523-4.477-10-10-10c-5.523,0-10,4.477-10,10v109.1
			c-18.224,5.523-28.521,24.774-22.998,42.998c5.523,18.224,24.774,28.521,42.998,22.998c18.224-5.523,28.521-24.774,22.998-42.998
			c-3.342-11.027-11.971-19.656-22.998-22.998V214.177z M229.224,261.654c-7.997,0-14.48-6.483-14.48-14.48
			c0-7.997,6.483-14.48,14.48-14.48c7.997,0,14.48,6.483,14.48,14.48C243.693,255.166,237.217,261.642,229.224,261.654z"/>
		<path style="fill:#083863;" d="M229.224,64.454c-5.523,0-10-4.477-10-10v-43.69c0-5.523,4.477-10,10-10c5.523,0,10,4.477,10,10
			v43.69C239.224,59.976,234.747,64.454,229.224,64.454z"/>
		<path style="fill:#083863;" d="M447.684,239.223h-43.69c-5.523,0-10-4.477-10-10c0-5.523,4.477-10,10-10h43.69
			c5.523,0,10,4.477,10,10C457.684,234.746,453.207,239.223,447.684,239.223z"/>
		<path style="fill:#083863;" d="M54.454,239.223h-43.69c-5.523,0-10-4.477-10-10c0-5.523,4.477-10,10-10h43.69
			c5.523,0,10,4.477,10,10C64.454,234.746,59.977,239.223,54.454,239.223z"/>
		<path style="fill:#083863;" d="M353.014,115.434c-5.523,0-10-4.477-10-10c0-2.652,1.054-5.196,2.929-7.071l30.809-30.81
			c3.905-3.905,10.237-3.906,14.143-0.001c3.905,3.905,3.906,10.237,0,14.143l-30.81,30.81
			C358.211,114.383,355.667,115.437,353.014,115.434z"/>
		<path style="fill:#083863;" d="M105.434,115.434c-2.653,0.004-5.198-1.05-7.071-2.929l-30.81-30.81
			c-3.888-3.922-3.86-10.254,0.062-14.142c3.898-3.864,10.182-3.864,14.08,0l30.81,30.81c3.905,3.905,3.905,10.237,0,14.142
			C110.63,114.38,108.086,115.433,105.434,115.434z"/>
		<path style="fill:#083863;" d="M391.164,67.283c-89.325-89.55-234.331-89.733-323.882-0.409s-89.733,234.331-0.409,323.882
			c0.136,0.137,0.273,0.273,0.409,0.409c89.325,89.55,234.331,89.733,323.882,0.409s89.733-234.331,0.409-323.882
			C391.437,67.555,391.301,67.419,391.164,67.283z M229.224,20.204c115.254,0,209.02,93.766,209.02,209.02
			c0.046,48.657-16.962,95.791-48.067,133.207c-79.229-88.896-215.522-96.733-304.419-17.504
			c-6.163,5.492-12.005,11.334-17.497,17.497c-31.1-37.416-48.104-84.547-48.057-133.2C20.204,113.97,113.97,20.204,229.224,20.204z
			 M81.834,377.286c71.029-81.408,194.604-89.821,276.012-18.792c6.678,5.827,12.953,12.101,18.781,18.779
			C295.177,458.562,163.292,458.568,81.834,377.286L81.834,377.286z"/>
	</g>
</g>
<g>
</g>
<g>
</g>
<g>
</g>
<g>
</g>
<g>
</g>
<g>
</g>
<g>
</g>
<g>
</g>
<g>
</g>
<g>
</g>
<g>
</g>
<g>
</g>
<g>
</g>
<g>
</g>
<g>
</g>
</svg>
