<?xml version="1.0" encoding="iso-8859-1"?>
<!-- Generator: Adobe Illustrator 19.0.0, SVG Export Plug-In . SVG Version: 6.00 Build 0)  -->
<svg version="1.1" id="Capa_1" xmlns="http://www.w3.org/2000/svg" xmlns:xlink="http://www.w3.org/1999/xlink" x="0px" y="0px"
	 viewBox="0 0 461.147 461.147" style="enable-background:new 0 0 461.147 461.147;" xml:space="preserve">
<g>
	<g>
		<path style="fill:#00EFD1;" d="M451.166,230.594c0.078,56.644-21.713,111.131-60.83,152.1l-1.07-1.01
			c-39.03-47.426-97.249-74.879-158.67-74.82c-62.96,0-120.32,29.3-158.04,73.87l-1.63,2.04
			c-39.159-40.979-60.977-95.499-60.9-152.18c0-121.82,98.75-220.57,220.57-220.57S451.166,108.774,451.166,230.594z
			 M252.466,230.594c0-12.078-9.792-21.87-21.87-21.87s-21.87,9.792-21.87,21.87c0,12.078,9.792,21.87,21.87,21.87c0,0,0,0,0,0
			c12.077,0.001,21.869-9.789,21.87-21.866C252.466,230.597,252.466,230.596,252.466,230.594z"/>
		<g>
			<path style="fill:#00ACEA;" d="M389.266,381.684l1.07,1.01c-84.007,88.224-223.627,91.642-311.851,7.635
				c-2.58-2.457-5.101-4.976-7.559-7.555l1.63-2.04c37.72-44.57,95.08-73.87,158.04-73.87
				C292.017,306.805,350.236,334.258,389.266,381.684z"/>
			<circle style="fill:#00ACEA;" cx="230.596" cy="230.594" r="21.87"/>
		</g>
	</g>
	<g>
		<path style="fill:#083863;" d="M230.596,132.124c-5.523,0-10-4.477-10-10v-60.21c0-5.523,4.477-10,10-10c5.523,0,10,4.477,10,10
			v60.21C240.596,127.647,236.119,132.124,230.596,132.124z"/>
		<path style="fill:#083863;" d="M399.276,240.594h-60.21c-5.523,0-10-4.477-10-10c0-5.523,4.477-10,10-10h60.21
			c5.523,0,10,4.477,10,10C409.276,236.117,404.799,240.594,399.276,240.594z"/>
		<path style="fill:#083863;" d="M122.126,240.594h-60.21c-5.523,0-10-4.477-10-10c0-5.523,4.477-10,10-10h60.21
			c5.523,0,10,4.477,10,10C132.126,236.117,127.649,240.594,122.126,240.594z"/>
		<path style="fill:#083863;" d="M154.146,164.144c-2.653,0.004-5.198-1.05-7.071-2.929l-43.01-43.01
			c-3.888-3.922-3.86-10.254,0.062-14.142c3.898-3.864,10.182-3.864,14.08,0l43.01,43.01c3.905,3.905,3.905,10.237,0,14.142
			C159.341,163.091,156.798,164.144,154.146,164.144z"/>
		<path style="fill:#083863;" d="M357.127,104.063c-3.905-3.905-10.237-3.905-14.142,0l-98.072,98.071
			c-15.735-7.924-34.915-1.592-42.839,14.143c-7.924,15.735-1.592,34.915,14.143,42.839c15.735,7.924,34.915,1.592,42.839-14.143
			c4.545-9.025,4.545-19.671,0-28.696l98.071-98.072C361.032,114.3,361.032,107.968,357.127,104.063z M230.596,242.464
			c-6.556,0-11.87-5.314-11.87-11.87c0-6.556,5.314-11.87,11.87-11.87c6.556,0,11.87,5.314,11.87,11.87c0,0,0,0,0,0
			C242.458,237.147,237.148,242.457,230.596,242.464z"/>
		<path style="fill:#083863;" d="M393.635,67.555c-90.032-90.056-236.023-90.076-326.079-0.044
			c-88.548,88.525-90.265,231.538-3.868,322.163l0,0c87.869,92.168,233.818,95.653,325.987,7.784s95.653-233.818,7.784-325.987
			C396.199,70.151,394.925,68.846,393.635,67.555z M230.596,20.024c116.108,0,210.57,94.462,210.57,210.57
			c0.09,50.326-17.934,99.003-50.778,137.134c-63.881-70.719-166.701-90.934-252.6-49.662
			c-25.279,12.153-48.023,28.99-67.028,49.619c-32.817-38.126-50.825-86.786-50.734-137.091
			C20.026,114.486,114.488,20.024,230.596,20.024z M314.957,423.586c-78.087,34.192-169.09,17.871-230.427-41.327
			c17.467-19.23,38.486-34.902,61.9-46.155c78.436-37.698,172.359-18.846,230.173,46.2
			C358.673,399.621,337.797,413.601,314.957,423.586z"/>
	</g>
</g>
<g>
</g>
<g>
</g>
<g>
</g>
<g>
</g>
<g>
</g>
<g>
</g>
<g>
</g>
<g>
</g>
<g>
</g>
<g>
</g>
<g>
</g>
<g>
</g>
<g>
</g>
<g>
</g>
<g>
</g>
</svg>
