<?xml version="1.0" encoding="iso-8859-1"?>
<!-- Generator: Adobe Illustrator 19.0.0, SVG Export Plug-In . SVG Version: 6.00 Build 0)  -->
<svg version="1.1" id="Capa_1" xmlns="http://www.w3.org/2000/svg" xmlns:xlink="http://www.w3.org/1999/xlink" x="0px" y="0px"
	 viewBox="0 0 406 406" style="enable-background:new 0 0 406 406;" xml:space="preserve">
<g>
	<g>
		<g>
			<polygon style="fill:#00ACEA;" points="378.333,47.13 290.293,124.17 290.293,47.13 			"/>
			<polygon style="fill:#00ACEA;" points="378.333,162.69 290.293,239.73 290.293,162.69 			"/>
			<polygon style="fill:#00ACEA;" points="378.333,278.25 290.293,355.29 290.293,278.25 			"/>
		</g>
		<path style="fill:#00EFD1;" d="M290.293,355.29v7.29c-0.001,18.236-14.784,33.019-33.02,33.02h-115.56
			c-18.236-0.001-33.019-14.784-33.02-33.02V43.42c0.001-18.236,14.784-33.019,33.02-33.02h115.56
			c18.236,0.001,33.019,14.784,33.02,33.02V355.29z M239.803,81.94c0-22.263-18.047-40.31-40.31-40.31s-40.31,18.047-40.31,40.31
			c0,22.263,18.047,40.31,40.31,40.31c0,0,0,0,0,0c22.261,0.002,40.308-18.043,40.31-40.304
			C239.803,81.944,239.803,81.942,239.803,81.94z M239.803,203c0-22.263-18.047-40.31-40.31-40.31
			c-22.263,0-40.31,18.047-40.31,40.31c0,22.263,18.047,40.31,40.31,40.31c0,0,0,0,0,0C221.754,243.308,239.801,225.262,239.803,203
			z M239.803,324.06c0-22.263-18.047-40.31-40.31-40.31s-40.31,18.047-40.31,40.31c0,22.263,18.047,40.31,40.31,40.31c0,0,0,0,0,0
			C221.754,364.368,239.801,346.322,239.803,324.06z"/>
		<g>
			<circle style="fill:#D4E1F4;" cx="199.493" cy="81.94" r="40.31"/>
			<circle style="fill:#D4E1F4;" cx="199.493" cy="203" r="40.31"/>
			<circle style="fill:#D4E1F4;" cx="199.493" cy="324.06" r="40.31"/>
		</g>
		<g>
			<polygon style="fill:#00ACEA;" points="108.693,278.25 108.693,355.29 20.653,278.25 			"/>
			<polygon style="fill:#00ACEA;" points="108.693,162.69 108.693,239.73 20.653,162.69 			"/>
			<polygon style="fill:#00ACEA;" points="108.693,47.13 108.693,124.17 20.653,47.13 			"/>
		</g>
	</g>
	<g>
		<path style="fill:#083863;" d="M199.493,253.31c-27.785,0-50.31-22.525-50.31-50.31c0-27.785,22.525-50.31,50.31-50.31
			c27.785,0,50.31,22.525,50.31,50.31l0,0C249.771,230.772,227.265,253.279,199.493,253.31z M199.493,172.69
			c-16.74,0-30.31,13.57-30.31,30.31s13.57,30.31,30.31,30.31s30.31-13.57,30.31-30.31l0,0
			C229.784,186.268,216.225,172.709,199.493,172.69z"/>
		<path style="fill:#083863;" d="M199.493,132.25c-27.785,0-50.31-22.525-50.31-50.31c0-27.785,22.525-50.31,50.31-50.31
			s50.31,22.525,50.31,50.31l0,0C249.771,109.712,227.265,132.219,199.493,132.25z M199.493,51.63c-16.74,0-30.31,13.57-30.31,30.31
			s13.57,30.31,30.31,30.31s30.31-13.57,30.31-30.31C229.784,65.208,216.225,51.649,199.493,51.63z"/>
		<path style="fill:#083863;" d="M199.493,374.37c-27.785,0-50.31-22.525-50.31-50.31c0-27.785,22.525-50.31,50.31-50.31
			s50.31,22.525,50.31,50.31l0,0C249.771,351.832,227.265,374.339,199.493,374.37z M199.493,293.75
			c-16.74,0-30.31,13.57-30.31,30.31s13.57,30.31,30.31,30.31s30.31-13.57,30.31-30.31l0,0
			C229.784,307.328,216.225,293.769,199.493,293.75z"/>
		<path style="fill:#083863;" d="M381.833,153h-81.34v-21.4l-0.015,0.1l87.99-77.04c4.175-3.699,4.562-10.082,0.863-14.257
			c-1.903-2.148-4.629-3.385-7.498-3.403h-82c-3.03-21.191-21.153-36.947-42.56-37h-115.56c-21.405,0.055-39.527,15.81-42.556,37
			h-75c-5.589,0.06-10.072,4.639-10.012,10.229c0.03,2.821,1.236,5.501,3.327,7.394l81.021,71.021V153h-74.34
			c-5.46-0.075-9.947,4.29-10.022,9.75c-0.04,2.88,1.179,5.635,3.337,7.543L98.493,241.2V268h-74.34
			c-5.625,0.097-10.106,4.736-10.008,10.361c0.049,2.804,1.251,5.464,3.323,7.352l81.025,71.051v5.816
			c0,23.72,19.5,43.42,43.22,43.42h115.56c23.72,0,43.22-19.7,43.22-43.42v-2.753l84.525-74.052
			c4.184-3.772,4.518-10.222,0.746-14.406c-1.9-2.108-4.593-3.329-7.431-3.369h-77.84v-20.842l-0.015,0.1l87.99-77.04
			c3.125-2.684,4.226-7.042,2.751-10.888C389.724,155.463,385.978,152.936,381.833,153z M300.493,105.194V57h54.727L300.493,105.194
			z M50.766,57h47.727v42.069L50.766,57z M50.766,173h47.727v41.629L50.766,173z M50.766,288h47.727v42.189L50.766,288z
			 M280.493,362.58c-0.076,12.825-10.396,23.234-23.22,23.42h-115.56c-12.824-0.186-23.144-10.595-23.22-23.42v-14.718l0.085-0.1
			l-0.085-0.072V232.3l0.085-0.1l-0.085-0.07V116.742l0.085-0.1l-0.085-0.072V43.42c0.076-12.825,10.396-23.234,23.22-23.42h115.56
			c12.824,0.186,23.144,10.595,23.22,23.42V362.58z M351.72,288l-51.227,45.252V288H351.72z M300.493,220.754V173h54.727
			L300.493,220.754z"/>
	</g>
</g>
<g>
</g>
<g>
</g>
<g>
</g>
<g>
</g>
<g>
</g>
<g>
</g>
<g>
</g>
<g>
</g>
<g>
</g>
<g>
</g>
<g>
</g>
<g>
</g>
<g>
</g>
<g>
</g>
<g>
</g>
</svg>
