<?xml version="1.0" encoding="iso-8859-1"?>
<!-- Generator: Adobe Illustrator 19.0.0, SVG Export Plug-In . SVG Version: 6.00 Build 0)  -->
<svg version="1.1" id="Capa_1" xmlns="http://www.w3.org/2000/svg" xmlns:xlink="http://www.w3.org/1999/xlink" x="0px" y="0px"
	 viewBox="0 0 392 392" style="enable-background:new 0 0 392 392;" xml:space="preserve">
<g>
	<g>
		<path style="fill:#00ACEA;" d="M381.84,179.84v38.13l-27.92,2.73c-2.744,12.365-7.704,24.132-14.64,34.73l18.04,21.79l-26.9,26.89
			l-21.79-18.04c-10.563,6.996-22.337,11.961-34.72,14.64l-2.73,28.26H230v-80.33h1.25c27.468,12.609,59.957,0.563,72.566-26.905
			c12.609-27.468,0.563-59.957-26.905-72.566c-14.866-6.824-32.005-6.641-46.721,0.5H230V68.84h41.18l2.73,28.26
			c12.361,2.747,24.124,7.707,34.72,14.64l21.79-18.04l26.56,26.9l-18.04,21.79c6.998,10.565,11.963,22.343,14.64,34.73
			L381.84,179.84z"/>
		<path style="fill:#00EFD1;" d="M230,248.64v21.52h-89.85l-0.68-0.06c0.1-1.18,0.15-2.38,0.15-3.59
			c0-23.351-18.929-42.28-42.28-42.28s-42.28,18.929-42.28,42.28c0,1.23,0.05,2.45,0.16,3.65H41.48
			c-17.297-0.002-31.318-14.023-31.32-31.32v-26.46c0.001-14.121,9.448-26.497,23.07-30.22l72.46-19.79l43.32-56.89
			c7.901-10.372,20.192-16.46,33.23-16.46H230V248.64z"/>
		<path style="fill:#D4E1F4;" d="M55.22,270.16c-0.11-1.2-0.16-2.42-0.16-3.65c0-23.351,18.929-42.28,42.28-42.28
			s42.28,18.929,42.28,42.28c0,1.21-0.05,2.41-0.15,3.59c-1.981,23.266-22.448,40.522-45.714,38.541
			C73.26,306.896,56.994,290.653,55.22,270.16z"/>
	</g>
	<path style="fill:#083863;" d="M382.878,169.886l-21.288-2.045c-2.47-8.577-5.947-16.832-10.359-24.591l13.463-16.273
		c3.272-3.956,3.016-9.748-0.592-13.4l-26.563-26.9c-3.643-3.693-9.506-3.986-13.5-0.676l-16.325,13.515
		c-7.748-4.396-15.98-7.878-24.531-10.374l-2.054-21.181c-0.502-5.109-4.815-8.994-9.949-8.961H240V29c0-5.523-4.477-10-10-10
		s-10,4.477-10,10v50h-37.76c-16.151,0.049-31.365,7.59-41.186,20.412l-41.267,54.2l-69.271,18.9
		C12.546,177.442,0.066,193.746,0,212.38v26.46c0.114,22.81,18.67,41.223,41.48,41.16h5.395c2.432,9.593,7.662,18.246,15.025,24.859
		c20.011,18.538,50.928,18.519,70.916-0.043c7.353-6.599,12.575-15.238,15-24.816H220v83c0,5.523,4.477,10,10,10s10-4.477,10-10v-24
		h31.18c5.153-0.007,9.46-3.924,9.954-9.053l2.053-21.26c8.574-2.465,16.826-5.936,24.584-10.342l16.272,13.469
		c3.974,3.289,9.798,3.016,13.446-0.631l26.9-26.89c3.65-3.648,3.924-9.475,0.633-13.45l-13.514-16.324
		c4.398-7.754,7.88-15.992,10.376-24.55l21.008-2.046c5.138-0.493,9.072-4.791,9.108-9.953v-38.13
		C391.964,174.673,388.022,170.372,382.878,169.886z M240,156.46c23.444-7.767,48.747,4.942,56.514,28.386
		c7.767,23.445-4.942,48.747-28.386,56.514c-9.132,3.025-18.996,3.025-28.127,0V156.46z M129.505,269.26
		c-1.52,17.763-17.152,30.93-34.915,29.41c-15.637-1.338-28.046-13.73-29.406-29.366c0-0.018,0-0.037,0-0.056
		c-0.079-0.865-0.119-1.788-0.119-2.742c0-17.828,14.452-32.28,32.28-32.28s32.28,14.452,32.28,32.28
		c-0.005,0.933-0.043,1.855-0.12,2.758V269.26z M149.221,260c-3.493-28.653-29.552-49.05-58.205-45.557
		C67.163,217.35,48.366,236.147,45.459,260H41.48c-11.769,0.074-21.378-9.391-21.48-21.16v-26.46
		c0.05-9.623,6.503-18.034,15.785-20.573l72.5-19.79c2.126-0.578,4.002-1.839,5.341-3.589l43.328-56.9
		c6.031-7.869,15.371-12.497,25.286-12.528H220v161H149.221z M372,208.9l-18.974,1.848c-4.333,0.42-7.901,3.583-8.838,7.834
		c-2.503,11.19-7.004,21.837-13.288,31.429c-2.368,3.663-2.088,8.438,0.691,11.8l12.23,14.777L329.79,290.6l-14.782-12.237
		c-3.403-2.817-8.251-3.068-11.926-0.617c-9.522,6.298-20.133,10.77-31.291,13.187c-4.251,0.928-7.417,4.495-7.835,8.826L262.1,319
		H240v-56.912c34.894,7.766,69.477-14.225,77.243-49.119s-14.225-69.477-49.119-77.243c-9.261-2.061-18.863-2.061-28.124,0V79h22.1
		l1.856,19.142c0.421,4.319,3.591,7.867,7.835,8.771c11.186,2.491,21.83,6.981,31.421,13.253c3.668,2.362,8.443,2.073,11.8-0.713
		l14.733-12.2l13.77,13.942l-12.273,14.822c-2.817,3.403-3.067,8.251-0.616,11.926c6.299,9.525,10.77,20.139,13.186,31.3
		c0.957,4.262,4.547,7.424,8.895,7.836l19.3,1.85L372,208.9z"/>
</g>
<g>
</g>
<g>
</g>
<g>
</g>
<g>
</g>
<g>
</g>
<g>
</g>
<g>
</g>
<g>
</g>
<g>
</g>
<g>
</g>
<g>
</g>
<g>
</g>
<g>
</g>
<g>
</g>
<g>
</g>
</svg>
