<?xml version="1.0" encoding="iso-8859-1"?>
<!-- Generator: Adobe Illustrator 19.0.0, SVG Export Plug-In . SVG Version: 6.00 Build 0)  -->
<svg version="1.1" id="Capa_1" xmlns="http://www.w3.org/2000/svg" xmlns:xlink="http://www.w3.org/1999/xlink" x="0px" y="0px"
	 viewBox="0 0 458.004 458.004" style="enable-background:new 0 0 458.004 458.004;" xml:space="preserve">
<g>
	<g>
		<path style="fill:#00EFD1;" d="M371.183,272.433v138.95c0.001,20.478-16.599,37.08-37.078,37.08c-0.061,0-0.122,0-0.182,0h-0.04
			c-20.407-0.099-36.896-16.673-36.89-37.08v-140l74.19,0.22V272.433z"/>
		<g>
			<polygon style="fill:#00ACEA;" points="356.513,9.543 365.693,73.723 302.463,73.723 311.633,9.543 			"/>
			<path style="fill:#00ACEA;" d="M201.753,79.223c0.29,29.27-19.13,54.47-42.02,65.19v166.57c30.71,9.27,48.68,35.93,48.68,67.8
				s-17.68,58.82-48.68,67.8l4.1-49.26l-0.38-0.28c-14.145-10.766-33.767-10.655-47.79,0.27l-0.01,0.01l3.81,48.97
				c-35.35-8.11-52.45-35.06-52.45-66.93c0-28.98,19.12-54.47,42.3-65.49v-167.14c-30.71-9.27-48.67-35.93-48.67-67.8
				c0.29-31.58,17.96-58.53,48.96-67.51l-4.09,49.26l0.37,0.28c14.149,10.765,33.773,10.655,47.8-0.27l0.01-0.01l-3.81-48.97
				C184.653,20.402,201.753,47.353,201.753,79.223z"/>
		</g>
	</g>
	<g>
		<path style="fill:#083863;" d="M159.733,456.583c-5.523,0-10-4.478-9.999-10c0-0.277,0.012-0.554,0.035-0.829l3.606-43.325
			c-8.54-4.508-18.756-4.505-27.293,0.008l3.352,43.081c0.428,5.506-3.688,10.317-9.195,10.745
			c-1.009,0.078-2.025,0.003-3.011-0.223c-19.136-4.39-34.793-14.192-45.281-28.349c-9.769-13.188-14.933-29.898-14.933-48.327
			c0-28.826,16.766-56.806,42.3-71.526v-154.03c-13.691-5.428-25.511-14.716-34.023-26.735
			c-9.582-13.585-14.647-30.231-14.647-48.139c0.165-17.944,5.279-34.508,14.792-47.994C75.483,16.774,90.094,6.492,106.821,1.818
			c5.305-1.537,10.851,1.518,12.387,6.823c0.339,1.171,0.461,2.395,0.361,3.61l-3.6,43.326c8.542,4.503,18.755,4.5,27.294-0.009
			l-3.352-43.08c-0.429-5.506,3.687-10.318,9.193-10.747c1.077-0.084,2.16,0.007,3.207,0.27c37.222,9.3,59.445,38.168,59.445,77.212
			c0.325,32.784-20.042,58.558-42.02,71.238v153.447c13.692,5.428,25.513,14.715,34.027,26.734
			c9.586,13.586,14.653,30.233,14.653,48.141c0,17.979-5.022,34.654-14.524,48.22c-10.014,14.207-24.63,24.517-41.374,29.185
			C161.613,456.45,160.675,456.583,159.733,456.583z M98.26,27.183c-17.14,10.38-27.409,29.138-27.617,51.841
			c0,28.086,15.925,50.4,41.56,58.135c4.221,1.274,7.11,5.163,7.11,9.573v167.141c-0.002,3.859-2.224,7.373-5.71,9.029
			c-21.546,10.243-36.594,33.46-36.594,56.459c0,24.77,11.234,43.344,31.309,52.661l-2.635-33.92
			c-0.226-2.914,0.833-5.781,2.9-7.847c0.295-0.295,0.608-0.572,0.936-0.829c17.586-13.679,42.168-13.837,59.928-0.386l0.324,0.239
			c2.791,2.06,4.316,5.419,4.028,8.876l-2.718,32.665c17.163-10.413,27.333-29.243,27.333-52.034
			c0-28.176-15.929-50.487-41.57-58.227c-4.222-1.274-7.11-5.164-7.11-9.574V144.413c0-3.881,2.245-7.411,5.759-9.057
			c17.65-8.265,36.526-29.326,36.261-56.034c0-24.612-11.01-43.269-30.7-52.983l2.612,33.568c0.22,2.829-0.772,5.618-2.729,7.672
			c-0.344,0.362-0.715,0.698-1.109,1.006c-17.614,13.694-42.234,13.831-60,0.335l-0.344-0.26c-2.734-2.067-4.219-5.39-3.935-8.805
			L98.26,27.183z"/>
		<rect x="325.033" y="73.832" style="fill:#083863;" width="20" height="6.03"/>
		<path style="fill:#083863;" d="M397.375,261.673l-52.372-0.15V84.002h20.69c5.642-0.122,10.117-4.796,9.995-10.438
			c-0.009-0.397-0.04-0.793-0.095-1.187l-9.18-63.986c-0.724-4.886-4.961-8.477-9.9-8.389h-44.88
			c-4.933-0.104-9.174,3.476-9.9,8.356l-9.169,64.065c-0.797,5.541,3.048,10.679,8.589,11.477c0.434,0.062,0.872,0.097,1.31,0.102
			h22.54v177.464l-57.183-0.464h-0.027c-5.585,0.072-10.055,4.658-9.983,10.243c0.071,5.475,4.486,9.9,9.961,9.983l19.232,0.13
			v130.025c0.045,25.792,20.989,46.664,46.781,46.619c0.03,0,0.06,0,0.09,0h0.236c25.699,0.198,46.693-20.474,46.892-46.174
			c0.001-0.148,0.002-0.297,0.001-0.445V281.627l16.333,0.375h0.027c5.614-0.093,10.089-4.719,9.996-10.333
			C407.269,266.191,402.853,261.77,397.375,261.673z M320.303,20.002h27.535l6.32,44h-40.165L320.303,20.002z M361.003,411.383
			c0.047,14.655-11.795,26.574-26.45,26.622c-0.162,0.001-0.323,0-0.485-0.003h-0.136c-14.738,0.134-26.794-11.704-26.928-26.442
			c-0.001-0.059-0.001-0.118-0.001-0.177V281.415l54,0.155V411.383z"/>
	</g>
</g>
<g>
</g>
<g>
</g>
<g>
</g>
<g>
</g>
<g>
</g>
<g>
</g>
<g>
</g>
<g>
</g>
<g>
</g>
<g>
</g>
<g>
</g>
<g>
</g>
<g>
</g>
<g>
</g>
<g>
</g>
</svg>
