<?xml version="1.0" encoding="iso-8859-1"?>
<!-- Generator: Adobe Illustrator 19.0.0, SVG Export Plug-In . SVG Version: 6.00 Build 0)  -->
<svg version="1.1" id="Capa_1" xmlns="http://www.w3.org/2000/svg" xmlns:xlink="http://www.w3.org/1999/xlink" x="0px" y="0px"
	 viewBox="0 0 480.335 480.335" style="enable-background:new 0 0 480.335 480.335;" xml:space="preserve">
<g>
	<g>
		<g>
			<path style="fill:#D4E1F4;" d="M410.347,109.044v330.44c-0.002,17.297-14.023,31.318-31.32,31.32h-277.72
				c-17.297-0.002-31.318-14.023-31.32-31.32v-330.44c0.006-17.295,14.025-31.314,31.32-31.32h56.38v33.93h164.44v-33.93h56.9
				C396.323,77.729,410.342,91.748,410.347,109.044z M349.337,294.174v-70.34c-0.001-6.376-2.627-12.47-7.26-16.85l-6.64-6.27v-0.26
				h0.77l-17.26-40.2c-2.494-5.804-8.203-9.567-14.52-9.57h-125.43c-6.317,0.003-12.026,3.766-14.52,9.57l-17.26,40.2h0.77
				l-8.81,7.48c-5.191,4.402-8.182,10.864-8.18,17.67v68.57c-0.002,8.531,6.913,15.448,15.444,15.45c0.002,0,0.004,0,0.006,0h12.87
				c8.531,0.002,15.448-6.913,15.45-15.444c0-0.002,0-0.004,0-0.006v-14.67h130.8v14.67c-0.002,8.531,6.913,15.448,15.444,15.45
				c0.002,0,0.004,0,0.006,0h12.87c8.531,0.002,15.448-6.913,15.45-15.444C349.337,294.178,349.337,294.176,349.337,294.174z
				 M213.527,428.124v-83.25h-86.2v83.25H213.527z"/>
			<path style="fill:#D4E1F4;" d="M349.337,264.054v30.12c0.002,8.531-6.913,15.448-15.444,15.45c-0.002,0-0.004,0-0.006,0h-12.87
				c-8.531,0.002-15.448-6.913-15.45-15.444c0-0.002,0-0.004,0-0.006v-14.67h28.32C342.419,279.501,349.335,272.585,349.337,264.054
				z"/>
		</g>
		<path style="fill:#00EFD1;" d="M349.337,260.194v3.86c-0.002,8.532-6.918,15.448-15.45,15.45h-187.44
			c-8.532-0.002-15.448-6.918-15.45-15.45v-38.45c-0.002-6.806,2.989-13.268,8.18-17.67l8.81-7.48h187.45v0.26l6.64,6.27
			c4.633,4.38,7.259,10.474,7.26,16.85V260.194z M321.457,255.044v-25.24h-31.6v25.24H321.457z M190.477,255.044v-25.24h-31.6v25.24
			H190.477z"/>
		<path style="fill:#D4E1F4;" d="M318.947,160.254l17.26,40.2h-34.92c0.011-14.199-11.492-25.719-25.691-25.729
			c-14.199-0.011-25.719,11.492-25.729,25.691c0,0.013,0,0.026,0,0.038h-102.65l17.26-40.2c2.494-5.804,8.203-9.567,14.52-9.57
			h125.43C310.745,150.687,316.454,154.449,318.947,160.254z"/>
		<path style="fill:#00ACEA;" d="M322.127,77.724v33.93h-164.44v-49.59c0.001-11.531,9.349-20.879,20.88-20.88h22.45
			c4.18-17.75,19.31-31.32,38.63-31.32c18.685-0.071,34.836,13.024,38.63,31.32h22.97c11.531,0.001,20.879,9.349,20.88,20.88V77.724
			z"/>
		<path style="fill:#D4E1F4;" d="M301.287,200.454h-51.42c-0.011-14.199,11.492-25.719,25.691-25.729
			c14.199-0.011,25.719,11.492,25.729,25.691C301.287,200.428,301.287,200.441,301.287,200.454z"/>
		<rect x="127.327" y="344.874" style="fill:#3BB54A;" width="86.2" height="83.25"/>
		<path style="fill:#D4E1F4;" d="M174.767,279.754v14.42c0.002,8.531-6.913,15.448-15.444,15.45c-0.002,0-0.004,0-0.006,0h-12.87
			c-8.531,0.002-15.448-6.913-15.45-15.444c0-0.002,0-0.004,0-0.006v-30.12c0.002,8.532,6.918,15.448,15.45,15.45h28.32V279.754z"/>
	</g>
	<g>
		<path style="fill:#083863;" d="M321.457,265.044h-31.6c-5.523,0-10-4.477-10-10v-25.24c0-5.523,4.477-10,10-10h31.6
			c5.523,0,10,4.477,10,10v25.24C331.457,260.566,326.98,265.044,321.457,265.044z M299.857,245.044h11.6v-5.24h-11.6V245.044z"/>
		<g>
			<path style="fill:#083863;" d="M379.027,67.334h-46.86v-5.27c-0.051-17.022-13.891-30.781-30.914-30.73c-0.002,0-0.004,0-0.006,0
				h-15.549c-9.992-25.395-38.679-37.881-64.074-27.889c-12.764,5.022-22.866,15.125-27.889,27.889h-15.168
				c-16.778-0.012-30.39,13.58-30.402,30.358c0,0.124,0.001,0.248,0.002,0.372v5.27h-46.86c-22.784,0-41.14,18.926-41.14,41.71
				v330.44c-0.021,22.541,18.236,40.831,40.777,40.851c0.121,0,0.242,0,0.363-0.001h277.72c22.54,0.18,40.959-17.946,41.139-40.487
				c0.001-0.121,0.001-0.242,0.001-0.363v-330.44C420.167,86.26,401.811,67.334,379.027,67.334z M168.167,62.064
				c-0.202-5.721,4.273-10.522,9.993-10.724c0.135-0.005,0.271-0.007,0.407-0.006h22.45c4.654-0.033,8.678-3.251,9.734-7.783
				c3.326-14.123,14.938-23.65,28.9-23.65c13.928,0.022,25.946,9.775,28.836,23.4c0.954,4.656,5.038,8.007,9.79,8.033h22.97
				c5.964-0.066,10.853,4.715,10.92,10.679c0,0.017,0,0.034,0,0.051v39.27h-144V62.064z M400.167,439.484
				c0.033,11.484-9.251,20.82-20.735,20.853c-0.135,0-0.27-0.001-0.405-0.003h-277.72c-11.483,0.191-20.946-8.962-21.137-20.445
				c-0.002-0.135-0.003-0.27-0.003-0.405v-330.44c0-11.756,9.384-21.71,21.14-21.71h46.86v24.32
				c-0.194,5.15,3.824,9.482,8.973,9.675c0.182,0.007,0.364,0.008,0.547,0.005h164.44c5.391,0.152,9.885-4.096,10.036-9.488
				c0.002-0.064,0.003-0.128,0.004-0.192v-24.32h46.86c11.756,0,21.14,9.954,21.14,21.71V439.484z"/>
			<path style="fill:#083863;" d="M348.858,199.713l-3.609-3.448l-17.137-40.139c-4.04-9.516-13.347-15.722-23.685-15.792h-125.43
				c-10.346,0.07-19.662,6.279-23.709,15.8l-16.775,39.158l-5.718,4.97c-7.417,6.324-11.67,15.595-11.628,25.342v68.57
				c-0.04,13.856,11.16,25.12,25.015,25.161c0.088,0,0.177,0,0.265-0.001h12.87c14.033,0,25.85-11.127,25.85-25.16v-4.84h110v4.84
				c0,14.033,11.817,25.16,25.85,25.16h12.87c13.855,0.106,25.173-11.04,25.279-24.895c0.001-0.088,0.001-0.177,0.001-0.265v-70.34
				C359.181,214.72,355.455,206.001,348.858,199.713z M173.667,163.971c0.901-2.16,2.99-3.586,5.33-3.637h125.43
				c2.339,0.049,4.429,1.472,5.331,3.63l11.273,26.37h-11.213c-5.579-18.911-25.432-29.718-44.343-24.139
				c-11.622,3.429-20.711,12.518-24.139,24.139h-78.943L173.667,163.971z M287.574,190.334H263.58
				c5.567-6.626,15.45-7.484,22.076-1.918C286.35,188.998,286.992,189.64,287.574,190.334L287.574,190.334z M165.167,294.174
				c0,3.005-2.845,5.16-5.85,5.16h-12.87c-2.799,0.115-5.161-2.06-5.277-4.859c-0.004-0.1-0.005-0.201-0.003-0.301v-5.264
				c1.74,0.327,3.51,0.469,5.28,0.424h18.72V294.174z M339.167,294.174c0.051,2.801-2.178,5.112-4.979,5.163
				c-0.1,0.002-0.201,0.001-0.301-0.003h-12.87c-3,0-5.85-2.155-5.85-5.16v-4.84h18.72c1.77,0.045,3.54-0.097,5.28-0.424V294.174z
				 M339.167,264.054c0.061,2.855-2.203,5.219-5.058,5.28c-0.074,0.002-0.148,0.002-0.222,0h-187.44
				c-2.855,0.061-5.219-2.203-5.28-5.058c-0.002-0.074-0.002-0.148,0-0.222v-38.45c-0.037-3.876,1.633-7.573,4.567-10.107
				l5.926-5.163h179.527l3.933,3.854c2.609,2.528,4.071,6.013,4.047,9.646V264.054z"/>
			<path style="fill:#083863;" d="M191.167,219.334h-32c-5.523,0-10,4.477-10,10v25c0,5.523,4.477,10,10,10h32
				c5.523,0,10-4.477,10-10v-25C201.167,223.811,196.69,219.334,191.167,219.334z M180.167,245.334h-11v-6h11V245.334z"/>
		</g>
		<path style="fill:#083863;" d="M258.507,255.394h-36.68c-5.523,0-10-4.477-10-10c0-5.523,4.477-10,10-10h36.68
			c5.523,0,10,4.477,10,10C268.507,250.916,264.03,255.394,258.507,255.394z"/>
		<path style="fill:#083863;" d="M213.527,438.124h-86.2c-5.523,0-10-4.477-10-10v-83.25c0-5.523,4.477-10,10-10h86.2
			c5.523,0,10,4.477,10,10v83.25C223.527,433.646,219.05,438.124,213.527,438.124z M137.327,418.124h66.2v-63.25h-66.2V418.124z"/>
		<path style="fill:#083863;" d="M166.942,407.204c-2.26,0.002-4.453-0.765-6.22-2.174l-11.78-9.37
			c-4.341-3.414-5.093-9.701-1.679-14.042c3.414-4.341,9.701-5.093,14.042-1.679c0.029,0.023,0.058,0.046,0.087,0.069l4.314,3.431
			l12.461-14.231c3.637-4.156,9.955-4.576,14.111-0.939c4.156,3.637,4.576,9.955,0.939,14.111l-18.74,21.411
			C172.577,405.964,169.829,407.209,166.942,407.204z"/>
		<path style="fill:#083863;" d="M311.247,375.614h-62.11c-5.523,0-10-4.477-10-10s4.477-10,10-10h62.11c5.523,0,10,4.477,10,10
			S316.77,375.614,311.247,375.614L311.247,375.614z"/>
		<path style="fill:#083863;" d="M353.007,417.374h-103.87c-5.523,0-10-4.477-10-10s4.477-10,10-10h103.87c5.523,0,10,4.477,10,10
			S358.53,417.374,353.007,417.374z"/>
	</g>
</g>
<g>
</g>
<g>
</g>
<g>
</g>
<g>
</g>
<g>
</g>
<g>
</g>
<g>
</g>
<g>
</g>
<g>
</g>
<g>
</g>
<g>
</g>
<g>
</g>
<g>
</g>
<g>
</g>
<g>
</g>
</svg>
