<?xml version="1.0" encoding="iso-8859-1"?>
<!-- Generator: Adobe Illustrator 19.0.0, SVG Export Plug-In . SVG Version: 6.00 Build 0)  -->
<svg version="1.1" id="Capa_1" xmlns="http://www.w3.org/2000/svg" xmlns:xlink="http://www.w3.org/1999/xlink" x="0px" y="0px"
	 viewBox="0 0 424.72 424.72" style="enable-background:new 0 0 424.72 424.72;" xml:space="preserve">
<g>
	<g>
		<path style="fill:#00ACEA;" d="M356.93,345.14l-34.68-2.89l-0.21,0.27c-7.576,9.963-7.494,23.778,0.2,33.65l0.01,0.01l34.48-2.68
			c-6.12,24.49-25.1,36.53-47.54,36.53c-20.61,0.2-38.36-13.47-45.91-29.59h-100c-6.53,21.63-25.3,34.28-47.75,34.28
			s-41.42-12.45-47.74-34.28l34.68,2.88l0.21-0.26c7.575-9.967,7.493-23.784-0.2-33.66h-0.01l-34.48,2.68
			c5.71-24.9,24.69-36.93,47.14-36.93c20.4,0,38.36,13.46,46.11,29.79h100.4c6.53-21.63,25.31-34.28,47.75-34.28
			C331.63,310.859,350.61,323.31,356.93,345.14z"/>
		<g>
			<path style="fill:#00EFD1;" d="M334.75,264.55H89.97c1.45-41.8,3.61-46.85,6.14-51.54c2.932-5.839,6.569-11.297,10.83-16.25
				c19.14-23.1,50.91-31.77,80.87-22.02c15.977,5.05,33.123,5.05,49.1,0c30.33-9.75,61.73-1.08,80.87,22.02
				c4.188,5.138,7.818,10.706,10.83,16.61C331.14,218.059,333.3,223.12,334.75,264.55z"/>
			<circle style="fill:#00EFD1;" cx="212.36" cy="76.789" r="66.79"/>
		</g>
	</g>
	<g>
		<path style="fill:#083863;" d="M212.36,153.58c-42.41,0-76.79-34.38-76.79-76.79S169.95,0,212.36,0s76.79,34.38,76.79,76.79
			C289.102,119.18,254.75,153.532,212.36,153.58z M212.36,20c-31.364,0-56.79,25.426-56.79,56.79s25.426,56.79,56.79,56.79
			s56.79-25.426,56.79-56.79C269.115,45.44,243.71,20.035,212.36,20z"/>
		<path style="fill:#083863;" d="M334.75,274.55H89.97c-5.523,0-10-4.477-10-10c0-0.116,0.002-0.231,0.006-0.347
			c1.484-42.775,3.728-49.229,7.259-55.8c3.276-6.49,7.324-12.561,12.056-18.081c21.8-26.26,57.753-36.1,91.614-25.087
			c13.99,4.394,28.991,4.386,42.976-0.021c33.924-10.9,69.893-1.03,91.6,25.17c0.038,0.045,0.075,0.092,0.112,0.138
			c4.593,5.645,8.579,11.758,11.892,18.237c3.529,6.572,5.774,13.009,7.259,55.441c0.193,5.519-4.124,10.151-9.644,10.344
			C334.983,274.548,334.867,274.55,334.75,274.55z M100.371,254.55h223.974c-1.374-30.571-3.181-33.922-4.536-36.432
			c-0.05-0.092-0.1-0.184-0.143-0.277c-2.686-5.248-5.918-10.198-9.642-14.768c-16.72-20.123-43.55-27.333-70.054-18.813
			c-17.96,5.66-37.226,5.664-55.188,0.01c-26.106-8.5-53.611-1.08-70.142,18.87l-0.1,0.122c-3.729,4.336-6.914,9.111-9.484,14.22
			c-0.046,0.092-0.093,0.185-0.143,0.276C103.56,220.271,101.745,223.627,100.371,254.55L100.371,254.55z"/>
		<path style="fill:#083863;" d="M115.53,424.72c-27.537,0-50.047-16.29-57.346-41.5c-1.536-5.305,1.52-10.85,6.825-12.386
			c1.171-0.339,2.393-0.461,3.608-0.36l28.457,2.363c1.645-4.174,1.638-8.817-0.018-12.986l-28.291,2.2
			c-5.506,0.427-10.316-3.69-10.744-9.196c-0.078-1.007-0.003-2.019,0.222-3.004c6.322-27.568,28.12-44.694,56.887-44.694
			c20.785,0,40.957,11.748,52.043,29.79h87.537c9.39-21.055,30.109-34.28,54.68-34.28c27.488,0.246,49.883,16.614,57.146,41.7
			c1.536,5.305-1.52,10.851-6.825,12.386c-1.172,0.339-2.395,0.461-3.611,0.36l-28.451-2.371c-1.651,4.177-1.645,8.827,0.016,13
			l28.29-2.2c5.506-0.428,10.317,3.689,10.744,9.196c0.083,1.074-0.007,2.154-0.268,3.198c-6.8,27.206-28.731,44.106-57.241,44.106
			c-0.186,0-0.375,0-0.561,0c-23.262,0-41.693-14.045-51.286-29.593H170.21C160.819,411.494,140.1,424.72,115.53,424.72z
			 M85.117,391.913c7.146,8.129,17.86,12.807,30.413,12.807c18.488,0,33.117-10.411,38.177-27.171
			c1.275-4.221,5.164-7.109,9.573-7.109h100c3.88,0,7.41,2.244,9.056,5.758c5.395,11.519,19.064,23.834,36.4,23.834h0.355
			c14.012,0,25.069-5.425,31.9-15.277l-17.967,1.4c-2.999,0.237-5.945-0.893-8.017-3.074c-0.228-0.239-0.454-0.5-0.657-0.76
			c-10.473-13.456-10.584-32.275-0.269-45.853l0.063-0.082l0.21-0.27c2.077-2.666,5.357-4.105,8.725-3.827l16.536,1.378
			c-7.126-8.145-17.8-12.89-30.316-13c-18.4,0-33.028,10.411-38.086,27.17c-1.274,4.222-5.164,7.111-9.574,7.111H161.24
			c-3.862,0-7.378-2.224-9.034-5.713c-6.728-14.177-21.975-24.077-37.076-24.077c-14.141,0-25.191,5.581-31.822,15.709l18.387-1.429
			c3.35-0.252,6.605,1.184,8.677,3.828c10.468,13.46,10.577,32.277,0.266,45.858c-0.059,0.077-0.119,0.154-0.18,0.23l-0.21,0.26
			c-2.084,2.573-5.305,3.951-8.605,3.679L85.117,391.913z"/>
	</g>
</g>
<g>
</g>
<g>
</g>
<g>
</g>
<g>
</g>
<g>
</g>
<g>
</g>
<g>
</g>
<g>
</g>
<g>
</g>
<g>
</g>
<g>
</g>
<g>
</g>
<g>
</g>
<g>
</g>
<g>
</g>
</svg>
