<?xml version="1.0" encoding="iso-8859-1"?>
<!-- Generator: Adobe Illustrator 19.0.0, SVG Export Plug-In . SVG Version: 6.00 Build 0)  -->
<svg version="1.1" id="Capa_1" xmlns="http://www.w3.org/2000/svg" xmlns:xlink="http://www.w3.org/1999/xlink" x="0px" y="0px"
	 viewBox="0 0 505.708 505.708" style="enable-background:new 0 0 505.708 505.708;" xml:space="preserve">
<g>
	<g>
		<path style="fill:#00ACEA;" d="M290.032,277.058c58.574,20.534,89.412,84.664,68.878,143.238
			c-20.534,58.574-84.664,89.412-143.238,68.878c-58.574-20.534-89.412-84.664-68.878-143.238
			c11.3-32.233,36.645-57.578,68.878-68.878C239.733,268.577,265.971,268.577,290.032,277.058z M277.252,423.569
			c13.47-13.476,13.466-35.32-0.01-48.79c-13.476-13.47-35.32-13.466-48.79,0.01c-13.467,13.472-13.467,35.309,0,48.781
			c13.474,13.476,35.322,13.477,48.797,0.003C277.25,423.571,277.251,423.57,277.252,423.569z"/>
		<path style="fill:#00EFD1;" d="M311.272,65.019l-31.86,36.29l31.86,34.52l-31.86,25.029v27.2l10.62,21.24v67.76
			c-24.075-8.4-50.285-8.4-74.36,0V39.349l37.18-26.56L311.272,65.019z"/>
	</g>
	<g>
		<path style="fill:#083863;" d="M252.852,443.658c-24.566,0.019-44.495-19.881-44.514-44.446
			c-0.009-11.815,4.683-23.149,13.042-31.5l0,0c17.367-17.39,45.543-17.408,62.932-0.041c17.39,17.367,17.408,45.543,0.041,62.932
			C276.003,438.965,264.669,443.662,252.852,443.658z M235.523,381.858c-9.565,9.571-9.561,25.083,0.01,34.648
			c9.571,9.565,25.083,9.561,34.648-0.01c9.561-9.567,9.561-25.072,0-34.638C260.606,372.297,245.098,372.297,235.523,381.858z"/>
		<path style="fill:#083863;" d="M339.367,296.64c-11.256-11.39-24.696-20.39-39.515-26.459v-63.243l-10-21.24v-19.979
			l36.333-28.716l-33.209-35.862l32.4-36.972L253.669,0l-47.817,34.203v235.978c-14.817,6.068-28.257,15.067-39.511,26.456
			c-47.848,47.78-47.903,125.301-0.123,173.149c47.78,47.848,125.301,47.903,173.149,0.123s47.903-125.301,0.123-173.149
			c-0.041-0.041-0.082-0.082-0.123-0.123V296.64z M252.243,25.578l45.021,40.29l-31.284,35.608l30.831,33.182l-26.959,21.34v34.422
			l10,21.24v52.169c-17.773-4.041-36.227-4.041-54,0V44.495L252.243,25.578z M325.31,455.698
			c-40.042,39.958-104.894,39.89-144.852-0.152s-39.89-104.894,0.152-144.852c27.807-27.749,69.035-37.149,106.123-24.196l0,0
			c53.42,18.722,81.548,77.204,62.826,130.624c-5.087,14.516-13.376,27.7-24.253,38.576L325.31,455.698z"/>
	</g>
</g>
<g>
</g>
<g>
</g>
<g>
</g>
<g>
</g>
<g>
</g>
<g>
</g>
<g>
</g>
<g>
</g>
<g>
</g>
<g>
</g>
<g>
</g>
<g>
</g>
<g>
</g>
<g>
</g>
<g>
</g>
</svg>
