<?xml version="1.0" encoding="iso-8859-1"?>
<!-- Generator: Adobe Illustrator 19.0.0, SVG Export Plug-In . SVG Version: 6.00 Build 0)  -->
<svg version="1.1" id="Capa_1" xmlns="http://www.w3.org/2000/svg" xmlns:xlink="http://www.w3.org/1999/xlink" x="0px" y="0px"
	 viewBox="0 0 467.9 467.9" style="enable-background:new 0 0 467.9 467.9;" xml:space="preserve">
<g>
	<g>
		<path style="fill:#00CEB4;" d="M382.72,428.06v29.75H85.18v-29.75c-0.002-17.296,14.018-31.318,31.314-31.32
			c0.002,0,0.004,0,0.006,0h234.9c17.296-0.002,31.318,14.018,31.32,31.314C382.72,428.056,382.72,428.058,382.72,428.06z"/>
		<path style="fill:#00EFD1;" d="M338.35,395.95v0.79h-208.8v-26.1c-0.002-17.296,14.018-31.318,31.314-31.32
			c0.002,0,0.004,0,0.006,0h146.16c17.296-0.002,31.318,14.018,31.32,31.314c0,0.002,0,0.004,0,0.006V395.95z"/>
		<path style="fill:#00ACEA;" d="M287.04,62.9c0.001,15.484-6.54,30.248-18.01,40.65l-3.76,31.35h-62.64l-3.76-31.35
			c-11.458-10.251-18.008-24.896-18.01-40.27c-0.105-29.321,23.579-53.175,52.9-53.28S286.935,33.579,287.04,62.9z"/>
		<polygon style="fill:#D4E1F4;" points="251.61,338.53 251.61,339.32 216.29,339.32 216.29,338.53 216.29,136.95 216.29,134.9 
			251.61,134.9 251.61,136.95 		"/>
	</g>
	<path style="fill:#083863;" d="M351.4,386.9h-3.45v-16.26c0-22.784-18.136-41.74-40.92-41.74h-45.08v-184h3.32
		c5.062,0,9.326-3.783,9.929-8.809l3.331-27.775c11.829-12.164,18.466-28.449,18.51-45.416C296.935,28.057,268.604-0.105,233.76,0
		s-63.005,28.436-62.9,63.28c-0.021,16.871,6.633,33.066,18.511,45.048l3.33,27.763c0.603,5.026,4.867,8.809,9.929,8.809h3.32v184
		h-45.08c-22.784,0-40.92,18.956-40.92,41.74v16.26h-3.45c-22.784,0-41.55,18.376-41.55,41.16v29.75
		c0.101,5.585,4.644,10.066,10.23,10.09h297.54c5.586-0.024,10.129-4.505,10.23-10.09v-29.75
		C392.95,405.276,374.184,386.9,351.4,386.9z M205.5,96.067c-9.341-8.335-14.67-20.268-14.64-32.787
		c-0.105-23.798,19.102-43.175,42.9-43.28c23.798-0.105,43.175,19.102,43.28,42.9l0,0c0.007,12.624-5.309,24.667-14.643,33.167
		c-1.833,1.623-3.007,3.861-3.3,6.292l-2.699,22.541h-44.9l-2.7-22.541c-0.291-2.43-1.464-4.669-3.295-6.292L205.5,96.067z
		 M225.95,144.9h16v184h-16V144.9z M139.95,370.64c0-11.756,9.164-21.74,20.92-21.74h146.16c11.756,0,20.92,9.984,20.92,21.74v16.26
		h-188V370.64z M372.95,447.9h-278v-19.84c0.135-11.782,9.767-21.24,21.55-21.16h234.9c11.783-0.08,21.415,9.378,21.55,21.16V447.9z
		"/>
</g>
<g>
</g>
<g>
</g>
<g>
</g>
<g>
</g>
<g>
</g>
<g>
</g>
<g>
</g>
<g>
</g>
<g>
</g>
<g>
</g>
<g>
</g>
<g>
</g>
<g>
</g>
<g>
</g>
<g>
</g>
</svg>
