<?xml version="1.0" encoding="iso-8859-1"?>
<!-- Generator: Adobe Illustrator 19.0.0, SVG Export Plug-In . SVG Version: 6.00 Build 0)  -->
<svg version="1.1" id="Capa_1" xmlns="http://www.w3.org/2000/svg" xmlns:xlink="http://www.w3.org/1999/xlink" x="0px" y="0px"
	 viewBox="0 0 477.28 477.28" style="enable-background:new 0 0 477.28 477.28;" xml:space="preserve">
<g>
	<g>
		<path style="fill:#00EFD1;" d="M289.8,262.65v179.58H41.32V66.38c-0.003-17.3,14.02-31.327,31.32-31.33h185.84
			c17.299,0.007,31.319,14.031,31.32,31.33V262.65z M255.34,200.53V83.6H78.38v116.93H255.34z"/>
		<rect x="78.38" y="83.6" style="fill:#D4E1F4;" width="176.96" height="116.93"/>
	</g>
	<g>
		<path style="fill:#083863;" d="M255.34,210.53H78.38c-5.523,0-10-4.477-10-10V83.6c0-5.523,4.477-10,10-10h176.96
			c5.523,0,10,4.477,10,10v116.93C265.34,206.053,260.863,210.53,255.34,210.53z M88.38,190.53h156.96V93.6H88.38L88.38,190.53z"/>
		<path style="fill:#083863;" d="M467.28,432.64H299.64v-160h16.26c14.819,0.05,26.791,12.104,26.741,26.923
			c0,0.052,0,0.105-0.001,0.157v27.66c0,29.271,23.729,53,53,53c29.271,0,53-23.729,53-53V169.21
			c0.035-16.415-6.124-32.238-17.246-44.31l-78.209-89.135l-15.045,13.19l60.626,69.116c-21.903,3.67-36.683,24.401-33.012,46.304
			c3.249,19.389,20.042,33.586,39.701,33.565c8.294-0.062,16.375-2.629,23.185-7.364v136.8c0,18.225-14.775,33-33,33
			s-33-14.775-33-33V299.72c0.125-25.876-20.751-46.955-46.627-47.08c-0.038,0-0.075,0-0.113,0h-16.26V66.38
			c0-22.789-18.376-41.74-41.16-41.74H72.64c-22.784,0-41,18.951-41,41.74v366.26H10c-5.523,0-10,4.477-10,10s4.477,10,10,10h457.28
			c5.523,0,10-4.477,10-10S472.803,432.64,467.28,432.64z M405.42,177.94c-11.164,0.003-20.217-9.046-20.22-20.21
			c-0.003-11.164,9.046-20.217,20.21-20.22s20.217,9.046,20.22,20.21c0,0.003,0,0.007,0,0.01
			C425.615,168.885,416.576,177.925,405.42,177.94z M51.64,66.38c0-11.761,9.244-21.74,21-21.74h185.84
			c11.76,0,21.16,9.979,21.16,21.74v366.26h-228V66.38z"/>
	</g>
</g>
<g>
</g>
<g>
</g>
<g>
</g>
<g>
</g>
<g>
</g>
<g>
</g>
<g>
</g>
<g>
</g>
<g>
</g>
<g>
</g>
<g>
</g>
<g>
</g>
<g>
</g>
<g>
</g>
<g>
</g>
</svg>
