<?xml version="1.0" encoding="iso-8859-1"?>
<!-- Generator: Adobe Illustrator 19.0.0, SVG Export Plug-In . SVG Version: 6.00 Build 0)  -->
<svg version="1.1" id="Capa_1" xmlns="http://www.w3.org/2000/svg" xmlns:xlink="http://www.w3.org/1999/xlink" x="0px" y="0px"
	 viewBox="0 0 464 464" style="enable-background:new 0 0 464 464;" xml:space="preserve">
<g>
	<g>
		<polygon style="fill:#D4E1F4;" points="453.76,14.811 453.76,449.191 422.45,449.191 422.45,129.601 422.45,14.811 430.28,14.811 
					"/>
		<polygon style="fill:#00ACEA;" points="422.45,14.811 422.45,129.601 422.28,129.601 41.55,129.601 41.55,14.811 		"/>
		<path style="fill:#D4E1F4;" d="M387.05,384.461v42.79c-0.002,12.116-9.824,21.938-21.94,21.94h-18.29
			c-12.116-0.002-21.938-9.824-21.94-21.94v-20.84h40.23C377.229,406.405,387.049,396.579,387.05,384.461z"/>
		<path style="fill:#00EFD1;" d="M387.05,378.981v5.48c-0.001,12.119-9.821,21.944-21.94,21.95H98.89
			c-12.119-0.006-21.939-9.831-21.94-21.95v-54.6c0.001-9.667,4.25-18.845,11.62-25.1l12.52-10.62H367.3v0.37l9.43,8.91
			c6.588,6.212,10.321,14.866,10.32,23.92V378.981z M354.87,371.671v-35.84h-52.29v35.84H354.87z M161.42,371.671v-35.84h-52.29
			v35.84H161.42z"/>
		<g>
			<path style="fill:#D4E1F4;" d="M343.88,237.041l24.52,57.1h-32.55c-0.009-22.417-18.19-40.582-40.607-40.573
				c-22.404,0.009-40.563,18.169-40.573,40.573H99.99l24.52-57.1c3.541-8.243,11.649-13.587,20.62-13.59h178.13
				C332.231,223.454,340.339,228.798,343.88,237.041z"/>
			<rect x="302.58" y="335.83" style="fill:#D4E1F4;" width="52.29" height="35.84"/>
			<rect x="109.13" y="335.83" style="fill:#D4E1F4;" width="52.29" height="35.84"/>
			<path style="fill:#D4E1F4;" d="M139.12,406.771v20.48c-0.002,12.116-9.824,21.938-21.94,21.94H98.89
				c-12.116-0.002-21.938-9.824-21.94-21.94v-42.79c0.001,12.119,9.821,21.944,21.94,21.95h40.23V406.771z"/>
			<polygon style="fill:#D4E1F4;" points="41.55,129.601 41.55,449.191 10.24,449.191 10.24,14.811 33.72,14.811 41.55,14.811 			
				"/>
		</g>
	</g>
	<g>
		<path style="fill:#083863;" d="M161.42,381.671h-52.29c-5.523,0-10-4.477-10-10v-35.84c0-5.523,4.477-10,10-10h52.29
			c5.523,0,10,4.477,10,10v35.84C171.42,377.194,166.943,381.671,161.42,381.671L161.42,381.671z M119.13,361.671h32.29v-15.84
			h-32.29V361.671z"/>
		<path style="fill:#083863;" d="M354.87,381.671h-52.29c-5.523,0-10-4.477-10-10v-35.84c0-5.523,4.477-10,10-10h52.29
			c5.523,0,10,4.477,10,10v35.84C364.87,377.194,360.393,381.671,354.87,381.671z M312.58,361.671h32.29v-15.84h-32.29V361.671z"/>
		<path style="fill:#083863;" d="M383.573,296.152l-5.845-5.534c-0.053-0.141-0.086-0.285-0.145-0.423l-24.519-57.327
			c-5.084-11.974-16.796-19.781-29.804-19.868H145.13c-13.009,0.086-24.724,7.894-29.809,19.869L91.1,289.389l-8.978,7.693
			c-9.61,8.175-15.14,20.162-15.122,32.779v97.389c0.011,17.547,14.245,31.762,31.792,31.75c0.033,0,0.065,0,0.098,0h18.29
			c17.514,0.06,31.76-14.09,31.82-31.604c0-0.049,0-0.097,0-0.146V416h166v11.25c-0.021,17.514,14.16,31.729,31.674,31.75
			c0.049,0,0.097,0,0.146,0h18.29c17.547,0.066,31.824-14.105,31.89-31.652c0-0.033,0-0.065,0-0.098v-99.909
			C396.993,315.543,392.138,304.266,383.573,296.152z M133.7,240.692c1.943-4.608,6.43-7.628,11.43-7.692h178.13
			c5.001,0.063,9.489,3.083,11.431,7.691L353.223,284h-8.37c-5.522-27.389-32.203-45.116-59.592-39.594
			c-19.964,4.025-35.569,19.629-39.594,39.594h-130.5L133.7,240.692z M324.162,284h-57.8c5.521-15.961,22.935-24.424,38.896-18.904
			C314.126,268.164,321.095,275.132,324.162,284z M129,427.25c0.034,6.456-5.173,11.717-11.629,11.751c-0.064,0-0.127,0-0.191-0.001
			H98.89c-6.489,0.077-11.812-5.12-11.889-11.609C87,427.344,87,427.297,87,427.25v-13.164c3.808,1.378,7.842,2.027,11.89,1.914H129
			V427.25z M365.11,439h-18.29c-6.456,0.072-11.748-5.103-11.819-11.559C335,427.377,335,427.314,335,427.25V416h30.11
			c4.048,0.113,8.082-0.536,11.89-1.914v13.164c0,6.489-5.26,11.75-11.749,11.751C365.204,439.001,365.157,439.001,365.11,439z
			 M365.11,396H98.89c-6.389,0.176-11.71-4.861-11.886-11.25c-0.003-0.097-0.004-0.194-0.004-0.29v-54.6
			c-0.014-6.748,2.934-13.161,8.064-17.545l9.7-8.316h258.168l6.915,6.628c4.57,4.358,7.155,10.399,7.153,16.714v57.119
			c-0.015,6.391-5.209,11.56-11.6,11.544C365.304,396.004,365.207,396.003,365.11,396z"/>
		<path style="fill:#083863;" d="M265.46,379.96h-66.92c-5.523,0-10-4.477-10-10s4.477-10,10-10h66.92c5.523,0,10,4.477,10,10
			S270.983,379.96,265.46,379.96z"/>
		<path style="fill:#083863;" d="M265.46,353.141h-66.92c-5.523,0-10-4.477-10-10s4.477-10,10-10h66.92c5.523,0,10,4.477,10,10
			S270.983,353.141,265.46,353.141z"/>
		<path style="fill:#083863;" d="M453.76,5H10.24C4.708,4.893,0.13,9.279,0,14.811v434.38c0.13,5.532,4.708,9.917,10.24,9.809h31.31
			c5.522,0,10.45-4.286,10.45-9.809V140h360v309.191c0,5.523,4.928,9.809,10.45,9.809h31.31c5.532,0.108,10.11-4.277,10.24-9.809
			V14.811C463.87,9.279,459.292,4.893,453.76,5z M32,439H20V25h12V439z M52,120V25h360v95H52z M444,439h-12V25h12V439z"/>
	</g>
</g>
<g>
</g>
<g>
</g>
<g>
</g>
<g>
</g>
<g>
</g>
<g>
</g>
<g>
</g>
<g>
</g>
<g>
</g>
<g>
</g>
<g>
</g>
<g>
</g>
<g>
</g>
<g>
</g>
<g>
</g>
</svg>
