<?xml version="1.0" encoding="iso-8859-1"?>
<!-- Generator: Adobe Illustrator 19.0.0, SVG Export Plug-In . SVG Version: 6.00 Build 0)  -->
<svg version="1.1" id="Capa_1" xmlns="http://www.w3.org/2000/svg" xmlns:xlink="http://www.w3.org/1999/xlink" x="0px" y="0px"
	 viewBox="0 0 455.683 455.683" style="enable-background:new 0 0 455.683 455.683;" xml:space="preserve">
<g>
	<g>
		<path style="fill:#00EFD1;" d="M338.233,373.323v51.16c-0.002,11.534-9.354,20.882-20.888,20.88c-0.001,0-0.001,0-0.002,0h-120.06
			c-11.531-0.001-20.879-9.349-20.88-20.88v-51.16H338.233z"/>
		<polygon style="fill:#D4E1F4;" points="338.233,271.013 338.233,373.323 336.143,373.323 176.403,373.323 176.403,271.013 
			336.143,271.013 		"/>
		<path style="fill:#00EFD1;" d="M338.233,231.333v39.68h-161.83v-39.68c0-44.688,36.227-80.915,80.915-80.915
			S338.233,186.645,338.233,231.333L338.233,231.333z"/>
		<polygon style="fill:#00ACEA;" points="287.593,73.693 287.593,117.533 256.793,117.533 225.993,117.533 225.993,73.693 
			225.993,35.063 287.593,35.063 		"/>
		<path style="fill:#D4E1F4;" d="M169.613,73.703v0.04c0,13.807-9.307,25.879-22.66,29.39l-132.37,34.76V10.003l132.28,34.3
			c13.396,3.466,22.752,15.553,22.75,29.39V73.703z"/>
	</g>
	<path style="fill:#083863;" d="M451.07,171.271l-2.61-7.83c-0.029-0.088-0.06-0.175-0.091-0.261
		c-21.649-59.76-78.426-99.546-141.986-99.497h-8.3v-28.62c-0.199-5.691-4.797-10.241-10.49-10.38h-61.6
		c-5.523,0-9.91,4.857-9.91,10.38v28.62h-37.726c-3.643-14.246-14.748-25.382-28.984-29.064L17.093,0.321
		c-3.076-0.777-6.338-0.126-8.88,1.772c-2.512,1.868-4.034,4.781-4.13,7.91v127.89c0.097,3.134,1.623,6.052,4.143,7.918
		c1.796,1.352,3.984,2.083,6.232,2.082c0.877,0,1.75-0.11,2.6-0.328l132.4-34.765c14.207-3.736,25.272-14.882,28.904-29.117h37.721
		v33.85c-0.054,5.534,4.376,10.072,9.91,10.15h21.09v13.352c-45,5.232-81,43.728-81,90.3v193.148
		c0.144,17.171,14.029,31.056,31.2,31.2h120.06c17.032,0,30.74-14.173,30.74-31.2v-193.15c0.143-24.151-9.422-47.347-26.546-64.378
		c-14.68-14.594-33.878-23.773-54.454-26.034v-13.238h20.51c5.523,0,10.49-4.627,10.49-10.15v-33.85h8.3
		c55.104-0.047,104.337,34.42,123.148,86.213l2.565,7.7c1.724,5.247,7.375,8.103,12.622,6.379c5.247-1.724,8.103-7.375,6.379-12.622
		c-0.009-0.027-0.018-0.053-0.027-0.08V171.271z M144.163,93.461l-120.08,31.467v-102l120.023,31.055
		c10.905,2.843,17.441,13.989,14.598,24.894C156.846,86.006,151.288,91.58,144.163,93.461L144.163,93.461z M186.083,280.683h142v83
		h-142V280.683z M317.343,435.683h-120.06c-6.13-0.131-11.069-5.07-11.2-11.2v-40.8h142v40.8
		C328.083,430.483,323.348,435.683,317.343,435.683z M328.083,231.333v29.35h-142v-29.35c0.05-39.212,31.878-70.96,71.09-70.91
		c18.757,0.024,36.743,7.469,50.029,20.71C320.604,194.395,328.126,212.478,328.083,231.333z M278.083,107.683h-42v-63h42V107.683z"
		/>
</g>
<g>
</g>
<g>
</g>
<g>
</g>
<g>
</g>
<g>
</g>
<g>
</g>
<g>
</g>
<g>
</g>
<g>
</g>
<g>
</g>
<g>
</g>
<g>
</g>
<g>
</g>
<g>
</g>
<g>
</g>
</svg>
