<?xml version="1.0" encoding="iso-8859-1"?>
<!-- Generator: Adobe Illustrator 19.0.0, SVG Export Plug-In . SVG Version: 6.00 Build 0)  -->
<svg version="1.1" id="Capa_1" xmlns="http://www.w3.org/2000/svg" xmlns:xlink="http://www.w3.org/1999/xlink" x="0px" y="0px"
	 viewBox="0 0 492.001 492.001" style="enable-background:new 0 0 492.001 492.001;" xml:space="preserve">
<g>
	<g>
		<path style="fill:#00EFD1;" d="M482.27,360.361v32.78c0,18.778-15.222,34-34,34h-19.56l-1-0.1c0.11-1.27,0.16-2.57,0.16-3.87
			c0.004-25.344-20.539-45.893-45.883-45.897c-25.344-0.004-45.893,20.539-45.897,45.883c0,0.005,0,0.009,0,0.014
			c0,1.32,0.06,2.62,0.17,3.9l-0.74,0.07H150.81l-0.73-0.07c0.11-1.28,0.17-2.58,0.17-3.9
			c-0.374-25.347-21.225-45.592-46.572-45.217c-24.82,0.366-44.851,20.398-45.218,45.217c0,1.34,0.06,2.66,0.17,3.97h-14.9
			c-18.778,0-34-15.222-34-34v-28.72c0.004-15.324,10.258-28.752,25.04-32.79l78.65-21.49l47.02-61.74
			c8.571-11.26,21.909-17.87,36.06-17.87h148.49c15.612,0.001,30.125,8.037,38.41,21.27l36.54,58.34l42.4,19.27
			C474.474,334.931,482.266,347.031,482.27,360.361z"/>
		<path style="fill:#D4E1F4;" d="M427.87,423.171c0,1.3-0.05,2.6-0.16,3.87c-2.133,25.254-24.334,43.998-49.587,41.865
			c-22.284-1.882-39.966-19.552-41.862-41.835c-0.11-1.28-0.17-2.58-0.17-3.9c-0.004-25.344,20.539-45.893,45.883-45.897
			c25.344-0.004,45.893,20.539,45.897,45.883C427.87,423.162,427.87,423.167,427.87,423.171z"/>
		<path style="fill:#00ACEA;" d="M269,150.801h-4.59c-24.033,0.058-43.562-19.377-43.62-43.41c0-0.073,0-0.147,0-0.22v-39.52h95.75
			v39.52c0.063,24.034-19.37,43.567-43.404,43.63c-0.075,0-0.151,0-0.226,0H269z"/>
		<path style="fill:#D4E1F4;" d="M58.63,427.141c-0.11-1.31-0.17-2.63-0.17-3.97c0.374-25.347,21.225-45.592,46.572-45.217
			c24.82,0.366,44.851,20.398,45.218,45.217c0,1.32-0.06,2.62-0.17,3.9c-2.147,25.255-24.361,43.987-49.616,41.84
			C78.215,467.019,60.556,449.388,58.63,427.141z"/>
	</g>
	<path style="fill:#083863;" d="M466.343,320.307l-39.593-18.025l-34.907-55.566c-10.08-16.143-27.822-25.892-46.853-25.745H279
		v-60.526c26.713-3.034,48-25.762,48-53.274v-29.2h2.11c5.523,0,10-4.477,10-10s-4.477-10-10-10h-21.736l0.2-34.884
		c0.02-5.523-4.441-10.016-9.964-10.037s-10.016,4.441-10.036,9.963l0,0l-0.201,34.957h-37.424l-0.189-34.944
		c-0.021-5.523-4.477-10.005-10-10.056h-0.055c-5.548,0.071-9.995,4.615-9.946,10.164l0.189,34.836H208.22c-5.523,0-10,4.477-10,10
		s4.477,10,10,10H211v29.2c-0.064,27.469,20.678,50.525,48,53.358v60.442h-62.5c-17.231-0.037-33.499,7.943-44.016,21.592
		l-44.967,58.934L32.268,322.04C13.194,327.286-0.018,344.639,0,364.421v28.72c-0.086,24.12,19.397,43.744,43.518,43.83
		c0.071,0,0.142,0,0.212,0h6.507c2.52,10.507,8.18,19.997,16.226,27.208c21.393,19.817,54.445,19.797,75.814-0.046
		c7.834-7.36,13.445-16.771,16.195-27.162h169.4c2.51,10.495,8.156,19.976,16.187,27.183c21.397,19.847,54.48,19.832,75.859-0.035
		c7.827-7.358,13.433-16.763,16.182-27.148h12.17c24.12,0.031,43.699-19.497,43.73-43.618c0-0.071,0-0.142,0-0.212v-32.78
		C492.028,343.138,482,327.483,466.343,320.307z M231,107.171v-29.2h76v29.2c0,18.544-15.546,33.8-34.09,33.8h-8.5
		C245.856,140.85,230.906,125.725,231,107.171z M140.115,426.237c-1.691,19.751-19.074,34.392-38.825,32.701
		c-17.383-1.488-31.178-15.26-32.696-32.64c-0.09-1.08-0.134-2.1-0.134-3.127c0.331-19.824,16.67-35.627,36.494-35.296
		c19.358,0.323,34.973,15.938,35.296,35.296C140.25,424.161,140.205,425.185,140.115,426.237z M417.745,426.207
		c-1.671,19.75-19.036,34.407-38.786,32.736c-17.421-1.474-31.245-15.286-32.734-32.706v-0.023
		c-0.088-1.027-0.133-2.051-0.133-3.043c0-19.822,16.069-35.89,35.89-35.89c19.822,0,35.89,16.068,35.89,35.89
		C417.871,424.227,417.829,425.239,417.745,426.207z M472,393.141c0.098,13.062-10.411,23.731-23.473,23.829
		c-0.086,0.001-0.171,0.001-0.257,0.001h-10.73c-3.329-30.685-30.903-52.861-61.588-49.532
		c-26.094,2.831-46.702,23.439-49.532,49.532h-166.5c-3.329-30.688-30.905-52.866-61.593-49.537
		c-26.096,2.831-46.706,23.441-49.537,49.537h-5.06C30.668,417.015,20.043,406.461,20,393.398c0-0.086,0-0.171,0.001-0.257v-28.72
		c-0.037-10.786,7.147-20.263,17.541-23.143l78.582-21.491c2.11-0.579,3.968-1.841,5.286-3.587l47.005-61.523
		c6.717-8.693,17.101-13.76,28.086-13.706h148.49c12.145-0.126,23.482,6.069,29.935,16.358l36.54,58.23
		c1.045,1.648,2.554,2.95,4.337,3.741l42.261,19.24c8.525,3.909,13.975,12.443,13.937,21.821V393.141z"/>
</g>
<g>
</g>
<g>
</g>
<g>
</g>
<g>
</g>
<g>
</g>
<g>
</g>
<g>
</g>
<g>
</g>
<g>
</g>
<g>
</g>
<g>
</g>
<g>
</g>
<g>
</g>
<g>
</g>
<g>
</g>
</svg>
