<?xml version="1.0" encoding="iso-8859-1"?>
<!-- Generator: Adobe Illustrator 19.0.0, SVG Export Plug-In . SVG Version: 6.00 Build 0)  -->
<svg version="1.1" id="Capa_1" xmlns="http://www.w3.org/2000/svg" xmlns:xlink="http://www.w3.org/1999/xlink" x="0px" y="0px"
	 viewBox="0 0 484 484" style="enable-background:new 0 0 484 484;" xml:space="preserve">
<g>
	<g>
		<g>
			<path style="fill:#D4E1F4;" d="M383.4,377.158c0,1.15-0.05,2.28-0.14,3.4c-1.88,22.554-21.688,39.314-44.242,37.434
				c-19.915-1.66-35.729-17.443-37.428-37.354c-0.1-1.15-0.15-2.31-0.15-3.48c-0.01-22.633,18.33-40.988,40.963-40.997
				c22.633-0.01,40.988,18.33,40.997,40.963C383.4,377.135,383.4,377.147,383.4,377.158L383.4,377.158z"/>
			<path style="fill:#D4E1F4;" d="M135.51,377.158c0,1.17-0.05,2.33-0.15,3.48c-1.92,22.549-21.755,39.272-44.304,37.352
				c-19.901-1.694-35.681-17.49-37.356-37.392c-0.1-1.13-0.15-2.28-0.15-3.44c0-22.633,18.347-40.98,40.98-40.98
				S135.51,354.526,135.51,377.158z"/>
		</g>
		<path style="fill:#00EFD1;" d="M431.96,321.068v29.28c-0.001,16.761-13.589,30.349-30.35,30.35h-16.68l-1.67-0.14
			c0.09-1.12,0.14-2.25,0.14-3.4c0.01-22.633-18.33-40.988-40.963-40.997c-22.633-0.01-40.988,18.33-40.997,40.963
			c0,0.012,0,0.023,0,0.035c0,1.17,0.05,2.33,0.15,3.48l-0.65,0.06H136.01l-0.65-0.06c0.1-1.15,0.15-2.31,0.15-3.48
			c0-22.633-18.347-40.98-40.98-40.98s-40.98,18.347-40.98,40.98c0,1.16,0.05,2.31,0.15,3.44l-1.12,0.1H40.4
			c-16.761-0.001-30.349-13.589-30.35-30.35v-25.65c0-13.681,9.153-25.672,22.35-29.28l70.23-19.19l41.98-55.12
			c7.654-10.052,19.565-15.952,32.2-15.95h132.58c13.939-0.001,26.898,7.169,34.3,18.98l32.63,52.09l37.85,17.21
			C425.005,298.363,431.961,309.167,431.96,321.068z"/>
		<path style="fill:#00ACEA;" d="M330.8,116.498v7.58c0.059,21.458-17.289,38.901-38.748,38.96c-0.071,0-0.142,0-0.212,0h-35.28
			v-85.5h35.28c21.458-0.059,38.901,17.289,38.96,38.748C330.8,116.357,330.8,116.428,330.8,116.498z"/>
	</g>
	<path style="fill:#083863;" d="M443.6,109.228H340.312c-3.339-23-23.8-42-48.472-42H267v-0.91c0-5.523-4.477-10-10-10
		s-10,4.477-10,10v18.328l-29.362-0.418h-0.059c-5.524,0.059-9.978,4.542-10,10.067c0.067,5.578,4.584,10.077,10.162,10.121
		l29.258,0.231v31.281l-29.258,0.169c-5.557,0.054-10.037,4.566-10.052,10.123c-0.026,5.492,4.398,9.969,9.89,10.008h0.059
		l29.362-0.3v18.33c0,5.523,4.477,10,10,10s10-4.477,10-10v-1.03h24.84c25.073-0.084,46.048-19.06,48.633-44H443.6
		c11.221,0,20.4,9.559,20.4,20.78v161.89c-0.039,11.239-9.161,20.33-20.4,20.33H442v-11.16
		c-0.031-15.819-9.278-30.169-23.671-36.733l-35.121-15.965l-31.039-49.507c-9.199-14.761-25.387-23.704-42.779-23.635H176.81
		c-15.741,0.028-30.577,7.364-40.155,19.856l-39.928,52.408l-66.99,18.289C12.207,290.6,0.044,306.518,0,324.698v25.65
		c0.087,22.113,18.085,39.969,40.198,39.881c0.067,0,0.135-0.001,0.202-0.001h5c7.471,27.138,35.527,43.082,62.665,35.611
		c17.315-4.767,30.844-18.295,35.611-35.611h149.608c7.469,27.138,35.523,43.082,62.66,35.613
		c17.317-4.766,30.847-18.296,35.613-35.613h10.052c21.612,0,39.306-17,40.3-38h1.69c22.28-0.012,40.35-18.05,40.4-40.33v-161.89
		C484,127.759,465.849,109.228,443.6,109.228z M321,124.078c-0.097,16.063-13.097,29.059-29.16,29.15H267v-66h24.84
		c16.086,0.147,29.073,13.184,29.16,29.27V124.078z M125.4,379.803c-1.458,17.045-16.459,29.681-33.504,28.222
		c-15.034-1.286-26.953-13.218-28.225-28.252v-0.055c-0.074-0.834-0.111-1.7-0.111-2.56c-0.001-17.11,13.868-30.981,30.978-30.982
		s30.981,13.868,30.982,30.978c0,0.001,0,0.003,0,0.004C125.51,378.034,125.472,378.914,125.4,379.803z M373.3,379.739
		c-1.426,17.05-16.404,29.716-33.454,28.29c-15.047-1.258-26.995-13.182-28.285-28.226v-0.032c-0.074-0.857-0.112-1.737-0.112-2.613
		c-0.009-17.11,13.855-30.987,30.964-30.996s30.987,13.855,30.996,30.964c0,0.01,0,0.021,0,0.031
		c-0.009,0.847-0.044,1.697-0.115,2.581L373.3,379.739z M422,350.348c0,11.221-9.169,19.88-20.39,19.88h-8.634
		c-3.559-27.921-29.078-47.671-57-44.112c-23.037,2.936-41.176,21.075-44.112,44.112H145.086c-3.559-27.921-29.078-47.671-57-44.112
		c-23.037,2.936-41.176,21.075-44.112,44.112H40.4c-11.221,0-20.4-8.659-20.4-19.88v-25.65c0.027-9.173,6.166-17.202,15.011-19.634
		l70.242-19.19c2.121-0.579,3.993-1.839,5.326-3.587l41.985-55.088c5.786-7.537,14.744-11.96,24.246-11.971h132.58
		c10.498-0.048,20.271,5.346,25.825,14.254l32.63,52.072c1.042,1.66,2.55,2.977,4.336,3.786l37.869,17.2
		c7.263,3.308,11.932,10.547,11.95,18.528V350.348z"/>
</g>
<g>
</g>
<g>
</g>
<g>
</g>
<g>
</g>
<g>
</g>
<g>
</g>
<g>
</g>
<g>
</g>
<g>
</g>
<g>
</g>
<g>
</g>
<g>
</g>
<g>
</g>
<g>
</g>
<g>
</g>
</svg>
