<?xml version="1.0" encoding="iso-8859-1"?>
<!-- Generator: Adobe Illustrator 19.0.0, SVG Export Plug-In . SVG Version: 6.00 Build 0)  -->
<svg version="1.1" id="Capa_1" xmlns="http://www.w3.org/2000/svg" xmlns:xlink="http://www.w3.org/1999/xlink" x="0px" y="0px"
	 viewBox="0 0 478 478" style="enable-background:new 0 0 478 478;" xml:space="preserve">
<g>
	<g>
		<path style="fill:#D4E1F4;" d="M433.48,386.331v53.66c0.001,15.198-12.32,27.519-27.518,27.52c-0.001,0-0.001,0-0.002,0h-22.94
			c-15.198,0.001-27.519-12.32-27.52-27.518c0-0.001,0-0.001,0-0.002v-26.14h50.46c15.198,0.001,27.519-12.32,27.52-27.518
			C433.48,386.332,433.48,386.332,433.48,386.331z"/>
		<path style="fill:#00EFD1;" d="M433.48,379.451v6.88c0.001,15.198-12.32,27.519-27.518,27.52c-0.001,0-0.001,0-0.002,0H72.04
			c-15.198,0.001-27.519-12.32-27.52-27.518c0-0.001,0-0.001,0-0.002v-68.5c0-12.123,5.332-23.632,14.58-31.47l15.7-13.33h333.91
			v0.46l11.83,11.18c8.259,7.796,12.94,18.652,12.94,30.01L433.48,379.451z M393.11,370.271v-44.95h-65.59v44.95H393.11z
			 M150.48,370.271v-44.95H84.89v44.95H150.48z"/>
		<g>
			<path style="fill:#D4E1F4;" d="M378.67,188.251l31.41,84.78h-40.82c0-28.117-22.793-50.91-50.91-50.91s-50.91,22.793-50.91,50.91
				H73.42l31.42-84.78c3.996-10.794,14.29-17.96,25.8-17.96h222.22C364.372,170.294,374.667,177.458,378.67,188.251z"/>
			<rect x="327.52" y="325.32" style="fill:#D4E1F4;" width="65.59" height="44.95"/>
			<path style="fill:#D4E1F4;" d="M369.26,273.031H267.44c0-28.117,22.793-50.91,50.91-50.91S369.26,244.914,369.26,273.031z"/>
		</g>
		<path style="fill:#00ACEA;" d="M239,122.361h-3.68c-20.815,0.056-37.734-16.773-37.79-37.588c0-0.067,0-0.135,0-0.202v-32.39
			h82.94v32.39c0.056,20.815-16.773,37.734-37.588,37.79c-0.067,0-0.135,0-0.202,0H239z"/>
		<g>
			<rect x="84.89" y="325.32" style="fill:#D4E1F4;" width="65.59" height="44.95"/>
			<path style="fill:#D4E1F4;" d="M122.5,414.311v25.68c0.001,15.198-12.32,27.519-27.518,27.52c-0.001,0-0.001,0-0.002,0H72.04
				c-15.198,0.001-27.519-12.32-27.52-27.518c0-0.001,0-0.001,0-0.002v-53.66c-0.001,15.198,12.32,27.519,27.518,27.52
				c0.001,0,0.001,0,0.002,0h50.46V414.311z"/>
		</g>
	</g>
	<g>
		<path style="fill:#083863;" d="M150.48,380.271H84.89c-5.523,0-10-4.477-10-10v-44.95c0-5.523,4.477-10,10-10h65.59
			c5.523,0,10,4.477,10,10v44.95C160.48,375.794,156.003,380.271,150.48,380.271z M94.89,360.271h45.59v-24.95H94.89V360.271z"/>
		<path style="fill:#083863;" d="M393.11,380.271h-65.59c-5.523,0-10-4.477-10-10v-44.95c0-5.523,4.477-10,10-10h65.59
			c5.523,0,10,4.477,10,10v44.95C403.11,375.794,398.633,380.271,393.11,380.271z M337.52,360.271h45.59v-24.95h-45.59V360.271z"/>
		<path style="fill:#083863;" d="M280.97,371.1h-83.94c-5.523,0-10-4.477-10-10s4.477-10,10-10h83.94c5.523,0,10,4.477,10,10
			S286.493,371.1,280.97,371.1z"/>
		<path style="fill:#083863;" d="M280.97,344.5h-83.94c-5.523,0-10-4.477-10-10s4.477-10,10-10h83.94c5.523,0,10,4.477,10,10
			S286.493,344.5,280.97,344.5z"/>
		<path style="fill:#083863;" d="M427.169,277.4l-7.691-7.382c-0.049-0.155-0.024-0.312-0.081-0.464l-31.381-84.928
			c-5.463-14.716-19.459-24.52-35.156-24.626H249v-28.07c23.627-3.239,41.178-23.512,41-47.359V62h1.35c5.523,0,10-4.477,10-10
			s-4.477-10-10-10h-12.566l0.166-31.792C278.979,4.685,274.525,1,269,0h-0.054c-5.531,0.073-9.982,4.568-10,10.1L258.783,42
			h-39.566l-0.167-31.9c-0.018-5.532-4.469-10.027-10-10.1H209c-5.522,1-9.976,4.685-9.947,10.208L199.216,42H186.65
			c-5.523,0-10,4.477-10,10s4.477,10,10,10H188v22.571c-0.178,23.847,17.373,44.12,41,47.359V160h-98.36
			c-15.705,0.101-29.71,9.907-35.177,24.63l-31.144,84.109L52.874,278.7C41.439,288.471,34.898,302.79,35,317.831v122.16
			C35,460.679,51.352,478,72.04,478h22.94c20.688,0,37.02-17.321,37.02-38.009V424h213v15.991
			c0.219,20.905,17.115,37.796,38.02,38.009h22.94c20.688,0,37.04-17.321,37.04-38.009v-125.31
			C443.066,300.608,437.341,287.126,427.169,277.4z M208,84.571V62h62v22.571c0.173,14.975-11.826,27.255-26.8,27.428
			c-0.173,0.002-0.346,0.002-0.52,0.001h-7.36c-14.975,0.114-27.207-11.934-27.321-26.909C207.998,84.917,207.998,84.744,208,84.571
			z M114.219,191.558c2.545-6.887,9.079-11.486,16.421-11.558h222.22c7.345,0.075,13.882,4.675,16.433,11.564L395.711,263h-17.286
			c-5.517-33.178-36.887-55.602-70.065-50.085c-25.685,4.271-45.813,24.4-50.085,50.085H87.791L114.219,191.558z M358.019,263
			h-79.338c5.523-21.909,27.76-35.192,49.669-29.669C342.945,237.01,354.34,248.406,358.019,263L358.019,263z M112,439.991
			c0,9.66-7.359,18.009-17.02,18.009H72.04C62.379,458,55,449.651,55,439.991V419.5c5.2,2.937,11.068,4.487,17.04,4.5H112V439.991z
			 M405.96,458h-22.94c-9.863-0.202-17.812-8.146-18.02-18.009V424h40.96c5.972-0.013,11.84-1.563,17.04-4.5V440
			C423,449.651,415.621,458,405.96,458z M405.96,404H72.04C62.379,404,55,395.991,55,386.331v-68.5
			c-0.098-9.161,3.86-17.896,10.812-23.862L78.472,283h325.773l9.189,8.926c6.18,5.948,9.64,14.178,9.566,22.755v71.65
			C423,395.991,415.621,404,405.96,404z"/>
	</g>
</g>
<g>
</g>
<g>
</g>
<g>
</g>
<g>
</g>
<g>
</g>
<g>
</g>
<g>
</g>
<g>
</g>
<g>
</g>
<g>
</g>
<g>
</g>
<g>
</g>
<g>
</g>
<g>
</g>
<g>
</g>
</svg>
