<?xml version="1.0" encoding="iso-8859-1"?>
<!-- Generator: Adobe Illustrator 19.0.0, SVG Export Plug-In . SVG Version: 6.00 Build 0)  -->
<svg version="1.1" id="Capa_1" xmlns="http://www.w3.org/2000/svg" xmlns:xlink="http://www.w3.org/1999/xlink" x="0px" y="0px"
	 viewBox="0 0 446.236 446.236" style="enable-background:new 0 0 446.236 446.236;" xml:space="preserve">
<g>
	<g>
		<path style="fill:#00EFD1;" d="M368.46,251.895c37.445,0.016,67.787,30.384,67.771,67.829c0,0.864-0.017,1.728-0.051,2.591
			c-1.31,35.06-30.34,63.96-65.41,65.13c-15.625,0.55-30.957-4.33-43.39-13.81c-11.631-8.814-27.708-8.806-39.33,0.02
			c-12.399,9.468-27.699,14.342-43.29,13.79c-35.1-1.16-64.19-30.08-65.48-65.18c-1.468-37.391,27.653-68.892,65.044-70.36
			c15.399-0.605,30.544,4.059,42.936,13.22c12.124,9.086,28.787,9.094,40.92,0.02C339.836,256.519,353.959,251.873,368.46,251.895z
			 M393.52,319.685c-0.003-13.854-11.236-25.083-25.09-25.08c-13.854,0.003-25.083,11.236-25.08,25.09
			c0.003,13.85,11.23,25.077,25.08,25.08c13.854,0.003,25.087-11.224,25.09-25.078C393.52,319.693,393.52,319.689,393.52,319.685z
			 M272.11,319.685c-0.006-13.851-11.239-25.076-25.09-25.07c-13.851,0.006-25.076,11.239-25.07,25.09
			c0.006,13.847,11.233,25.07,25.08,25.07c13.852-0.001,25.081-11.232,25.08-25.084C272.11,319.689,272.11,319.687,272.11,319.685
			L272.11,319.685z"/>
		<path style="fill:#00ACEA;" d="M368.43,294.605c13.854-0.003,25.087,11.226,25.09,25.08c0.003,13.854-11.226,25.087-25.08,25.09
			c-13.854,0.003-25.087-11.226-25.09-25.08c0-0.003,0-0.007,0-0.01C343.352,305.834,354.58,294.607,368.43,294.605z"/>
		<path style="fill:#00CEB4;" d="M255.41,163.625l20.69,94.68l-0.05,0.1c-24.007-11.352-52.43-7.651-72.73,9.47l-0.11-0.13
			l-15.6-74.34C214.123,197.857,240.751,186.16,255.41,163.625L255.41,163.625z"/>
		<path style="fill:#00EFD1;" d="M255.41,163.625c-20.344,31.27-62.185,40.128-93.455,19.784c-1.418-0.922-2.801-1.898-4.145-2.924
			c-11.635-8.816-27.718-8.804-39.34,0.03c-12.4,9.465-27.7,14.335-43.29,13.78c-35.1-1.16-64.19-30.08-65.48-65.17
			C8.272,91.71,37.446,60.222,74.861,58.794c15.354-0.586,30.452,4.062,42.819,13.18c12.121,9.094,28.786,9.106,40.92,0.03
			c30.111-22.241,72.551-15.86,94.792,14.251c9.149,12.387,13.808,27.521,13.208,42.909
			C266.114,141.462,262.242,153.387,255.41,163.625z M223.94,126.545c0.003-13.854-11.226-25.087-25.08-25.09
			s-25.087,11.226-25.09,25.08s11.226,25.087,25.08,25.09c13.854,0.003,25.087-11.224,25.09-25.078
			C223.94,126.546,223.94,126.545,223.94,126.545z M102.53,126.545c0-13.851-11.229-25.08-25.08-25.08s-25.08,11.229-25.08,25.08
			c0,13.851,11.229,25.08,25.08,25.08C91.301,151.623,102.529,140.395,102.53,126.545z"/>
		<g>
			<path style="fill:#00ACEA;" d="M247.03,294.605c13.854-0.003,25.087,11.226,25.09,25.08c0.003,13.854-11.226,25.087-25.08,25.09
				c-13.854,0.003-25.087-11.226-25.09-25.08c0-0.003,0-0.007,0-0.01C221.951,305.834,233.179,294.606,247.03,294.605z"/>
			<path style="fill:#00ACEA;" d="M198.85,101.465c13.851,0,25.08,11.229,25.08,25.08s-11.229,25.08-25.08,25.08
				s-25.08-11.229-25.08-25.08C173.772,112.694,185,101.467,198.85,101.465z"/>
			<circle style="fill:#00ACEA;" cx="77.45" cy="126.545" r="25.08"/>
		</g>
	</g>
	<g>
		<path style="fill:#083863;" d="M77.45,161.625c-19.374,0-35.08-15.706-35.08-35.08s15.706-35.08,35.08-35.08
			s35.08,15.706,35.08,35.08c0,0,0,0,0,0C112.508,145.91,96.815,161.602,77.45,161.625z M77.45,111.465
			c-8.328,0-15.08,6.752-15.08,15.08c0,8.328,6.752,15.08,15.08,15.08s15.08-6.752,15.08-15.08
			C92.519,118.221,85.774,111.476,77.45,111.465L77.45,111.465z"/>
		<path style="fill:#083863;" d="M198.85,161.625c-19.374-0.006-35.076-15.716-35.07-35.09s15.716-35.076,35.09-35.07
			c19.37,0.006,35.07,15.71,35.07,35.08C233.918,145.913,218.219,161.608,198.85,161.625z M198.85,111.465
			c-8.328,0.006-15.076,6.762-15.07,15.09c0.006,8.328,6.762,15.076,15.09,15.07c8.325-0.006,15.07-6.755,15.07-15.08
			C213.929,118.217,207.178,111.47,198.85,111.465L198.85,111.465z"/>
		<path style="fill:#083863;" d="M247.03,354.775c-19.377,0.003-35.087-15.703-35.09-35.08s15.703-35.087,35.08-35.09
			c19.377-0.003,35.087,15.703,35.09,35.08l0,0C282.091,339.052,266.398,354.75,247.03,354.775z M247.03,304.605
			c-8.331-0.003-15.087,6.749-15.09,15.08c-0.003,8.331,6.749,15.087,15.08,15.09c8.331,0.003,15.087-6.749,15.09-15.08
			c0-0.003,0-0.007,0-0.01C262.099,311.361,255.354,304.616,247.03,304.605z"/>
		<path style="fill:#083863;" d="M368.43,354.775c-19.377-0.003-35.083-15.713-35.08-35.09c0.003-19.377,15.713-35.083,35.09-35.08
			c19.373,0.003,35.077,15.707,35.08,35.08C403.501,339.056,387.802,354.755,368.43,354.775z M368.43,304.605
			c-8.331,0.003-15.083,6.759-15.08,15.09c0.003,8.331,6.759,15.083,15.09,15.08c8.331-0.003,15.083-6.759,15.08-15.09l0,0
			C383.509,311.357,376.758,304.61,368.43,304.605z"/>
		<path style="fill:#083863;" d="M424.452,265.715c-27.083-28.112-70.807-31.797-102.212-8.613
			c-8.585,6.512-20.458,6.504-29.034-0.019c-2.651-1.95-5.424-3.731-8.3-5.331l-18.86-86.3
			c21.545-37.112,8.925-84.663-28.187-106.208c-26.8-15.558-60.282-13.704-85.201,4.718c-8.585,6.514-20.46,6.502-29.033-0.028
			C88.997,38.578,40.372,46.095,15.016,80.723s-17.838,83.253,16.789,108.609c12.531,9.175,27.523,14.385,43.043,14.958
			c17.887,0.588,35.431-4.999,49.684-15.823c8.041-6.115,19.171-6.125,27.222-0.023c8.169,6.206,17.479,10.746,27.4,13.359
			l13.139,62.612c-30.447,30.435-30.456,79.79-0.021,110.237c13.892,13.897,32.52,22.035,52.156,22.784
			c0.855,0.028,1.71,0.042,2.564,0.042c17.017,0.002,33.566-5.569,47.116-15.863c8.04-6.111,19.166-6.119,27.214-0.019
			c30.878,23.593,74.463,20.634,101.868-6.917C453.419,344.848,453.982,296.237,424.452,265.715z M209.979,251.315l-9.862-47
			c0.468-0.008,0.936-0.008,1.4-0.024c17.85-0.645,34.928-7.445,48.336-19.246l12.763,58.41c-17.925-3.641-36.56-0.859-52.64,7.858
			L209.979,251.315z M112.405,172.567c-10.551,8.099-23.603,12.251-36.894,11.737c-29.689-0.981-54.728-25.9-55.818-55.543
			c-1.22-31.899,23.65-58.747,55.549-59.967c13.083-0.5,25.948,3.456,36.489,11.221c15.659,11.692,37.139,11.706,52.813,0.035
			c25.525-19.034,61.648-13.772,80.682,11.754c14.54,19.499,15.279,46.025,1.846,66.303c-17.296,26.665-52.933,34.26-79.598,16.964
			c-1.233-0.8-2.434-1.646-3.602-2.538c-15.219-11.539-36.262-11.526-51.467,0.031V172.567z M426.187,321.942
			c-1.106,29.619-26.116,54.52-55.747,55.508c-13.328,0.509-26.415-3.653-37-11.768c-15.215-11.537-36.252-11.528-51.457,0.022
			c-10.551,8.103-23.606,12.259-36.9,11.746c-29.688-0.981-54.727-25.9-55.817-55.551c-1.263-31.873,23.551-58.736,55.424-59.999
			c13.132-0.52,26.049,3.453,36.618,11.265c15.663,11.68,37.136,11.689,52.809,0.022c25.686-18.95,61.87-13.489,80.819,12.196
			c7.789,10.557,11.754,23.45,11.244,36.559H426.187z"/>
	</g>
</g>
<g>
</g>
<g>
</g>
<g>
</g>
<g>
</g>
<g>
</g>
<g>
</g>
<g>
</g>
<g>
</g>
<g>
</g>
<g>
</g>
<g>
</g>
<g>
</g>
<g>
</g>
<g>
</g>
<g>
</g>
</svg>
