<?xml version="1.0" encoding="iso-8859-1"?>
<!-- Generator: Adobe Illustrator 19.0.0, SVG Export Plug-In . SVG Version: 6.00 Build 0)  -->
<svg version="1.1" id="Capa_1" xmlns="http://www.w3.org/2000/svg" xmlns:xlink="http://www.w3.org/1999/xlink" x="0px" y="0px"
	 viewBox="0 0 469.861 469.861" style="enable-background:new 0 0 469.861 469.861;" xml:space="preserve">
<g>
	<g>
		<path style="fill:#00EFD1;" d="M399.804,174.523c33.365,0.026,60.392,27.094,60.366,60.46c-0.001,0.774-0.016,1.547-0.046,2.32
			c-1.18,31.21-27.04,56.97-58.25,58c-13.914,0.497-27.57-3.847-38.64-12.29c-10.372-7.898-24.746-7.882-35.1,0.04
			c-23.004,17.549-55.259,16.17-76.68-3.28c-9.294-8.352-23.391-8.348-32.68,0.01c-21.451,19.459-53.74,20.818-76.75,3.23
			c-10.372-7.898-24.746-7.882-35.1,0.04c-11.04,8.424-24.662,12.754-38.54,12.25c-31.26-1.03-57.17-26.79-58.3-58.05
			c-1.295-33.325,24.671-61.39,57.996-62.685c13.7-0.532,27.173,3.613,38.204,11.755c10.786,8.1,25.621,8.12,36.43,0.05
			c23.081-17.107,55.027-15.545,76.33,3.73c9.154,8.204,23.016,8.204,32.17,0c21.287-19.254,53.194-20.835,76.28-3.78
			c10.786,8.1,25.621,8.12,36.43,0.05C374.302,178.673,386.882,174.518,399.804,174.523z M420.804,234.943
			c-0.011-12.338-10.022-22.331-22.36-22.32c-12.338,0.011-22.331,10.022-22.32,22.36c0.011,12.338,10.022,22.331,22.36,22.32
			c0.003,0,0.007,0,0.01,0C410.828,257.284,420.813,247.276,420.804,234.943z M312.664,234.943
			c-0.008-12.341-10.019-22.338-22.36-22.33c-12.341,0.008-22.338,10.019-22.33,22.36c0.008,12.341,10.019,22.338,22.36,22.33
			c0.003,0,0.007,0,0.01,0C302.681,257.288,312.672,247.279,312.664,234.943z M199.604,234.943
			c-0.008-12.341-10.019-22.338-22.36-22.33c-12.341,0.008-22.338,10.019-22.33,22.36c0.008,12.341,10.019,22.338,22.36,22.33
			c0.003,0,0.007,0,0.01,0C189.621,257.288,199.612,247.279,199.604,234.943z M91.454,234.943
			c-0.011-12.338-10.022-22.331-22.36-22.32c-12.338,0.011-22.331,10.022-22.32,22.36c0.011,12.338,10.022,22.331,22.36,22.32
			C81.471,257.288,91.462,247.279,91.454,234.943z"/>
		<g>
			<path style="fill:#00ACEA;" d="M398.494,212.573c12.352,0.003,22.363,10.018,22.36,22.37
				c-0.003,12.352-10.018,22.363-22.37,22.36c-12.348-0.003-22.357-10.012-22.36-22.36c-0.014-12.34,9.978-22.356,22.318-22.37
				C398.46,212.573,398.477,212.573,398.494,212.573z"/>
			<path style="fill:#00ACEA;" d="M290.344,212.573c12.352,0.003,22.363,10.018,22.36,22.37
				c-0.003,12.352-10.018,22.363-22.37,22.36c-12.348-0.003-22.357-10.012-22.36-22.36c-0.013-12.341,9.981-22.357,22.322-22.37
				C290.312,212.573,290.328,212.573,290.344,212.573z"/>
			<path style="fill:#00ACEA;" d="M177.284,212.573c12.352,0.003,22.363,10.018,22.36,22.37
				c-0.003,12.352-10.018,22.363-22.37,22.36c-12.348-0.003-22.357-10.012-22.36-22.36c-0.013-12.341,9.981-22.357,22.322-22.37
				C177.252,212.573,177.268,212.573,177.284,212.573z"/>
			<path style="fill:#00ACEA;" d="M69.134,212.573c12.352-0.003,22.367,10.008,22.37,22.36c0.003,12.352-10.008,22.367-22.36,22.37
				c-12.352,0.003-22.367-10.008-22.37-22.36c-0.013-12.341,9.981-22.357,22.322-22.37
				C69.109,212.573,69.122,212.573,69.134,212.573z"/>
		</g>
	</g>
	<g>
		<path style="fill:#083863;" d="M70.409,305.333c-0.787,0-1.575-0.013-2.362-0.04c-38.863-1.304-69.311-33.865-68.007-72.728
			c1.304-38.863,33.865-69.311,72.728-68.007c14.229,0.477,27.979,5.257,39.436,13.709c7.251,5.539,17.307,5.56,24.581,0.05
			c26.91-19.923,64.14-18.093,88.966,4.374c5.347,4.754,13.407,4.751,18.751-0.006c24.81-22.439,61.996-24.288,88.909-4.42
			c7.253,5.542,17.312,5.562,24.587,0.049c31.327-22.946,75.324-16.151,98.27,15.176s16.151,75.324-15.176,98.27
			c-11.323,8.293-24.868,13.008-38.893,13.538c-16.208,0.538-32.107-4.521-45.025-14.326c-6.801-5.139-16.191-5.127-22.979,0.031
			c-26.828,20.466-64.442,18.868-89.438-3.8c-5.485-4.945-13.822-4.94-19.3,0.013c-25.02,22.671-62.657,24.251-89.49,3.758
			c-6.804-5.14-16.197-5.128-22.987,0.031C100.735,300.302,85.783,305.335,70.409,305.333z M235.123,263.48
			c8.505-0.002,16.709,3.153,23.02,8.855c8.742,7.926,19.997,12.518,31.789,12.97c11.576,0.453,22.945-3.158,32.138-10.208
			c13.948-10.595,33.242-10.616,47.213-0.051c9.231,7.068,20.637,10.695,32.255,10.259c25.82-0.853,47.617-22.557,48.593-48.384
			c1.14-27.778-20.454-51.22-48.232-52.36c-11.486-0.471-22.787,3.003-32.024,9.845c-14.357,10.671-34.017,10.647-48.347-0.061
			c-19.258-14.21-45.861-12.883-63.609,3.173c-12.997,11.561-32.592,11.559-45.586-0.006c-17.773-16.076-44.422-17.374-63.672-3.1
			c-14.354,10.669-34.012,10.645-48.339-0.061c-22.423-16.5-53.975-11.698-70.475,10.725c-6.763,9.191-10.208,20.405-9.77,31.808
			c0.935,25.852,22.753,47.571,48.636,48.424c11.578,0.452,22.95-3.159,32.147-10.207c13.95-10.589,33.24-10.61,47.213-0.051
			c19.187,14.685,46.131,13.549,64.013-2.7c6.316-5.707,14.525-8.866,23.037-8.866V263.48z"/>
		<path style="fill:#083863;" d="M69.134,267.303c-17.875,0.025-32.385-14.445-32.41-32.32c-0.025-17.875,14.445-32.385,32.32-32.41
			c17.875-0.025,32.385,14.445,32.41,32.32c0,0.017,0,0.033,0,0.05C101.432,252.79,86.981,267.259,69.134,267.303z M69.134,222.573
			c-6.829-0.025-12.385,5.491-12.41,12.32c-0.025,6.829,5.491,12.385,12.32,12.41c6.829,0.025,12.385-5.491,12.41-12.32
			c0-0.013,0-0.027,0-0.04C81.45,228.132,75.945,222.605,69.134,222.573z"/>
		<path style="fill:#083863;" d="M177.284,267.303c-17.875,0.025-32.385-14.445-32.41-32.32
			c-0.025-17.875,14.445-32.385,32.32-32.41c17.875-0.025,32.385,14.445,32.41,32.32c0,0.017,0,0.033,0,0.05
			C209.582,252.79,195.131,267.259,177.284,267.303z M177.284,222.573c-6.829-0.025-12.385,5.491-12.41,12.32
			c-0.025,6.829,5.491,12.385,12.32,12.41c6.829,0.025,12.385-5.491,12.41-12.32c0-0.013,0-0.027,0-0.04
			C189.597,228.134,184.093,222.608,177.284,222.573z"/>
		<path style="fill:#083863;" d="M290.344,267.303c-17.875,0.025-32.385-14.445-32.41-32.32
			c-0.025-17.875,14.445-32.385,32.32-32.41c17.875-0.025,32.385,14.445,32.41,32.32c0,0.017,0,0.033,0,0.05
			C322.642,252.79,308.191,267.259,290.344,267.303z M290.344,222.573c-6.829-0.025-12.385,5.491-12.41,12.32
			c-0.025,6.829,5.491,12.385,12.32,12.41c6.829,0.025,12.385-5.491,12.41-12.32c0-0.013,0-0.027,0-0.04
			C302.657,228.134,297.153,222.608,290.344,222.573z"/>
		<path style="fill:#083863;" d="M398.494,267.303c-17.875,0.03-32.39-14.435-32.42-32.31c-0.03-17.875,14.435-32.39,32.31-32.42
			c17.875-0.03,32.39,14.435,32.42,32.31c0,0.02,0,0.04,0,0.06C430.782,252.786,416.338,267.253,398.494,267.303z M398.494,222.573
			c-6.829-0.03-12.389,5.481-12.42,12.31c-0.03,6.829,5.481,12.39,12.31,12.42c6.829,0.03,12.39-5.481,12.42-12.31
			c0-0.017,0-0.033,0-0.05C410.797,228.138,405.299,222.613,398.494,222.573z"/>
	</g>
</g>
<g>
</g>
<g>
</g>
<g>
</g>
<g>
</g>
<g>
</g>
<g>
</g>
<g>
</g>
<g>
</g>
<g>
</g>
<g>
</g>
<g>
</g>
<g>
</g>
<g>
</g>
<g>
</g>
<g>
</g>
</svg>
