<?xml version="1.0" encoding="iso-8859-1"?>
<!-- Generator: Adobe Illustrator 19.0.0, SVG Export Plug-In . SVG Version: 6.00 Build 0)  -->
<svg version="1.1" id="Capa_1" xmlns="http://www.w3.org/2000/svg" xmlns:xlink="http://www.w3.org/1999/xlink" x="0px" y="0px"
	 viewBox="0 0 452.307 452.307" style="enable-background:new 0 0 452.307 452.307;" xml:space="preserve">
<g>
	<g>
		<path style="fill:#D4E1F4;" d="M388.334,374.886v44.76c0,12.675-10.275,22.95-22.95,22.95h0h-19.12
			c-12.675,0-22.95-10.275-22.95-22.95v0v-21.81h42.07c12.672,0.003,22.947-10.266,22.95-22.938
			C388.334,374.894,388.334,374.89,388.334,374.886z"/>
		<path style="fill:#00EFD1;" d="M388.334,369.156v5.73c0.003,12.672-10.266,22.947-22.938,22.95c-0.004,0-0.008,0-0.012,0H86.924
			c-12.672,0.003-22.947-10.266-22.95-22.938c0-0.004,0-0.008,0-0.012v-57.12c-0.002-10.11,4.441-19.709,12.15-26.25l13.09-11.11
			h278.47v0.39l9.87,9.32c6.881,6.502,10.781,15.552,10.78,25.02V369.156z M354.674,361.506v-37.49h-54.7v37.49H354.674z
			 M152.334,361.506v-37.49h-54.7v37.49H152.334z"/>
		<g>
			<path style="fill:#D4E1F4;" d="M343.184,220.676l25.65,59.73h-34.05c0-23.447-19.008-42.455-42.455-42.455
				c-23.447,0-42.455,19.008-42.455,42.455l0,0H88.064l25.65-59.73c3.704-8.621,12.186-14.209,21.57-14.21h186.33
				C330.997,206.467,339.479,212.055,343.184,220.676z"/>
			<rect x="299.974" y="324.016" style="fill:#D4E1F4;" width="54.7" height="37.49"/>
			<path style="fill:#D4E1F4;" d="M334.784,280.406h-84.91c0-23.447,19.008-42.455,42.455-42.455
				C315.776,237.951,334.784,256.959,334.784,280.406L334.784,280.406z"/>
		</g>
		<circle style="fill:#00ACEA;" cx="226.154" cy="128.286" r="25.82"/>
		<g>
			<rect x="97.634" y="324.016" style="fill:#D4E1F4;" width="54.7" height="37.49"/>
			<path style="fill:#D4E1F4;" d="M128.994,398.226v21.42c0,12.675-10.275,22.95-22.95,22.95c0,0,0,0,0,0h-19.12
				c-12.675,0-22.95-10.275-22.95-22.95c0,0,0,0,0,0v-44.76c-0.003,12.672,10.266,22.947,22.938,22.95c0.004,0,0.008,0,0.012,0
				h42.07V398.226z"/>
		</g>
	</g>
	<g>
		<path style="fill:#083863;" d="M152.334,371.506h-54.7c-5.523,0-10-4.477-10-10v-37.49c0-5.523,4.477-10,10-10h54.7
			c5.523,0,10,4.477,10,10v37.49C162.334,367.029,157.856,371.506,152.334,371.506z M107.634,351.506h34.7v-17.49h-34.7V351.506z"/>
		<g>
			<path style="fill:#083863;" d="M384.33,282.845l-6.167-5.866c-0.064-0.172-0.09-0.348-0.163-0.519l-25.638-59.808
				c-5.26-12.32-17.353-20.321-30.748-20.346h-186.33c-13.398,0.023-25.495,8.024-30.759,20.344l-25.382,59.147l-9.4,8.073
				c-9.933,8.453-15.636,20.853-15.589,33.896v101.88c-0.041,17.997,14.516,32.62,32.513,32.66c0.086,0,0.171,0,0.257,0h19.12
				c18.158,0.129,32.981-14.487,33.11-32.644c0-0.005,0-0.01,0-0.016v-11.34h174v11.34c0.12,18.158,14.937,32.78,33.094,32.66
				c0.005,0,0.01,0,0.016,0h19.12c17.997,0.101,32.668-14.406,32.77-32.403c0-0.086,0.001-0.171,0-0.257v-104.51
				C398.167,302.932,393.169,291.258,384.33,282.845z M122.903,224.49c2.12-4.958,6.989-8.177,12.381-8.184h186.33
				c5.393,0.008,10.262,3.227,12.382,8.186l19.658,45.814h-9.841c-5.522-28.435-33.051-47.01-61.486-41.488
				c-20.994,4.077-37.41,20.493-41.488,41.488h-137.6L122.903,224.49z M323.2,270.306h-61.746
				c5.522-17.05,23.821-26.394,40.87-20.872c9.902,3.207,17.665,10.97,20.872,20.872H323.2z M74.154,317.766
				c-0.042-7.177,3.078-14.008,8.53-18.676l10.2-8.784h270.412l7.3,7.029c4.85,4.649,7.581,11.083,7.558,17.801v59.75
				c0,7.141-5.629,13.42-12.77,13.42H86.924c-7.141,0-12.77-6.279-12.77-13.42V317.766z M119.154,419.646
				c-0.109,7.101-5.953,12.77-13.054,12.661c-0.019,0-0.037-0.001-0.056-0.001h-19.12c-6.94,0.112-12.656-5.422-12.769-12.362
				c-0.002-0.099-0.002-0.199-0.001-0.298v-14.465c4,1.706,8.175,3.125,12.77,3.125h32.23V419.646z M365.384,432.306h-19.12
				c-7.1,0.139-12.97-5.504-13.109-12.604c0-0.019-0.001-0.037-0.001-0.056v-11.34h32.23c4.595,0,8.77-1.419,12.77-3.125v14.465
				c0.052,6.94-5.532,12.609-12.472,12.661C365.582,432.308,365.483,432.308,365.384,432.306z"/>
			<path style="fill:#083863;" d="M365.154,324.306c0-5.523-4.477-10-10-10h-55c-5.523,0-10,4.477-10,10v37c0,5.523,4.477,10,10,10
				h55c5.523,0,10-4.477,10-10V324.306z M310.154,334.306h35v17h-35V334.306z"/>
		</g>
		<path style="fill:#083863;" d="M261.154,369.716h-70c-5.523,0-10-4.477-10-10s4.477-10,10-10h70c5.523,0,10,4.477,10,10
			S266.676,369.716,261.154,369.716z"/>
		<path style="fill:#083863;" d="M261.154,341.666h-70c-5.523,0-10-4.477-10-10s4.477-10,10-10h70c5.523,0,10,4.477,10,10
			S266.676,341.666,261.154,341.666z"/>
		<path style="fill:#083863;" d="M226.154,164.106c-19.783,0-35.82-16.037-35.82-35.82s16.037-35.82,35.82-35.82
			c19.783,0,35.82,16.037,35.82,35.82l0,0C261.951,148.059,245.927,164.083,226.154,164.106z M226.154,112.466
			c-8.737,0-15.82,7.083-15.82,15.82s7.083,15.82,15.82,15.82c8.737,0,15.82-7.083,15.82-15.82
			C241.964,119.553,234.887,112.476,226.154,112.466z"/>
		<path style="fill:#083863;" d="M287.374,93.366c-2.653,0.004-5.198-1.051-7.072-2.929c-29.939-29.827-78.361-29.827-108.3,0
			c-3.905,3.905-10.237,3.906-14.143,0.001s-3.906-10.237-0.001-14.143l0,0c37.75-37.635,98.832-37.635,136.582,0
			c3.905,3.905,3.905,10.237,0,14.142c-1.875,1.875-4.419,2.929-7.071,2.929H287.374z"/>
		<path style="fill:#083863;" d="M328.194,62.186c-2.652,0.004-5.197-1.05-7.07-2.928c-52.37-52.352-137.57-52.352-189.94,0
			c-3.923,3.887-10.255,3.859-14.142-0.064c-3.863-3.899-3.862-10.182,0.002-14.08c60.164-60.152,158.056-60.152,218.22,0
			c3.906,3.905,3.907,10.236,0.002,14.142C333.39,61.132,330.846,62.186,328.194,62.186L328.194,62.186z"/>
	</g>
</g>
<g>
</g>
<g>
</g>
<g>
</g>
<g>
</g>
<g>
</g>
<g>
</g>
<g>
</g>
<g>
</g>
<g>
</g>
<g>
</g>
<g>
</g>
<g>
</g>
<g>
</g>
<g>
</g>
<g>
</g>
</svg>
