<?xml version="1.0" encoding="iso-8859-1"?>
<!-- Generator: Adobe Illustrator 19.0.0, SVG Export Plug-In . SVG Version: 6.00 Build 0)  -->
<svg version="1.1" id="Capa_1" xmlns="http://www.w3.org/2000/svg" xmlns:xlink="http://www.w3.org/1999/xlink" x="0px" y="0px"
	 viewBox="0 0 438.916 438.916" style="enable-background:new 0 0 438.916 438.916;" xml:space="preserve">
<g>
	<g>
		<path style="fill:#00CEB4;" d="M323.988,304.363l-31.29-67.37v-0.43h34.91c6.608,0,12.97,2.509,17.8,7.02l56.79,53.05
			c5.282,4.931,8.28,11.834,8.28,19.06v53c-0.003,14.401-11.679,26.072-26.08,26.07h-13.04l-0.12-0.01c0.08-1,0.12-2.01,0.12-3.03
			c0-20.642-16.733-37.375-37.375-37.375s-37.375,16.733-37.375,37.375c0,1.02,0.04,2.03,0.12,3.03l-0.12,0.01h-53.9v-90.4H323.988z
			"/>
		<g>
			<path style="fill:#D4E1F4;" d="M371.358,391.723c0,1.02-0.04,2.03-0.12,3.03c-1.673,20.575-19.709,35.899-40.285,34.225
				c-18.252-1.484-32.741-15.973-34.225-34.225c-0.08-1-0.12-2.01-0.12-3.03c0-20.642,16.733-37.375,37.375-37.375
				S371.358,371.082,371.358,391.723z"/>
			<polygon style="fill:#D4E1F4;" points="292.698,236.993 323.988,304.363 242.708,304.363 242.708,236.563 292.698,236.563 			"/>
		</g>
		<circle style="fill:#00ACEA;" cx="255.998" cy="128.293" r="25.82"/>
		<path style="fill:#00EFD1;" d="M242.708,304.363v90.4h-99.96l-0.12-0.01c0.08-1,0.12-2.01,0.12-3.03
			c0.004-20.644-16.729-37.383-37.373-37.387c-20.644-0.004-37.383,16.729-37.387,37.373c0,0.005,0,0.009,0,0.014
			c0,1.02,0.04,2.03,0.12,3.03l-0.12,0.01h-13.47c-14.401,0.002-26.077-11.669-26.08-26.07v-20.87
			c0.002-24.002,19.458-43.458,43.46-43.46h43.02c1.013,0,2.024-0.06,3.03-0.18l0.02,0.18L242.708,304.363z"/>
		<g>
			<path style="fill:#D4E1F4;" d="M242.708,236.563v67.8h-124.74l-0.02-0.18c6.125-0.712,11.799-3.575,16.01-8.08l48-51.28
				c4.93-5.27,11.824-8.261,19.04-8.26H242.708z"/>
			<path style="fill:#D4E1F4;" d="M142.748,391.723c0,1.02-0.04,2.03-0.12,3.03c-1.673,20.578-19.712,35.903-40.29,34.23
				c-18.254-1.484-32.745-15.975-34.23-34.23c-0.08-1-0.12-2.01-0.12-3.03c0-20.644,16.736-37.38,37.38-37.38
				S142.748,371.079,142.748,391.723L142.748,391.723L142.748,391.723z"/>
		</g>
	</g>
	<g>
		<path style="fill:#083863;" d="M409.015,289.325l-56.786-53.051c-6.674-6.249-15.478-9.722-24.621-9.711h-13.15v-13h12.14
			c5.523,0,10-4.477,10-10s-4.477-10-10-10h-125.18c-5.523,0-10,4.477-10,10s4.477,10,10,10h12.04v13h-12.46
			c-9.98,0.015-19.51,4.149-26.34,11.426l-48.008,51.288c-2.595,2.808-6.099,4.606-9.893,5.078
			c-0.608,0.106-1.222,0.175-1.838,0.208H71.898c-29.455-0.059-53.381,23.771-53.44,53.226c0,0.011,0,0.023,0,0.034v20.87
			c0.032,19.842,16.143,35.902,35.986,35.87c0.025,0,0.05,0,0.074,0h5.308c7.196,25.152,33.419,39.709,58.571,32.513
			c15.724-4.498,28.015-16.789,32.513-32.513h137.535c7.192,25.15,33.41,39.707,58.56,32.515
			c15.725-4.497,28.018-16.789,32.515-32.515h4.878c19.842,0.073,35.987-15.953,36.06-35.796c0-0.025,0-0.05,0-0.074v-53
			C420.447,305.701,416.306,296.158,409.015,289.325z M338.582,250.991l46.537,43.572h-54.75l-22.2-48h19.439
			C331.695,246.595,335.617,248.178,338.582,250.991L338.582,250.991z M286.117,246.563l22.2,48h-55.859v-48H286.117z
			 M233.458,213.563h61v13h-61V213.563z M189.258,251.754c3.033-3.271,7.279-5.148,11.74-5.191h31.46v48h-83.174L189.258,251.754z
			 M38.458,368.693v-20.87c0.027-18.397,14.963-33.288,33.36-33.26c0.027,0,0.054,0,0.08,0h43.02c0.662,0,1.325-0.022,1.982-0.059
			c0.355,0.039,0.711,0.059,1.068,0.059h114.49v70h-80.226c-3.844-25.882-27.942-43.748-53.824-39.904
			c-20.636,3.065-36.839,19.268-39.904,39.904h-3.986c-8.784,0.085-15.974-6.967-16.059-15.751
			C38.458,368.772,38.458,368.733,38.458,368.693z M105.368,419.103c-14.235-0.056-26.075-10.965-27.292-25.148
			c-0.058-0.731-0.088-1.482-0.088-2.232c0-15.122,12.258-27.38,27.38-27.38c15.122,0,27.38,12.258,27.38,27.38
			c0,0.75-0.029,1.5-0.088,2.232C131.443,408.138,119.603,419.048,105.368,419.103z M333.988,419.103
			c-14.235-0.055-26.076-10.965-27.293-25.148c-0.057-0.735-0.087-1.486-0.087-2.232c0-15.119,12.256-27.375,27.375-27.375
			s27.375,12.256,27.375,27.375c0,0.75-0.029,1.5-0.088,2.232C360.056,408.136,348.22,419.045,333.988,419.103z M400.458,368.693
			c-0.019,8.785-7.157,15.89-15.941,15.871c-0.04,0-0.079,0-0.119-0.001h-3.555c-3.838-25.88-27.929-43.748-53.809-39.91
			c-20.642,3.061-36.849,19.269-39.91,39.91h-34.666v-70h146.28c0.557-0.037,1.11-0.12,1.653-0.249
			c0.045,0.458,0.068,0.918,0.067,1.379V368.693z"/>
		<path style="fill:#083863;" d="M255.998,164.113c-19.783,0-35.82-16.037-35.82-35.82c0-19.783,16.037-35.82,35.82-35.82
			c19.783,0,35.82,16.037,35.82,35.82l0,0C291.795,148.067,275.771,164.091,255.998,164.113z M255.998,112.473
			c-8.737,0-15.82,7.083-15.82,15.82c0,8.737,7.083,15.82,15.82,15.82c8.737,0,15.82-7.083,15.82-15.82
			C271.808,119.56,264.731,112.483,255.998,112.473z"/>
		<path style="fill:#083863;" d="M317.218,93.373c-2.653,0.003-5.198-1.051-7.072-2.93c-29.934-29.833-78.361-29.833-108.295,0
			c-3.905,3.906-10.236,3.907-14.143,0.003s-3.907-10.236-0.003-14.143l0,0c37.745-37.647,98.839-37.647,136.584,0
			c3.905,3.906,3.904,10.237-0.002,14.142C322.413,92.32,319.87,93.373,317.218,93.373L317.218,93.373z"/>
		<path style="fill:#083863;" d="M358.038,62.193c-2.653,0.003-5.198-1.051-7.071-2.929c-52.365-52.366-137.572-52.366-189.938,0
			c-3.922,3.888-10.254,3.86-14.142-0.062c-3.864-3.898-3.864-10.182,0-14.08c60.164-60.163,158.058-60.163,218.222,0
			c3.905,3.905,3.905,10.237,0,14.142C363.233,61.14,360.69,62.193,358.038,62.193z"/>
	</g>
</g>
<g>
</g>
<g>
</g>
<g>
</g>
<g>
</g>
<g>
</g>
<g>
</g>
<g>
</g>
<g>
</g>
<g>
</g>
<g>
</g>
<g>
</g>
<g>
</g>
<g>
</g>
<g>
</g>
<g>
</g>
</svg>
