<?xml version="1.0" encoding="iso-8859-1"?>
<!-- Generator: Adobe Illustrator 19.0.0, SVG Export Plug-In . SVG Version: 6.00 Build 0)  -->
<svg version="1.1" id="Capa_1" xmlns="http://www.w3.org/2000/svg" xmlns:xlink="http://www.w3.org/1999/xlink" x="0px" y="0px"
	 viewBox="0 0 438 438" style="enable-background:new 0 0 438 438;" xml:space="preserve">
<g>
	<g>
		<path style="fill:#00EFD1;" d="M428,324.415v29c-0.003,16.61-13.47,30.073-30.08,30.07h-17.53l-0.66-0.06
			c0.1-1.14,0.15-2.29,0.15-3.45c-0.352-22.42-18.812-40.31-41.232-39.958c-21.924,0.344-39.614,18.034-39.958,39.958
			c0,1.16,0.05,2.31,0.15,3.45l-0.65,0.06H134.8l-0.65-0.06c0.1-1.14,0.15-2.29,0.15-3.45c-0.352-22.42-18.812-40.31-41.232-39.958
			c-21.924,0.344-39.614,18.034-39.958,39.958c0,1.18,0.05,2.35,0.15,3.5l-0.15,0.01H40.08c-16.61,0.003-30.077-13.46-30.08-30.07
			l0,0v-25.41c0.004-13.556,9.074-25.435,22.15-29.01l69.57-19l41.59-54.62c7.586-9.956,19.384-15.799,31.9-15.8h131.35
			c13.81,0.001,26.648,7.107,33.98,18.81l32.33,51.61l37.5,17.04C421.104,301.918,427.996,312.622,428,324.415z"/>
		<path style="fill:#D4E1F4;" d="M379.88,379.975c0,1.16-0.05,2.31-0.15,3.45c-1.9,22.337-21.548,38.905-43.885,37.005
			c-19.702-1.676-35.33-17.304-37.005-37.005c-0.1-1.14-0.15-2.29-0.15-3.45c0.352-22.42,18.812-40.31,41.232-39.958
			C361.846,340.361,379.536,358.05,379.88,379.975L379.88,379.975z"/>
		<circle style="fill:#00ACEA;" cx="239.88" cy="135.905" r="25.82"/>
		<path style="fill:#D4E1F4;" d="M134.3,379.975c0,1.16-0.05,2.31-0.15,3.45c-1.899,22.338-21.547,38.908-43.885,37.009
			c-19.685-1.673-35.307-17.276-37.005-36.959c-0.1-1.15-0.15-2.32-0.15-3.5c0.352-22.42,18.812-40.31,41.232-39.958
			C116.266,340.36,133.956,358.05,134.3,379.975L134.3,379.975z"/>
	</g>
	<g>
		<path style="fill:#083863;" d="M414.507,287.931l-34.76-15.8l-30.732-49.3c-9.098-14.716-25.153-23.689-42.455-23.726H175.21
			c-15.66,0.135-30.376,7.511-39.856,19.977l-39.538,52.042l-66.305,18.167C12.1,294.11,0.034,309.939,0,328.005v25.41
			c0.06,21.981,17.928,39.751,39.909,39.691c0.057,0,0.114,0,0.171-0.001h4.857c2.516,9.143,7.523,17.408,14.463,23.871
			c20.624,18.902,52.666,17.505,71.568-3.119c5.417-5.911,9.354-13.023,11.486-20.752H290.52c2.51,9.135,7.509,17.393,14.438,23.853
			c20.527,18.944,52.525,17.662,71.469-2.865c5.503-5.962,9.49-13.161,11.626-20.988h9.867c21.98,0.155,39.924-17.538,40.079-39.519
			c0-0.057,0.001-0.114,0.001-0.171v-29C437.977,308.706,428.798,294.452,414.507,287.931z M124.186,382.587
			c-1.48,15.813-14.718,27.921-30.6,27.988c-15.754,0-28.588-12.277-30.588-27.949v-0.014c0-0.859,0-1.746,0-2.637
			c0.097-16.92,13.892-30.558,30.812-30.461c16.783,0.096,30.365,13.678,30.461,30.461
			C124.272,380.84,124.263,381.705,124.186,382.587z M369.766,382.587c-1.435,16.834-16.244,29.317-33.078,27.883
			c-14.844-1.265-26.618-13.039-27.883-27.883v-0.033c-0.074-0.846-0.112-1.714-0.112-2.579
			c0.305-16.897,14.251-30.347,31.148-30.042c16.467,0.298,29.744,13.575,30.042,30.042
			C369.88,380.84,369.843,381.705,369.766,382.587z M418,353.415c-0.047,10.922-8.939,19.739-19.861,19.692
			c-0.073,0-0.146-0.001-0.219-0.002h-8.471c-3.2-24-24.464-44.1-50.159-44.1s-46.971,20.1-50.169,44.1H143.869
			c-3.2-24-24.469-44.1-50.169-44.1s-46.962,20.1-50.159,44.1H40.08c-10.921,0.167-19.91-8.55-20.078-19.471
			C20.001,353.56,20,353.487,20,353.415v-25.41c0.02-9.043,6.067-16.962,14.785-19.363l69.569-19c2.12-0.579,3.991-1.84,5.322-3.589
			l41.587-54.848c5.685-7.515,14.524-11.981,23.947-12.1h131.35c10.408,0.063,20.047,5.488,25.5,14.353l32.34,51.728
			c1.039,1.68,2.546,3.02,4.337,3.854l37.493,17.065c7.163,3.28,11.76,10.432,11.77,18.31V353.415z"/>
		<path style="fill:#083863;" d="M239.88,171.725c-19.783,0-35.82-16.037-35.82-35.82s16.037-35.82,35.82-35.82
			c19.783,0,35.82,16.037,35.82,35.82l0,0C275.677,155.678,259.653,171.702,239.88,171.725z M239.88,120.085
			c-8.737,0-15.82,7.083-15.82,15.82c0,8.737,7.083,15.82,15.82,15.82c8.737,0,15.82-7.083,15.82-15.82
			C255.69,127.172,248.613,120.095,239.88,120.085z"/>
		<path style="fill:#083863;" d="M301.1,100.985c-2.654,0.003-5.199-1.051-7.073-2.93c-29.934-29.833-78.361-29.833-108.295,0
			c-3.887,3.923-10.219,3.952-14.142,0.064c-3.923-3.887-3.952-10.219-0.064-14.142c0.021-0.021,0.041-0.042,0.062-0.062
			c37.745-37.647,98.839-37.647,136.584,0c3.905,3.906,3.904,10.237-0.002,14.142C306.295,99.931,303.752,100.985,301.1,100.985z"/>
		<path style="fill:#083863;" d="M341.92,69.805c-2.653,0.004-5.198-1.05-7.071-2.929c-52.502-52.324-137.436-52.324-189.938,0
			c-3.922,3.888-10.254,3.86-14.142-0.062c-3.864-3.898-3.864-10.182,0-14.08c60.312-60.135,157.91-60.135,218.222,0
			c3.905,3.905,3.905,10.237,0,14.142C347.116,68.751,344.572,69.805,341.92,69.805z"/>
	</g>
</g>
<g>
</g>
<g>
</g>
<g>
</g>
<g>
</g>
<g>
</g>
<g>
</g>
<g>
</g>
<g>
</g>
<g>
</g>
<g>
</g>
<g>
</g>
<g>
</g>
<g>
</g>
<g>
</g>
<g>
</g>
</svg>
