<?xml version="1.0" encoding="iso-8859-1"?>
<!-- Generator: Adobe Illustrator 19.0.0, SVG Export Plug-In . SVG Version: 6.00 Build 0)  -->
<svg version="1.1" id="Capa_1" xmlns="http://www.w3.org/2000/svg" xmlns:xlink="http://www.w3.org/1999/xlink" x="0px" y="0px"
	 viewBox="0 0 462 462" style="enable-background:new 0 0 462 462;" xml:space="preserve">
<g>
	<g>
		<path style="fill:#D4E1F4;" d="M383.835,385.861v38.05c-0.001,10.78-8.74,19.519-19.52,19.52h-16.26
			c-10.78-0.001-19.519-8.74-19.52-19.52v-18.54h35.78C375.092,405.372,383.83,396.638,383.835,385.861z"/>
		<path style="fill:#00EFD1;" d="M383.835,380.981v4.88c-0.005,10.777-8.743,19.511-19.52,19.51h-236.79
			c-10.775,0-19.51-8.735-19.51-19.51l0,0v-48.58c0.002-8.595,3.779-16.756,10.33-22.32l11.13-9.44h236.79v0.32l8.39,7.93
			c5.86,5.527,9.181,13.225,9.18,21.28V380.981z M355.205,374.471V342.6h-46.51v31.87L355.205,374.471z M183.145,374.471V342.6
			h-46.51v31.87L183.145,374.471z"/>
		<g>
			<path style="fill:#D4E1F4;" d="M345.435,254.731l21.81,50.79h-28.95c0.01-19.94-16.147-36.113-36.087-36.123
				s-36.113,16.147-36.123,36.087c0,0.012,0,0.024,0,0.036h-137.58l21.8-50.79c3.15-7.336,10.366-12.091,18.35-12.09h158.44
				C335.076,242.64,342.29,247.396,345.435,254.731z"/>
			<rect x="308.695" y="342.6" style="fill:#D4E1F4;" width="46.51" height="31.87"/>
			<path style="fill:#D4E1F4;" d="M338.295,305.521h-72.21c-0.01-19.94,16.147-36.113,36.087-36.123s36.113,16.147,36.123,36.087
				C338.295,305.497,338.295,305.509,338.295,305.521z"/>
		</g>
		<path style="fill:#00ACEA;" d="M311.305,120.2v6.49h-106.81v-6.49c0.006-29.495,23.92-53.401,53.415-53.395
			C287.397,66.81,311.299,90.713,311.305,120.2z"/>
		<g>
			<rect x="136.635" y="342.6" style="fill:#D4E1F4;" width="46.51" height="31.87"/>
			<path style="fill:#D4E1F4;" d="M163.305,405.7v18.21c-0.001,10.78-8.74,19.519-19.52,19.52h-16.26
				c-10.776-0.001-19.511-8.738-19.51-19.514c0-0.002,0-0.004,0-0.006v-38.05c0,10.775,8.735,19.51,19.51,19.51l0,0h35.78V405.7z"/>
		</g>
	</g>
	<g>
		<path style="fill:#083863;" d="M183.145,384.471h-46.51c-5.523,0-10-4.477-10-10V342.6c0-5.523,4.477-10,10-10h46.51
			c5.523,0,10,4.477,10,10v31.87c0.001,5.523-4.476,10-9.999,10.001C183.146,384.471,183.145,384.471,183.145,384.471z
			 M146.635,364.471h26.51V352.6h-26.51V364.471z"/>
		<path style="fill:#083863;" d="M355.205,384.471h-46.51c-5.523,0-10-4.477-10-10V342.6c0-5.523,4.477-10,10-10h46.51
			c5.523,0,10,4.477,10,10v31.87C365.206,379.993,360.729,384.47,355.205,384.471C355.206,384.471,355.205,384.471,355.205,384.471z
			 M318.695,364.471h26.51V352.6h-26.51V364.471z"/>
		<path style="fill:#083863;" d="M275.685,382.96h-59.53c-5.523,0-10-4.477-10-10s4.477-10,10-10h59.53c5.523,0,10,4.477,10,10
			S281.208,382.96,275.685,382.96z"/>
		<path style="fill:#083863;" d="M275.685,359.1h-59.53c-5.523,0-10-4.477-10-10s4.477-10,10-10h59.53c5.523,0,10,4.477,10,10
			S281.208,359.1,275.685,359.1z"/>
		<path style="fill:#083863;" d="M443.885,442H387.94c3.912-5.229,6.073-11.559,6.175-18.089v-88.86
			c-0.07-10.82-4.57-21.138-12.451-28.551l-5.1-4.752c-0.024-0.058-0.073-0.119-0.1-0.176l-21.826-50.609
			c-4.745-10.972-15.589-18.044-27.543-17.963h-158.44c-11.955-0.085-22.8,6.991-27.54,17.966L119.687,300.8l-7.762,6.581
			c-8.785,7.445-13.838,18.385-13.81,29.9v86.63c-0.031,6.491,1.997,12.824,5.794,18.089H28.115V66.8
			c0-25.579,21.041-46.8,46.62-46.8h126.77c22.485,0,41.089,16.287,45.309,37.551c-30.399,5.402-52.583,31.774-52.699,62.649v6.49
			c0.154,5.656,4.723,10.195,10.38,10.31h106.81c5.523,0,9.81-4.786,9.81-10.309V120.2c-0.017-31.4-22.907-58.106-53.934-62.926
			C262.634,25.066,234.949,0,201.505,0H74.735C38.128,0,8.115,30.193,8.115,66.8v384.79c0.075,5.648,4.584,10.236,10.23,10.41
			h425.54c5.523,0,10-4.477,10-10S449.408,442,443.885,442z M301.167,117h-86.531c1.821-23.868,22.646-41.74,46.513-39.919
			c10.371,0.791,20.112,5.286,27.445,12.663C296.03,96.949,300.513,106.667,301.167,117z M338.115,415h26.2
			c3.31,0.121,6.619-0.288,9.8-1.213v10.124c0,5.249-4.551,9.089-9.8,9.089h-16.26c-5.25,0-9.94-3.84-9.94-9.089V415z
			 M159.495,259.093c1.564-3.677,5.164-6.072,9.16-6.093h158.44c3.995,0.024,7.593,2.422,9.152,6.1l15.821,36.9h-4.878
			c-5.516-24.853-30.135-40.528-54.987-35.013c-17.481,3.88-31.133,17.532-35.013,35.013H143.679L159.495,259.093z M326.301,296
			h-48.222c3.933-10,13.26-16.11,24.116-16.11C313.051,279.89,322.37,286,326.301,296z M118.115,337.281
			c-0.021-5.584,2.454-10.885,6.749-14.454l8.281-6.827h228.8l5.984,5.283c3.88,3.534,6.12,8.52,6.186,13.768v50.81
			c0,5.243-4.551,9.139-9.8,9.139h-236.79c-5.038,0.157-9.249-3.8-9.406-8.838c-0.003-0.1-0.005-0.201-0.004-0.301V337.281z
			 M118.115,413.789c3.048,0.923,6.228,1.333,9.41,1.211h25.59v8.911c0.047,4.976-3.949,9.048-8.925,9.094
			c-0.135,0.001-0.27-0.001-0.405-0.005h-16.26c-5.012,0.182-9.222-3.734-9.404-8.746c-0.004-0.114-0.006-0.229-0.006-0.343V413.789
			z M173.115,423.911V415h145v8.911c0.15,6.544,2.36,12.873,6.315,18.089H167.415C171.183,436.726,173.179,430.392,173.115,423.911z
			"/>
		<path style="fill:#083863;" d="M257.895,179.611c-5.523,0-10-4.477-10-10v-15.97c0-5.523,4.477-10,10-10c5.523,0,10,4.477,10,10
			v15.97C267.895,175.134,263.418,179.611,257.895,179.611z"/>
		<path style="fill:#083863;" d="M302.815,179.611c-5.523,0-10-4.477-10-10v-15.97c0-5.523,4.477-10,10-10c5.523,0,10,4.477,10,10
			v15.97C312.815,175.134,308.338,179.611,302.815,179.611z"/>
		<path style="fill:#083863;" d="M212.485,179.611c-5.523,0-10-4.477-10-10v-15.97c0-5.523,4.477-10,10-10s10,4.477,10,10v15.97
			C222.485,175.134,218.008,179.611,212.485,179.611z"/>
		<path style="fill:#083863;" d="M257.895,224.531c-5.523,0-10-4.477-10-10v-15.97c0-5.523,4.477-10,10-10c5.523,0,10,4.477,10,10
			v15.97C267.895,220.054,263.418,224.531,257.895,224.531z"/>
		<path style="fill:#083863;" d="M302.815,224.531c-5.523,0-10-4.477-10-10v-15.97c0-5.523,4.477-10,10-10c5.523,0,10,4.477,10,10
			v15.97C312.815,220.054,308.338,224.531,302.815,224.531z"/>
		<path style="fill:#083863;" d="M212.485,224.531c-5.523,0-10-4.477-10-10v-15.97c0-5.523,4.477-10,10-10s10,4.477,10,10v15.97
			C222.485,220.054,218.008,224.531,212.485,224.531z"/>
	</g>
</g>
<g>
</g>
<g>
</g>
<g>
</g>
<g>
</g>
<g>
</g>
<g>
</g>
<g>
</g>
<g>
</g>
<g>
</g>
<g>
</g>
<g>
</g>
<g>
</g>
<g>
</g>
<g>
</g>
<g>
</g>
</svg>
