<?xml version="1.0" encoding="iso-8859-1"?>
<!-- Generator: Adobe Illustrator 19.0.0, SVG Export Plug-In . SVG Version: 6.00 Build 0)  -->
<svg version="1.1" id="Capa_1" xmlns="http://www.w3.org/2000/svg" xmlns:xlink="http://www.w3.org/1999/xlink" x="0px" y="0px"
	 viewBox="0 0 466 466" style="enable-background:new 0 0 466 466;" xml:space="preserve">
<g>
	<g>
		<path style="fill:#00CEB4;" d="M409.45,344.041v45.29c-0.001,12.31-9.98,22.289-22.29,22.29h-11.14l-0.1-0.01
			c0.07-0.86,0.1-1.72,0.1-2.59c0-17.64-14.3-31.94-31.94-31.94s-31.94,14.3-31.94,31.94c0,0.87,0.03,1.73,0.1,2.59l-0.1,0.01
			h-46.05v-77.25h141.15C408.694,337.387,409.449,340.693,409.45,344.041z"/>
		<g>
			<path style="fill:#D4E1F4;" d="M407.24,334.371h-71.7L308.8,276.8v-0.37h29.83c5.651-0.002,11.091,2.143,15.22,6l48.52,45.33
				C404.392,329.641,406.043,331.883,407.24,334.371z"/>
			<path style="fill:#D4E1F4;" d="M376.02,409.021c0,0.87-0.03,1.73-0.1,2.59c-1.436,17.585-16.856,30.676-34.44,29.24
				c-15.591-1.273-27.966-13.649-29.24-29.24c-0.07-0.86-0.1-1.72-0.1-2.59c0-17.64,14.3-31.94,31.94-31.94
				S376.02,391.381,376.02,409.021z"/>
			<polygon style="fill:#D4E1F4;" points="308.8,276.801 335.54,334.371 266.09,334.371 266.09,276.431 308.8,276.431 			"/>
		</g>
		<path style="fill:#00ACEA;" d="M314.46,120.771v6.57H206.27v-6.57c0.406-29.876,24.955-53.766,54.831-53.359
			C290.404,67.811,314.061,91.468,314.46,120.771L314.46,120.771z"/>
		<path style="fill:#00EFD1;" d="M266.09,334.371v77.25h-85.42l-0.1-0.01c0.07-0.86,0.1-1.72,0.1-2.59
			c0-17.64-14.3-31.94-31.94-31.94s-31.94,14.3-31.94,31.94c0,0.87,0.03,1.73,0.1,2.59l-0.1,0.01h-11.52
			c-12.307-0.004-22.281-9.983-22.28-22.29v-17.82c-0.002-20.51,16.622-37.138,37.132-37.14c0.003,0,0.005,0,0.008,0h36.76
			c0.866,0.002,1.731-0.051,2.59-0.16l0.02,0.16L266.09,334.371z"/>
		<g>
			<path style="fill:#D4E1F4;" d="M266.09,276.431v57.94H159.5l-0.02-0.16c5.232-0.611,10.079-3.055,13.68-6.9l41.01-43.83
				c4.216-4.497,10.105-7.049,16.27-7.05L266.09,276.431L266.09,276.431z"/>
			<path style="fill:#D4E1F4;" d="M180.67,409.021c0,0.87-0.03,1.73-0.1,2.59c-1.436,17.585-16.856,30.676-34.44,29.24
				c-15.591-1.273-27.966-13.649-29.24-29.24c-0.07-0.86-0.1-1.72-0.1-2.59c0-17.64,14.3-31.94,31.94-31.94
				S180.67,391.381,180.67,409.021z"/>
		</g>
	</g>
	<g>
		<path style="fill:#083863;" d="M448.77,446h-85.9c9.88-4.989,17.469-13.58,21.2-24h3.089c17.8,0,32.07-14.865,32.07-32.669v-45.29
			c0.032-4.838-1.022-9.623-3.083-14c-1.71-3.609-4.085-6.863-7-9.592l-48.495-45.539c-5.943-5.657-13.816-8.843-22.021-8.91h-9.4
			v-8h8.54c5.523,0,10-4.477,10-10s-4.477-10-10-10H230.8c-5.523,0-10,4.477-10,10s4.477,10,10,10h9.43v8h-9.79
			c-8.956,0.096-17.478,3.868-23.571,10.433l-41,43.93c-1.978,2.134-4.645,3.501-7.532,3.86c-0.047,0-0.094-0.148-0.142-0.141
			c-0.434-0.004-0.868-0.032-1.3-0.082H120.13c-25.993,0-46.9,21.518-46.9,47.511v17.82c0,17.804,14.24,32.669,32.04,32.669h3.47
			c3.732,10.421,11.323,19.012,21.205,24H27.23V66.671C27.23,40.683,48.83,20,74.82,20h128.41
			c22.479-0.069,41.856,15.795,46.228,37.844c-30.693,5.226-53.165,31.792-53.228,62.927v6.57c0.047,5.384,4.45,9.71,9.834,9.663
			c0.069-0.001,0.137-0.002,0.206-0.004h108.19c5.256,0.139,9.629-4.01,9.768-9.266c0.003-0.131,0.004-0.262,0.002-0.393v-6.57
			c0.193-31.763-23.137-58.772-54.59-63.2C264.956,24.506,236.625-0.054,203.23,0H74.82C37.804,0,7.23,29.655,7.23,66.671V456.46
			c0,5.523,4.938,9.54,10.46,9.54h431.08c5.523,0,10-4.477,10-10S454.293,446,448.77,446z M304.33,117h-87.928
			c1.757-22,20.8-40.5,43.958-40.5c11.696-0.068,22.93,4.558,31.185,12.843C298.918,96.778,303.443,106.567,304.33,117z
			 M365.952,410.81c-0.984,12.074-11.57,21.064-23.643,20.08c-10.707-0.873-19.207-9.372-20.08-20.08l0,0
			c0-0.562-0.079-1.147-0.079-1.787c0-12.115,9.821-21.936,21.936-21.936s21.936,9.821,21.936,21.936
			C366.023,409.661,365.998,410.246,365.952,410.81L365.952,410.81z M387.16,402h-1.807c-4.08-22.794-25.866-37.965-48.661-33.885
			c-17.273,3.092-30.793,16.612-33.885,33.885H276.23v-58h123v45.331C399.23,396.107,393.936,402,387.16,402z M302.248,286
			l17.621,38H276.23v-38H302.248z M347.023,289.337L384.092,324H341.92l-17.621-38h14.331
			C341.75,286.005,344.751,287.199,347.023,289.337z M260.23,258h49v8h-49V258z M221.465,289.92c2.326-2.485,5.572-3.903,8.975-3.92
			h25.79v38h-66.625L221.465,289.92z M107.457,402h-2.187c-6.771,0-12.04-5.893-12.04-12.669v-17.82
			c0-14.966,11.935-27.511,26.9-27.511h36.76c0.775,0.125,1.556,0.208,2.34,0.249V344h97v58h-66.227
			c-4.08-22.794-25.866-37.965-48.661-33.885C124.069,371.207,110.549,384.727,107.457,402L107.457,402z M127.23,410.8
			c0-0.554-0.254-1.135-0.254-1.775c-0.082-12.079,9.644-21.937,21.722-22.019c12.079-0.082,21.937,9.644,22.019,21.722
			c0.001,0.099,0.001,0.198,0,0.296c0,0.64-0.046,1.221-0.092,1.789c-0.869,11.985-11.289,20.995-23.274,20.126
			c-10.775-0.781-19.345-9.351-20.126-20.126L127.23,410.8z M188.722,422H304.09c3.732,10.42,11.32,19.011,21.2,24H167.516
			C177.399,441.013,184.99,432.422,188.722,422z"/>
		<path style="fill:#083863;" d="M260.36,180.821c-5.523,0-10-4.477-10-10v-16.18c0-5.523,4.477-10,10-10s10,4.477,10,10v16.18
			C270.36,176.344,265.883,180.821,260.36,180.821C260.36,180.821,260.36,180.821,260.36,180.821z"/>
		<path style="fill:#083863;" d="M305.86,180.821c-5.523,0-10-4.477-10-10v-16.18c0-5.523,4.477-10,10-10s10,4.477,10,10v16.18
			C315.86,176.344,311.383,180.821,305.86,180.821C305.86,180.821,305.86,180.821,305.86,180.821z"/>
		<path style="fill:#083863;" d="M214.36,180.821c-5.523,0-10-4.477-10-10v-16.18c0-5.523,4.477-10,10-10s10,4.477,10,10v16.18
			C224.36,176.344,219.883,180.821,214.36,180.821L214.36,180.821z"/>
		<path style="fill:#083863;" d="M260.36,226.321c-5.523,0-10-4.477-10-10v-16.18c0-5.523,4.477-10,10-10s10,4.477,10,10v16.18
			C270.36,221.844,265.883,226.321,260.36,226.321C260.36,226.321,260.36,226.321,260.36,226.321z"/>
		<path style="fill:#083863;" d="M305.86,226.321c-5.523,0-10-4.477-10-10v-16.18c0-5.523,4.477-10,10-10s10,4.477,10,10v16.18
			C315.86,221.844,311.383,226.321,305.86,226.321C305.86,226.321,305.86,226.321,305.86,226.321z"/>
		<path style="fill:#083863;" d="M214.36,226.321c-5.523,0-10-4.477-10-10v-16.18c0-5.523,4.477-10,10-10s10,4.477,10,10v16.18
			C224.36,221.844,219.883,226.321,214.36,226.321L214.36,226.321z"/>
	</g>
</g>
<g>
</g>
<g>
</g>
<g>
</g>
<g>
</g>
<g>
</g>
<g>
</g>
<g>
</g>
<g>
</g>
<g>
</g>
<g>
</g>
<g>
</g>
<g>
</g>
<g>
</g>
<g>
</g>
<g>
</g>
</svg>
