<?xml version="1.0" encoding="iso-8859-1"?>
<!-- Generator: Adobe Illustrator 19.0.0, SVG Export Plug-In . SVG Version: 6.00 Build 0)  -->
<svg version="1.1" id="Capa_1" xmlns="http://www.w3.org/2000/svg" xmlns:xlink="http://www.w3.org/1999/xlink" x="0px" y="0px"
	 viewBox="0 0 436 436" style="enable-background:new 0 0 436 436;" xml:space="preserve">
<g>
	<g>
		<path style="fill:#00EFD1;" d="M426.06,258.067v73.57c0.001,7.754-6.284,14.039-14.038,14.04c-0.001,0-0.001,0-0.002,0h-21.01
			c-3.337-20.44-22.612-34.305-43.052-30.968c-15.904,2.597-28.371,15.064-30.968,30.968h-28.24v-113.58h98.36l30.45,13.06
			C422.719,247.374,426.062,252.451,426.06,258.067z"/>
		<g>
			<path style="fill:#D4E1F4;" d="M316.99,345.677c3.337-20.44,22.612-34.305,43.052-30.968
				c15.904,2.597,28.371,15.064,30.968,30.968c0.317,1.994,0.478,4.011,0.48,6.03c0.04,20.711-16.716,37.533-37.427,37.573
				c-20.711,0.04-37.533-16.716-37.573-37.427C316.486,349.783,316.653,347.718,316.99,345.677z"/>
			<path style="fill:#D4E1F4;" d="M358.41,176.397l28.7,55.7h-98.36v-49.26c-0.002-7.756,6.284-14.046,14.04-14.05h43.13
				C351.179,168.788,355.998,171.724,358.41,176.397z"/>
		</g>
		<path style="fill:#00CEB4;" d="M288.75,260.497v85.18H119.31l-0.68,0.12c-3.262-20.452-22.487-34.387-42.939-31.125
			c-16.028,2.557-28.592,15.134-31.131,31.165l-0.93-0.16H9.94v-85.18H288.75z"/>
		<g>
			<polygon style="fill:#00ACEA;" points="237.8,226.767 237.8,260.497 81.59,260.497 81.59,226.767 110.65,226.767 210,226.767 			
				"/>
			<polygon style="fill:#00ACEA;" points="61,48.407 58.78,46.267 95.88,46.267 189.25,116.297 210,226.527 210,226.767 
				110.65,226.767 110.65,226.527 131.4,116.297 			"/>
		</g>
		<path style="fill:#D4E1F4;" d="M118.63,345.797c0.305,1.955,0.459,3.931,0.46,5.91c-0.033,20.673-16.818,37.404-37.49,37.371
			s-37.404-16.818-37.371-37.49c0.033-20.673,16.818-37.404,37.49-37.371C100.11,314.245,115.756,327.631,118.63,345.797z"/>
	</g>
	<path style="fill:#083863;" d="M421.471,235.966l-27.131-11.643l-27.051-52.537c-4.107-8.018-12.36-13.058-21.369-13.049h-43.13
		c-13.199,0.06-23.851,10.809-23.791,24.009c0,0.03,0,0.061,0.001,0.091v67.9h-31v-23.97c-0.093-5.567-4.632-10.031-10.2-10.03
		h-19.462l-19.261-102.3c-0.462-2.454-1.828-4.646-3.827-6.142l-93.37-69.797c-1.754-1.227-3.861-1.846-6-1.761h-37.1
		c-4.038-0.097-7.72,2.295-9.273,6.023c-1.355,3.284-0.78,7.047,1.493,9.777v75.79c0,5.523,4.477,10,10,10
		c4.612,0,7.96,3.146,7.96,7.48c0,4.27-3.474,7.49-8.08,7.49c-4.108,0-7.99-4.422-7.99-9.1c0-5.523-4.477-10-10-10s-10,4.477-10,10
		c0,15.774,12.818,29.1,27.99,29.1c15.746,0,28.08-12.075,28.08-27.49c0.073-11.518-7.124-21.83-17.96-25.734V71.942l49.575,47.795
		l-18.263,97H81.59c-5.523,0-9.59,4.507-9.59,10.03v23.97H9.94c-5.382-0.107-9.832,4.17-9.938,9.552
		C0.001,260.358,0,260.427,0,260.497v85.18c-0.033,5.523,4.417,10.027,9.94,10.06c0,0,0,0,0,0h24.338
		c2.181,26.132,25.133,45.549,51.265,43.368c23.105-1.928,41.439-20.262,43.368-43.368h177.768
		c2.181,26.132,25.133,45.548,51.265,43.368c23.105-1.928,41.439-20.262,43.368-43.368h10.708
		c13.271-0.048,23.998-10.829,23.98-24.1v-73.57C436.017,248.456,430.301,239.761,421.471,235.966z M302.79,178.737h43.13
		c1.491-0.066,2.888,0.725,3.6,2.036l21.188,40.964H299v-38.9c-0.118-2.143,1.524-3.977,3.667-4.095
		C302.708,178.739,302.749,178.738,302.79,178.737z M138.342,109.337l-54.785-52.6h8.99l87.6,65.449l17.84,94.551h-75.324
		l18.565-98.487C141.85,114.981,140.762,111.62,138.342,109.337z M92,236.737h136v14H92V236.737z M81.59,379.207
		c-15.178-0.02-27.476-12.322-27.49-27.5c0.001-1.445,0.114-2.887,0.338-4.314c2.194-13.31,13.663-23.099,27.152-23.176
		c13.524-0.068,25.067,9.759,27.158,23.12c0.226,1.447,0.34,2.91,0.342,4.375C109.07,366.89,96.769,379.189,81.59,379.207z
		 M81.59,304.277c-20.5,0-38.119,12.46-44.727,31.46H20v-65h259v65H126.331C119.719,316.737,102.092,304.277,81.59,304.277z
		 M354,379.207c-15.182,0.006-27.494-12.296-27.5-27.478c-0.001-1.487,0.119-2.971,0.359-4.439v-0.019
		c2.457-14.988,16.598-25.146,31.586-22.69c11.639,1.908,20.765,11.024,22.685,22.661c0.235,1.477,0.355,2.97,0.357,4.465
		C381.473,366.883,369.177,379.185,354,379.207z M416,331.637c0.03,2.23-1.75,4.064-3.98,4.1h-13.289
		c-8.877-24.705-36.101-37.537-60.806-28.66c-13.352,4.797-23.862,15.308-28.66,28.66H299v-94h86.057l28.521,12.426
		c1.495,0.721,2.439,2.24,2.422,3.9V331.637z"/>
</g>
<g>
</g>
<g>
</g>
<g>
</g>
<g>
</g>
<g>
</g>
<g>
</g>
<g>
</g>
<g>
</g>
<g>
</g>
<g>
</g>
<g>
</g>
<g>
</g>
<g>
</g>
<g>
</g>
<g>
</g>
</svg>
