<?xml version="1.0" encoding="iso-8859-1"?>
<!-- Generator: Adobe Illustrator 19.0.0, SVG Export Plug-In . SVG Version: 6.00 Build 0)  -->
<svg version="1.1" id="Capa_1" xmlns="http://www.w3.org/2000/svg" xmlns:xlink="http://www.w3.org/1999/xlink" x="0px" y="0px"
	 viewBox="0 0 458.045 458.045" style="enable-background:new 0 0 458.045 458.045;" xml:space="preserve">
<g>
	<g>
		<path style="fill:#D4E1F4;" d="M413.632,371.026v50.95c-0.005,14.428-11.702,26.121-26.13,26.12h-21.77
			c-14.424-0.004-26.116-11.696-26.12-26.12v-24.82h47.89C401.933,397.155,413.631,385.457,413.632,371.026z"/>
		<path style="fill:#00EFD1;" d="M413.632,364.496v6.53c-0.001,14.431-11.699,26.129-26.13,26.13H70.542
			c-14.431-0.001-26.129-11.699-26.13-26.13v-65.01c-0.001-11.51,5.06-22.438,13.84-29.88l14.9-12.65h316.96v0.44l11.24,10.61
			c7.834,7.401,12.276,17.702,12.28,28.48V364.496z M375.312,355.796v-42.67h-62.26v42.67H375.312z M144.992,355.796v-42.67h-62.26
			v42.67H144.992z"/>
		<path style="fill:#D4E1F4;" d="M361.602,183.006l29.82,80.48h-38.75c0-26.692-21.638-48.33-48.33-48.33
			c-26.692,0-48.33,21.638-48.33,48.33H71.842l29.82-80.48c3.8-10.245,13.572-17.046,24.5-17.05h210.94
			C348.03,165.96,357.802,172.76,361.602,183.006z"/>
		<path style="fill:#00ACEA;" d="M391.182,48.676l-38.91-3.24l-0.22,0.3c-8.5,11.176-8.41,26.674,0.22,37.75v0.01l38.68-3.01
			c-6.86,27.47-28.15,40.97-53.32,40.97c-23.12,0.23-43.03-15.11-51.5-33.19h-112.16c-7.32,24.26-28.38,38.45-53.56,38.45
			s-46.46-13.96-53.55-38.45l38.91,3.24l0.22-0.3c8.5-11.176,8.41-26.674-0.22-37.75v-0.011l-38.68,3.01
			c6.41-27.92,27.69-41.42,52.87-41.42c22.88,0,43.02,15.1,51.72,33.41h112.62c7.32-24.26,28.38-38.45,53.55-38.45
			C362.802,10.226,384.092,24.186,391.182,48.676z"/>
		<g>
			<rect x="313.052" y="313.125" style="fill:#D4E1F4;" width="62.26" height="42.67"/>
			<path style="fill:#D4E1F4;" d="M352.672,263.486h-96.66c0-26.692,21.638-48.33,48.33-48.33
				C331.034,215.156,352.672,236.794,352.672,263.486z"/>
			<rect x="82.732" y="313.125" style="fill:#D4E1F4;" width="62.26" height="42.67"/>
			<path style="fill:#D4E1F4;" d="M118.433,397.586v24.39c-0.004,14.424-11.696,26.116-26.12,26.12h-21.77
				c-14.428,0.001-26.125-11.692-26.13-26.12v-50.95c0.001,14.431,11.699,26.129,26.13,26.13h47.89V397.586z"/>
		</g>
	</g>
	<g>
		<path style="fill:#083863;" d="M144.993,365.795h-62.26c-5.523,0-10-4.477-10-10v-42.669c0-5.523,4.477-10,10-10h62.26
			c5.523,0,10,4.477,10,10v42.669C154.993,361.318,150.515,365.795,144.993,365.795z M92.733,345.795h42.26v-22.669h-42.26
			L92.733,345.795z"/>
		<path style="fill:#083863;" d="M375.313,365.795h-62.26c-5.523,0-10-4.477-10-10v-42.669c0-5.523,4.477-10,10-10h62.26
			c5.523,0,10,4.477,10,10v42.669C385.313,361.318,380.835,365.795,375.313,365.795z M323.052,345.795h42.26v-22.669h-42.26V345.795
			z"/>
		<path style="fill:#083863;" d="M408.411,267.264l-7.408-6.9c-0.039-0.117-0.112-0.236-0.155-0.352l-29.847-80.44
			c-5.304-14.131-18.805-23.501-33.899-23.527h-210.94c-15.09,0.027-28.584,9.4-33.877,23.531l-29.512,79.626l-11.181,9.316
			c-11.083,9.309-17.509,23.024-17.57,37.498v115.96c0,19.916,16.6,36.069,36.52,36.069h21.77
			c19.755-0.032,35.743-16.072,35.711-35.827c0-0.081-0.001-0.162-0.001-0.242v-14.931h202v14.931
			c-0.166,19.754,15.714,35.902,35.468,36.068c0.081,0.001,0.162,0.001,0.242,0.001h21.77c19.92,0,36.52-16.153,36.52-36.069
			v-118.96C423.923,289.466,418.282,276.547,408.411,267.264z M111.039,186.309c2.39-6.255,8.429-10.353,15.124-10.264h210.94
			c6.692-0.089,12.729,4.008,15.12,10.259l24.83,66.741h-15.256c-4.758-27-28.7-48.33-57.454-48.33s-52.696,21.33-57.454,48.33
			H86.212L111.039,186.309z M341.34,253.045h-74c5.515-20.435,26.552-32.529,46.986-27.014
			C327.498,229.586,337.786,239.874,341.34,253.045z M108.022,421.976c0.177,8.696-6.73,15.889-15.426,16.066
			c-0.095,0.002-0.19,0.003-0.284,0.003h-21.77c-8.894,0-16.52-7.181-16.52-16.069v-18.631c5.158,2.462,10.805,3.727,16.52,3.7
			h37.48V421.976z M387.503,438.045h-21.77c-8.698-0.02-15.733-7.087-15.713-15.785c0-0.095,0.001-0.19,0.003-0.284v-14.931h37.48
			c5.715,0.027,11.362-1.238,16.52-3.7v18.635C404.022,430.864,396.396,438.045,387.503,438.045z M387.503,387.045H70.542
			c-8.894,0-16.52-7.125-16.52-16.02v-65.009c0.063-8.665,3.899-16.872,10.507-22.478l12.293-10.493h308.849l9.007,8.538
			c5.885,5.587,9.256,13.319,9.344,21.433v68.009C404.022,379.92,396.396,387.045,387.503,387.045z"/>
		<path style="fill:#083863;" d="M268.862,357.086h-79.68c-5.523,0-10-4.477-10-10s4.477-10,10-10h79.68c5.523,0,10,4.477,10,10
			S274.385,357.086,268.862,357.086z"/>
		<path style="fill:#083863;" d="M268.862,331.836h-79.68c-5.523,0-10-4.477-10-10s4.477-10,10-10h79.68c5.523,0,10,4.477,10,10
			S274.385,331.836,268.862,331.836z"/>
		<path style="fill:#083863;" d="M120.412,136.716c-30.333,0-55.123-17.926-63.156-45.669c-1.536-5.305,1.519-10.851,6.824-12.387
			c1.172-0.339,2.396-0.461,3.611-0.36l32.789,2.73c2.435-5.455,2.429-11.69-0.015-17.141l-32.6,2.536
			c-5.506,0.427-10.316-3.69-10.743-9.197c-0.078-1.009-0.003-2.024,0.223-3.01c3.584-15.609,11.6-28.4,23.191-36.978
			c10.78-7.984,24.413-12.2,39.426-12.2c23.11,0,45.543,13.2,57.689,33.41h99.65C287.478,14.543,310.054,0,337.852,0
			c30.276,0.278,54.944,18.3,62.936,45.9c1.535,5.305-1.521,10.85-6.826,12.385c-1.171,0.339-2.395,0.461-3.61,0.36l-32.786-2.73
			c-2.433,5.456-2.428,11.689,0.013,17.141l32.6-2.536c5.506-0.429,10.317,3.688,10.746,9.194c0.084,1.074-0.007,2.154-0.268,3.199
			c-3.839,15.37-12,27.97-23.6,36.44c-10.85,7.92-24.482,12.107-39.423,12.107c-0.211,0-0.424,0-0.635,0
			c-25.906,0-46.376-15.831-56.841-33.193h-99.185C170.796,122.172,148.215,136.716,120.412,136.716z M83.535,99.689
			c8.177,10.761,21.3,17.027,36.877,17.027c21.3,0,38.153-12.008,43.986-31.339c1.274-4.222,5.164-7.111,9.574-7.111h112.16
			c3.88,0,7.41,2.244,9.056,5.758c6.211,13.259,21.954,27.434,41.924,27.434c0.14,0,0.28,0,0.42,0
			c17.129,0,30.427-7.041,38.144-19.751l-22.628,1.76c-3.487,0.272-6.863-1.299-8.9-4.143c-11.153-14.625-11.198-34.889-0.11-49.564
			l0.173-0.236c2.056-2.808,5.426-4.343,8.894-4.052l21.417,1.781c-8.155-10.768-21.234-17.115-36.76-17.258
			c-21.2,0-38.052,12.009-43.884,31.34c-1.275,4.222-5.165,7.111-9.576,7.11h-112.62c-3.86,0-7.376-2.222-9.032-5.709
			c-7.75-16.31-25.3-27.7-42.688-27.7c-17.253,0-30.52,7.217-37.982,20.231l23.016-1.791c3.488-0.272,6.863,1.3,8.9,4.144
			c11.158,14.626,11.201,34.895,0.106,49.569l-0.173,0.236c-2.055,2.806-5.424,4.34-8.89,4.046L83.535,99.689z"/>
	</g>
</g>
<g>
</g>
<g>
</g>
<g>
</g>
<g>
</g>
<g>
</g>
<g>
</g>
<g>
</g>
<g>
</g>
<g>
</g>
<g>
</g>
<g>
</g>
<g>
</g>
<g>
</g>
<g>
</g>
<g>
</g>
</svg>
