<?xml version="1.0" encoding="iso-8859-1"?>
<!-- Generator: Adobe Illustrator 19.0.0, SVG Export Plug-In . SVG Version: 6.00 Build 0)  -->
<svg version="1.1" id="Capa_1" xmlns="http://www.w3.org/2000/svg" xmlns:xlink="http://www.w3.org/1999/xlink" x="0px" y="0px"
	 viewBox="0 0 484 484" style="enable-background:new 0 0 484 484;" xml:space="preserve">
<g>
	<g>
		<path style="fill:#00CEB4;" d="M473.64,315.74v64.27c-0.002,17.462-14.158,31.618-31.62,31.62h-15.81l-0.15-0.01
			c0.1-1.21,0.15-2.44,0.15-3.68c-0.002-25.035-20.299-45.328-45.334-45.326c-25.032,0.002-45.324,20.294-45.326,45.326
			c0,1.24,0.05,2.47,0.15,3.68l-0.15,0.01H270.2V302.01h200.29C472.566,306.289,473.643,310.984,473.64,315.74z"/>
		<g>
			<path style="fill:#D4E1F4;" d="M470.49,302.01H368.76l-37.95-81.7v-0.53h42.34c8.016,0.002,15.733,3.047,21.59,8.52l68.87,64.33
				C466.471,295.298,468.805,298.48,470.49,302.01z"/>
			<path style="fill:#D4E1F4;" d="M426.21,407.94c0,1.24-0.05,2.47-0.15,3.68c-2.035,24.952-23.913,43.53-48.865,41.495
				c-22.127-1.805-39.691-19.369-41.495-41.495c-0.1-1.21-0.15-2.44-0.15-3.68c0.002-25.035,20.299-45.328,45.334-45.326
				C405.916,362.616,426.208,382.908,426.21,407.94L426.21,407.94z"/>
		</g>
		<path style="fill:#00ACEA;" d="M406.04,69.66l-39.42-3.28l-0.23,0.3c-8.61,11.324-8.52,27.026,0.22,38.25l0.01,0.01l39.19-3.05
			c-6.96,27.83-28.53,41.51-54.03,41.51c-23.42,0.23-43.6-15.31-52.18-33.62H185.96c-7.42,24.58-28.76,38.95-54.26,38.95
			s-47.08-14.14-54.27-38.95l39.43,3.27l0.23-0.3c8.612-11.325,8.518-27.03-0.23-38.25l-39.19,3.04
			c6.49-28.29,28.06-41.97,53.56-41.97c23.19,0,43.6,15.31,52.41,33.86h114.11c7.42-24.58,28.75-38.96,54.26-38.96
			C377.28,30.7,398.85,44.85,406.04,69.66z"/>
		<polygon style="fill:#D4E1F4;" points="330.81,220.31 368.76,302.01 270.2,302.01 270.2,219.78 330.81,219.78 		"/>
		<path style="fill:#00EFD1;" d="M270.2,302.01v109.62H148.97l-0.15-0.01c0.1-1.21,0.15-2.44,0.15-3.68
			c-0.002-25.032-20.297-45.323-45.329-45.321c-25.029,0.002-45.318,20.292-45.321,45.321c0,1.24,0.05,2.47,0.15,3.68l-0.15,0.01
			H41.98c-17.462-0.002-31.618-14.158-31.62-31.62v-25.3c0-29.105,23.595-52.7,52.7-52.7h0h52.17c1.23,0.002,2.459-0.071,3.68-0.22
			l0.02,0.22H270.2z"/>
		<g>
			<path style="fill:#D4E1F4;" d="M270.2,219.78v82.23H118.93l-0.02-0.22c7.427-0.864,14.305-4.337,19.41-9.8l58.2-62.19
				c5.979-6.391,14.339-10.018,23.09-10.02H270.2z"/>
			<path style="fill:#D4E1F4;" d="M148.97,407.94c0,1.24-0.05,2.47-0.15,3.68c-2.028,24.949-23.898,43.531-48.847,41.503
				c-22.133-1.799-39.704-19.369-41.503-41.503c-0.1-1.21-0.15-2.44-0.15-3.68c0.011-25.032,20.312-45.316,45.344-45.306
				C128.681,362.645,148.959,382.923,148.97,407.94z"/>
		</g>
	</g>
	<g>
		<path style="fill:#083863;" d="M479.7,297.714c-2.253-4.67-5.365-8.874-9.174-12.392l-68.917-64.288
			c-7.724-7.201-17.899-11.193-28.459-11.165H355v-27h16.92c5.523,0,10-4.477,10-10s-4.477-10-10-10H220.13c-5.523,0-10,4.477-10,10
			s4.477,10,10,10H237v27h-17.39c-11.509,0.002-22.507,4.758-30.391,13.142l-58.206,62.174c-3.513,3.72-8.236,6.067-13.322,6.62
			c-0.818,0.071-1.64,0.093-2.461,0.064H63.06C28.487,291.869,0,320.137,0,354.71v25.3c0.177,23.092,18.888,41.749,41.98,41.859
			h8.078c7.539,29.596,37.644,47.477,67.24,39.937c19.619-4.998,34.939-20.318,39.937-39.937h170.053
			c7.55,29.599,37.665,47.474,67.264,39.924c19.61-5.002,34.922-20.314,39.924-39.924h7.544c23.092-0.11,41.803-18.767,41.98-41.859
			v-64.27C483.936,309.485,482.466,303.324,479.7,297.714z M387.914,235.582l60.386,56.287h-73.159l-28.906-62h26.915
			C378.62,229.822,383.901,231.866,387.914,235.582z M324.183,229.869l28.905,62H280v-62H324.183z M257,182.869h78v27h-78V182.869z
			 M203.821,236.607c4.106-4.331,9.821-6.77,15.789-6.738H260v62H152L203.821,236.607z M138.852,410.82
			c-1.587,19.444-18.635,33.921-38.08,32.334c-17.241-1.407-30.928-15.093-32.334-32.334v-0.025
			c-0.077-0.933-0.116-1.894-0.116-2.855c0-19.509,15.816-35.325,35.325-35.325s35.325,15.816,35.325,35.325l0,0
			C138.971,408.901,138.931,409.861,138.852,410.82z M103.652,352.859c-28.163-0.137-51.884,21.015-54.962,49.01h-6.71
			c-12.052-0.097-21.816-9.808-21.98-21.859v-25.3c0-23.541,19.515-42.841,43.06-42.841h52.17c1.28,0,2.77,0.067,3.77-0.043v0.043
			h141v90H158.6c-3.075-27.992-26.79-49.144-54.95-49.01H103.652z M416.094,410.82c-1.593,19.447-18.65,33.92-38.097,32.327
			c-17.235-1.412-30.915-15.092-32.327-32.327v-0.025c-0.077-0.933-0.116-1.894-0.116-2.855c0-19.512,15.818-35.33,35.33-35.33
			c19.512,0,35.33,15.818,35.33,35.33c-0.003,0.965-0.043,1.925-0.122,2.88H416.094z M464,380.01
			c-0.164,12.051-9.928,21.762-21.98,21.859h-6.181c-3.487-30.353-30.92-52.133-61.273-48.646
			c-25.552,2.935-45.71,23.094-48.646,48.646H280v-90h183.31c0.356,1.265,0.587,2.561,0.69,3.871V380.01z"/>
		<path style="fill:#083863;" d="M131.7,158.73c-14.8,0-28.545-4.142-39.74-11.979c-11.746-8.272-20.273-20.35-24.135-34.188
			c-1.537-5.305,1.517-10.851,6.822-12.388c1.171-0.339,2.395-0.462,3.61-0.361l33.335,2.764c2.529-5.609,2.521-12.035-0.021-17.638
			l-33.128,2.57c-5.506,0.427-10.316-3.691-10.743-9.197c-0.078-1.009-0.003-2.023,0.223-3.009
			C71.544,59.52,79.652,46.59,91.369,37.911c10.9-8.074,24.683-12.341,39.861-12.341c23.4,0,46.111,13.379,58.384,33.86h101.132
			c10.277-24.221,33.126-38.961,61.264-38.961c14.783,0.134,28.431,4.355,39.56,12.206c11.708,8.304,20.207,20.378,24.075,34.2
			c1.537,5.305-1.517,10.851-6.821,12.388c-1.172,0.34-2.396,0.462-3.613,0.361l-33.324-2.773
			c-2.532,5.611-2.526,12.04,0.018,17.646l33.129-2.578c5.506-0.429,10.318,3.687,10.747,9.193c0.084,1.077-0.007,2.16-0.27,3.207
			c-3.886,15.54-12.139,28.28-23.867,36.842c-10.971,8.008-24.756,12.242-39.864,12.242c-0.21,0-0.425,0-0.634,0
			c-26.235,0-46.954-16.043-57.525-33.623H192.964C182.688,143.994,159.839,158.73,131.7,158.73z M94.042,121.192
			c8.3,11.079,21.714,17.538,37.658,17.538c21.635,0,38.758-12.2,44.687-31.84c1.274-4.221,5.163-7.11,9.573-7.11H299.6
			c3.879,0,7.409,2.243,9.055,5.756c6.355,13.562,22.528,28.053,43.027,27.864c17.5,0,31.067-7.238,38.892-20.294l-23.178,1.8
			c-2.914,0.227-5.781-0.833-7.847-2.9c-0.295-0.295-0.571-0.607-0.828-0.936c-11.518-14.808-11.637-35.51-0.29-50.449l0.255-0.333
			c2.068-2.703,5.372-4.165,8.763-3.879l21.989,1.83c-8.273-11.084-21.638-17.625-37.519-17.77c-21.543,0-38.665,12.205-44.6,31.85
			c-1.274,4.222-5.163,7.111-9.573,7.111H183.64c-3.861,0-7.377-2.223-9.033-5.71c-7.872-16.575-25.707-28.151-43.377-28.151
			c-17.631,0-31.165,7.419-38.72,20.789l23.576-1.829c3.346-0.26,6.599,1.177,8.662,3.824c11.523,14.805,11.646,35.509,0.3,50.45
			l-0.255,0.332c-2.071,2.699-5.371,4.16-8.761,3.879L94.042,121.192z"/>
	</g>
</g>
<g>
</g>
<g>
</g>
<g>
</g>
<g>
</g>
<g>
</g>
<g>
</g>
<g>
</g>
<g>
</g>
<g>
</g>
<g>
</g>
<g>
</g>
<g>
</g>
<g>
</g>
<g>
</g>
<g>
</g>
</svg>
