<?xml version="1.0" encoding="iso-8859-1"?>
<!-- Generator: Adobe Illustrator 19.0.0, SVG Export Plug-In . SVG Version: 6.00 Build 0)  -->
<svg version="1.1" id="Capa_1" xmlns="http://www.w3.org/2000/svg" xmlns:xlink="http://www.w3.org/1999/xlink" x="0px" y="0px"
	 viewBox="0 0 416.692 416.692" style="enable-background:new 0 0 416.692 416.692;" xml:space="preserve">
<g>
	<g>
		<path style="fill:#00ACEA;" d="M404.096,57.31v65.74c-0.002,46.297-25.951,88.688-67.18,109.75c-2.733,1.4-5.53,2.707-8.39,3.92
			l-13.52,5.83l-11.98-5.22c-44.925-19.655-73.977-64.014-74.04-113.05V57.31L315.316,10L404.096,57.31z"/>
		<path style="fill:#00CEB4;" d="M392.236,294.42v52.67c0,14.31-11.6,25.91-25.91,25.91l0,0h-12.96l-0.12-0.01
			c0.08-0.99,0.12-2,0.12-3.01c0-20.515-16.63-37.145-37.145-37.145c-20.515,0-37.145,16.63-37.145,37.145
			c0,1.01,0.04,2.02,0.12,3.01l-0.12,0.01h-53.55v-89.83h163.23l0.77-0.27C391.311,286.478,392.239,290.422,392.236,294.42z"/>
		<g>
			<path style="fill:#D4E1F4;" d="M389.526,282.9l-0.77,0.27h-82.47l-26.21-58.93l0.02-0.03c7.151,5.183,14.838,9.581,22.93,13.12
				l11.98,5.22l13.52-5.83c2.86-1.21,5.657-2.517,8.39-3.92l2.05,0.6l45.05,42.08C386.285,277.601,388.152,280.115,389.526,282.9z"
				/>
			<path style="fill:#D4E1F4;" d="M353.366,369.98c0,1.01-0.04,2.02-0.12,3.01c-1.668,20.448-19.597,35.673-40.045,34.005
				c-18.132-1.479-32.526-15.872-34.005-34.005c-0.08-0.99-0.12-2-0.12-3.01c0-20.515,16.63-37.145,37.145-37.145
				C336.735,332.835,353.366,349.466,353.366,369.98z"/>
			<path style="fill:#D4E1F4;" d="M280.076,224.24l26.21,58.93h-80.76v-67.38h43.44l0.33-0.36c3.43,3.13,7.036,6.061,10.8,8.78
				L280.076,224.24z"/>
		</g>
		<path style="fill:#00EFD1;" d="M225.526,283.17V373h-99.34l-0.12-0.01c0.08-0.99,0.12-2,0.12-3.01
			c-0.003-20.515-16.637-37.142-37.151-37.139c-20.51,0.003-37.135,16.629-37.139,37.139c0,1.01,0.04,2.02,0.12,3.01l-0.12,0.01
			h-13.38c-14.311,0.004-25.916-11.593-25.92-25.904c0-0.002,0-0.004,0-0.006v-20.73c-0.001-23.852,19.334-43.189,43.186-43.19
			c0.001,0,0.003,0,0.004,0h42.75c1.006,0,2.011-0.06,3.01-0.18l0.02,0.18H225.526z"/>
		<g>
			<path style="fill:#D4E1F4;" d="M225.526,215.79v67.38h-123.96l-0.02-0.18c6.087-0.708,11.725-3.553,15.91-8.03l47.7-50.96
				c4.898-5.238,11.749-8.211,18.92-8.21L225.526,215.79L225.526,215.79z"/>
			<path style="fill:#D4E1F4;" d="M126.186,369.98c0,1.01-0.04,2.02-0.12,3.01c-1.668,20.448-19.597,35.673-40.045,34.005
				c-18.132-1.479-32.525-15.872-34.005-34.005c-0.08-0.99-0.12-2-0.12-3.01c0.003-20.515,16.637-37.142,37.151-37.139
				C109.557,332.845,126.182,349.471,126.186,369.98z"/>
		</g>
	</g>
	<g>
		<path style="fill:#083863;" d="M391.925,196.832c14.605-21.836,22.408-47.512,22.421-73.782V57.31
			c-0.051-3.714-2.132-7.101-5.422-8.825l-88.843-47.31c-2.987-1.586-6.571-1.566-9.54,0.055l-86.165,47.31
			c-3.163,1.775-5.095,5.144-5.03,8.77v66.97c-0.06,16.841,2.993,33.549,9.006,49.28h-43.856c-5.523,0-10,4.477-10,10
			s4.477,10,10,10h11.85v12h-12.27c-9.949,0.057-19.435,4.214-26.221,11.491l-47.7,51.019c-2.562,2.819-6.035,4.645-9.809,5.159
			c-0.597,0.146-1.201,0.257-1.811,0.331H55.786c-29.329,0-53.44,23.471-53.44,52.8v20.73c0,19.801,16.363,35.47,36.17,35.47h5.224
			c7.191,25.018,33.302,39.471,58.32,32.28c15.6-4.484,27.796-16.679,32.28-32.28h136.579c7.189,25.02,33.3,39.475,58.32,32.286
			c15.604-4.484,27.803-16.682,32.286-32.286h4.8c19.8,0,36.02-15.669,36.02-35.47v-52.67c-0.054-9.955-4.205-19.448-11.476-26.248
			l-36.409-34.053C369.298,224.299,382.034,211.624,391.925,196.832z M332.425,245.932c1.2-0.508,2.4-0.858,3.6-1.405l30.868,29.033
			h-54.109l-11.41-25.847l9.638,4.1c2.548,1.066,5.421,1.045,7.954-0.058L332.425,245.932z M265.946,225.56
			c1.879,1.865,3.896,3.587,6.033,5.15l18.916,42.85h-55.549v-48H265.946z M216.346,193.56h21.91c2.623,4,5.495,8,8.614,12h-30.524
			V193.56z M172.459,230.911c2.98-3.295,7.177-5.228,11.617-5.351h31.27v48h-82.518L172.459,230.911z M22.346,347.09v-20.73
			c0-18.3,15.139-32.8,33.44-32.8h42.75c0.657,0,1.313-0.022,1.963-0.058c0.354,0.038,0.711,0.057,1.067,0.058h113.78v69h-79.68
			c-3.383-22-23-40.16-46.62-40.16s-43.246,18.16-46.63,40.16h-3.9C29.738,362.56,22.346,355.86,22.346,347.09z M89.227,397.12
			c-14.091-0.025-25.795-10.88-26.881-24.929v-0.007c0-0.718-0.269-1.46-0.269-2.2c0-14.954,12.123-27.077,27.077-27.077
			c14.954,0,27.077,12.123,27.077,27.077c0,0.744,0.039,1.486-0.02,2.212C115.034,386.242,103.321,397.061,89.227,397.12z
			 M316.317,397.12c-14.109-0.022-25.841-10.865-26.971-24.929v-0.007c0-0.71-0.178-1.452-0.178-2.2
			c-0.002-14.972,12.134-27.112,27.106-27.114s27.112,12.134,27.114,27.106c0,0.003,0,0.005,0,0.008
			c0,0.752,0.005,1.494-0.052,2.211C342.143,386.247,330.419,397.063,316.317,397.12z M382.346,347.09
			c0,8.773-7.247,15.47-16.02,15.47h-3.48c-3.384-22-23-40.16-46.62-40.16s-43.245,18.16-46.629,40.16h-34.251v-69h70.912h0.034
			h0.047h75.824c0.126,0.269,0.189,0.563,0.183,0.86V347.09z M332.354,223.902c-2.525,1.294-5.121,2.506-7.788,3.636l-9.539,4.113
			l-7.991-3.482c-7.442-3.256-14.512-7.301-21.09-12.066c-3.399-2.5-6.651-5.193-9.74-8.066
			c-23.509-21.5-36.888-51.899-36.86-83.757V63.233l76.341-41.866l78.659,41.945v59.738c-0.017,22.326-6.652,44.145-19.068,62.7
			C364.447,201.911,349.673,215.042,332.354,223.902z"/>
		<path style="fill:#083863;" d="M302.721,161.62c-2.927,0.006-5.709-1.274-7.609-3.5l-23.351-27.34
			c-3.587-4.2-3.09-10.512,1.11-14.099c4.2-3.587,10.512-3.09,14.099,1.11l0,0l23.351,27.339c3.59,4.197,3.098,10.509-1.099,14.099
			c-1.811,1.549-4.117,2.401-6.501,2.401L302.721,161.62z"/>
		<path style="fill:#083863;" d="M302.722,161.621c-5.523,0.005-10.004-4.467-10.01-9.99c-0.003-3.015,1.354-5.87,3.694-7.771
			l54.379-44.241c4.284-3.485,10.583-2.838,14.069,1.447c3.485,4.284,2.838,10.583-1.447,14.068l0,0l-54.38,44.24
			C307.247,160.828,305.02,161.622,302.722,161.621z"/>
	</g>
</g>
<g>
</g>
<g>
</g>
<g>
</g>
<g>
</g>
<g>
</g>
<g>
</g>
<g>
</g>
<g>
</g>
<g>
</g>
<g>
</g>
<g>
</g>
<g>
</g>
<g>
</g>
<g>
</g>
<g>
</g>
</svg>
