<?xml version="1.0" encoding="iso-8859-1"?>
<!-- Generator: Adobe Illustrator 19.0.0, SVG Export Plug-In . SVG Version: 6.00 Build 0)  -->
<svg version="1.1" id="Capa_1" xmlns="http://www.w3.org/2000/svg" xmlns:xlink="http://www.w3.org/1999/xlink" x="0px" y="0px"
	 viewBox="0 0 435.68 435.68" style="enable-background:new 0 0 435.68 435.68;" xml:space="preserve">
<g>
	<g>
		<path style="fill:#00EFD1;" d="M425.68,316.728v28.81c0.003,16.505-13.375,29.887-29.88,29.89c0,0,0,0,0,0h-17.44l-0.64-0.06
			c0.1-1.13,0.15-2.27,0.15-3.43c-0.009-22.279-18.077-40.333-40.356-40.324c-22.267,0.009-40.316,18.057-40.324,40.324
			c0,1.16,0.05,2.3,0.15,3.43l-0.65,0.06H134.33l-0.65-0.06c0.1-1.13,0.15-2.27,0.15-3.43c0-22.279-18.061-40.34-40.34-40.34
			s-40.34,18.061-40.34,40.34l0,0c0,1.18,0.05,2.34,0.15,3.49H40.2c-16.505-0.003-29.883-13.385-29.88-29.89l0,0v-25.24
			c-0.001-13.47,9.008-25.276,22-28.83l69.14-18.89l41.33-54.27c7.539-9.892,19.263-15.699,31.7-15.7h88.73
			c13.201,21.191,32.508,37.89,55.38,47.9l11.99,5.22l13.51-5.83c2.86-1.21,5.657-2.517,8.39-3.92l2.11,0.59l16.3,26.01l37.27,16.94
			C418.834,294.373,425.679,305.01,425.68,316.728z"/>
		<path style="fill:#00ACEA;" d="M263.22,202.608c-12.198-19.54-18.661-42.115-18.65-65.15v-66.97l86.32-47.31l88.79,47.31v65.74
			c-0.001,46.301-25.954,88.694-67.19,109.75c-2.733,1.4-5.53,2.707-8.39,3.92l-13.51,5.83l-11.99-5.22
			C295.728,240.498,276.421,223.799,263.22,202.608z"/>
		<g>
			<path style="fill:#D4E1F4;" d="M377.87,371.938c0,1.16-0.05,2.3-0.15,3.43c-1.894,22.196-21.422,38.655-43.619,36.761
				c-19.569-1.67-35.092-17.192-36.761-36.761c-0.1-1.13-0.15-2.27-0.15-3.43c0.009-22.279,18.077-40.333,40.356-40.324
				C359.813,331.622,377.861,349.671,377.87,371.938z"/>
			<path style="fill:#D4E1F4;" d="M53.3,375.428c-0.1-1.15-0.15-2.31-0.15-3.49c0-22.279,18.061-40.34,40.34-40.34
				s40.34,18.061,40.34,40.34l0,0c0,1.16-0.05,2.3-0.15,3.43c-1.896,22.198-21.429,38.655-43.626,36.759
				C70.509,410.457,54.999,394.97,53.3,375.428z"/>
		</g>
	</g>
	<g>
		<path style="fill:#083863;" d="M395.8,385.428h-17.44v-20h17.44c10.977-0.015,19.87-8.913,19.88-19.89v-28.81
			c-0.01-7.795-4.562-14.869-11.652-18.108l-37.265-16.938c-1.786-0.812-3.294-2.131-4.336-3.793l-16.3-26.011l16.947-10.621
			l14.7,23.462l34.532,15.7c14.22,6.492,23.352,20.677,23.374,36.309v28.81C435.658,367.555,417.818,385.4,395.8,385.428z"/>
		<path style="fill:#083863;" d="M424.542,61.663l-88.87-47.31c-2.99-1.587-6.578-1.566-9.549,0.056L240,61.718
			c-3.156,1.778-5.078,5.148-5,8.77v66.97c0,19.122,3.686,38.27,11.544,55.27H174.49c-15.54,0.024-30.19,7.258-39.656,19.582
			l-39.277,51.545l-66.033,17.982C12.169,286.582,0.098,302.306,0,320.298v25.24c0.148,22.138,18.061,40.047,40.2,40.19h4.781
			c2.502,8.987,7.488,17.087,14.385,23.369c9.281,8.605,21.467,13.393,34.124,13.406c22.79,0,42.547-15.775,48.494-36.775h147.058
			c7.541,26.767,35.354,42.353,62.121,34.811c20.195-5.69,34.745-23.305,36.518-44.211c0.126-1.415,0.189-2.9,0.189-4.354
			c-0.069-27.794-22.656-50.269-50.449-50.2c-25.283,0.063-46.595,18.874-49.796,43.954H143.4
			c-3.59-27.562-28.843-46.995-56.405-43.406c-22.639,2.949-40.457,20.767-43.406,43.406H40.2
			c-11.098-0.131-20.064-9.092-20.2-20.19v-25.24c0.083-8.987,6.129-16.823,14.8-19.183l69.22-18.89
			c2.131-0.578,4.013-1.839,5.36-3.588l41.342-54.209c5.68-7.374,14.46-11.696,23.768-11.7h83.326
			c14.043,20.781,33.753,37.096,56.791,47.009l11.993,5.191c2.54,1.091,5.417,1.088,7.954-0.01L348,259.112
			c3.051-1.291,6.1-2.716,9.058-4.234l0,0c20.37-10.42,37.747-25.862,50.489-44.866c14.616-21.833,22.429-47.51,22.453-73.784
			v-65.74C429.935,66.768,427.841,63.382,424.542,61.663z M337.53,341.598c16.749,0.019,30.321,13.591,30.34,30.34
			c0,0.86-0.037,1.716-0.115,2.6c-1.432,16.693-16.125,29.064-32.818,27.632c-14.707-1.262-26.371-12.926-27.632-27.632
			c0-0.014,0-0.029,0-0.044c-0.073-0.834-0.111-1.693-0.111-2.552C307.211,355.193,320.781,341.619,337.53,341.598z M93.49,341.598
			c16.749,0.019,30.321,13.591,30.34,30.34c0,0.86-0.037,1.716-0.115,2.6c-1.474,15.681-14.607,27.683-30.357,27.744
			c-15.618,0-28.358-12.169-30.358-27.7v-0.009c0-0.859,0.019-1.743,0.019-2.627C63.096,355.169,76.713,341.606,93.49,341.598z
			 M410,136.228c-0.027,22.329-6.674,44.148-19.1,62.7c-10.818,16.16-25.58,29.292-42.889,38.155
			c-2.525,1.294-5.162,2.508-7.829,3.636l-9.551,4.113l-8-3.48c-41.209-18.088-67.77-58.89-67.631-103.894V76.411l76.332-41.866
			L410,76.49V136.228z"/>
		<path style="fill:#083863;" d="M318.305,174.798c-2.928,0.004-5.71-1.278-7.61-3.506l-23.349-27.34
			c-3.587-4.2-3.089-10.512,1.11-14.098c4.2-3.587,10.512-3.089,14.099,1.11l23.349,27.34c3.587,4.2,3.089,10.512-1.11,14.098
			c-1.809,1.545-4.11,2.394-6.49,2.396H318.305z"/>
		<path style="fill:#083863;" d="M318.306,174.798c-5.523,0.004-10.003-4.47-10.007-9.993c-0.002-3.011,1.353-5.863,3.689-7.764
			l54.37-44.24c4.284-3.486,10.583-2.839,14.068,1.446c3.486,4.284,2.839,10.583-1.445,14.068l-54.37,44.24
			C322.831,174.007,320.603,174.799,318.306,174.798z"/>
	</g>
</g>
<g>
</g>
<g>
</g>
<g>
</g>
<g>
</g>
<g>
</g>
<g>
</g>
<g>
</g>
<g>
</g>
<g>
</g>
<g>
</g>
<g>
</g>
<g>
</g>
<g>
</g>
<g>
</g>
<g>
</g>
</svg>
