<?xml version="1.0" encoding="iso-8859-1"?>
<!-- Generator: Adobe Illustrator 19.0.0, SVG Export Plug-In . SVG Version: 6.00 Build 0)  -->
<svg version="1.1" id="Capa_1" xmlns="http://www.w3.org/2000/svg" xmlns:xlink="http://www.w3.org/1999/xlink" x="0px" y="0px"
	 viewBox="0 0 445.7 445.7" style="enable-background:new 0 0 445.7 445.7;" xml:space="preserve">
<g>
	<g>
		<path style="fill:#D4E1F4;" d="M417.134,362.58v48.09c0.001,13.619-11.039,24.659-24.658,24.66c-0.001,0-0.001,0-0.002,0h-20.55
			c-13.619,0.001-24.659-11.039-24.66-24.658c0-0.001,0-0.001,0-0.002v-23.43h45.21c13.619,0.001,24.659-11.039,24.66-24.658
			C417.134,362.581,417.134,362.58,417.134,362.58z"/>
		<path style="fill:#00EFD1;" d="M417.134,356.42v6.16c0.001,13.619-11.039,24.659-24.658,24.66c-0.001,0-0.001,0-0.002,0h-299.2
			c-13.619,0.001-24.659-11.039-24.66-24.658c0-0.001,0-0.001,0-0.002v-61.37c0-10.865,4.776-21.18,13.06-28.21l14.07-11.93h299.2
			v0.41l10.6,10.01c7.397,6.988,11.589,16.714,11.59,26.89L417.134,356.42z M380.974,348.2v-40.28h-58.78v40.28H380.974z
			 M163.554,348.2v-40.28h-58.77v40.28H163.554z"/>
		<g>
			<path style="fill:#D4E1F4;" d="M368.624,196.89l27.55,64.18h-36.58c-0.011-25.195-20.444-45.611-45.639-45.601
				c-25.18,0.011-45.59,20.421-45.601,45.601H94.514l14.75-34.37v-0.01c46.221,12.957,95.518-5.42,121.98-45.47l0.61,0.4h113.59
				C355.528,181.619,364.644,187.624,368.624,196.89z"/>
			<rect x="322.194" y="307.92" style="fill:#D4E1F4;" width="58.78" height="40.28"/>
			<path style="fill:#D4E1F4;" d="M359.594,261.07h-91.24c0.011-25.195,20.444-45.611,45.639-45.601
				C339.173,215.48,359.583,235.889,359.594,261.07L359.594,261.07z"/>
			<path style="fill:#D4E1F4;" d="M193.874,75.22l-128.57,31.1l50.31,28.18l12.44,56.34l68.05-116.16L193.874,75.22z
				 M249.484,120.43c-0.003,60.947-49.413,110.353-110.36,110.35c-60.947-0.003-110.353-49.413-110.35-110.36
				S78.187,10.067,139.134,10.07l0,0c60.651-0.294,110.056,48.635,110.35,109.285C249.486,119.713,249.486,120.071,249.484,120.43z"
				/>
		</g>
		<g>
			<polygon style="fill:#00ACEA;" points="196.104,74.68 128.054,190.84 115.614,134.5 193.874,75.22 			"/>
			<polygon style="fill:#00ACEA;" points="193.874,75.22 115.614,134.5 65.304,106.32 			"/>
		</g>
		<g>
			<rect x="104.784" y="307.92" style="fill:#D4E1F4;" width="58.77" height="40.28"/>
			<path style="fill:#D4E1F4;" d="M138.484,387.65v23.02c0.001,13.619-11.039,24.659-24.658,24.66c-0.001,0-0.001,0-0.002,0h-20.55
				c-13.619,0.001-24.659-11.039-24.66-24.658c0-0.001,0-0.001,0-0.002v-48.09c-0.001,13.619,11.039,24.659,24.658,24.66
				c0.001,0,0.001,0,0.002,0h45.21V387.65z"/>
		</g>
	</g>
	<g>
		<path style="fill:#083863;" d="M163.554,358.2h-58.77c-5.523,0-10-4.477-10-10v-40.28c0-5.523,4.477-10,10-10h58.77
			c5.523,0,10,4.477,10,10v40.28C173.554,353.722,169.077,358.2,163.554,358.2z M114.784,338.2h38.77v-20.28h-38.77V338.2z"/>
		<path style="fill:#083863;" d="M380.974,358.2h-58.78c-5.523,0-10-4.477-10-10v-40.28c0-5.523,4.477-10,10-10h58.78
			c5.523,0,10,4.477,10,10v40.28C390.974,353.722,386.497,358.2,380.974,358.2z M332.194,338.2h38.78v-20.28h-38.78V338.2z"/>
		<path style="fill:#083863;" d="M280.484,356.28h-75.21c-5.523,0-10-4.477-10-10s4.477-10,10-10h75.21c5.523,0,10,4.477,10,10
			S286.007,356.28,280.484,356.28z"/>
		<path style="fill:#083863;" d="M280.484,326.14h-75.21c-5.523,0-10-4.477-10-10s4.477-10,10-10h75.21c5.523,0,10,4.477,10,10
			S286.007,326.14,280.484,326.14z"/>
		<path style="fill:#083863;" d="M204.13,68.714c-2.394-3.22-6.48-4.698-10.38-3.753L62.954,96.6
			c-5.368,1.298-8.668,6.702-7.37,12.07c0.654,2.705,2.406,5.015,4.834,6.375l46.4,25.988L118.289,193
			c1.19,5.393,6.526,8.801,11.919,7.611c2.72-0.6,5.067-2.307,6.475-4.711l68.049-116.16
			C206.763,76.277,206.526,71.935,204.13,68.714z M92.423,110.049l57.162-13.828l-34.793,26.357L92.423,110.049z M132.323,163.776
			l-5.562-25.176l36.506-27.652L132.323,163.776z"/>
		<path style="fill:#083863;" d="M412.32,264.22l-6.765-6.432c-0.077-0.221-0.121-0.445-0.214-0.662l-27.539-64.141
			c-5.549-12.936-18.282-21.312-32.358-21.285h-97.363c28.323-60.154,2.519-131.879-57.636-160.202S58.566,8.979,30.243,69.133
			s-2.519,131.879,57.636,160.202c2.599,1.224,5.24,2.354,7.92,3.388l-10.245,23.882l-10.177,8.772
			c-10.486,8.941-16.495,22.052-16.423,35.832v109.46c0,19.112,15.208,35.03,34.32,35.03h20.55c19.112,0,35.13-15.918,35.13-35.03
			V397.7h188v12.97c0.137,19.266,15.704,34.86,34.97,35.03h20.55c19.112,0,34.48-15.918,34.48-35.03V298.38
			C426.966,285.468,421.675,273.118,412.32,264.22z M359.435,200.689l21.564,50.011h-12.323
			c-5.521-30.21-34.487-50.224-64.697-44.703c-22.746,4.157-40.546,21.957-44.703,44.703H109.688l5.446-12.506
			c7.895,1.646,15.935,2.498,24,2.543c38.332,0.141,74.41-18.092,97.032-49.037h109.278
			C351.493,191.601,357.01,195.146,359.435,200.689L359.435,200.689z M348.154,250.7h-68.361c4.333-14,18.012-25.62,34.181-25.62
			S343.822,236.7,348.154,250.7z M38.774,120.43C38.817,65.046,83.749,20.184,139.133,20.227s100.246,44.975,100.203,100.359
			s-44.975,100.246-100.359,100.203c-9.129-0.007-18.214-1.261-27.003-3.726h-0.006C68.735,204.801,38.867,165.368,38.774,120.43z
			 M78.954,301.21c-0.072-7.959,3.348-15.549,9.357-20.768l11.1-9.742h291.124l8.052,7.875c5.368,5.188,8.39,12.34,8.367,19.805
			v64.2c0,8.083-6.4,15.12-14.48,15.12h-299.2c-8.083,0-14.32-7.037-14.32-15.12V301.21z M128.954,410.67
			c-0.197,8.257-6.872,14.888-15.13,15.03h-20.55c-8.084,0-14.32-6.946-14.32-15.03v-16.693c4.413,2.354,9.32,3.63,14.32,3.723
			h35.68V410.67z M392.474,425.7h-20.55c-8.225-0.158-14.845-6.805-14.97-15.03V397.7h35.52c5.051-0.094,10.01-1.369,14.48-3.723
			v16.693C406.954,418.754,400.554,425.7,392.474,425.7z"/>
	</g>
</g>
<g>
</g>
<g>
</g>
<g>
</g>
<g>
</g>
<g>
</g>
<g>
</g>
<g>
</g>
<g>
</g>
<g>
</g>
<g>
</g>
<g>
</g>
<g>
</g>
<g>
</g>
<g>
</g>
<g>
</g>
</svg>
