<?xml version="1.0" encoding="iso-8859-1"?>
<!-- Generator: Adobe Illustrator 19.0.0, SVG Export Plug-In . SVG Version: 6.00 Build 0)  -->
<svg version="1.1" id="Capa_1" xmlns="http://www.w3.org/2000/svg" xmlns:xlink="http://www.w3.org/1999/xlink" x="0px" y="0px"
	 viewBox="0 0 423.961 423.961" style="enable-background:new 0 0 423.961 423.961;" xml:space="preserve">
<g>
	<g>
		<path style="fill:#00EFD1;" d="M413.921,327.091v20.73c0,14.31-11.6,25.91-25.91,25.91l0,0h-13.39l-0.12-0.01
			c0.08-0.99,0.12-2,0.12-3.01c0-20.515-16.63-37.145-37.145-37.145c-20.515,0-37.145,16.63-37.145,37.145
			c0,1.01,0.04,2.02,0.12,3.01l-0.12,0.01H201v-89.83h123.95l0.02-0.18c1.002,0.12,2.011,0.18,3.02,0.18h42.74
			c23.848-0.005,43.185,19.324,43.19,43.172C413.921,327.079,413.921,327.085,413.921,327.091z"/>
		<g>
			<path style="fill:#D4E1F4;" d="M374.621,370.711c0,1.01-0.04,2.02-0.12,3.01c-1.668,20.448-19.597,35.673-40.045,34.005
				c-18.132-1.479-32.526-15.872-34.005-34.005c-0.08-0.99-0.12-2-0.12-3.01c0-20.515,16.63-37.145,37.145-37.145
				C357.99,333.566,374.621,350.197,374.621,370.711z"/>
			<path style="fill:#D4E1F4;" d="M324.971,283.721l-0.02,0.18H201v-67.38h41.45c7.171-0.001,14.022,2.972,18.92,8.21l47.69,50.96
				C313.244,280.17,318.883,283.016,324.971,283.721z"/>
		</g>
		<path style="fill:#00CEB4;" d="M120.231,283.901h80.77v89.83h-53.56l-0.12-0.01c0.08-0.99,0.12-2,0.12-3.01
			c-0.003-20.515-16.637-37.142-37.151-37.139c-20.51,0.003-37.135,16.629-37.139,37.139c0,1.01,0.04,2.02,0.12,3.01l-0.12,0.01
			H60.2c-14.311,0.004-25.916-11.593-25.92-25.904c0-0.002,0-0.004,0-0.006v-52.67c0.002-7.181,2.982-14.039,8.23-18.94l44.76-41.94
			l0.27-1.87c17.94,5.546,36.992,6.458,55.38,2.65L120.231,283.901z"/>
		<g>
			<path style="fill:#D4E1F4;" d="M201,216.521v67.38h-80.77l22.69-48.85c15.453-3.212,30.031-9.72,42.74-19.08l0.4,0.55H201z"/>
			<path style="fill:#D4E1F4;" d="M175.1,81.791l-128.57,31.11l50.31,28.17l12.44,56.34l68.05-116.16L175.1,81.791z
				 M142.921,235.051c-59.68,12.488-118.183-25.769-130.671-85.449S38.018,31.42,97.698,18.932s118.183,25.769,130.671,85.449
				c8.862,42.352-7.834,85.977-42.709,111.591C172.952,225.331,158.374,231.839,142.921,235.051z"/>
		</g>
		<g>
			<polygon style="fill:#00ACEA;" points="177.33,81.251 109.281,197.411 96.841,141.071 175.1,81.791 			"/>
			<polygon style="fill:#00ACEA;" points="175.1,81.791 96.841,141.071 46.53,112.901 			"/>
		</g>
		<path style="fill:#D4E1F4;" d="M147.44,370.711c0,1.01-0.04,2.02-0.12,3.01c-1.668,20.448-19.597,35.673-40.045,34.005
			c-18.132-1.479-32.525-15.872-34.005-34.005c-0.08-0.99-0.12-2-0.12-3.01c0.003-20.515,16.637-37.142,37.151-37.139
			C130.811,333.576,147.437,350.202,147.44,370.711z"/>
	</g>
	<g>
		<path style="fill:#083863;" d="M185.36,75.285c-2.394-3.22-6.48-4.697-10.379-3.753L44.179,103.181
			c-5.368,1.299-8.666,6.704-7.367,12.072c0.655,2.705,2.406,5.014,4.834,6.373l46.4,25.979l11.473,51.962
			c1.19,5.393,6.527,8.8,11.92,7.61c2.719-0.6,5.065-2.307,6.473-4.71L185.96,86.306C187.99,82.845,187.753,78.506,185.36,75.285z
			 M73.66,116.626l57.151-13.828l-34.794,26.353L73.66,116.626z M113.546,170.351l-5.558-25.175l36.506-27.653L113.546,170.351z"/>
		<path style="fill:#083863;" d="M370.73,274.251h-42.74c-0.629-0.061-1.254-0.158-1.872-0.289
			c-3.742-0.469-7.198-2.246-9.756-5.017l-47.688-51.135c-6.779-7.296-16.265-11.478-26.224-11.559h-31.8
			c43.908-49.765,39.16-125.701-10.605-169.609C178.044,17.23,149.701,6.539,120.36,6.583C53.993,6.583,0,60.61,0,126.977
			c-0.075,25.973,8.322,51.262,23.917,72.033c12.123,16.134,28.068,28.999,46.4,37.438l-34.798,32.455
			c-7.299,6.787-11.48,16.281-11.559,26.248v52.67c0,19.8,16.434,35.43,36.24,35.43h4.794c7.191,25.018,33.302,39.471,58.32,32.28
			c15.6-4.484,27.796-16.679,32.28-32.28h136.58c7.191,25.018,33.302,39.471,58.32,32.28c15.6-4.484,27.796-16.679,32.28-32.28
			h5.233c19.648,0.207,35.744-15.553,35.951-35.201c0.001-0.076,0.001-0.153,0.002-0.229v-20.73
			c-0.08-29.263-23.868-52.921-53.131-52.84C370.796,274.251,370.763,274.251,370.73,274.251z M254.068,231.604l39.621,42.647
			H210.96v-48h31.49C246.892,226.374,251.089,228.308,254.068,231.604z M91.632,244.063c9.406,2.277,19.051,3.414,28.728,3.388
			c1.962,0,3.925,0.08,5.886-0.015l-12.397,26.815H59.601L91.632,244.063z M149.932,243.726c13.643-3.516,26.551-9.433,38.12-17.475
			h2.908v48h-55.059L149.932,243.726z M39.932,187.048C6.775,142.634,15.902,79.749,60.316,46.592s107.299-24.031,140.456,20.384
			c12.944,17.339,19.938,38.398,19.938,60.036c-0.069,31.938-15.271,61.954-40.978,80.907c-11.54,8.523-24.793,14.439-38.843,17.341
			c-38.221,8.006-77.613-6.903-100.956-38.208L39.932,187.048z M43.96,347.821v-52.67c0.028-0.334,0.163-0.65,0.385-0.9H190.96v69
			h-34.04c-3.383-22-23-40.16-46.62-40.16s-43.246,18.16-46.63,40.16H60.2C51.422,363.251,43.96,356.594,43.96,347.821z
			 M136.96,372.921c-1.135,14.862-14.102,25.99-28.964,24.855c-13.288-1.014-23.845-11.576-24.856-24.863
			c-0.059-0.718-0.039-1.46-0.039-2.2c-0.006-14.948,12.106-27.07,27.054-27.076c14.948-0.006,27.07,12.106,27.076,27.054
			c0,0.008,0,0.015,0,0.023c0,0.744-0.271,1.486-0.271,2.207V372.921z M364.961,372.921c-2,13.978-13.216,24.928-27.266,24.928
			c-14.138-0.047-25.913-10.854-27.169-24.936c-0.059-0.716-0.141-1.458-0.141-2.2c0.091-15.04,12.356-27.158,27.396-27.067
			c14.912,0.09,26.978,12.156,27.067,27.067c0,0.746,0.113,1.488,0.113,2.2L364.961,372.921z M403.961,347.821
			c0,8.773-7.177,15.43-15.95,15.43h-3.91c-3.384-22-23-40.16-46.62-40.16s-43.246,18.16-46.63,40.16h-79.89v-69h113.99
			c0.357,0,0.715-0.02,1.07-0.059c0.657,0.037,1.315,0.059,1.97,0.059h42.74c18.205-0.147,33.082,14.492,33.229,32.697
			c0,0.048,0.001,0.096,0.001,0.143V347.821z"/>
	</g>
</g>
<g>
</g>
<g>
</g>
<g>
</g>
<g>
</g>
<g>
</g>
<g>
</g>
<g>
</g>
<g>
</g>
<g>
</g>
<g>
</g>
<g>
</g>
<g>
</g>
<g>
</g>
<g>
</g>
<g>
</g>
</svg>
