<?xml version="1.0" encoding="iso-8859-1"?>
<!-- Generator: Adobe Illustrator 19.0.0, SVG Export Plug-In . SVG Version: 6.00 Build 0)  -->
<svg version="1.1" id="Capa_1" xmlns="http://www.w3.org/2000/svg" xmlns:xlink="http://www.w3.org/1999/xlink" x="0px" y="0px"
	 viewBox="0 0 441.891 441.891" style="enable-background:new 0 0 441.891 441.891;" xml:space="preserve">
<g>
	<g>
		<path style="fill:#00EFD1;" d="M431.781,320.438v25.25c0.002,16.501-13.373,29.878-29.874,29.88c-0.002,0-0.004,0-0.006,0h-13.1
			c0.1-1.15,0.15-2.31,0.15-3.49c0.009-22.279-18.045-40.347-40.324-40.356c-22.279-0.009-40.347,18.045-40.356,40.324
			c0,0.01,0,0.021,0,0.031c0,1.16,0.05,2.3,0.15,3.43l-0.65,0.06h-162.36l-0.65-0.06c0.1-1.13,0.15-2.27,0.15-3.43
			c0-22.279-18.061-40.34-40.34-40.34s-40.34,18.061-40.34,40.34c0,1.16,0.05,2.3,0.15,3.43l-0.64,0.06h-17.44
			c-16.502-0.002-29.878-13.378-29.88-29.88v-28.82c0.001-11.717,6.846-22.354,17.51-27.21l37.27-16.94l16.95-25.86l0.46-1.55
			c45.71,13.683,95.039-3.525,122.32-42.67l0.15,0.11h56.53c12.438-0.001,24.163,5.806,31.7,15.7l41.33,54.27l69.14,18.89
			C422.773,295.162,431.782,306.968,431.781,320.438z"/>
		<g>
			<path style="fill:#D4E1F4;" d="M388.801,375.568c-1.93,22.195-21.486,38.623-43.681,36.694
				c-19.542-1.699-35.029-17.209-36.699-36.754c-0.1-1.13-0.15-2.27-0.15-3.43c-0.009-22.279,18.045-40.347,40.324-40.356
				c22.279-0.009,40.347,18.045,40.356,40.324c0,0.01,0,0.021,0,0.031C388.951,373.258,388.901,374.418,388.801,375.568z"/>
			<path style="fill:#D4E1F4;" d="M175.101,94.378l-128.57,31.11l50.31,28.17l12.44,56.34l68.05-116.16L175.101,94.378z
				 M230.711,139.598c-0.003,60.947-49.413,110.353-110.36,110.35c-60.947-0.003-110.353-49.413-110.35-110.36
				c0.003-60.943,49.407-110.347,110.35-110.35c60.626-0.325,110.036,48.559,110.36,109.185
				C230.713,138.814,230.713,139.206,230.711,139.598z"/>
		</g>
		<g>
			<polygon style="fill:#00ACEA;" points="177.331,93.838 109.281,209.998 96.841,153.658 175.101,94.378 			"/>
			<polygon style="fill:#00ACEA;" points="175.101,94.378 96.841,153.658 46.531,125.488 			"/>
		</g>
		<path style="fill:#D4E1F4;" d="M144.911,372.078c0,1.16-0.05,2.3-0.15,3.43c-1.894,22.196-21.423,38.655-43.619,36.761
			c-19.569-1.67-35.092-17.192-36.761-36.761c-0.1-1.13-0.15-2.27-0.15-3.43c0-22.279,18.061-40.34,40.34-40.34
			S144.911,349.798,144.911,372.078L144.911,372.078z"/>
	</g>
	<g>
		<path style="fill:#083863;" d="M185.357,87.872c-2.394-3.22-6.48-4.698-10.38-3.753L44.179,115.768
			c-5.368,1.298-8.668,6.702-7.37,12.07c0.654,2.706,2.407,5.016,4.836,6.376l46.4,25.979l11.473,51.961
			c1.19,5.393,6.527,8.8,11.92,7.61c2.719-0.6,5.065-2.307,6.473-4.71l68.05-116.161C187.989,95.43,187.751,91.091,185.357,87.872z
			 M73.657,129.214l57.153-13.83l-34.788,26.353L73.657,129.214z M113.55,182.934l-5.559-25.174l36.5-27.653L113.55,182.934z"/>
		<path style="fill:#083863;" d="M412.471,281.961l-65.9-18l-39.29-51.533c-9.466-12.334-24.122-19.575-39.67-19.6h-39.289
			c29.395-59.623,4.89-131.786-54.733-161.181S41.802,26.757,12.408,86.38c-8.161,16.553-12.406,34.762-12.407,53.218
			c-0.081,26.175,8.448,51.65,24.272,72.5c12.852,16.933,29.922,30.198,49.505,38.468l-9.345,14.251l-34.4,15.743
			c-14.165,6.519-23.214,20.715-23.142,36.308v28.82c0,21.99,17.42,40.14,39.41,40.14h9.782c5.963,21,25.71,36.85,48.488,36.85
			s42.526-15.85,48.489-36.85h147.063c6.267,21.614,25.985,36.546,48.488,36.72c22.581,0.044,42.421-14.975,48.508-36.72h4.782
			c22.087-0.138,39.934-18.053,39.99-40.14v-25.25C441.837,302.46,429.805,286.724,412.471,281.961z M40.23,200.037
			c-13.19-17.382-20.298-38.619-20.229-60.439C20.048,84.226,64.975,39.376,120.347,39.424s100.221,44.974,100.174,100.346
			s-44.974,100.221-100.346,100.174c-9.715-0.008-19.377-1.429-28.683-4.216h-0.009C71.058,229.539,53.118,217.046,40.23,200.037z
			 M134.8,374.628v0.046c-1.432,16.693-16.125,29.064-32.818,27.632c-14.724-1.263-26.396-12.953-27.636-27.68
			c-0.074-0.831-0.111-1.689-0.111-2.548c0.002-16.756,13.588-30.338,30.344-30.336c16.753,0.002,30.334,13.583,30.336,30.336
			C134.911,372.935,134.874,373.794,134.8,374.628z M378.891,374.702v0.012c-1,15.535-14.635,27.7-30.253,27.7
			c-15.741-0.072-28.843-12.108-30.247-27.786c-0.073-0.833-0.117-1.69-0.117-2.548c0.136-16.762,13.834-30.24,30.596-30.104
			c16.57,0.134,29.97,13.534,30.104,30.104C378.979,372.961,378.891,373.844,378.891,374.702z M421.891,345.688
			c-0.043,11.047-8.944,20.014-19.99,20.14h-3.385c-3.588-27.562-28.839-46.997-56.401-43.409
			c-22.642,2.947-40.462,20.768-43.409,43.409h-144.23c-3.588-27.562-28.839-46.997-56.401-43.409
			c-22.642,2.947-40.462,20.768-43.409,43.409h-8.365c-10.962,0-19.41-9.178-19.41-20.14v-28.82
			c-0.087-7.754,4.379-14.84,11.413-18.106l37.152-16.94c1.706-0.785,3.152-2.042,4.167-3.622l13.915-21.267
			c45.885,10.467,93.663-6.762,122.308-44.105h51.765c9.305,0.008,18.078,4.338,23.744,11.719l41.33,54.25
			c1.332,1.745,3.202,3.003,5.321,3.578l69.193,18.884c8.647,2.371,14.655,10.213,14.692,19.179V345.688z"/>
	</g>
</g>
<g>
</g>
<g>
</g>
<g>
</g>
<g>
</g>
<g>
</g>
<g>
</g>
<g>
</g>
<g>
</g>
<g>
</g>
<g>
</g>
<g>
</g>
<g>
</g>
<g>
</g>
<g>
</g>
<g>
</g>
</svg>
