<?xml version="1.0" encoding="iso-8859-1"?>
<!-- Generator: Adobe Illustrator 19.0.0, SVG Export Plug-In . SVG Version: 6.00 Build 0)  -->
<svg version="1.1" id="Capa_1" xmlns="http://www.w3.org/2000/svg" xmlns:xlink="http://www.w3.org/1999/xlink" x="0px" y="0px"
	 viewBox="0 0 398.359 398.359" style="enable-background:new 0 0 398.359 398.359;" xml:space="preserve">
<g>
	<g>
		<path style="fill:#00EFD1;" d="M379.148,113.352c8.43,8.432,11.341,20.919,7.51,32.21l-18.07,53.21
			c-3.784,11.149-12.707,19.792-23.97,23.22l-130.53,39.66l-19.28-19.28l-39.06-39.06l-15.48-15.48l43.04-127.66
			c3.633-10.794,12.094-19.274,22.88-22.93l53.86-18.29c11.294-3.83,23.783-0.919,32.22,7.51L379.148,113.352z M314.578,161.162
			c8.15-8.156,8.15-21.374,0-29.53l-40.6-40.6c-8.125-8.184-21.346-8.232-29.53-0.107s-8.232,21.346-0.107,29.53
			c0.036,0.036,0.071,0.072,0.107,0.107l40.6,40.6c8.147,8.154,21.362,8.161,29.516,0.014
			C314.569,161.171,314.574,161.167,314.578,161.162z"/>
		<polygon style="fill:#D4E1F4;" points="194.808,242.372 194.578,242.592 155.938,281.232 136.038,287.862 119.058,304.842 
			119.628,336.692 81.858,342.042 75.408,380.912 9.998,380.732 10.748,348.312 155.518,203.542 155.748,203.312 		"/>
	</g>
	<g>
		<path style="fill:#083863;" d="M386.22,106.281l-86.885-86.895c-11.1-11.169-27.607-15.014-42.5-9.9l-53.859,18.286
			c-13.715,4.693-24.479,15.48-29.143,29.205l-43.04,127.66c-1.215,3.6-0.285,7.578,2.4,10.266l8.409,8.409L3.677,341.241
			c-1.819,1.819-2.867,4.269-2.926,6.84L0.001,380.5c-0.093,5.602,4.367,10.222,9.969,10.327l65.411,0.275h0.027
			c4.909-0.042,9.074-3.613,9.865-8.458l5.249-31.682l30.508-4.345c5.003-0.712,8.691-5.04,8.6-10.092l-0.493-27.609l12.302-12.314
			l17.66-5.884c1.473-0.492,2.812-1.319,3.911-2.417l31.794-31.794l12.212,12.213c2.61,2.612,6.446,3.573,9.979,2.5l130.537-39.662
			c14.335-4.38,25.691-15.382,30.524-29.57l18.072-53.214C401.247,133.882,397.398,117.374,386.22,106.281z M150.537,272.491
			l-17.66,5.883c-1.473,0.491-2.812,1.319-3.91,2.417l-16.98,16.98c-1.919,1.919-2.976,4.536-2.927,7.25l0.411,23.01l-29.015,4.11
			c-4.322,0.612-7.748,3.957-8.463,8.264l-5.059,30.484l-46.7-0.129l0.421-18.211l135.1-135.094l24.903,24.912L150.537,272.491z
			 M377.189,142.346l-18.072,53.216c-2.756,8.091-9.232,14.364-17.406,16.862L216.919,250.34l-54.1-54.1l0,0l-11.093-11.093
			l41.061-121.788c2.659-7.825,8.797-13.975,16.617-16.649l53.854-18.288c7.687-2.64,16.207-0.655,21.936,5.111l86.88,86.89
			C377.842,126.146,379.829,134.662,377.189,142.346z"/>
		<path style="fill:#083863;" d="M299.808,177.282c-8.198,0.024-16.064-3.238-21.839-9.057l-40.592-40.592
			c-12.015-12.104-11.944-31.657,0.16-43.672c12.038-11.95,31.461-11.954,43.504-0.008l40.608,40.607
			c12.06,12.064,12.056,31.62-0.007,43.679C315.851,174.029,307.997,177.282,299.808,177.282z M259.208,94.922
			c-6.006-0.003-10.877,4.863-10.88,10.868c-0.002,2.886,1.145,5.655,3.186,7.696l40.605,40.605l0.008,0.009
			c4.247,4.245,11.131,4.243,15.375-0.004c0.002-0.002,0.003-0.003,0.005-0.005c4.241-4.254,4.241-11.138,0-15.392l-40.6-40.6
			C264.866,96.057,262.095,94.914,259.208,94.922L259.208,94.922z"/>
	</g>
</g>
<g>
</g>
<g>
</g>
<g>
</g>
<g>
</g>
<g>
</g>
<g>
</g>
<g>
</g>
<g>
</g>
<g>
</g>
<g>
</g>
<g>
</g>
<g>
</g>
<g>
</g>
<g>
</g>
<g>
</g>
</svg>
