<?xml version="1.0" encoding="iso-8859-1"?>
<!-- Generator: Adobe Illustrator 19.0.0, SVG Export Plug-In . SVG Version: 6.00 Build 0)  -->
<svg version="1.1" id="Capa_1" xmlns="http://www.w3.org/2000/svg" xmlns:xlink="http://www.w3.org/1999/xlink" x="0px" y="0px"
	 viewBox="0 0 480.335 480.335" style="enable-background:new 0 0 480.335 480.335;" xml:space="preserve">
<g>
	<g>
		<path style="fill:#D4E1F4;" d="M410.347,109.044v330.44c-0.002,17.297-14.023,31.318-31.32,31.32h-277.72
			c-17.297-0.002-31.318-14.023-31.32-31.32v-330.44c0.006-17.295,14.025-31.314,31.32-31.32h56.38v33.93h164.44v-33.93h56.9
			C396.323,77.729,410.342,91.748,410.347,109.044z M378.077,266.594v-19.86c0.002-8.076-4.718-15.408-12.07-18.75l-25.68-11.68
			l-22.14-35.34c-5.019-8.017-13.812-12.884-23.27-12.88h-79.52c-8.57-0.001-16.649,4.001-21.84,10.82l-28.49,37.4l-47.65,13.02
			c-8.953,2.451-15.161,10.588-15.16,19.87v17.4c0.001,11.371,9.219,20.589,20.59,20.59h9.03
			c1.341,15.295,14.828,26.606,30.123,25.265c13.446-1.179,24.103-11.847,25.267-25.295l0.45,0.03h101.46l0.46-0.03
			c1.302,15.293,14.755,26.635,30.048,25.333c13.525-1.151,24.239-11.904,25.342-25.433l1.82,0.13h10.64
			C368.859,287.182,378.076,277.965,378.077,266.594z"/>
		<path style="fill:#00EFD1;" d="M378.077,246.734v19.86c-0.001,11.371-9.219,20.589-20.59,20.59h-10.64l-1.82-0.13
			c0.07-0.75,0.1-1.5,0.1-2.27c0-15.354-12.446-27.8-27.8-27.8c-15.354,0-27.8,12.446-27.8,27.8c-0.004,0.791,0.033,1.582,0.11,2.37
			l-0.46,0.03h-101.46l-0.45-0.03c0.077-0.788,0.114-1.579,0.11-2.37c0-15.356-12.449-27.805-27.805-27.805
			c-15.356,0-27.805,12.449-27.805,27.805c-0.004,0.801,0.033,1.602,0.11,2.4h-9.03c-11.371-0.001-20.589-9.219-20.59-20.59v-17.4
			c-0.001-9.282,6.207-17.419,15.16-19.87l47.65-13.02l28.49-37.4c5.191-6.819,13.27-10.821,21.84-10.82h79.52
			c9.458-0.004,18.251,4.863,23.27,12.88l22.14,35.34l25.68,11.68C373.36,231.326,378.079,238.657,378.077,246.734z"/>
		<path style="fill:#D4E1F4;" d="M345.127,284.784c0,0.77-0.03,1.52-0.1,2.27c-1.247,15.298-14.659,26.689-29.957,25.442
			c-13.529-1.103-24.282-11.817-25.434-25.342c-0.077-0.788-0.114-1.579-0.11-2.37c0-15.354,12.446-27.8,27.8-27.8
			C332.681,256.984,345.127,269.43,345.127,284.784z"/>
		<path style="fill:#00ACEA;" d="M322.127,77.724v33.93h-164.44v-49.59c0.001-11.531,9.349-20.879,20.88-20.88h22.45
			c4.18-17.75,19.31-31.32,38.63-31.32c18.685-0.071,34.836,13.024,38.63,31.32h22.97c11.531,0.001,20.879,9.349,20.88,20.88V77.724
			z"/>
		<path style="fill:#D4E1F4;" d="M131.877,287.184c-0.077-0.798-0.114-1.599-0.11-2.4c0-15.356,12.449-27.805,27.805-27.805
			c15.356,0,27.805,12.449,27.805,27.805c0.004,0.791-0.033,1.582-0.11,2.37c-1.325,15.296-14.799,26.622-30.095,25.297
			C143.725,311.286,133.057,300.63,131.877,287.184z"/>
	</g>
	<g>
		<path style="fill:#083863;" d="M379.027,67.334h-46.86v-5.27c-0.051-17.022-13.891-30.781-30.914-30.73c-0.002,0-0.004,0-0.006,0
			h-15.549c-9.992-25.395-38.679-37.881-64.074-27.889c-12.764,5.022-22.866,15.125-27.889,27.889h-15.168
			c-16.778-0.012-30.39,13.58-30.402,30.358c0,0.124,0.001,0.248,0.002,0.372v5.27h-46.86c-22.784,0-41.14,18.926-41.14,41.71
			v330.44c-0.021,22.541,18.236,40.831,40.777,40.851c0.121,0,0.242,0,0.363-0.001h277.72c22.54,0.18,40.959-17.946,41.139-40.487
			c0.001-0.121,0.001-0.242,0.001-0.363v-330.44C420.167,86.26,401.811,67.334,379.027,67.334z M168.167,62.064
			c-0.202-5.721,4.273-10.522,9.993-10.724c0.135-0.005,0.271-0.007,0.407-0.006h22.45c4.654-0.033,8.678-3.251,9.734-7.783
			c3.326-14.123,14.938-23.65,28.9-23.65c13.928,0.022,25.946,9.775,28.836,23.4c0.954,4.656,5.038,8.007,9.79,8.033h22.97
			c5.964-0.066,10.853,4.715,10.92,10.679c0,0.017,0,0.034,0,0.051v39.27h-144V62.064z M400.167,439.484
			c0.033,11.484-9.251,20.82-20.735,20.853c-0.135,0-0.27-0.001-0.405-0.003h-277.72c-11.483,0.191-20.946-8.962-21.137-20.445
			c-0.002-0.135-0.003-0.27-0.003-0.405v-330.44c0-11.756,9.384-21.71,21.14-21.71h46.86v24.32c-0.194,5.15,3.824,9.482,8.973,9.675
			c0.182,0.007,0.364,0.008,0.547,0.005h164.44c5.391,0.152,9.885-4.096,10.036-9.488c0.002-0.064,0.003-0.128,0.004-0.192v-24.32
			h46.86c11.756,0,21.14,9.954,21.14,21.71V439.484z"/>
		<path style="fill:#083863;" d="M251.647,374.314h-116.93c-5.523,0-10-4.477-10-10s4.477-10,10-10h116.93c5.523,0,10,4.477,10,10
			S257.17,374.314,251.647,374.314z"/>
		<path style="fill:#083863;" d="M345.617,416.074h-210.9c-5.523,0-10-4.477-10-10s4.477-10,10-10h210.9c5.523,0,10,4.477,10,10
			S351.14,416.074,345.617,416.074z"/>
		<path style="fill:#083863;" d="M370.192,218.881l-22.965-10.434l-20.552-32.664c-6.839-10.936-18.861-17.541-31.758-17.449h-79.52
			c-11.666-0.017-22.678,5.391-29.795,14.635l-26.435,34.644l-44.432,12.1c-13.291,3.642-22.522,15.7-22.568,29.481v17.4
			c0.05,16.933,13.747,30.657,30.68,30.74h1.035c6.834,19.711,28.352,30.15,48.063,23.317c10.933-3.79,19.526-12.383,23.317-23.317
			h86.38c6.83,19.708,28.343,30.148,48.051,23.319c10.935-3.789,19.529-12.384,23.319-23.319h4.475
			c16.933-0.083,30.63-13.807,30.68-30.74v-19.86C388.134,234.734,381.112,223.854,370.192,218.881z M177.319,286.134
			c-0.006,0.062-0.012,0.124-0.017,0.186c-0.863,9.793-9.502,17.031-19.295,16.168c-8.59-0.757-15.401-7.563-16.166-16.152
			c0-0.053-0.009-0.107-0.015-0.161c-0.043-0.463-0.063-0.927-0.059-1.392c0-9.833,7.972-17.805,17.805-17.805
			c9.833,0,17.805,7.972,17.805,17.805C177.381,285.234,177.362,285.684,177.319,286.134z M335.07,286.126
			c0,0.042-0.007,0.084-0.011,0.125c-0.803,9.793-9.393,17.08-19.186,16.277c-8.651-0.71-15.527-7.559-16.271-16.207
			c0-0.064-0.011-0.127-0.017-0.19c-0.042-0.448-0.062-0.898-0.058-1.348c0-9.831,7.969-17.8,17.8-17.8
			c9.831,0,17.8,7.969,17.8,17.8c0,0.494-0.019,0.934-0.06,1.344L335.07,286.126z M368.167,266.594
			c-0.037,5.893-4.788,10.67-10.68,10.74h-3.128c-4.187-20.452-24.161-33.638-44.613-29.451
			c-14.828,3.035-26.416,14.623-29.451,29.451h-83.686c-4.175-20.474-24.156-33.687-44.63-29.512
			c-14.818,3.021-26.413,14.577-29.486,29.384c-5.736-0.183-10.299-4.873-10.326-10.612v-17.4c0.027-4.78,3.232-8.958,7.841-10.223
			l47.672-13.02c2.122-0.579,3.995-1.839,5.33-3.587l28.5-37.279c3.326-4.289,8.459-6.785,13.887-6.751h79.52
			c6.001-0.071,11.607,2.983,14.8,8.064l22.14,35.278c1.043,1.653,2.55,2.962,4.334,3.762l25.728,11.666
			c3.785,1.714,6.225,5.475,6.248,9.63V266.594z"/>
	</g>
</g>
<g>
</g>
<g>
</g>
<g>
</g>
<g>
</g>
<g>
</g>
<g>
</g>
<g>
</g>
<g>
</g>
<g>
</g>
<g>
</g>
<g>
</g>
<g>
</g>
<g>
</g>
<g>
</g>
<g>
</g>
</svg>
