<?xml version="1.0" encoding="iso-8859-1"?>
<!-- Generator: Adobe Illustrator 19.0.0, SVG Export Plug-In . SVG Version: 6.00 Build 0)  -->
<svg version="1.1" id="Capa_1" xmlns="http://www.w3.org/2000/svg" xmlns:xlink="http://www.w3.org/1999/xlink" x="0px" y="0px"
	 viewBox="0 0 437.513 437.513" style="enable-background:new 0 0 437.513 437.513;" xml:space="preserve">
<g>
	<g>
		<path style="fill:#D4E1F4;" d="M427.51,208.146l-20.71,25.15l-23.53-21.67v214.63h-332v-214.22l-22.23,21.37L10,208.036
			l212.29-181.22l46.98,39.53v-55.09h67v117.64L427.51,208.146z M348.62,317.886v-18.26c0.002-7.426-4.339-14.168-11.1-17.24
			l-23.62-10.74l-20.35-32.5c-4.619-7.369-12.703-11.846-21.4-11.85h-82.73c-7.882,0.001-15.312,3.681-20.09,9.95l-26.19,34.4
			l-43.82,11.97c-8.238,2.248-13.952,9.731-13.95,18.27v16c0,10.46,8.48,18.94,18.94,18.94l0,0h8.31
			c1.211,14.063,13.594,24.482,27.657,23.27c12.395-1.068,22.22-10.905,23.273-23.3l0.42,0.03h102.9l0.42-0.03
			c1.198,14.064,13.57,24.495,27.634,23.297c12.441-1.059,22.295-10.952,23.306-23.397l1.67,0.13h9.79
			C340.147,336.822,348.621,328.343,348.62,317.886z"/>
		<path style="fill:#00EFD1;" d="M348.62,299.626v18.26c0.001,10.457-8.473,18.936-18.93,18.94h-9.79l-1.67-0.13
			c0.06-0.68,0.09-1.38,0.09-2.08c0-14.119-11.446-25.565-25.565-25.565s-25.565,11.446-25.565,25.565l0,0
			c0,0.74,0.03,1.46,0.1,2.18l-0.42,0.03h-102.9l-0.42-0.03c0.07-0.72,0.1-1.44,0.1-2.18c0-14.119-11.446-25.565-25.565-25.565
			s-25.565,11.446-25.565,25.565l0,0c0,0.75,0.03,1.48,0.1,2.21h-8.31c-10.46,0-18.94-8.48-18.94-18.94l0,0v-16
			c-0.002-8.539,5.712-16.022,13.95-18.27l43.82-11.97l26.19-34.4c4.778-6.269,12.208-9.949,20.09-9.95h82.73
			c8.697,0.004,16.781,4.481,21.4,11.85l20.35,32.5l23.62,10.74C344.281,285.458,348.622,292.2,348.62,299.626z"/>
		<g>
			<path style="fill:#D4E1F4;" d="M318.32,334.616c0,0.7-0.03,1.4-0.09,2.08c-1.142,14.069-13.474,24.548-27.543,23.406
				c-12.445-1.01-22.338-10.865-23.397-23.306c-0.07-0.72-0.1-1.44-0.1-2.18c0-14.119,11.446-25.565,25.565-25.565
				S318.32,320.497,318.32,334.616z"/>
			<path style="fill:#D4E1F4;" d="M112.62,336.826c-0.07-0.73-0.1-1.46-0.1-2.21c0-14.119,11.446-25.565,25.565-25.565
				s25.565,11.446,25.565,25.565l0,0c0,0.74-0.03,1.46-0.1,2.18c-1.195,14.065-13.565,24.498-27.63,23.303
				C123.525,359.046,113.688,349.221,112.62,336.826z"/>
		</g>
	</g>
	<g>
		<path style="fill:#083863;" d="M383.27,436.256h-332c-5.523,0-10-4.477-10-10V235.52l-5.3,5.095
			c-3.981,3.828-10.312,3.703-14.139-0.278c-0.282-0.293-0.546-0.603-0.79-0.929l-19.039-25.37
			c-3.169-4.222-2.509-10.181,1.506-13.608L215.797,19.211c3.719-3.175,9.189-3.195,12.931-0.047l30.542,25.699V11.256
			c0-5.523,4.477-10,10-10h67c5.523,0,10,4.477,10,10v113.081l87.8,76.259c4.093,3.555,4.608,9.723,1.162,13.907l-20.712,25.153
			c-3.51,4.264-9.813,4.874-14.076,1.364c-0.143-0.117-0.282-0.239-0.418-0.364l-6.756-6.226v191.826
			C393.27,431.779,388.793,436.256,383.27,436.256z M61.27,416.256h312v-204.63c0-5.523,4.477-10,10-10
			c2.51,0,4.928,0.944,6.774,2.644l15.755,14.51l7.8-9.471l-83.887-72.863c-2.187-1.899-3.442-4.654-3.442-7.55V21.256h-47v45.09
			c0,5.523-4.477,10-10,10c-2.356,0-4.636-0.832-6.438-2.348l-40.5-34.074L23.635,209.545l6.62,8.821l14.084-13.539
			c3.981-3.828,10.312-3.704,14.139,0.277c1.791,1.863,2.792,4.347,2.792,6.932V416.256z"/>
		<path style="fill:#083863;" d="M341.484,273.283l-20.793-9.494l-18.712-29.974c-6.399-10.319-17.687-16.585-29.829-16.559h-82.73
			c-11.001,0.039-21.362,5.178-28.05,13.913l-24.137,31.714l-40.6,11.081c-12.583,3.454-21.32,14.873-21.363,27.922v16
			c0,15.957,13.082,29.37,29.04,29.37h0.4c5.046,13,18.27,23.36,33.371,23.36s28.339-10.36,33.38-23.36h87.917
			c5.04,13,18.261,23.36,33.372,23.36c15.159,0,28.381-10.36,33.4-23.36h3.54c15.952,0,28.58-13.413,28.58-29.37v-18.26
			C358.328,288.312,351.764,278.01,341.484,273.283z M153.596,335.838c0,0.04-0.008,0.081-0.011,0.121
			c-0.744,8.561-8.287,14.898-16.847,14.154c-7.524-0.654-13.492-6.616-14.153-14.14l-0.008-0.093
			c-0.037-0.388-0.055-0.8-0.055-1.264c0-8.596,6.969-15.565,15.565-15.565s15.565,6.969,15.565,15.565l0,0
			C153.65,335.064,153.632,335.463,153.596,335.838z M308.261,335.9c-0.702,8.564-8.214,14.937-16.777,14.235
			c-7.567-0.62-13.581-6.611-14.23-14.176c0-0.04-0.006-0.081-0.01-0.121c-0.036-0.375-0.054-0.774-0.054-1.222
			c0-8.596,6.969-15.565,15.565-15.565s15.565,6.969,15.565,15.565l0,0C308.32,335.026,308.302,335.432,308.261,335.9z
			 M338.27,317.886c0,4.93-3.656,9.37-8.58,9.37h-2.24c-4.294-19.162-23.309-31.214-42.471-26.92
			c-13.426,3.009-23.912,13.494-26.92,26.92H172.78c-4.186-19.195-23.14-31.363-42.335-27.177
			c-13.461,2.935-24.017,13.379-27.095,26.808c-4.586-0.517-8.058-4.385-8.08-9v-16c0.029-4.037,2.74-7.561,6.635-8.624
			l43.845-11.969c2.124-0.579,3.998-1.84,5.335-3.589l26.19-34.415c2.896-3.783,7.381-6.011,12.145-6.034h82.73
			c5.26-0.006,10.149,2.709,12.925,7.177l20.349,32.51c1.042,1.665,2.55,2.986,4.337,3.8l23.448,10.744
			c3.146,1.476,5.129,4.665,5.061,8.139V317.886z"/>
	</g>
</g>
<g>
</g>
<g>
</g>
<g>
</g>
<g>
</g>
<g>
</g>
<g>
</g>
<g>
</g>
<g>
</g>
<g>
</g>
<g>
</g>
<g>
</g>
<g>
</g>
<g>
</g>
<g>
</g>
<g>
</g>
</svg>
