<?xml version="1.0" encoding="iso-8859-1"?>
<!-- Generator: Adobe Illustrator 19.0.0, SVG Export Plug-In . SVG Version: 6.00 Build 0)  -->
<svg version="1.1" id="Capa_1" xmlns="http://www.w3.org/2000/svg" xmlns:xlink="http://www.w3.org/1999/xlink" x="0px" y="0px"
	 viewBox="0 0 456 456" style="enable-background:new 0 0 456 456;" xml:space="preserve">
<g>
	<g>
		<path style="fill:#D4E1F4;" d="M412.2,372.88v48.09c0.001,13.619-11.039,24.659-24.658,24.66c-0.001,0-0.001,0-0.002,0h-20.55
			c-13.619,0.001-24.659-11.039-24.66-24.658c0-0.001,0-0.001,0-0.002v-23.43h45.21c13.619,0.001,24.659-11.039,24.66-24.658
			C412.2,372.881,412.2,372.881,412.2,372.88z"/>
		<path style="fill:#00EFD1;" d="M412.2,366.72v6.16c0.001,13.619-11.039,24.659-24.658,24.66c-0.001,0-0.001,0-0.002,0H88.34
			c-13.619,0.001-24.659-11.039-24.66-24.658c0-0.001,0-0.001,0-0.002v-61.37c0-10.865,4.776-21.18,13.06-28.21l12.84-11.93h301.66
			v0.41l9.37,10.01c7.397,6.988,11.589,16.714,11.59,26.89L412.2,366.72z M376.03,358.5v-40.28h-58.77v40.28H376.03z M158.62,358.5
			v-40.28H99.85v40.28H158.62z"/>
		<g>
			<path style="fill:#D4E1F4;" d="M363.69,207.19l27.55,64.18h-36.58c-0.011-25.195-20.444-45.611-45.639-45.601
				c-25.18,0.011-45.59,20.421-45.601,45.601H89.58l15.32-35.7v-2.32h98.94c11.456,0.001,20.746-9.284,20.75-20.74v-20.69h115.92
				C350.594,191.919,359.71,197.924,363.69,207.19z"/>
			<rect x="317.26" y="318.22" style="fill:#D4E1F4;" width="58.77" height="40.28"/>
			<path style="fill:#D4E1F4;" d="M354.66,271.37h-91.24c0.011-25.195,20.444-45.611,45.639-45.601
				C334.24,225.78,354.649,246.19,354.66,271.37z"/>
			<path style="fill:#D4E1F4;" d="M224.59,191.92v20.69c-0.004,11.456-9.294,20.741-20.75,20.74H64.55
				c-11.456,0.001-20.746-9.284-20.75-20.74V31.12c0-11.46,9.29-20.75,20.75-20.75l0,0h87.73V69.3
				c-0.003,5.73,4.64,10.377,10.37,10.38h61.94V191.92z"/>
		</g>
		<path style="fill:#00ACEA;" d="M224.59,77.27v2.41h-61.94c-5.73-0.003-10.373-4.65-10.37-10.38V10.37h1.5L224.59,77.27z"/>
		<g>
			<rect x="99.85" y="318.22" style="fill:#D4E1F4;" width="58.77" height="40.28"/>
			<path style="fill:#D4E1F4;" d="M133.55,397.95v23.02c0.001,13.619-11.039,24.659-24.658,24.66c-0.001,0-0.001,0-0.002,0H88.34
				c-13.619,0.001-24.659-11.039-24.66-24.658c0-0.001,0-0.001,0-0.002v-48.09c-0.001,13.619,11.039,24.659,24.658,24.66
				c0.001,0,0.001,0,0.002,0h45.21L133.55,397.95z"/>
		</g>
	</g>
	<g>
		<path style="fill:#083863;" d="M158.62,368.5H99.85c-5.523,0-10-4.477-10-10v-40.28c0-5.523,4.477-10,10-10h58.77
			c5.523,0,10,4.477,10,10v40.28C168.62,364.023,164.143,368.5,158.62,368.5z M109.85,348.5h38.77v-20.28h-38.77L109.85,348.5z"/>
		<path style="fill:#083863;" d="M376.03,368.5h-58.77c-5.523,0-10-4.477-10-10v-40.28c0-5.523,4.477-10,10-10h58.77
			c5.523,0,10,4.477,10,10v40.28C386.03,364.023,381.553,368.5,376.03,368.5z M327.26,348.5h38.77v-20.28h-38.77V348.5z"/>
		<path style="fill:#083863;" d="M275.55,366.58h-75.21c-5.523,0-10-4.477-10-10s4.477-10,10-10h75.21c5.523,0,10,4.477,10,10
			S281.073,366.58,275.55,366.58z"/>
		<path style="fill:#083863;" d="M275.55,336.44h-75.21c-5.523,0-10-4.477-10-10s4.477-10,10-10h75.21c5.523,0,10,4.477,10,10
			S281.073,336.44,275.55,336.44z"/>
		<path style="fill:#083863;" d="M181.07,168.02H84.31c-5.523,0-10-4.477-10-10s4.477-10,10-10h96.76c5.523,0,10,4.477,10,10
			S186.593,168.02,181.07,168.02z"/>
		<path style="fill:#083863;" d="M125.5,131.86H84.31c-5.523,0-10-4.477-10-10s4.477-10,10-10h41.19c5.523,0,10,4.477,10,10
			S131.023,131.86,125.5,131.86z"/>
		<path style="fill:#083863;" d="M181.07,204.18H84.31c-5.523,0-10-4.477-10-10s4.477-10,10-10h96.76c5.523,0,10,4.477,10,10
			S186.593,204.18,181.07,204.18z"/>
		<path style="fill:#083863;" d="M407.613,274.745l-7.6-8.173l-27.159-63.287c-5.543-12.934-18.272-21.311-32.344-21.285H235V77.27
			c-0.077-2.776-1.282-5.402-3.337-7.27L160.75,2.916c-1.878-1.808-4.364-2.849-6.97-2.916H64.55C47.594,0,34,14.165,34,31.12
			v181.49c-0.044,16.741,13.492,30.347,30.233,30.391c0.106,0,0.211,0,0.317-0.001h26.173l-9.5,22.308l-10.976,10.436
			C59.865,284.719,53.929,297.787,54,311.51v109.46C54,440.082,69.229,456,88.34,456h20.55c19.294-0.157,34.909-15.736,35.11-35.03
			V408h188v12.97c0.147,19.27,15.72,34.861,34.99,35.03h20.55c19.112,0,34.46-15.918,34.46-35.03V308.68
			C422.015,295.883,416.821,283.632,407.613,274.745z M162,32.158L202,70h-39.35c-0.2,0-0.65-0.49-0.65-0.7V32.158z M54,212.61
			V31.12C54,25.192,58.622,20,64.55,20H142v49.3c0.116,11.364,9.286,20.557,20.65,20.7H215v122.61c0,5.922-5.232,10.39-11.16,10.39
			H64.55c-5.683,0.142-10.405-4.349-10.547-10.032C54,212.848,53.999,212.729,54,212.61z M203.84,243
			c16.96,0,31.16-13.44,31.16-30.39V202h105.51c6.049-0.098,11.566,3.446,13.991,8.989L376.065,261h-12.323
			c-5.521-30.21-34.487-50.224-64.697-44.703c-22.746,4.157-40.546,21.957-44.703,44.703H104.753l7.733-18H203.84z M343.221,261
			h-68.362c4.333-14,18.012-25.62,34.181-25.62S338.888,247,343.221,261z M74,311.51c-0.065-7.909,3.365-15.443,9.372-20.587
			c0.114-0.1,0.145-0.381,0.255-0.482L93.509,281H386.52l6.789,7.438c0.14,0.15,0.185,0.388,0.334,0.529
			c5.363,5.153,8.382,12.276,8.357,19.713v64.2c0,8.083-6.376,15.12-14.46,15.12H88.34C80.256,388,74,380.963,74,372.88V311.51z
			 M124,420.97c-0.19,8.252-6.857,14.884-15.11,15.03H88.34C80.256,436,74,429.054,74,420.97v-16.693
			c4.42,2.354,9.333,3.63,14.34,3.723H124V420.97z M387.54,436h-20.55c-8.229-0.156-14.856-6.801-14.99-15.03V408h35.54
			c5.045-0.094,9.997-1.369,14.46-3.723v16.693C402,429.054,395.624,436,387.54,436z"/>
	</g>
</g>
<g>
</g>
<g>
</g>
<g>
</g>
<g>
</g>
<g>
</g>
<g>
</g>
<g>
</g>
<g>
</g>
<g>
</g>
<g>
</g>
<g>
</g>
<g>
</g>
<g>
</g>
<g>
</g>
<g>
</g>
</svg>
