<?xml version="1.0" encoding="iso-8859-1"?>
<!-- Generator: Adobe Illustrator 19.0.0, SVG Export Plug-In . SVG Version: 6.00 Build 0)  -->
<svg version="1.1" id="Capa_1" xmlns="http://www.w3.org/2000/svg" xmlns:xlink="http://www.w3.org/1999/xlink" x="0px" y="0px"
	 viewBox="0 0 438.028 438.028" style="enable-background:new 0 0 438.028 438.028;" xml:space="preserve">
<g>
	<g>
		<path style="fill:#00CEB4;" d="M331.694,293.701l-29.76-64.06l-1.67-0.37c3.249-2.189,5.811-5.254,7.39-8.84l0.38,0.18h27.57
			c7.124,0.004,13.982,2.709,19.19,7.57l61.22,57.19c5.688,5.317,8.918,12.754,8.92,20.54v57.14
			c-0.003,15.523-12.587,28.107-28.11,28.11h-14.06l-0.13-0.01c0.09-1.08,0.13-2.17,0.13-3.27
			c-0.351-22.254-18.676-40.011-40.93-39.66c-21.76,0.343-39.317,17.9-39.66,39.66c0,1.1,0.04,2.19,0.13,3.27l-0.13,0.01h-58.09
			v-97.46H331.694z"/>
		<g>
			<path style="fill:#D4E1F4;" d="M382.764,387.881c0,1.1-0.04,2.19-0.13,3.27c-1.82,22.183-21.278,38.689-43.461,36.869
				c-19.656-1.613-35.256-17.214-36.869-36.869c-0.09-1.08-0.13-2.17-0.13-3.27c0.351-22.254,18.676-40.011,40.93-39.66
				C364.864,348.563,382.421,366.121,382.764,387.881L382.764,387.881z"/>
			<path style="fill:#D4E1F4;" d="M301.934,229.641l29.76,64.06h-87.61v-60.89h44.58c4.133,0.005,8.174-1.228,11.6-3.54
				L301.934,229.641z"/>
			<path style="fill:#D4E1F4;" d="M309.414,79.131v132.93c0.006,11.454-9.274,20.744-20.728,20.75c-0.007,0-0.015,0-0.022,0h-139.3
				c-11.46,0-20.75-9.29-20.75-20.75l0,0V30.581c0-11.46,9.29-20.75,20.75-20.75h87.73v58.93
				c-0.002,5.725,4.637,10.368,10.362,10.37c0.003,0,0.005,0,0.008,0L309.414,79.131z"/>
		</g>
		<path style="fill:#00ACEA;" d="M309.414,76.721v2.41h-61.95c-5.725,0.002-10.368-4.637-10.37-10.362c0-0.003,0-0.005,0-0.008
			V9.831h1.51L309.414,76.721z"/>
		<path style="fill:#00EFD1;" d="M244.084,293.701v97.46h-107.77l-0.13-0.01c0.09-1.08,0.13-2.17,0.13-3.27
			c-0.001-22.252-18.041-40.289-40.292-40.288c-22.25,0.001-40.286,18.038-40.288,40.288c0,1.1,0.04,2.19,0.13,3.27l-0.13,0.01
			h-14.53c-15.523-0.003-28.107-12.587-28.11-28.11v-22.49c-0.001-25.877,20.973-46.856,46.85-46.86h46.38
			c1.093,0.004,2.185-0.063,3.27-0.2l0.02,0.2H244.084z"/>
		<g>
			<path style="fill:#D4E1F4;" d="M244.084,234.361v59.34h-134.47l-0.02-0.2c6.6-0.762,12.714-3.845,17.25-8.7l48.45-51.99h68.79
				V234.361z"/>
			<path style="fill:#D4E1F4;" d="M136.314,387.881c0,1.1-0.04,2.19-0.13,3.27c-1.807,22.18-21.251,38.695-43.431,36.889
				c-19.671-1.602-35.287-17.218-36.889-36.889c-0.09-1.08-0.13-2.17-0.13-3.27c0.001-22.252,18.041-40.289,40.292-40.288
				C118.276,347.594,136.313,365.631,136.314,387.881z"/>
		</g>
	</g>
	<g>
		<path style="fill:#083863;" d="M265.894,167.481h-96.77c-5.523,0-10-4.477-10-10s4.477-10,10-10h96.77c5.523,0,10,4.477,10,10
			S271.417,167.481,265.894,167.481z"/>
		<path style="fill:#083863;" d="M210.314,131.321h-41.19c-5.523,0-10-4.477-10-10s4.477-10,10-10h41.19c5.523,0,10,4.477,10,10
			S215.837,131.321,210.314,131.321z"/>
		<path style="fill:#083863;" d="M265.894,203.631h-96.77c-5.523,0-10-4.477-10-10s4.477-10,10-10h96.77c5.523,0,10,4.477,10,10
			S271.417,203.631,265.894,203.631z"/>
		<path style="fill:#083863;" d="M422.881,278.063l-61.246-57c-7.08-6.545-16.39-10.143-26.031-10.062h-16.59V76.721
			c0.074-2.725-0.988-5.359-2.933-7.269l-70.71-66.8c-1.826-1.729-4.253-2.68-6.767-2.651h-89.24
			c-16.734-0.028-30.323,13.514-30.351,30.249c0,0.11,0,0.221,0.001,0.331v181.48c0,16.956,13.4,30.94,30.35,30.94h2.942
			l-32.769,35.068c-2.922,3.106-6.854,5.072-11.092,5.546c-0.046,0.005-0.092,0.137-0.138,0.143
			c-0.655,0.127-1.317,0.208-1.983,0.243h-46.38c-31.333-0.109-56.821,25.203-56.93,56.535c0,0.008,0,0.016,0,0.025v22.49
			c0.074,21.022,17.168,38.008,38.19,37.95h6.323c7.328,26.786,34.982,42.56,61.768,35.232
			c17.146-4.691,30.542-18.086,35.232-35.232h149.44c7.333,26.788,34.993,42.559,61.781,35.226
			c17.142-4.692,30.534-18.084,35.226-35.226h5.85c21.022,0.058,38.116-16.928,38.19-37.95v-57.14
			C434.981,295.352,430.591,285.276,422.881,278.063z M347.967,235.834l51.61,48.167h-61.5l-24.663-53h22.19
			C340.19,230.981,344.611,232.709,347.967,235.834z M288.664,243.001c2.658,0.013,5.306-0.319,7.878-0.987l19.48,41.987h-62.008
			v-41H288.664z M247.014,31.608l39.8,37.393h-39.35c-0.207,0-0.45-0.033-0.45-0.24V31.608z M139.014,212.061V30.581
			c-0.165-5.676,4.303-10.411,9.979-10.576c0.123-0.004,0.247-0.005,0.371-0.004h77.65v48.76c0.061,11.235,9.215,20.295,20.45,20.24
			h51.55v123.06c0.071,1.485-0.173,2.968-0.717,4.351c-0.775,1.874-2.065,3.49-3.72,4.661c-1.731,1.225-3.793,1.897-5.913,1.928
			h-139.3C143.436,223.001,139.014,217.989,139.014,212.061z M234.014,243.001v41h-92.476l38.106-41H234.014z M23.014,363.051
			v-22.49c0.082-20.274,16.585-36.643,36.859-36.56c0.024,0,0.047,0,0.071,0h46.38c0.749,0,1.471-0.023,2.182-0.065
			c0.368,0.042,0.738,0.064,1.108,0.065h124.4v77h-88.162c-3.3-24-24.378-43.57-49.828-43.57s-46.531,19.57-49.828,43.57h-4.992
			c-9.976,0.07-18.12-7.96-18.19-17.935C23.014,363.061,23.014,363.056,23.014,363.051z M96.024,418.171
			c-15.746-0.068-28.841-12.135-30.192-27.823v-0.031c-0.064-0.765-0.095-1.562-0.095-2.436c0-16.729,13.561-30.29,30.29-30.29
			s30.29,13.561,30.29,30.29c0,0.858-0.033,1.68-0.1,2.467C124.866,406.036,111.77,418.104,96.024,418.171L96.024,418.171z
			 M342.474,418.171c-15.748-0.066-28.846-12.133-30.2-27.823v-0.026c-0.063-0.761-0.095-1.583-0.095-2.441
			c0.304-16.731,14.114-30.049,30.845-29.745c16.303,0.296,29.448,13.441,29.745,29.745c0,0.858-0.033,1.68-0.1,2.467
			C371.318,406.037,358.221,418.105,342.474,418.171L342.474,418.171z M415.014,363.051c-0.062,9.976-8.199,18.012-18.175,17.95
			c-0.005,0-0.01,0-0.015,0h-4.522c-3.3-24-24.378-43.57-49.828-43.57s-46.541,19.57-49.837,43.57h-38.623v-77h160.768
			c0.174,0.621,0.252,1.265,0.232,1.91V363.051z"/>
	</g>
</g>
<g>
</g>
<g>
</g>
<g>
</g>
<g>
</g>
<g>
</g>
<g>
</g>
<g>
</g>
<g>
</g>
<g>
</g>
<g>
</g>
<g>
</g>
<g>
</g>
<g>
</g>
<g>
</g>
<g>
</g>
</svg>
