<?xml version="1.0" encoding="iso-8859-1"?>
<!-- Generator: Adobe Illustrator 19.0.0, SVG Export Plug-In . SVG Version: 6.00 Build 0)  -->
<svg version="1.1" id="Capa_1" xmlns="http://www.w3.org/2000/svg" xmlns:xlink="http://www.w3.org/1999/xlink" x="0px" y="0px"
	 viewBox="0 0 436 436" style="enable-background:new 0 0 436 436;" xml:space="preserve">
<g>
	<g>
		<path style="fill:#00EFD1;" d="M425.68,322.432v28.82c-0.002,16.502-13.378,29.878-29.88,29.88h-16.44l-1.63-0.14
			c0.09-1.1,0.14-2.22,0.14-3.35c-0.009-22.279-18.077-40.333-40.356-40.324c-22.267,0.009-40.316,18.057-40.324,40.324
			c0,1.16,0.05,2.3,0.15,3.43l-0.65,0.06H134.33l-0.65-0.06c0.1-1.13,0.15-2.27,0.15-3.43c0-22.279-18.061-40.34-40.34-40.34
			s-40.34,18.061-40.34,40.34l0,0c0,1.18,0.05,2.34,0.15,3.49H40.2c-16.502-0.002-29.878-13.378-29.88-29.88v-25.25
			c0.003-13.468,9.011-25.272,22-28.83l69.14-18.88l32.37-42.51l0.57-1.04c3.814,3.476,8.79,5.398,13.95,5.39h139.3
			c11.46,0,20.75-9.29,20.75-20.75l0,0v-10.8h1.26c11.995,1.414,22.703,8.187,29.12,18.42l32.12,51.29l37.27,16.94
			C418.836,300.081,425.682,310.716,425.68,322.432z"/>
		<g>
			<path style="fill:#D4E1F4;" d="M377.87,377.642c0,1.13-0.05,2.25-0.14,3.35c-1.845,22.201-21.339,38.702-43.54,36.857
				c-19.609-1.63-35.181-17.171-36.85-36.777c-0.1-1.13-0.15-2.27-0.15-3.43c0.009-22.279,18.077-40.333,40.356-40.324
				C359.813,337.327,377.861,355.375,377.87,377.642L377.87,377.642z"/>
			<path style="fill:#D4E1F4;" d="M308.4,208.582v10.8c0,11.46-9.29,20.75-20.75,20.75l0,0h-139.3
				c-11.459-0.001-20.749-9.291-20.75-20.75V37.902c0-11.46,9.29-20.75,20.75-20.75h87.73v58.93
				c-0.003,5.73,4.64,10.377,10.37,10.38h61.95V208.582z"/>
		</g>
		<path style="fill:#00ACEA;" d="M308.4,84.052v2.41h-61.95c-5.73-0.003-10.373-4.65-10.37-10.38v-58.93h1.51L308.4,84.052z"/>
		<path style="fill:#D4E1F4;" d="M53.3,381.132c-0.1-1.15-0.15-2.31-0.15-3.49c0-22.279,18.061-40.34,40.34-40.34
			s40.34,18.061,40.34,40.34l0,0c0,1.16-0.05,2.3-0.15,3.43c-1.89,22.198-21.417,38.66-43.615,36.77
			C70.512,416.178,54.994,400.683,53.3,381.132z"/>
	</g>
	<g>
		<path style="fill:#083863;" d="M264.88,174.802h-96.77c-5.523,0-10-4.477-10-10s4.477-10,10-10h96.77c5.523,0,10,4.477,10,10
			S270.403,174.802,264.88,174.802z"/>
		<path style="fill:#083863;" d="M209.3,138.642h-41.19c-5.523,0-10-4.477-10-10c0-5.523,4.477-10,10-10h41.19
			c5.523,0,10,4.477,10,10C219.3,134.165,214.823,138.642,209.3,138.642z"/>
		<path style="fill:#083863;" d="M264.88,210.962h-96.77c-5.523,0-10-4.477-10-10s4.477-10,10-10h96.77c5.523,0,10,4.477,10,10
			S270.403,210.962,264.88,210.962z"/>
		<path style="fill:#083863;" d="M412.468,286.128l-34.61-15.694l-30.767-48.745c-6.652-10.575-17.035-18.263-29.091-21.54V84.052
			c0.074-2.725-0.988-5.358-2.932-7.269l-70.71-66.69c-1.84-1.692-4.269-2.597-6.768-2.521h-89.24
			C131.733,7.428,118.145,20.781,118,37.398c-0.001,0.168-0.002,0.336,0,0.504v181.48c-0.062,5.47,1.343,10.857,4.068,15.6
			l-26.411,34.553l-66.09,17.99C12.205,292.28,0.124,308.002,0,326.002v25.25c0,21.99,18.21,40.32,40.2,40.32h4.781
			c2.504,8.967,7.49,17.044,14.384,23.3c9.276,8.62,21.462,13.423,34.125,13.45c22.513-0.177,42.236-15.123,48.494-36.75h147.057
			c5.962,21,25.71,36.86,48.489,36.86s42.527-15.86,48.492-36.86h9.778c21.99,0,40.2-18.33,40.2-40.32v-28.82
			C435.917,306.774,426.727,292.597,412.468,286.128z M246,38.931l39.805,37.641H246.45c-0.241-0.047-0.424-0.245-0.45-0.49V38.931z
			 M138,37.902c-0.144-5.562,4.249-10.187,9.811-10.331c0.18-0.005,0.36-0.004,0.539,0.001H226v48.51
			c0.039,11.285,9.165,20.429,20.45,20.49H298v122.81c0,5.928-4.422,11.19-10.35,11.19h-139.3c-2.637-0.079-5.147-1.154-7.023-3.01
			c-2.21-2.137-3.418-5.107-3.327-8.18V37.902z M123.715,380.239c-1.424,16.694-16.112,29.073-32.806,27.648
			c-14.703-1.255-26.371-12.907-27.645-27.609v-0.013c-0.074-0.858-0.112-1.74-0.112-2.623c0-16.756,13.584-30.34,30.34-30.34
			s30.34,13.584,30.34,30.34C123.83,378.498,123.792,379.356,123.715,380.239z M367.764,380.174
			c-1.391,16.697-16.054,29.104-32.751,27.713c-14.741-1.228-26.448-12.909-27.708-27.648v-0.045
			c-0.073-0.838-0.111-1.7-0.111-2.552c0.009-16.756,13.599-30.333,30.356-30.324c16.744,0.009,30.316,13.58,30.324,30.324
			c-0.004,0.814-0.04,1.667-0.11,2.53L367.764,380.174z M416,351.252c-0.127,11.123-9.078,20.127-20.2,20.32h-8.365
			c-3.588-27.562-28.839-46.997-56.401-43.409c-22.642,2.947-40.462,20.768-43.409,43.409H143.4
			c-3.588-27.562-28.839-46.997-56.401-43.409c-22.642,2.947-40.462,20.768-43.409,43.409H40.2
			c-11.122-0.193-20.073-9.197-20.2-20.32v-25.25c0.087-8.983,6.128-16.816,14.794-19.183l69.22-18.88
			c2.132-0.578,4.015-1.839,5.362-3.589l27.7-36.129c3.578,1.48,7.402,2.277,11.274,2.351h139.3
			c16.218-0.122,29.595-12.733,30.674-28.915c4.915,2.407,9.063,6.134,11.981,10.763l32.12,51.235
			c1.043,1.656,2.552,2.967,4.337,3.768l37.438,16.928c7.122,3.211,11.728,10.269,11.8,18.081V351.252z"/>
	</g>
</g>
<g>
</g>
<g>
</g>
<g>
</g>
<g>
</g>
<g>
</g>
<g>
</g>
<g>
</g>
<g>
</g>
<g>
</g>
<g>
</g>
<g>
</g>
<g>
</g>
<g>
</g>
<g>
</g>
<g>
</g>
</svg>
