<?xml version="1.0" encoding="iso-8859-1"?>
<!-- Generator: Adobe Illustrator 19.0.0, SVG Export Plug-In . SVG Version: 6.00 Build 0)  -->
<svg version="1.1" id="Capa_1" xmlns="http://www.w3.org/2000/svg" xmlns:xlink="http://www.w3.org/1999/xlink" x="0px" y="0px"
	 viewBox="0 0 460.001 460.001" style="enable-background:new 0 0 460.001 460.001;" xml:space="preserve">
<g>
	<g>
		<path style="fill:#D4E1F4;" d="M414.201,377.471v48.09c0.001,13.619-11.039,24.659-24.658,24.66c-0.001,0-0.001,0-0.002,0h-20.55
			c-13.619,0.001-24.659-11.039-24.66-24.658c0-0.001,0-0.001,0-0.002v-23.43h45.21c13.619,0.001,24.659-11.039,24.66-24.658
			C414.201,377.473,414.201,377.472,414.201,377.471z"/>
		<path style="fill:#00EFD1;" d="M414.201,371.311v6.16c0.001,13.619-11.039,24.659-24.658,24.66c-0.001,0-0.001,0-0.002,0h-299.2
			c-13.619,0.001-24.659-11.039-24.66-24.658c0-0.001,0-0.001,0-0.002v-61.37c0.001-10.862,4.777-21.174,13.06-28.2l12.84-11.94
			h301.66v0.41l9.37,10.01c7.399,6.991,11.591,16.721,11.59,26.9L414.201,371.311z M378.031,363.091v-40.28h-58.77v40.28H378.031z
			 M160.621,363.091v-40.28h-58.77v40.28H160.621z"/>
		<g>
			<path style="fill:#D4E1F4;" d="M365.691,211.781l27.55,64.18h-36.58c-0.011-25.195-20.444-45.611-45.639-45.601
				c-25.18,0.011-45.59,20.421-45.601,45.601H91.581l18.32-41.69v-1.51h95.94c11.46,0,20.75-9.29,20.75-20.75v-15.5h115.92
				C352.594,196.514,361.708,202.518,365.691,211.781z"/>
			<rect x="319.261" y="322.811" style="fill:#D4E1F4;" width="58.77" height="40.28"/>
			<path style="fill:#D4E1F4;" d="M356.661,275.961h-91.24c0.011-25.195,20.444-45.611,45.639-45.601
				C336.24,230.371,356.65,250.781,356.661,275.961z"/>
			<path style="fill:#D4E1F4;" d="M226.591,196.511v15.5c0,11.46-9.29,20.75-20.75,20.75h0H66.551c-11.46,0-20.75-9.29-20.75-20.75
				v0V30.531c0-11.46,9.29-20.75,20.75-20.75h87.73v58.93c-0.003,5.73,4.64,10.377,10.37,10.38h61.94V196.511z"/>
		</g>
		<path style="fill:#00ACEA;" d="M226.591,76.671v2.42h-61.94c-5.73-0.003-10.373-4.65-10.37-10.38V9.781h1.5L226.591,76.671z"/>
		<g>
			<rect x="101.851" y="322.811" style="fill:#D4E1F4;" width="58.77" height="40.28"/>
			<path style="fill:#D4E1F4;" d="M135.551,402.541v23.02c0.001,13.619-11.039,24.659-24.658,24.66c-0.001,0-0.001,0-0.002,0h-20.55
				c-13.619,0.001-24.659-11.039-24.66-24.658c0-0.001,0-0.001,0-0.002v-48.09c-0.001,13.619,11.039,24.659,24.658,24.66
				c0.001,0,0.001,0,0.002,0h45.21L135.551,402.541z"/>
		</g>
	</g>
	<g>
		<path style="fill:#083863;" d="M160.621,373.091h-58.77c-5.523,0-10-4.477-10-10v-40.28c0-5.523,4.477-10,10-10h58.77
			c5.523,0,10,4.477,10,10v40.28C170.621,368.614,166.144,373.091,160.621,373.091z M111.851,353.091h38.77v-20.28h-38.77
			L111.851,353.091z"/>
		<path style="fill:#083863;" d="M378.031,373.091h-58.77c-5.523,0-10-4.477-10-10v-40.28c0-5.523,4.477-10,10-10h58.77
			c5.523,0,10,4.477,10,10v40.28C388.031,368.614,383.554,373.091,378.031,373.091z M329.261,353.091h38.77v-20.28h-38.77V353.091z"
			/>
		<path style="fill:#083863;" d="M277.551,371.181h-75.21c-5.523,0-10-4.477-10-10s4.477-10,10-10h75.21c5.523,0,10,4.477,10,10
			S283.074,371.181,277.551,371.181z"/>
		<path style="fill:#083863;" d="M277.551,341.031h-75.21c-5.523,0-10-4.477-10-10s4.477-10,10-10h75.21c5.523,0,10,4.477,10,10
			S283.074,341.031,277.551,341.031z"/>
		<path style="fill:#083863;" d="M409.614,279.336l-7.6-8.173l-27.161-63.086c-5.569-12.884-18.307-21.184-32.342-21.076h-105.51
			V76.671c-0.077-2.777-1.283-5.402-3.338-7.27l-70.912-66.78c-1.908-1.724-4.399-2.661-6.97-2.62h-89.23
			c-16.804-0.069-30.481,13.498-30.55,30.302c0,0.076,0,0.152,0,0.228v181.48c0,16.955,13.594,30.99,30.55,30.99h28.7l-11.99,27.165
			l-11.012,10.326c-10.379,8.91-16.32,21.93-16.248,35.609v109.46c-0.111,18.91,15.129,34.329,34.039,34.44
			c0.1,0.001,0.2,0.001,0.301,0h20.55c19.11,0,35.11-15.328,35.11-34.44v-13.56h188v13.56c0,19.112,15.878,34.44,34.99,34.44h20.55
			c18.966,0.066,34.394-15.256,34.46-34.222c0-0.073,0-0.146,0-0.218v-112.28C424.017,300.481,418.823,288.226,409.614,279.336z
			 M164.001,31.567l40,37.434h-39.35c-0.2,0-0.65-0.081-0.65-0.29V31.567z M56.001,212.011V30.531
			c-0.069-5.747,4.534-10.461,10.28-10.53c0.09-0.001,0.18-0.001,0.27,0h77.45v48.71c0.15,11.284,9.365,20.339,20.65,20.29h52.35
			v123.01c-0.179,6.06-5.098,10.904-11.16,10.99H66.551C60.609,222.865,55.895,217.953,56.001,212.011z M205.841,243.001
			c17.102-0.1,30.967-13.889,31.16-30.99v-5.01h105.51c6.049-0.096,11.564,3.448,13.991,8.989l21.564,50.011h-12.323
			c-5.521-30.21-34.487-50.224-64.697-44.703c-22.746,4.157-40.546,21.957-44.703,44.703H106.901l10.2-23H205.841z M345.222,266.001
			H276.86c5.517-18.878,25.293-29.708,44.171-24.191C332.693,245.219,341.813,254.339,345.222,266.001z M76.001,316.101
			c-0.068-7.904,3.361-15.434,9.367-20.572c0.117-0.1,0.151-0.181,0.263-0.285l9.882-9.243h293.008l6.789,7.234
			c0.14,0.149,0.185,0.285,0.334,0.425c5.361,5.116,8.383,12.211,8.357,19.621v64.19c0.072,7.953-6.317,14.458-14.269,14.53
			c-0.064,0.001-0.127,0.001-0.191,0h-299.2c-7.898,0.023-14.319-6.36-14.342-14.258c0-0.091,0-0.181,0.002-0.272V316.101z
			 M126.001,425.561c0,8.084-7.026,14.44-15.11,14.44h-20.55c-7.853,0.068-14.273-6.243-14.341-14.096
			c-0.001-0.115-0.001-0.23,0.001-0.344v-16.693c4.467,2.157,9.38,3.231,14.34,3.133h35.66V425.561z M389.541,440.001h-20.55
			c-8.083,0-14.99-6.356-14.99-14.44v-13.56h35.54c4.998,0.097,9.95-0.975,14.46-3.133v16.693c0.067,7.908-6.29,14.374-14.199,14.44
			C389.715,440.002,389.628,440.002,389.541,440.001z"/>
	</g>
</g>
<g>
	<path style="fill:#00ACEA;" d="M193.501,145.491v13.56c0,2.11-2.83,3.91-4.91,4.25l-8.69,1.23c-0.948,3.382-2.284,6.644-3.98,9.72
		l4.38,6.2c1.214,1.722,1.016,4.066-0.47,5.56l-9.65,9.69c-1.459,1.503-3.785,1.743-5.52,0.57l-6.08-4.11
		c-3.061,1.809-6.315,3.272-9.7,4.36l-1.23,7.97c-0.35,2.07-2.14,5.01-4.24,5.01h-13.56c-2.1,0-3.9-2.94-4.25-5.01l-1.23-8.68
		c-3.387-0.949-6.652-2.288-9.73-3.99l-6.08,4.27c-1.723,1.201-4.059,0.999-5.55-0.48l-9.71-9.65c-1.51-1.452-1.763-3.777-0.6-5.52
		l4.04-6.08c-1.849-3.061-3.351-6.317-4.48-9.71l-8.23-1.22c-2.07-0.35-5.53-2.15-5.53-4.24v-13.57c0-2.09,3.46-3.89,5.53-4.24
		l9.19-1.23c0.949-3.387,2.288-6.652,3.99-9.73l-4.26-6.07c-1.209-1.716-1.011-4.052,0.47-5.54l9.65-9.69
		c1.459-1.505,3.789-1.741,5.52-0.56l6.08,4.11c3.067-1.798,6.323-3.25,9.71-4.33l1.22-7.92c0.35-2.07,2.15-4.92,4.25-4.92h13.56
		c2.1,0,3.9,2.85,4.24,4.92l1.23,8.58c3.375,0.947,6.63,2.279,9.7,3.97l6.07-4.35c1.717-1.231,4.072-1.04,5.57,0.45l9.69,9.65
		c1.505,1.459,1.741,3.789,0.56,5.52l-4.11,6.08c1.796,3.064,3.248,6.317,4.33,9.7l7.91,1.23
		C190.671,141.601,193.501,143.401,193.501,145.491z M166.071,152.271c0-16.259-13.181-29.44-29.44-29.44s-29.44,13.181-29.44,29.44
		s13.181,29.44,29.44,29.44C152.883,181.695,166.055,168.524,166.071,152.271z"/>
</g>
<g>
	<path style="fill:#00ACEA;" d="M136.631,133.821c10.192,0.003,18.453,8.268,18.45,18.46c-0.003,10.192-8.268,18.453-18.46,18.45
		c-10.192-0.003-18.453-8.268-18.45-18.46c0,0,0,0,0,0C118.185,142.083,126.443,133.83,136.631,133.821z"/>
</g>
<g>
</g>
<g>
</g>
<g>
</g>
<g>
</g>
<g>
</g>
<g>
</g>
<g>
</g>
<g>
</g>
<g>
</g>
<g>
</g>
<g>
</g>
<g>
</g>
<g>
</g>
<g>
</g>
<g>
</g>
</svg>
