<?xml version="1.0" encoding="iso-8859-1"?>
<!-- Generator: Adobe Illustrator 19.0.0, SVG Export Plug-In . SVG Version: 6.00 Build 0)  -->
<svg version="1.1" id="Capa_1" xmlns="http://www.w3.org/2000/svg" xmlns:xlink="http://www.w3.org/1999/xlink" x="0px" y="0px"
	 viewBox="0 0 436 436" style="enable-background:new 0 0 436 436;" xml:space="preserve">
<g>
	<g>
		<path style="fill:#00EFD1;" d="M425.68,322.432v28.82c-0.002,16.502-13.378,29.878-29.88,29.88h-17.44l-0.64-0.06
			c0.1-1.13,0.15-2.27,0.15-3.43c-0.009-22.279-18.077-40.333-40.356-40.324c-22.267,0.009-40.316,18.057-40.324,40.324
			c0,1.16,0.05,2.3,0.15,3.43l-0.65,0.06H134.33l-0.65-0.06c0.1-1.13,0.15-2.27,0.15-3.43c0-22.279-18.061-40.34-40.34-40.34
			s-40.34,18.061-40.34,40.34l0,0c0,1.18,0.05,2.34,0.15,3.49H40.2c-16.502-0.002-29.878-13.378-29.88-29.88v-25.25
			c0.003-13.468,9.011-25.272,22-28.83l69.14-18.88l32.37-42.51l0.57-1.04c3.814,3.476,8.79,5.398,13.95,5.39h139.3
			c11.46,0,20.75-9.29,20.75-20.75l0,0v-10.8h1.26c11.995,1.414,22.703,8.187,29.12,18.42l32.12,51.29l37.27,16.94
			C418.836,300.081,425.682,310.716,425.68,322.432z"/>
		<g>
			<path style="fill:#D4E1F4;" d="M377.87,377.642c0,1.16-0.05,2.3-0.15,3.43c-1.887,22.196-21.411,38.66-43.607,36.773
				c-19.578-1.665-35.108-17.195-36.773-36.773c-0.1-1.13-0.15-2.27-0.15-3.43c0.009-22.279,18.077-40.333,40.356-40.324
				C359.813,337.327,377.861,355.375,377.87,377.642z"/>
			<path style="fill:#D4E1F4;" d="M308.4,208.582v10.8c0,11.46-9.29,20.75-20.75,20.75l0,0h-139.3
				c-11.459-0.001-20.749-9.291-20.75-20.75V37.902c0-11.46,9.29-20.75,20.75-20.75h87.73v58.93
				c-0.003,5.73,4.64,10.377,10.37,10.38h61.95V208.582z"/>
		</g>
		<path style="fill:#00ACEA;" d="M308.4,84.052v2.41h-61.95c-5.73-0.003-10.373-4.65-10.37-10.38v-58.93h1.51L308.4,84.052z"/>
		<path style="fill:#D4E1F4;" d="M53.3,381.132c-0.1-1.15-0.15-2.31-0.15-3.49c0-22.279,18.061-40.34,40.34-40.34
			s40.34,18.061,40.34,40.34l0,0c0,1.16-0.05,2.3-0.15,3.43c-1.89,22.198-21.417,38.66-43.615,36.77
			C70.512,416.178,54.994,400.683,53.3,381.132z"/>
	</g>
	<path style="fill:#083863;" d="M412.468,286.128l-34.61-15.694l-30.767-48.745c-6.652-10.575-17.035-18.263-29.091-21.54V84.052
		c0.074-2.725-0.988-5.358-2.932-7.269l-70.71-66.69c-1.84-1.692-4.269-2.597-6.768-2.521h-89.24
		C131.733,7.428,118.145,20.781,118,37.398c-0.001,0.168-0.002,0.336,0,0.504v181.48c-0.062,5.47,1.342,10.857,4.068,15.6
		l-26.411,34.553l-66.09,17.99C12.205,292.28,0.124,308.002,0,326.002v25.25c0,21.99,18.21,40.32,40.2,40.32h4.781
		c2.503,8.967,7.49,17.044,14.384,23.3c9.276,8.62,21.462,13.423,34.125,13.45c22.513-0.179,42.234-15.124,48.494-36.75h147.057
		c5.962,21,25.71,36.86,48.489,36.86s42.545-15.86,48.494-36.86h9.776c21.99,0,40.2-18.33,40.2-40.32v-28.82
		C435.917,306.774,426.727,292.597,412.468,286.128z M246,38.931l39.805,37.641H246.45c-0.241-0.047-0.424-0.245-0.45-0.49V38.931z
		 M138,37.902c-0.144-5.562,4.249-10.187,9.811-10.331c0.18-0.005,0.36-0.004,0.539,0.001H226v48.51
		c0.039,11.285,9.165,20.429,20.45,20.49H298v122.81c0,5.928-4.422,11.19-10.35,11.19h-139.3c-2.637-0.079-5.147-1.154-7.023-3.01
		c-2.21-2.137-3.418-5.107-3.327-8.18V37.902z M123.715,380.239c-1.471,15.683-14.604,27.69-30.356,27.753
		C77.741,407.992,65,395.819,63,380.278v-0.006c0-0.863,0.019-1.746,0.019-2.627c0-16.783,13.606-30.389,30.389-30.389
		s30.389,13.606,30.389,30.389l0,0C123.8,378.498,123.792,379.356,123.715,380.239z M367.755,380.239
		c-1.425,16.693-16.113,29.069-32.806,27.644c-14.716-1.257-26.388-12.929-27.644-27.644v-0.045c-0.073-0.838-0.111-1.7-0.111-2.552
		c0.009-16.756,13.599-30.333,30.356-30.324c16.744,0.009,30.316,13.58,30.324,30.324
		C367.87,378.498,367.833,379.356,367.755,380.239z M416,351.252c-0.127,11.123-9.078,20.127-20.2,20.32h-8.365
		c-3.588-27.562-28.839-46.997-56.401-43.409c-22.642,2.947-40.462,20.768-43.409,43.409H143.4
		c-3.588-27.562-28.839-46.997-56.401-43.409c-22.642,2.947-40.462,20.768-43.409,43.409H40.2
		c-11.122-0.193-20.073-9.197-20.2-20.32v-25.25c0.087-8.983,6.128-16.817,14.794-19.183l69.22-18.88
		c2.132-0.578,4.015-1.839,5.362-3.589l27.7-36.129c3.578,1.48,7.402,2.278,11.274,2.351h139.3
		c16.218-0.122,29.595-12.733,30.674-28.915c4.915,2.407,9.063,6.134,11.981,10.763l32.12,51.235
		c1.043,1.656,2.552,2.967,4.337,3.768l37.438,16.928c7.122,3.211,11.728,10.269,11.8,18.081V351.252z"/>
</g>
<g>
	<path style="fill:#00ACEA;" d="M274.5,153.812v13.56c0,2.11-2.65,3.91-4.72,4.25l-8.51,1.23c-0.944,3.384-2.28,6.646-3.98,9.72
		l4.39,6.21c1.209,1.719,1.011,4.058-0.47,5.55l-9.65,9.7c-1.459,1.503-3.785,1.743-5.52,0.57l-6.09-4.08
		c-3.062,1.813-6.315,3.282-9.7,4.38l-1.23,8.03c-0.35,2.07-2.14,5.14-4.24,5.14h-13.56c-2.1,0-3.9-3.07-4.25-5.14l-1.23-8.8
		c-3.386-0.951-6.651-2.29-9.73-3.99l-6.07,4.27c-1.723,1.201-4.059,0.999-5.55-0.48l-9.7-9.65c-1.505-1.456-1.75-3.783-0.58-5.52
		l4.08-6.08c-1.823-3.065-3.302-6.321-4.41-9.71l-8.07-1.22c-2.07-0.35-5.21-2.15-5.21-4.25v-13.56c0-2.09,3.14-3.89,5.21-4.24
		l8.89-1.23c0.95-3.385,2.285-6.65,3.98-9.73l-4.26-6.07c-1.204-1.717-1.006-4.05,0.47-5.54l9.65-9.69
		c1.466-1.493,3.789-1.724,5.52-0.55l6.09,4.13c3.063-1.79,6.317-3.232,9.7-4.3l1.23-7.86c0.35-2.07,2.14-4.79,4.24-4.79h13.56
		c2.1,0,3.9,2.72,4.25,4.79l1.22,8.46c3.378,0.947,6.636,2.279,9.71,3.97l6.06-4.35c1.717-1.23,4.072-1.04,5.57,0.45l9.69,9.65
		c1.495,1.466,1.722,3.792,0.54,5.52l-4.13,6.08c1.78,3.066,3.216,6.319,4.28,9.7l7.82,1.23
		C271.86,149.922,274.5,151.712,274.5,153.812z M247.44,160.592c0-16.259-13.181-29.44-29.44-29.44s-29.44,13.181-29.44,29.44
		s13.181,29.44,29.44,29.44C234.253,190.016,247.424,176.845,247.44,160.592z"/>
</g>
<g>
	<path style="fill:#00ACEA;" d="M218,142.142c10.192-0.003,18.457,8.258,18.46,18.45c0.003,10.192-8.258,18.457-18.45,18.46
		s-18.457-8.258-18.46-18.45c0-0.003,0-0.007,0-0.01C199.56,150.407,207.815,142.153,218,142.142z"/>
</g>
<g>
</g>
<g>
</g>
<g>
</g>
<g>
</g>
<g>
</g>
<g>
</g>
<g>
</g>
<g>
</g>
<g>
</g>
<g>
</g>
<g>
</g>
<g>
</g>
<g>
</g>
<g>
</g>
<g>
</g>
</svg>
