<?xml version="1.0" encoding="iso-8859-1"?>
<!-- Generator: Adobe Illustrator 19.0.0, SVG Export Plug-In . SVG Version: 6.00 Build 0)  -->
<svg version="1.1" id="Capa_1" xmlns="http://www.w3.org/2000/svg" xmlns:xlink="http://www.w3.org/1999/xlink" x="0px" y="0px"
	 viewBox="0 0 476.04 476.04" style="enable-background:new 0 0 476.04 476.04;" xml:space="preserve">
<g>
	<g>
		<path style="fill:#D4E1F4;" d="M385.35,404.581v40.659c-0.001,11.511-9.333,20.841-20.844,20.84c-0.002,0-0.004,0-0.006,0h-17.37
			c-11.511,0.004-20.846-9.323-20.85-20.834c0-0.002,0-0.004,0-0.006v-19.81h38.22C376.015,425.43,385.349,416.096,385.35,404.581z"
			/>
		<path style="fill:#00EFD1;" d="M385.35,399.371v5.21c0,11.515-9.335,20.85-20.85,20.85l0,0H111.54
			c-11.515,0-20.85-9.335-20.85-20.85l0,0v-51.89c0.004-9.184,4.04-17.904,11.04-23.85l11.89-10.09h252.97v0.35l8.96,8.47
			c6.258,5.904,9.803,14.127,9.8,22.73V399.371z M354.77,392.421v-34.05h-49.69v34.05H354.77z M170.96,392.421v-34.05h-49.69v34.05
			H170.96z"/>
		<g>
			<path style="fill:#D4E1F4;" d="M344.33,264.491l23.3,54.26H336.7c0-21.302-17.268-38.57-38.57-38.57s-38.57,17.268-38.57,38.57
				H112.58l23.3-54.26c3.363-7.832,11.067-12.908,19.59-12.91h169.27C333.263,251.583,340.967,256.659,344.33,264.491z"/>
			<rect x="305.08" y="358.37" style="fill:#D4E1F4;" width="49.69" height="34.05"/>
			<path style="fill:#D4E1F4;" d="M336.7,318.751h-77.14c0.014-21.302,17.293-38.559,38.595-38.545
				C319.437,280.219,336.686,297.469,336.7,318.751z"/>
		</g>
		<g>
			<path style="fill:#00ACEA;" d="M216.64,112.361c30.077-11.85,64.066,2.926,75.916,33.003c2.713,6.886,4.096,14.225,4.074,21.627
				H179.41C179.406,142.858,194.177,121.183,216.64,112.361z"/>
			<path style="fill:#00ACEA;" d="M259.4,99.121v13.18c-13.757-5.341-29.018-5.319-42.76,0.06v-13.24
				c0.006-9.569,7.761-17.324,17.33-17.33h8.1c9.566-0.006,17.324,7.744,17.33,17.31C259.4,99.108,259.4,99.114,259.4,99.121z"/>
		</g>
		<g>
			<path style="fill:#D4E1F4;" d="M253.02,25.001v59l-1.96,0.3c-2.71-1.645-5.82-2.514-8.99-2.51h-8.1
				c-3.74-0.008-7.38,1.203-10.37,3.45l-0.58-1.24v-59c0.008-8.284,6.731-14.993,15.015-14.985
				C246.308,10.024,253.012,16.729,253.02,25.001z"/>
			<rect x="121.27" y="358.37" style="fill:#D4E1F4;" width="49.69" height="34.05"/>
			<path style="fill:#D4E1F4;" d="M149.76,425.781v19.459c-0.001,11.511-9.333,20.841-20.844,20.84c-0.002,0-0.004,0-0.006,0h-17.37
				c-11.511,0.004-20.846-9.323-20.85-20.834c0-0.002,0-0.004,0-0.006v-40.66c0,11.515,9.335,20.85,20.85,20.85l0,0h38.22V425.781z"
				/>
		</g>
	</g>
	<g>
		<path style="fill:#083863;" d="M177.91,220.181c-5.523,0-10-4.477-10-10v-15.03c0-5.523,4.477-10,10-10s10,4.477,10,10v15.03
			C187.91,215.704,183.433,220.181,177.91,220.181z"/>
		<path style="fill:#083863;" d="M207.96,220.181c-5.523,0-10-4.477-10-10v-15.03c0-5.523,4.477-10,10-10s10,4.477,10,10v15.03
			C217.96,215.704,213.483,220.181,207.96,220.181z"/>
		<path style="fill:#083863;" d="M238.02,220.181c-5.523,0-10-4.477-10-10v-15.03c0-5.523,4.477-10,10-10c5.523,0,10,4.477,10,10
			v15.03C248.02,215.704,243.543,220.181,238.02,220.181z"/>
		<path style="fill:#083863;" d="M268.08,220.181c-5.523,0-10-4.477-10-10v-15.03c0-5.523,4.477-10,10-10s10,4.477,10,10v15.03
			C278.08,215.704,273.603,220.181,268.08,220.181z"/>
		<path style="fill:#083863;" d="M298.13,220.181c-5.523,0-10-4.477-10-10v-15.03c0-5.523,4.477-10,10-10s10,4.477,10,10v15.03
			C308.13,215.704,303.653,220.181,298.13,220.181z"/>
		<path style="fill:#083863;" d="M269.02,105.866v-6.745c0.158-6.388-1.97-12.623-6-17.581V25c0-13.807-11.193-25-25-25
			c-13.807,0-25,11.193-25,25v56.587c-3.997,4.958-6.122,11.166-6,17.534v6.8c-23.038,11.631-37.525,35.282-37.42,61.089
			c-0.093,5.445,4.245,9.935,9.69,10.029c0.04,0.001,0.08,0.001,0.12,0.001h117.22c5.445-0.027,9.837-4.462,9.811-9.907
			c0-0.023,0-0.046-0.001-0.069C306.522,141.236,292.047,117.564,269.02,105.866z M227.02,99.121
			c-0.079-2.259,0.958-4.413,2.775-5.759c1.201-0.902,2.674-1.368,4.175-1.322h8.1c1.265-0.044,2.515,0.279,3.6,0.93
			c2.149,1.292,3.43,3.645,3.35,6.151v0.132c-7.28-1.264-14.723-1.256-22,0.024V99.121z M234.492,21.462
			c1.957-1.948,5.123-1.942,7.071,0.015c0.932,0.936,1.456,2.202,1.457,3.523v46.823c-0.316-0.011-0.633,0.217-0.95,0.217h-8.1
			c-0.319,0-0.633-0.223-0.95-0.212V25C233.016,23.671,233.546,22.396,234.492,21.462z M190.426,157.04
			c5.543-26.349,31.396-43.216,57.745-37.673c2.586,0.544,5.124,1.298,7.588,2.253l0.011,0.026
			c15.309,5.973,26.548,19.297,29.856,35.394H190.426z"/>
		<path style="fill:#083863;" d="M170.96,402.421h-49.69c-5.523,0-10-4.477-10-10v-34.05c0-5.523,4.477-10,10-10h49.69
			c5.523,0,10,4.477,10,10v34.05C180.96,397.944,176.483,402.421,170.96,402.421z M131.27,382.421h29.69v-14.05h-29.69V382.421z"/>
		<path style="fill:#083863;" d="M354.77,402.421h-49.69c-5.523,0-10-4.477-10-10v-34.05c0-5.523,4.477-10,10-10h49.69
			c5.523,0,10,4.477,10,10v34.05C364.77,397.944,360.293,402.421,354.77,402.421z M315.08,382.421h29.69v-14.05h-29.69V382.421z"/>
		<path style="fill:#083863;" d="M382.255,320.304l-5.409-5.192c-0.039-0.1-0.025-0.207-0.068-0.307l-23.28-54.027
			c-4.947-11.46-16.277-18.842-28.758-18.738H155.47c-12.486-0.104-23.821,7.275-28.778,18.735l-22.972,53.374l-8.3,7.13
			c-9.197,7.835-14.467,19.33-14.4,31.412v92.549c-0.13,16.88,13.448,30.669,30.327,30.799c0.064,0,0.129,0.001,0.193,0.001h17.37
			c17.07,0.023,30.962-13.73,31.11-30.8v-10.2h156v10.2c0.148,17.07,14.04,30.823,31.11,30.8h17.37
			c16.88-0.024,30.545-13.727,30.521-30.607c0-0.064,0-0.129-0.001-0.193V350.3C395.067,338.972,390.45,328.124,382.255,320.304z
			 M145.07,268.804c1.793-4.139,5.889-6.803,10.4-6.764h169.27c4.512-0.038,8.609,2.629,10.4,6.771l17.313,40.229h-6.793
			c-5.524-26.25-31.282-43.052-57.532-37.528c-18.842,3.965-33.563,18.686-37.528,37.528H127.757L145.07,268.804z M324.889,309.04
			h-53.518c5.521-14.779,21.976-22.284,36.755-16.763C315.878,295.173,321.993,301.288,324.889,309.04L324.889,309.04z
			 M140.02,445.24c-0.135,6.029-5.08,10.835-11.11,10.8h-17.37c-5.824-0.012-10.535-4.743-10.523-10.567
			c0-0.078,0.001-0.155,0.003-0.233v-11.784c3,1.273,6.7,1.584,10.52,1.584h28.48V445.24z M364.5,456.04h-17.37
			c-6.03,0.035-10.975-4.771-11.11-10.8v-10.2h28.48c3.818,0,7.52-0.311,10.52-1.584v11.784c0.141,5.822-4.465,10.656-10.287,10.797
			C364.655,456.039,364.578,456.04,364.5,456.04z M364.5,415.04H111.54c-5.662,0.147-10.372-4.324-10.519-9.986
			c-0.004-0.158-0.005-0.315-0.001-0.473v-51.89c-0.063-6.186,2.629-12.079,7.346-16.081l8.925-7.57h244.95l6.286,5.953
			c4.195,3.98,6.547,9.525,6.493,15.308v54.28c0.114,5.663-4.384,10.346-10.047,10.46C364.815,415.045,364.658,415.044,364.5,415.04
			z"/>
		<path style="fill:#083863;" d="M269.81,400.801h-63.58c-5.523,0-10-4.477-10-10s4.477-10,10-10h63.58c5.523,0,10,4.477,10,10
			S275.333,400.801,269.81,400.801z"/>
		<path style="fill:#083863;" d="M269.81,375.311h-63.58c-5.523,0-10-4.477-10-10s4.477-10,10-10h63.58c5.523,0,10,4.477,10,10
			S275.333,375.311,269.81,375.311z"/>
	</g>
</g>
<g>
</g>
<g>
</g>
<g>
</g>
<g>
</g>
<g>
</g>
<g>
</g>
<g>
</g>
<g>
</g>
<g>
</g>
<g>
</g>
<g>
</g>
<g>
</g>
<g>
</g>
<g>
</g>
<g>
</g>
</svg>
