<?xml version="1.0" encoding="iso-8859-1"?>
<!-- Generator: Adobe Illustrator 19.0.0, SVG Export Plug-In . SVG Version: 6.00 Build 0)  -->
<svg version="1.1" id="Capa_1" xmlns="http://www.w3.org/2000/svg" xmlns:xlink="http://www.w3.org/1999/xlink" x="0px" y="0px"
	 viewBox="0 0 477.831 477.831" style="enable-background:new 0 0 477.831 477.831;" xml:space="preserve">
<g>
	<g>
		<path style="fill:#00CEB4;" d="M421.585,359.53v50.68c-0.003,13.773-11.167,24.937-24.94,24.94h-12.47l-0.11-0.01
			c0.07-0.96,0.11-1.92,0.11-2.9c-0.009-19.741-16.02-35.737-35.762-35.728c-19.728,0.009-35.719,16-35.728,35.728
			c0,0.98,0.04,1.94,0.11,2.9l-0.11,0.01h-51.53V348.7h157.95C420.74,352.076,421.588,355.779,421.585,359.53z"/>
		<g>
			<path style="fill:#D4E1F4;" d="M419.105,348.7h-80.23l-29.93-64.42v-0.42h33.39c6.321,0.001,12.407,2.399,17.03,6.71l54.31,50.74
				C415.929,343.414,417.771,345.92,419.105,348.7z"/>
			<path style="fill:#D4E1F4;" d="M384.175,432.24c0,0.98-0.04,1.94-0.11,2.9c-1.61,19.681-18.869,34.33-38.55,32.72
				c-17.446-1.427-31.293-15.275-32.72-32.72c-0.07-0.96-0.11-1.92-0.11-2.9c0.009-19.741,16.02-35.737,35.762-35.728
				C368.176,396.521,384.166,412.512,384.175,432.24L384.175,432.24z"/>
			<polygon style="fill:#D4E1F4;" points="308.945,284.28 338.875,348.7 261.155,348.7 261.155,283.86 308.945,283.86 			"/>
		</g>
		<g>
			<path style="fill:#00ACEA;" d="M216.355,113.88c31.562-12.435,67.229,3.07,79.665,34.632c2.848,7.228,4.298,14.93,4.275,22.698
				h-123C177.295,145.888,192.79,123.145,216.355,113.88z"/>
			<path style="fill:#00ACEA;" d="M261.235,100v13.82c-14.438-5.607-30.457-5.586-44.88,0.06V100
				c0.006-10.044,8.146-18.184,18.19-18.19h8.5C253.089,81.816,261.23,89.956,261.235,100z"/>
		</g>
		<path style="fill:#00EFD1;" d="M261.155,348.7v86.45h-95.6l-0.11-0.01c0.07-0.96,0.11-1.92,0.11-2.9
			c-0.002-19.741-16.006-35.744-35.748-35.742c-19.739,0.001-35.741,16.003-35.742,35.742c0,0.98,0.04,1.94,0.11,2.9l-0.11,0.01
			h-12.88c-13.773-0.003-24.937-11.167-24.94-24.94v-19.95c0.002-22.952,18.608-41.558,41.56-41.56h41.14
			c0.969-0.002,1.937-0.058,2.9-0.17l0.02,0.17H261.155z"/>
		<g>
			<path style="fill:#D4E1F4;" d="M261.155,283.86v64.84h-119.29l-0.02-0.17c5.857-0.685,11.281-3.424,15.31-7.73l45.9-49.04
				c4.715-5.04,11.308-7.901,18.21-7.9H261.155L261.155,283.86z"/>
			<path style="fill:#D4E1F4;" d="M254.915,26v59l-0.99,0.43c-3.138-2.354-6.957-3.625-10.88-3.62h-8.5
				c-4.246-0.005-8.359,1.481-11.62,4.2l-0.01-0.01V26c0.009-8.837,7.179-15.993,16.016-15.984
				C247.755,10.024,254.907,17.176,254.915,26z"/>
			<path style="fill:#D4E1F4;" d="M165.555,432.24c0,0.98-0.04,1.94-0.11,2.9c-1.61,19.681-18.869,34.33-38.55,32.72
				c-17.446-1.427-31.293-15.275-32.72-32.72c-0.07-0.96-0.11-1.92-0.11-2.9c0.002-19.741,16.006-35.744,35.748-35.742
				C149.552,396.499,165.554,412.501,165.555,432.24z"/>
		</g>
	</g>
	<g>
		<path style="fill:#083863;" d="M175.835,226.53c-5.523,0-10-4.477-10-10v-15.78c0-5.523,4.477-10,10-10s10,4.477,10,10v15.78
			C185.835,222.053,181.358,226.53,175.835,226.53z"/>
		<path style="fill:#083863;" d="M207.375,226.53c-5.523,0-10-4.477-10-10v-15.78c0-5.523,4.477-10,10-10s10,4.477,10,10v15.78
			C217.375,222.053,212.898,226.53,207.375,226.53z"/>
		<path style="fill:#083863;" d="M238.915,226.53c-5.523,0-10-4.477-10-10v-15.78c0-5.523,4.477-10,10-10c5.523,0,10,4.477,10,10
			v15.78C248.915,222.053,244.438,226.53,238.915,226.53z"/>
		<path style="fill:#083863;" d="M270.455,226.53c-5.523,0-10-4.477-10-10v-15.78c0-5.523,4.477-10,10-10s10,4.477,10,10v15.78
			C280.455,222.053,275.978,226.53,270.455,226.53z"/>
		<path style="fill:#083863;" d="M301.995,226.53c-5.523,0-10-4.477-10-10v-15.78c0-5.523,4.477-10,10-10s10,4.477,10,10v15.78
			C311.995,222.053,307.518,226.53,301.995,226.53z"/>
		<path style="fill:#083863;" d="M270.915,107.373V100c0.098-6.433-2.02-12.704-6-17.76V26c0-14.359-11.641-26-26-26
			s-26,11.641-26,26v55.934c-4.37,5.021-6.846,11.412-7,18.066v7.434c-23,12.145-38.84,36.368-38.84,63.665
			c0.115,5.543,4.676,9.957,10.22,9.89h123c5.396,0.038,9.802-4.305,9.84-9.701c0-0.048,0-0.095,0-0.143
			C310.177,144.181,294.999,119.501,270.915,107.373z M225.915,100c0.084-2.441,1.251-4.718,3.183-6.212
			c1.563-1.192,3.481-1.826,5.447-1.8h8.5c1.711-0.033,3.382,0.513,4.744,1.549c2.032,1.517,3.199,3.928,3.126,6.463v0.707
			c-4.101-0.717-8.257-1.077-12.42-1.077c-4.216,0.041-8.422,0.411-12.58,1.107V100z M234.665,21.761
			c2.339-2.347,6.138-2.354,8.485-0.015c1.131,1.127,1.766,2.658,1.765,4.254v45.889c-0.621-0.04-1.242,0.105-1.87,0.105h-8.5
			c-0.546,0-1.087-0.139-1.63-0.108V26C232.91,24.41,233.54,22.884,234.665,21.761z M188.253,160.989
			c5.626-27.937,32.834-46.024,60.771-40.398c2.924,0.589,5.791,1.43,8.57,2.514l0.008-0.093
			c16.441,6.324,28.457,20.68,31.787,37.977H188.253z"/>
		<path style="fill:#083863;" d="M428.285,344.371c-1.9-3.905-4.511-7.421-7.7-10.368l-54.356-50.681
			c-6.491-6.032-15.033-9.369-23.894-9.333h-12.42v-11h11.45c5.523,0,10-4.477,10-10c0-5.523-4.477-10-10-10h-119.7
			c-5.523,0-10,4.477-10,10c0,5.523,4.477,10,10,10h11.25v11h-11.65c-9.658-0.013-18.891,3.968-25.511,11l-45.9,49.01
			c-2.397,2.609-5.636,4.293-9.149,4.755c-0.581,0.109-1.168,0.187-1.758,0.233H97.805c-28.43,0.002-51.89,22.842-51.89,51.273
			v19.95c0,19.266,16,34.779,35.27,34.779h4.75c7.122,24.228,32.536,38.096,56.764,30.974c14.92-4.386,26.588-16.054,30.974-30.974
			h130.882c7.122,24.228,32.536,38.096,56.764,30.974c14.92-4.386,26.588-16.054,30.974-30.974h4.352
			c19.27,0,35.27-15.513,35.27-34.779v-50.68C431.855,354.269,430.615,349.089,428.285,344.371z M352.538,298.089l43.694,40.9
			h-50.976l-20.833-45h17.912C346.133,294.013,349.78,295.479,352.538,298.089z M302.369,293.989l20.833,45h-52.287v-45H302.369z
			 M252.915,262.989h57v11h-57V262.989z M210.361,298.797c2.818-3.035,6.763-4.774,10.904-4.808h29.65v45h-78.1L210.361,298.797z
			 M155.477,434.337c-1.164,14.176-13.599,24.724-27.775,23.561c-12.545-1.03-22.508-10.977-23.557-23.521
			c-0.053-0.76-0.08-1.46-0.08-2.138c0-14.219,11.526-25.745,25.745-25.745c14.219,0,25.745,11.526,25.745,25.745
			C155.555,432.929,155.527,433.643,155.477,434.337L155.477,434.337z M129.815,386.337c-22.536-0.023-41.724,16.386-45.2,38.652
			h-3.43c-8.238,0-15.27-6.542-15.27-14.779v-19.95c0-17.403,14.487-31.271,31.89-31.271h41.14c0.955,0,1.97-0.345,2.97-0.428v0.428
			h109v66h-75.912c-3.472-22.263-22.656-38.672-45.188-38.65V386.337z M374.098,434.337c-1.165,14.176-13.601,24.723-27.777,23.558
			c-12.545-1.031-22.507-10.979-23.555-23.523c-0.055-0.754-0.081-1.452-0.081-2.133c0.009-14.219,11.543-25.737,25.762-25.728
			c14.206,0.009,25.719,11.523,25.728,25.728C374.175,432.929,374.147,433.643,374.098,434.337L374.098,434.337z M411.915,410.21
			c0,8.237-7.032,14.779-15.27,14.779h-3.022c-3.918-24.96-27.329-42.017-52.288-38.099c-19.624,3.081-35.018,18.474-38.099,38.099
			h-32.321v-66h140.623c0.016,0,0.377,0.263,0.377,0.541V410.21z"/>
	</g>
</g>
<g>
</g>
<g>
</g>
<g>
</g>
<g>
</g>
<g>
</g>
<g>
</g>
<g>
</g>
<g>
</g>
<g>
</g>
<g>
</g>
<g>
</g>
<g>
</g>
<g>
</g>
<g>
</g>
<g>
</g>
</svg>
