<?xml version="1.0" encoding="iso-8859-1"?>
<!-- Generator: Adobe Illustrator 19.0.0, SVG Export Plug-In . SVG Version: 6.00 Build 0)  -->
<svg version="1.1" id="Capa_1" xmlns="http://www.w3.org/2000/svg" xmlns:xlink="http://www.w3.org/1999/xlink" x="0px" y="0px"
	 viewBox="0 0 471.359 471.359" style="enable-background:new 0 0 471.359 471.359;" xml:space="preserve">
<g>
	<g>
		<path style="fill:#00EFD1;" d="M429.87,372.41v26.95c-0.001,15.431-12.509,27.939-27.94,27.94H385.5l-0.47-0.04
			c0.09-1.06,0.14-2.13,0.14-3.22c-0.014-20.835-16.915-37.714-37.75-37.7c-20.816,0.014-37.687,16.885-37.7,37.7
			c0,1.08,0.05,2.15,0.14,3.21l-0.6,0.05H157.44l-0.6-0.05c0.09-1.06,0.14-2.13,0.14-3.21c0-20.832-16.888-37.72-37.72-37.72
			s-37.72,16.888-37.72,37.72c0,1.09,0.05,2.17,0.14,3.24l-0.28,0.02H69.43c-15.431-0.001-27.939-12.509-27.94-27.94v-23.61
			c-0.004-12.594,8.421-23.632,20.57-26.95l64.65-17.67l38.64-50.74c7.044-9.256,18.008-14.69,29.64-14.69h122.05
			c12.831,0.003,24.758,6.607,31.57,17.48l30.04,47.95l34.84,15.84C423.466,351.504,429.871,361.452,429.87,372.41z"/>
		<path style="fill:#D4E1F4;" d="M385.17,424.04c0,1.09-0.05,2.16-0.14,3.22c-1.777,20.757-20.044,36.144-40.802,34.367
			c-18.297-1.566-32.807-16.08-34.368-34.377c-0.09-1.06-0.14-2.13-0.14-3.21c0-20.835,16.89-37.725,37.725-37.725
			S385.17,403.205,385.17,424.04z"/>
		<g>
			<path style="fill:#00ACEA;" d="M213.44,115.24c31.131-12.252,66.3,3.052,78.552,34.183c2.801,7.116,4.229,14.699,4.208,22.347
				H174.93C174.922,146.801,190.201,124.373,213.44,115.24z"/>
			<path style="fill:#00ACEA;" d="M257.68,101.56v13.63c-14.233-5.524-30.02-5.506-44.24,0.05v-13.68
				c-0.005-9.903,8.019-17.935,17.922-17.94c0.003,0,0.005,0,0.008,0h8.38c9.897-0.006,17.924,8.013,17.93,17.91
				C257.68,101.54,257.68,101.55,257.68,101.56z"/>
		</g>
		<g>
			<path style="fill:#D4E1F4;" d="M250.68,25v62l-0.16,0.21c-3.105-2.334-6.886-3.594-10.77-3.59h-8.38
				c-3.624-0.004-7.164,1.095-10.15,3.15L220.68,86V25c-0.008-8.284,6.701-15.007,14.985-15.015
				c8.284-0.008,15.007,6.701,15.015,14.985C250.68,24.98,250.68,24.99,250.68,25L250.68,25z"/>
			<path style="fill:#D4E1F4;" d="M156.98,424.04c0,1.08-0.05,2.15-0.14,3.21c-1.772,20.756-20.034,36.145-40.79,34.373
				c-18.286-1.561-32.794-16.058-34.37-34.343c-0.09-1.07-0.14-2.15-0.14-3.24c0-20.832,16.888-37.72,37.72-37.72
				S156.98,403.208,156.98,424.04z"/>
		</g>
	</g>
	<g>
		<path style="fill:#083863;" d="M173.49,226.46c-5.523,0-10-4.477-10-10V200.9c0-5.523,4.477-10,10-10s10,4.477,10,10v15.56
			C183.49,221.983,179.013,226.46,173.49,226.46z"/>
		<path style="fill:#083863;" d="M204.58,226.46c-5.523,0-10-4.477-10-10V200.9c0-5.523,4.477-10,10-10s10,4.477,10,10v15.56
			C214.58,221.983,210.103,226.46,204.58,226.46z"/>
		<path style="fill:#083863;" d="M235.68,226.46c-5.523,0-10-4.477-10-10V200.9c0-5.523,4.477-10,10-10c5.523,0,10,4.477,10,10
			v15.56C245.68,221.983,241.203,226.46,235.68,226.46z"/>
		<path style="fill:#083863;" d="M266.78,226.46c-5.523,0-10-4.477-10-10V200.9c0-5.523,4.477-10,10-10s10,4.477,10,10v15.56
			C276.78,221.983,272.303,226.46,266.78,226.46z"/>
		<path style="fill:#083863;" d="M297.87,226.46c-5.523,0-10-4.477-10-10V200.9c0-5.523,4.477-10,10-10s10,4.477,10,10v15.56
			C307.87,221.983,303.393,226.46,297.87,226.46z"/>
		<path style="fill:#083863;" d="M267.68,108.743v-7.183c0.023-6.818-2.469-13.405-7-18.5V25c-0.015-13.801-11.199-24.985-25-25
			c-13.802,0.013-24.987,11.198-25,25v57.807c-4.587,5.161-7.083,11.848-7,18.753v7.237c-24,12.008-38.63,36.081-38.63,63.027
			c-0.06,5.493,4.344,9.994,9.836,10.055c0.015,0,0.029,0,0.044,0H296.2c5.515-0.026,9.979-4.493,10-10.008
			C306.204,145.273,291.335,120.905,267.68,108.743z M223.68,101.56c-0.042-2.563,1.208-4.976,3.325-6.421
			c1.287-0.867,2.814-1.308,4.365-1.26h8.38c1.697-0.04,3.362,0.467,4.749,1.445c2.003,1.445,3.187,3.766,3.181,6.236v0.536
			c-7.94-1.39-16.063-1.381-24,0.026V101.56z M232.164,21.46c0.93-0.937,2.196-1.463,3.516-1.46c2.76,0.003,4.997,2.24,5,5v48.657
			c-0.311-0.01-0.618,0.222-0.93,0.222h-8.38c-0.231,0-0.46-0.239-0.69-0.233V25c-0.002-1.332,0.533-2.609,1.484-3.542V21.46z
			 M185.904,161.879c3.256-16.98,15.05-31.075,31.189-37.276c11.869-4.658,25.055-4.689,36.946-0.086l0.013,0.053
			c16.119,6.247,27.897,20.338,31.186,37.309H185.904z"/>
		<path style="fill:#083863;" d="M417.533,337.866l-32.054-14.6l-28.419-45.31c-8.604-13.806-23.753-22.162-40.02-22.077H194.99
			c-14.733,0.006-28.626,6.858-37.6,18.542l-36.587,48l-61.284,16.758c-16.454,4.534-27.849,19.504-27.839,36.571v23.609
			c-0.032,20.69,16.715,37.489,37.405,37.521c0.115,0,0.23,0,0.345-0.001h4c7.308,25.31,33.75,39.904,59.06,32.596
			c15.743-4.545,28.051-16.853,32.596-32.596h136.528c7.316,25.312,33.767,39.901,59.079,32.585
			c15.735-4.548,28.037-16.85,32.585-32.585h8.652c20.69,0.159,37.59-16.485,37.749-37.175c0.001-0.115,0.001-0.23,0.001-0.345
			V372.41C439.697,357.553,431.041,344.052,417.533,337.866z M146.88,426.414c-1.31,15.252-14.736,26.555-29.988,25.245
			c-13.428-1.153-24.08-11.798-25.243-25.225c-0.068-0.824-0.1-1.629-0.1-2.394c-0.006-15.309,12.4-27.725,27.709-27.731
			c15.309-0.006,27.725,12.4,27.731,27.709c0,0.007,0,0.015,0,0.022C146.98,424.796,146.945,425.591,146.88,426.414z
			 M375.07,426.414c-1.33,14.317-13.312,25.284-27.69,25.346c-14.3,0-26.7-11.133-27.7-25.346v-0.009
			c0-0.814-0.032-1.609-0.032-2.365c0.184-15.326,12.757-27.601,28.083-27.417c15.066,0.181,27.236,12.35,27.417,27.417
			c0.004,0.774-0.012,1.548-0.083,2.379L375.07,426.414z M419.68,399.359c0.044,9.633-7.73,17.478-17.363,17.523
			c-0.129,0.001-0.258,0-0.387-0.003h-7.244c-3.723-26.09-27.891-44.223-53.981-40.5c-21.001,2.997-37.503,19.498-40.5,40.5H166.494
			c-3.717-26.087-27.877-44.221-53.964-40.504c-21.006,2.993-37.512,19.498-40.504,40.504h-2.6
			c-9.632,0.167-17.576-7.505-17.744-17.137c-0.002-0.128-0.003-0.255-0.002-0.383V375.75c-0.027-8.062,5.343-15.146,13.112-17.3
			l64.6-17.671c2.112-0.579,3.974-1.84,5.295-3.587l38.629-50.652c5.174-6.73,13.185-10.671,21.674-10.661h122.05
			c9.381-0.063,18.123,4.744,23.095,12.7l30.04,47.9c1.043,1.656,2.551,2.968,4.336,3.772l34.743,15.829
			c6.378,2.927,10.455,9.313,10.426,16.33V399.359z"/>
	</g>
</g>
<g>
</g>
<g>
</g>
<g>
</g>
<g>
</g>
<g>
</g>
<g>
</g>
<g>
</g>
<g>
</g>
<g>
</g>
<g>
</g>
<g>
</g>
<g>
</g>
<g>
</g>
<g>
</g>
<g>
</g>
</svg>
