<?xml version="1.0" encoding="iso-8859-1"?>
<!-- Generator: Adobe Illustrator 19.0.0, SVG Export Plug-In . SVG Version: 6.00 Build 0)  -->
<svg version="1.1" id="Capa_1" xmlns="http://www.w3.org/2000/svg" xmlns:xlink="http://www.w3.org/1999/xlink" x="0px" y="0px"
	 viewBox="0 0 449.233 449.233" style="enable-background:new 0 0 449.233 449.233;" xml:space="preserve">
<g>
	<g>
		<path style="fill:#00CEB4;" d="M431.676,316.781v57.45c-0.003,15.61-12.66,28.263-28.27,28.26h-14.14l-0.13-0.01
			c0.09-1.09,0.13-2.18,0.13-3.29c-0.003-22.376-18.145-40.512-40.521-40.509c-22.371,0.003-40.506,18.138-40.509,40.509
			c0,1.11,0.04,2.2,0.13,3.29l-0.13,0.01h-58.42V304.5h179.04C430.714,308.327,431.678,312.527,431.676,316.781z"/>
		<g>
			<path style="fill:#D4E1F4;" d="M428.856,304.5h-90.94l-33.92-73.02v-0.47h37.85c7.165,0.002,14.062,2.721,19.3,7.61l61.55,57.5
				C425.253,298.506,427.342,301.348,428.856,304.5z"/>
			<path style="fill:#D4E1F4;" d="M389.266,399.191c0,1.11-0.04,2.2-0.13,3.29c-1.818,22.304-21.374,38.911-43.678,37.092
				c-19.779-1.613-35.48-17.313-37.092-37.092c-0.09-1.09-0.13-2.18-0.13-3.29c0.003-22.376,18.145-40.512,40.521-40.509
				C371.129,358.685,389.263,376.82,389.266,399.191z"/>
			<polygon style="fill:#D4E1F4;" points="303.996,231.481 337.916,304.501 249.816,304.501 249.816,231.011 303.996,231.011 			"/>
		</g>
		<path style="fill:#00ACEA;" d="M266.776,95.081h-0.72c-16.117,0.043-29.217-12.989-29.26-29.106c0-0.051,0-0.103,0-0.154v-26.5
			h64.21v26.5c0.043,16.117-12.989,29.217-29.106,29.26c-0.051,0-0.103,0-0.154,0H266.776z"/>
		<path style="fill:#00EFD1;" d="M249.816,304.5v97.99h-108.35l-0.13-0.01c0.09-1.09,0.13-2.18,0.13-3.29
			c-0.003-22.376-18.145-40.512-40.521-40.509c-22.371,0.003-40.506,18.138-40.509,40.509c0,1.11,0.04,2.2,0.13,3.29l-0.13,0.01
			h-14.61c-15.61,0.003-28.267-12.65-28.27-28.26l0,0v-22.62c0.003-26.021,21.099-47.112,47.12-47.11h46.63
			c1.093,0.004,2.185-0.063,3.27-0.2l0.03,0.2H249.816z"/>
		<g>
			<path style="fill:#D4E1F4;" d="M249.816,231.011V304.5h-135.21l-0.03-0.2c6.642-0.764,12.795-3.865,17.36-8.75l52.03-55.59
				c5.347-5.709,12.818-8.949,20.64-8.95h45.21V231.011z"/>
			<path style="fill:#D4E1F4;" d="M141.466,399.191c0,1.11-0.04,2.2-0.13,3.29c-1.818,22.304-21.374,38.911-43.678,37.092
				c-19.779-1.613-35.48-17.313-37.092-37.092c-0.09-1.09-0.13-2.18-0.13-3.29c0.003-22.376,18.145-40.512,40.521-40.509
				C123.329,358.685,141.463,376.82,141.466,399.191z"/>
		</g>
	</g>
	<path style="fill:#083863;" d="M437.85,300.19c-2.084-4.284-4.949-8.143-8.448-11.377l-6.786-6.256v-109.5
		c0.056-20.962-16.892-38.001-37.855-38.057c-0.068,0-0.137,0-0.205,0h-89.51c-10.155-0.093-18.359-8.314-18.43-18.469v-11.784
		c19.461-2.67,33.972-19.283,34-38.926V49.186c4.961-0.745,8.63-5.009,8.625-10.026c0.104-5.507-4.276-10.056-9.783-10.16
		c-0.007,0-0.015,0-0.022,0h-11.262l0.112-18.811c0.044-5.523-4.398-10.035-9.921-10.079c-5.523-0.044-10.035,4.398-10.079,9.921
		L278.174,29h-18.546l-0.112-19.074c-0.034-5.497-4.503-9.933-10-9.926h-0.06c-5.504,0.014-9.954,4.488-9.94,9.992
		c0,0.017,0,0.035,0,0.052L239.628,29h-11.262c-5.571,0.068-10.06,4.588-10.09,10.16c-0.133,4.962,3.436,9.253,8.34,10.026v16.635
		c0.105,18.077,12.457,33.781,30,38.142v12.568c0.085,21.195,17.235,38.362,38.43,38.469h89.51c9.904-0.07,17.99,7.903,18.06,17.807
		c0.001,0.085,0.001,0.169,0,0.254v90.812L367.864,231.3c-7.042-6.625-16.349-10.309-26.018-10.3h-15.23v-22h14.13
		c5.523,0,10-4.477,10-10s-4.477-10-10-10h-135.68c-5.523,0-10,4.477-10,10s4.477,10,10,10h13.55v22h-14.01
		c-10.586,0.02-20.694,4.406-27.941,12.122l-52.034,55.6c-2.946,3.15-6.915,5.151-11.2,5.646c-0.048,0-0.1,0.262-0.144,0.268
		c-0.651,0.171-1.314,0.294-1.983,0.367H64.676c-31.314-0.199-56.86,25.025-57.059,56.339c-0.001,0.09-0.001,0.179-0.001,0.269
		v22.619c0.038,20.899,17.011,37.81,37.91,37.772c0.1,0,0.2-0.001,0.3-0.002h6.4c7.337,26.911,35.1,42.779,62.011,35.442
		c17.256-4.705,30.737-18.186,35.442-35.442h150.347c7.339,26.912,35.105,42.779,62.017,35.44
		c17.255-4.706,30.734-18.185,35.44-35.44h5.923c20.898,0.204,38.004-16.572,38.208-37.47c0.001-0.1,0.002-0.2,0.002-0.3v-57.449
		C441.623,311.038,440.336,305.367,437.85,300.19z M246.616,65.821V49h44v16.821c0.163,10.428-8.159,19.014-18.587,19.177
		c-0.094,0.001-0.189,0.002-0.283,0.002h-5.69C255.405,85.04,246.72,76.472,246.616,65.821z M354.316,246.172l52,48.828h-62.019
		l-24.848-54h22.4C346.509,241.091,350.962,242.938,354.316,246.172z M297.397,241l24.847,54h-62.628v-54H297.397z M238.616,199h68
		v22h-68V199z M191.263,247.042c3.435-3.753,8.256-5.937,13.343-6.042h35.01v54h-93L191.263,247.042z M131.368,401.677
		c-1.37,16.799-16.099,29.306-32.898,27.936c-14.896-1.215-26.721-13.04-27.936-27.936v-0.018c-0.064-0.784-0.1-1.592-0.1-2.468
		c0.008-16.853,13.676-30.509,30.529-30.501c16.842,0.008,30.493,13.659,30.501,30.501
		C131.466,400.067,131.435,400.874,131.368,401.677z M100.946,348.19c-25.579,0-46.763,19.81-50.052,43.81h-5.068
		c-10.074,0-18.21-7.7-18.21-17.77v-22.619c0.038-20.259,16.492-36.651,36.751-36.613c0.103,0,0.206,0.001,0.309,0.002h46.63
		c1.115-0.16,2.22-0.381,3.31-0.662V315h125v77h-88.608C147.716,368,126.53,348.19,100.946,348.19z M379.168,401.682
		c-1.377,16.799-16.111,29.301-32.91,27.924c-14.887-1.22-26.704-13.037-27.924-27.924v-0.02c-0.065-0.781-0.1-1.588-0.1-2.466
		c0-16.853,13.662-30.515,30.515-30.515c16.853,0,30.515,13.662,30.515,30.515C379.266,400.069,379.235,400.876,379.168,401.682z
		 M421.616,374.23c0,10.07-8.136,17.77-18.21,17.77h-4.6c-3.289-24-24.473-43.81-50.052-43.81S301.984,368,298.694,392h-39.078v-77
		h161.91c0.104,0.588,0.135,1.186,0.09,1.781V374.23z"/>
</g>
<g>
</g>
<g>
</g>
<g>
</g>
<g>
</g>
<g>
</g>
<g>
</g>
<g>
</g>
<g>
</g>
<g>
</g>
<g>
</g>
<g>
</g>
<g>
</g>
<g>
</g>
<g>
</g>
<g>
</g>
</svg>
