<?xml version="1.0" encoding="iso-8859-1"?>
<!-- Generator: Adobe Illustrator 19.0.0, SVG Export Plug-In . SVG Version: 6.00 Build 0)  -->
<svg version="1.1" id="Capa_1" xmlns="http://www.w3.org/2000/svg" xmlns:xlink="http://www.w3.org/1999/xlink" x="0px" y="0px"
	 viewBox="0 0 485.483 485.483" style="enable-background:new 0 0 485.483 485.483;" xml:space="preserve">
<g>
	<g>
		<path style="fill:#00ACEA;" d="M463.063,226.942c8.964,2.494,14.249,11.74,11.85,20.73l-25.44,92.11
			c-1.576,5.292-5.09,9.795-9.84,12.61l-96.46,56.49l-12.88,52.86l-73.2-28.86l31.25-99.7c1.638-4.107,4.379-7.682,7.92-10.33
			l64.31-49.19c7.033-5.518,17.145-4.616,23.09,2.06c5.894,6.686,5.645,16.782-0.57,23.17l-34.15,34.73l24.94,11.45l46.27-34.5
			c0,0,13.55-46.23,21-72c2.713-9.153,12.289-14.416,21.47-11.8L463.063,226.942z"/>
		<path style="fill:#D4E1F4;" d="M388.303,171.192v40.16c0,11.377-9.223,20.6-20.6,20.6l0,0h-17.16c-11.377,0-20.6-9.223-20.6-20.6
			c0,0,0,0,0,0v-19.57h37.76c11.374,0.003,20.597-9.214,20.6-20.588C388.303,171.193,388.303,171.193,388.303,171.192z"/>
		<path style="fill:#00EFD1;" d="M388.303,166.042v5.15c-0.002,11.374-9.224,20.592-20.598,20.59c-0.001,0-0.001,0-0.002,0h-249.92
			c-11.374,0.003-20.597-9.214-20.6-20.588c0-0.001,0-0.001,0-0.002v-51.27c0.002-9.072,3.987-17.686,10.9-23.56l11.76-9.97h249.92
			v0.34l8.86,8.37c6.18,5.835,9.682,13.96,9.68,22.46L388.303,166.042z M358.093,159.172v-33.64h-49.09v33.64H358.093z
			 M176.483,159.172v-33.64h-49.09v33.64H176.483z"/>
		<g>
			<path style="fill:#D4E1F4;" d="M347.783,32.782l23.01,53.61h-30.55c0.009-21.045-17.044-38.112-38.089-38.121
				c-21.045-0.009-38.112,17.044-38.121,38.089c0,0.011,0,0.022,0,0.033h-145.22l23.01-53.61c3.325-7.739,10.937-12.756,19.36-12.76
				h167.24C336.846,20.026,344.458,25.043,347.783,32.782z"/>
			<rect x="309.003" y="125.532" style="fill:#D4E1F4;" width="49.09" height="33.64"/>
			<path style="fill:#D4E1F4;" d="M340.243,86.392h-76.21c-0.009-21.045,17.044-38.112,38.089-38.121
				c21.045-0.009,38.112,17.044,38.121,38.089C340.243,86.37,340.243,86.381,340.243,86.392z"/>
		</g>
		<path style="fill:#00ACEA;" d="M197.143,333.182l31.25,99.7l-73.2,28.86l-12.88-52.86l-96.46-56.49
			c-4.75-2.815-8.264-7.318-9.84-12.61l-25.44-92.11c-2.399-8.99,2.886-18.236,11.85-20.73l0.44-0.17
			c9.181-2.616,18.757,2.647,21.47,11.8c7.45,25.77,21,72,21,72l46.27,34.5l24.94-11.45l-34.15-34.73
			c-3.113-3.128-4.851-7.367-4.83-11.78c0.003-4.186,1.516-8.23,4.26-11.39c5.942-6.683,16.059-7.586,23.09-2.06l64.31,49.19
			C192.764,325.5,195.505,329.075,197.143,333.182z"/>
		<g>
			<rect x="127.393" y="125.532" style="fill:#D4E1F4;" width="49.09" height="33.64"/>
			<path style="fill:#D4E1F4;" d="M155.543,192.132v19.22c0,11.377-9.223,20.6-20.6,20.6c0,0,0,0,0,0h-17.16
				c-11.377,0-20.6-9.223-20.6-20.6l0,0v-40.16c0.002,11.374,9.224,20.592,20.598,20.59c0.001,0,0.001,0,0.002,0h37.76V192.132z"/>
		</g>
	</g>
	<g>
		<path style="fill:#083863;" d="M337.294,475.251l-92.528-36.479l34.289-109.3c2.323-5.808,6.197-10.865,11.2-14.619l64.181-49.092
			c11.729-9.159,28.662-7.075,37.821,4.655c8.339,10.68,7.45,25.892-2.077,35.527l-24.121,24.53l6.6,3.031l38.834-28.955
			c3.2-10.929,13.822-47.215,20.051-68.759c1.992-6.975,6.713-12.851,13.094-16.3c6.328-3.493,13.783-4.335,20.73-2.341l0.923,0.313
			c13.894,4.201,21.981,18.635,18.307,32.678l-0.049,0.186l-25.506,92.359c-2.303,7.696-7.424,14.24-14.34,18.326l-92.818,54.358
			L337.294,475.251z M269.419,426.992l53.873,21.24l11.169-45.837l100.118-58.632c2.546-1.524,4.433-3.941,5.293-6.781
			l25.371-91.861c1.024-3.691-1.138-7.514-4.829-8.538c-0.036-0.01-0.072-0.02-0.109-0.029l-0.774-0.257
			c-1.793-0.415-3.677-0.15-5.286,0.744c-1.688,0.9-2.942,2.443-3.477,4.279c-7.379,25.522-20.883,71.6-21.018,72.064l-0.941,3.207
			l-53.706,40.041l-43.277-19.869l44.136-44.886c2.559-2.665,2.627-6.853,0.157-9.6c-2.437-2.645-6.492-2.986-9.337-0.785
			l-0.134,0.1l-64.462,49.3c-1.946,1.474-3.473,3.431-4.43,5.677L269.419,426.992z"/>
		<path style="fill:#083863;" d="M148.192,475.251l-14.591-59.882l-92.8-54.347c-6.924-4.086-12.052-10.635-14.358-18.337
			l-0.069-0.241l-25.489-92.3c-3.674-14.043,4.413-28.477,18.307-32.678l0.923-0.313c6.947-1.996,14.403-1.154,20.73,2.341
			c6.388,3.455,11.111,9.342,13.1,16.326c6.221,21.517,16.84,57.8,20.042,68.729l38.834,28.955l6.6-3.031l-24.158-24.57
			c-4.964-4.99-7.735-11.752-7.7-18.791c-0.001-6.599,2.385-12.976,6.716-17.954c9.388-10.755,25.564-12.251,36.765-3.4l64.186,49.1
			c5.003,3.754,8.878,8.811,11.2,14.619l0.254,0.715l34.036,108.58L148.192,475.251z M45.614,336.982
			c0.863,2.846,2.757,5.267,5.31,6.791l100.1,58.622l11.17,45.837l53.873-21.24l-28.337-90.406c-0.957-2.246-2.484-4.203-4.43-5.677
			l-0.152-0.114l-64.436-49.288c-2.839-2.235-6.924-1.892-9.35,0.785c-1.161,1.337-1.801,3.049-1.8,4.82
			c-0.013,1.764,0.675,3.462,1.912,4.72l44.185,44.935l-43.276,19.865l-53.706-40.041l-0.941-3.207
			c-0.135-0.462-13.639-46.542-21.01-72.035c-0.532-1.848-1.789-3.402-3.485-4.308c-1.609-0.894-3.493-1.159-5.286-0.744
			l-0.774,0.257c-3.707,0.964-5.931,4.751-4.967,8.458c0.009,0.036,0.019,0.073,0.029,0.109L45.614,336.982z"/>
		<path style="fill:#083863;" d="M176.483,169.172h-49.09c-5.523,0-10-4.477-10-10v-33.64c0-5.523,4.477-10,10-10h49.09
			c5.523,0,10,4.477,10,10v33.64C186.483,164.695,182.006,169.172,176.483,169.172z M137.393,149.172h29.09v-13.64h-29.09
			L137.393,149.172z"/>
		<path style="fill:#083863;" d="M358.093,169.172h-49.09c-5.523,0-10-4.477-10-10v-33.64c0-5.523,4.477-10,10-10h49.09
			c5.523,0,10,4.477,10,10v33.64C368.093,164.695,363.616,169.172,358.093,169.172z M319.003,149.172h29.09v-13.64h-29.09V149.172z"
			/>
		<path style="fill:#083863;" d="M385.71,87.832l-5.52-5.111c-0.035-0.091-0.115-0.184-0.153-0.274l-23.041-53.515
			c-4.923-11.39-16.164-18.747-28.573-18.7h-167.24c-12.405-0.046-23.64,7.317-28.549,18.71L109.963,81.71l-8.575,7.057
			c-9.216,7.734-14.57,19.124-14.645,31.155v91.43c0,16.873,14.167,30.88,31.04,30.88h17.16c16.985-0.135,30.709-13.894,30.8-30.88
			v-9.12h154v9.12c0.091,16.986,13.815,30.745,30.8,30.88h17.16c16.873,0,31.04-14.007,31.04-30.88v-93.79
			C398.645,106.287,393.935,95.544,385.71,87.832z M151.01,36.758c1.766-4.027,5.777-6.6,10.173-6.526h167.24
			c4.395-0.076,8.405,2.494,10.171,6.519l17.025,39.481h-6.429c-5.514-25.986-31.05-42.583-57.036-37.069
			c-18.596,3.946-33.123,18.473-37.069,37.069h-121.1L151.01,36.758z M328.398,76.232h-52.521c4.039-10,14.282-18.11,26.256-18.11
			S324.358,66.232,328.398,76.232z M106.743,119.922c0.077-6.187,2.847-12.033,7.586-16.012l9.183-7.678h241.914l6.555,6.064
			c4.233,3.96,6.673,9.47,6.762,15.266v53.63c-0.179,6.021-5.019,10.861-11.04,11.04h-249.92c-6.021-0.179-10.861-5.019-11.04-11.04
			V119.922z M145.743,211.352c-0.078,5.945-4.855,10.758-10.8,10.88h-17.16c-5.992-0.103-10.85-4.89-11.04-10.88v-11.465
			c4,1.224,7.315,2.345,11.04,2.345h27.96V211.352z M367.703,222.232h-17.16c-5.944-0.122-10.722-4.935-10.8-10.88v-9.12h27.96
			c3.725,0,7.04-1.121,11.04-2.345v11.465C378.553,217.342,373.695,222.129,367.703,222.232z"/>
		<path style="fill:#083863;" d="M274.153,167.572h-62.82c-5.523,0-10-4.477-10-10s4.477-10,10-10h62.82c5.523,0,10,4.477,10,10
			S279.676,167.572,274.153,167.572z"/>
		<path style="fill:#083863;" d="M274.153,142.392h-62.82c-5.523,0-10-4.477-10-10c0-5.523,4.477-10,10-10h62.82
			c5.523,0,10,4.477,10,10C284.153,137.915,279.676,142.392,274.153,142.392z"/>
	</g>
</g>
<g>
</g>
<g>
</g>
<g>
</g>
<g>
</g>
<g>
</g>
<g>
</g>
<g>
</g>
<g>
</g>
<g>
</g>
<g>
</g>
<g>
</g>
<g>
</g>
<g>
</g>
<g>
</g>
<g>
</g>
</svg>
