<?xml version="1.0" encoding="iso-8859-1"?>
<!-- Generator: Adobe Illustrator 19.0.0, SVG Export Plug-In . SVG Version: 6.00 Build 0)  -->
<svg version="1.1" id="Capa_1" xmlns="http://www.w3.org/2000/svg" xmlns:xlink="http://www.w3.org/1999/xlink" x="0px" y="0px"
	 viewBox="0 0 485.484 485.484" style="enable-background:new 0 0 485.484 485.484;" xml:space="preserve">
<g>
	<g>
		<path style="fill:#00ACEA;" d="M463.063,219.823c8.964,2.494,14.249,11.74,11.85,20.73l-25.44,92.11
			c-1.576,5.292-5.09,9.795-9.84,12.61l-96.46,56.49l-12.88,52.85l-73.2-28.85l31.25-99.71c1.641-4.103,4.381-7.674,7.92-10.32
			l64.31-49.19c7.033-5.518,17.145-4.616,23.09,2.06c5.894,6.686,5.645,16.782-0.57,23.17l-34.15,34.73l24.94,11.45l46.27-34.5
			c0,0,13.55-46.23,21-72c2.709-9.156,12.288-14.42,21.47-11.8L463.063,219.823z"/>
		<path style="fill:#00CEB4;" d="M337.233,118.323l-28.29-60.9v-0.4h31.57c5.974,0.002,11.725,2.272,16.09,6.35l51.34,47.96
			c4.77,4.457,7.479,10.692,7.48,17.22v47.92c-0.005,13.015-10.555,23.565-23.57,23.57h-11.79l-0.11-0.01
			c0.07-0.9,0.11-1.82,0.11-2.74c0-18.662-15.128-33.79-33.79-33.79s-33.79,15.128-33.79,33.79c0,0.92,0.04,1.84,0.11,2.74
			l-0.11,0.01h-48.72v-81.72H337.233z"/>
		<g>
			<path style="fill:#D4E1F4;" d="M380.063,197.293c0,0.92-0.04,1.84-0.11,2.74c-1.511,18.601-17.816,32.455-36.417,30.943
				c-16.502-1.341-29.602-14.441-30.943-30.943c-0.07-0.9-0.11-1.82-0.11-2.74c0-18.662,15.128-33.79,33.79-33.79
				S380.063,178.631,380.063,197.293L380.063,197.293z"/>
			<polygon style="fill:#D4E1F4;" points="308.943,57.423 337.233,118.323 263.763,118.323 263.763,57.023 308.943,57.023 			"/>
		</g>
		<path style="fill:#00EFD1;" d="M263.763,118.323v81.72h-90.37l-0.11-0.01c0.07-0.9,0.11-1.82,0.11-2.74
			c0-18.662-15.128-33.79-33.79-33.79s-33.79,15.128-33.79,33.79c0,0.92,0.04,1.84,0.11,2.74l-0.11,0.01h-12.18
			c-13.015-0.005-23.565-10.555-23.57-23.57v-18.86c-0.001-21.699,17.589-39.289,39.288-39.29c0.001,0,0.001,0,0.002,0h38.89
			c0.916,0.003,1.831-0.053,2.74-0.17l0.02,0.17L263.763,118.323z"/>
		<path style="fill:#D4E1F4;" d="M263.763,57.023v61.3h-112.76l-0.02-0.17c5.535-0.646,10.661-3.232,14.47-7.3l43.39-46.36
			c4.458-4.762,10.687-7.466,17.21-7.47C226.053,57.023,263.763,57.023,263.763,57.023z"/>
		<path style="fill:#00ACEA;" d="M197.143,326.053l31.25,99.71l-73.2,28.85l-12.88-52.85l-96.46-56.49
			c-4.75-2.815-8.264-7.318-9.84-12.61l-25.44-92.11c-2.399-8.99,2.886-18.236,11.85-20.73l0.44-0.17
			c9.182-2.62,18.761,2.644,21.47,11.8c7.45,25.77,21,72,21,72l46.27,34.5l24.94-11.45l-34.15-34.73
			c-3.113-3.128-4.851-7.367-4.83-11.78c0.001-4.186,1.514-8.231,4.26-11.39c5.942-6.683,16.059-7.586,23.09-2.06l64.31,49.19
			C192.762,318.379,195.502,321.95,197.143,326.053z"/>
		<path style="fill:#D4E1F4;" d="M173.393,197.293c0,0.92-0.04,1.84-0.11,2.74c-1.511,18.601-17.816,32.455-36.417,30.943
			c-16.502-1.341-29.602-14.441-30.943-30.943c-0.07-0.9-0.11-1.82-0.11-2.74c0-18.662,15.128-33.79,33.79-33.79
			S173.393,178.631,173.393,197.293z"/>
	</g>
	<g>
		<path style="fill:#083863;" d="M337.294,468.121l-92.528-36.467l34.292-109.315c2.327-5.8,6.201-10.85,11.2-14.6l64.181-49.092
			c11.729-9.158,28.662-7.075,37.821,4.655c8.339,10.68,7.45,25.892-2.077,35.527l-24.123,24.534l6.6,3.031l38.834-28.955
			c3.2-10.929,13.822-47.215,20.051-68.759c1.98-6.923,6.648-12.766,12.962-16.227c6.356-3.56,13.873-4.427,20.873-2.407l0.913,0.31
			c13.894,4.201,21.98,18.636,18.306,32.678l-0.049,0.186l-25.507,92.343c-2.303,7.696-7.424,14.24-14.34,18.326l-92.818,54.358
			L337.294,468.121z M269.419,419.872l53.873,21.233l11.169-45.829l100.118-58.632c2.546-1.524,4.433-3.941,5.293-6.781
			l25.371-91.861c1.024-3.691-1.138-7.514-4.829-8.538c-0.036-0.01-0.072-0.02-0.109-0.029l-0.78-0.259
			c-1.804-0.42-3.7-0.149-5.314,0.761c-1.671,0.905-2.911,2.44-3.443,4.264c-7.379,25.522-20.883,71.6-21.018,72.064l-0.941,3.207
			l-53.706,40.045l-43.277-19.869l44.136-44.885c2.558-2.66,2.629-6.844,0.162-9.589c-2.436-2.65-6.495-2.994-9.342-0.791
			l-0.134,0.1l-64.462,49.3c-1.944,1.474-3.472,3.429-4.432,5.672L269.419,419.872z"/>
		<path style="fill:#083863;" d="M148.192,468.121l-14.591-59.871l-92.8-54.348c-6.925-4.086-12.053-10.636-14.358-18.339
			l-0.069-0.241l-25.489-92.3c-3.674-14.042,4.412-28.477,18.306-32.678l0.913-0.31c7-2.02,14.517-1.153,20.873,2.407
			c6.323,3.468,10.994,9.322,12.971,16.257c6.221,21.517,16.84,57.8,20.042,68.729l38.834,28.955l6.6-3.031l-24.161-24.567
			c-4.964-4.99-7.735-11.752-7.7-18.791c-0.001-6.599,2.385-12.976,6.716-17.954c9.39-10.754,25.568-12.247,36.768-3.394
			l64.183,49.093c4.999,3.75,8.873,8.8,11.2,14.6l0.257,0.723l34.035,108.592L148.192,468.121z M45.614,329.863
			c0.863,2.846,2.756,5.267,5.31,6.791l100.1,58.622l11.169,45.829l53.873-21.233l-28.334-90.409
			c-0.96-2.243-2.488-4.198-4.432-5.672l-0.152-0.114l-64.436-49.288c-2.839-2.236-6.924-1.893-9.35,0.785
			c-1.161,1.337-1.801,3.049-1.8,4.82c-0.013,1.764,0.675,3.462,1.912,4.72l44.185,44.935l-43.276,19.868l-53.706-40.045
			l-0.941-3.207c-0.135-0.462-13.639-46.542-21.01-72.035c-0.529-1.835-1.772-3.382-3.451-4.293
			c-1.614-0.909-3.51-1.181-5.314-0.761l-0.78,0.259c-3.707,0.964-5.931,4.751-4.967,8.458c0.009,0.036,0.019,0.073,0.029,0.109
			L45.614,329.863z"/>
		<path style="fill:#083863;" d="M414.93,104.026l-51.422-47.793c-6.261-5.771-14.485-8.943-23-8.87h-10.765v-10h9.85
			c5.523,0,10-4.477,10-10s-4.477-10-10-10h-113.16c-5.523,0-10,4.477-10,10s4.477,10,10,10h10.31v10h-10.69
			c-9.265-0.045-18.135,3.743-24.51,10.466l-43.389,46.274c-2.196,2.329-5.146,3.803-8.327,4.159
			c-0.051,0.006-0.1,0.011-0.152,0.018c-0.475,0.059-0.953,0.087-1.432,0.083h-38.89c-27.178,0-49.61,22.071-49.61,49.25v18.86
			c0.146,18.656,15.234,33.744,33.89,33.89h4.093c7.029,23.127,31.476,36.177,54.603,29.148
			c13.97-4.246,24.902-15.178,29.148-29.148h122.919c7.029,23.127,31.476,36.177,54.603,29.148
			c13.97-4.246,24.902-15.178,29.148-29.148h3.706c18.656-0.146,33.744-15.234,33.89-33.89v-47.92
			C425.666,119.238,421.755,110.366,414.93,104.026z M349.777,70.87l40.295,37.493h-46.458l-19.184-41h16.083
			C343.935,67.306,347.25,68.561,349.777,70.87z M302.377,67.363l19.184,41h-47.818v-41H302.377z M256.743,37.363h53v10h-53V37.363z
			 M216.143,71.52c2.586-2.697,6.174-4.202,9.91-4.157h27.69v41h-72.226L216.143,71.52z M79.743,176.473v-18.86
			c0-16.15,13.46-29.25,29.61-29.25h38.89c0.595,0,1.167-0.022,1.734-0.052c0.341,0.035,0.683,0.052,1.026,0.052h102.74v62h-70.961
			c-4.001-23.847-26.576-39.935-50.423-35.934c-18.415,3.09-32.844,17.519-35.934,35.934h-2.792
			C86.017,190.23,79.875,184.089,79.743,176.473z M139.603,221.083c-12.359-0.047-22.642-9.513-23.711-21.826
			c-0.052-0.685-0.079-1.346-0.079-1.964c-0.003-13.139,10.646-23.792,23.785-23.795s23.792,10.646,23.795,23.785
			c0,0.004,0,0.007,0,0.011c0,0.622-0.027,1.282-0.078,1.943C162.258,211.558,151.971,221.037,139.603,221.083z M346.273,221.083
			c-12.359-0.047-22.642-9.513-23.711-21.826c-0.052-0.685-0.079-1.346-0.079-1.964c0-13.139,10.651-23.79,23.79-23.79
			s23.79,10.651,23.79,23.79c0,0.622-0.027,1.282-0.078,1.943C368.928,211.558,358.641,221.037,346.273,221.083z M405.743,176.473
			c-0.132,7.616-6.274,13.758-13.89,13.89h-2.4c-4.001-23.847-26.576-39.935-50.423-35.934
			c-18.415,3.09-32.844,17.519-35.934,35.934h-29.353v-62h131.668c0,0,0.332,0.113,0.332,0.19V176.473z"/>
	</g>
</g>
<g>
</g>
<g>
</g>
<g>
</g>
<g>
</g>
<g>
</g>
<g>
</g>
<g>
</g>
<g>
</g>
<g>
</g>
<g>
</g>
<g>
</g>
<g>
</g>
<g>
</g>
<g>
</g>
<g>
</g>
</svg>
