<?xml version="1.0" encoding="iso-8859-1"?>
<!-- Generator: Adobe Illustrator 19.0.0, SVG Export Plug-In . SVG Version: 6.00 Build 0)  -->
<svg version="1.1" id="Capa_1" xmlns="http://www.w3.org/2000/svg" xmlns:xlink="http://www.w3.org/1999/xlink" x="0px" y="0px"
	 viewBox="0 0 485.484 485.484" style="enable-background:new 0 0 485.484 485.484;" xml:space="preserve">
<g>
	<g>
		<path style="fill:#00ACEA;" d="M463.063,214.034c8.964,2.494,14.249,11.74,11.85,20.73l-25.44,92.11
			c-1.576,5.292-5.09,9.795-9.84,12.61l-96.46,56.49l-12.88,52.85l-73.2-28.85l31.25-99.71c1.641-4.103,4.381-7.674,7.92-10.32
			l64.31-49.19c7.033-5.518,17.145-4.616,23.09,2.06c5.894,6.686,5.645,16.782-0.57,23.17l-34.15,34.73l24.94,11.45l46.27-34.5
			c0,0,13.55-46.23,21-72c2.709-9.156,12.288-14.42,21.47-11.8L463.063,214.034z"/>
		<path style="fill:#00EFD1;" d="M422.373,131.484v24.93c-0.002,14.273-11.573,25.842-25.846,25.84c-0.001,0-0.003,0-0.004,0h-13.35
			l-2.26-0.2c0.07-0.93,0.11-1.86,0.11-2.81c0.326-19.272-15.032-35.159-34.304-35.486c-19.272-0.326-35.159,15.032-35.486,34.304
			c-0.007,0.394-0.007,0.787,0,1.181c0,1,0.04,1.99,0.13,2.96l-0.56,0.05h-140.43l-0.56-0.05c0.09-0.97,0.13-1.96,0.13-2.96
			c0-19.269-15.621-34.89-34.89-34.89s-34.89,15.621-34.89,34.89l0,0c0,1.01,0.04,2.02,0.13,3.01h-11.33
			c-14.273,0.004-25.846-11.563-25.85-25.836c0-0.001,0-0.003,0-0.004v-21.84c-0.002-11.65,7.792-21.86,19.03-24.93l59.8-16.34
			l35.75-46.94c6.515-8.559,16.653-13.585,27.41-13.59h112.9c11.871,0.002,22.906,6.111,29.21,16.17l27.78,44.36l32.23,14.65
			C416.452,112.145,422.377,121.347,422.373,131.484z"/>
		<path style="fill:#D4E1F4;" d="M381.023,179.244c0,0.95-0.04,1.88-0.11,2.81c-1.555,19.209-18.387,33.521-37.597,31.966
			c-16.993-1.376-30.505-14.829-31.953-31.816c-0.09-0.97-0.13-1.96-0.13-2.96c-0.326-19.272,15.032-35.159,34.304-35.486
			c19.272-0.326,35.159,15.032,35.486,34.304C381.029,178.456,381.029,178.85,381.023,179.244L381.023,179.244z"/>
		<path style="fill:#00ACEA;" d="M197.143,320.264l31.25,99.71l-73.2,28.85l-12.88-52.85l-96.46-56.49
			c-4.75-2.815-8.264-7.318-9.84-12.61l-25.44-92.11c-2.399-8.99,2.886-18.236,11.85-20.73l0.44-0.17
			c9.182-2.62,18.761,2.644,21.47,11.8c7.45,25.77,21,72,21,72l46.27,34.5l24.94-11.45l-34.15-34.73
			c-3.113-3.128-4.851-7.367-4.83-11.78c0.001-4.186,1.514-8.231,4.26-11.39c5.942-6.683,16.059-7.586,23.09-2.06l64.31,49.19
			C192.761,312.59,195.502,316.161,197.143,320.264z"/>
		<path style="fill:#D4E1F4;" d="M100.293,182.254c-0.09-0.99-0.13-2-0.13-3.01c0-19.269,15.621-34.89,34.89-34.89
			s34.89,15.621,34.89,34.89c0,1-0.04,1.99-0.13,2.96c-1.635,19.199-18.524,33.437-37.723,31.801
			C115.178,212.565,101.757,199.163,100.293,182.254L100.293,182.254z"/>
	</g>
	<g>
		<path style="fill:#083863;" d="M337.294,462.332l-92.528-36.468l34.292-109.31c2.327-5.8,6.201-10.85,11.2-14.6l64.18-49.091
			c11.731-9.156,28.664-7.069,37.82,4.662c8.335,10.679,7.446,25.885-2.077,35.52l-24.12,24.53l6.6,3.031l38.834-28.955
			c3.2-10.929,13.822-47.215,20.051-68.759c1.98-6.923,6.647-12.766,12.962-16.227c6.356-3.56,13.873-4.427,20.873-2.407l0.913,0.31
			c13.893,4.201,21.979,18.635,18.306,32.677l-0.049,0.187l-25.508,92.346c-2.303,7.696-7.424,14.24-14.34,18.325l-92.818,54.358
			L337.294,462.332z M269.419,414.083l53.873,21.233l11.169-45.829l100.118-58.633c2.546-1.524,4.433-3.941,5.294-6.781
			l25.37-91.862c1.023-3.692-1.14-7.513-4.832-8.536c-0.036-0.01-0.071-0.019-0.107-0.029l-0.78-0.259
			c-1.804-0.42-3.7-0.149-5.314,0.761c-1.671,0.904-2.911,2.44-3.443,4.264c-7.379,25.522-20.883,71.6-21.018,72.064l-0.941,3.207
			l-53.705,40.045l-43.277-19.869l44.136-44.886c2.558-2.66,2.629-6.844,0.162-9.589c-2.436-2.65-6.495-2.994-9.342-0.792
			l-0.134,0.105l-64.461,49.3c-1.945,1.474-3.473,3.429-4.433,5.673L269.419,414.083z"/>
		<path style="fill:#083863;" d="M148.192,462.332l-14.591-59.871l-92.8-54.348c-6.924-4.085-12.052-10.633-14.358-18.335
			l-0.069-0.242l-25.489-92.3c-3.673-14.042,4.413-28.476,18.306-32.677l0.913-0.31c7-2.02,14.517-1.153,20.873,2.407
			c6.323,3.467,10.994,9.322,12.971,16.257c6.221,21.517,16.84,57.8,20.042,68.729l38.834,28.955l6.6-3.031l-24.161-24.571
			c-4.964-4.99-7.735-11.752-7.7-18.791c-0.001-6.599,2.385-12.976,6.716-17.954c9.389-10.753,25.564-12.247,36.764-3.396
			l64.182,49.092c4.999,3.75,8.873,8.8,11.2,14.6l0.257,0.723l34.038,108.595L148.192,462.332z M45.613,324.074
			c0.864,2.846,2.757,5.267,5.311,6.791l100.1,58.622l11.169,45.829l53.873-21.233l-28.335-90.41
			c-0.96-2.244-2.488-4.199-4.433-5.673l-0.151-0.113l-64.436-49.288c-2.839-2.236-6.923-1.894-9.35,0.784
			c-1.161,1.338-1.8,3.05-1.8,4.821c-0.013,1.764,0.675,3.462,1.912,4.72l44.185,44.935l-43.275,19.869l-53.706-40.045l-0.941-3.207
			c-0.135-0.462-13.639-46.542-21.01-72.035c-0.529-1.836-1.772-3.382-3.451-4.293c-1.614-0.909-3.51-1.181-5.314-0.761l-0.78,0.259
			c-3.707,0.964-5.932,4.751-4.968,8.458c0.009,0.036,0.019,0.071,0.029,0.107L45.613,324.074z"/>
		<path style="fill:#083863;" d="M411.543,98.854l-29.583-13.4l-26.229-41.633c-8.141-12.965-22.419-20.786-37.728-20.667h-112.9
			c-13.841-0.029-26.909,6.38-35.36,17.341l-33.7,44.15l-56.716,15.4c-15.606,4.24-26.475,18.358-26.584,34.529v21.84
			c0,19.762,16.452,35.74,36.22,35.74h3.149c7.172,23.719,32.214,37.132,55.933,29.96c14.37-4.345,25.615-15.59,29.96-29.96h125.179
			c7.173,23.718,32.216,37.131,55.934,29.958c14.369-4.346,25.612-15.589,29.958-29.958h7.447c19.768,0,36.22-15.978,36.22-35.74
			v-24.93C432.649,117.402,424.371,104.661,411.543,98.854z M159.843,181.372c-1.175,13.695-13.229,23.845-26.924,22.67
			c-12.053-1.034-21.617-10.585-22.667-22.637v-0.051c-0.059-0.65-0.089-1.359-0.089-2.106
			c-0.008-13.746,11.129-24.896,24.876-24.904c13.746-0.008,24.896,11.129,24.904,24.876c0,0.01,0,0.019,0,0.029
			c0,0.723-0.029,1.406-0.095,2.12L159.843,181.372z M370.943,181.264c-1.118,13.704-13.134,23.906-26.837,22.788
			c-12.11-0.988-21.738-10.574-22.779-22.68c0-0.029,0-0.058-0.008-0.087c-0.057-0.625-0.087-1.31-0.087-2.037
			c-0.275-13.749,10.647-25.118,24.396-25.394c13.749-0.275,25.118,10.647,25.394,24.396c0.007,0.332,0.007,0.665,0,0.998
			c0.001,0.653-0.026,1.323-0.079,2.012V181.264z M412.743,156.414c0,8.734-7.48,15.74-16.22,15.74h-6.047
			c-3.368-21-21.973-37.91-44.353-37.91s-40.98,16.91-44.343,37.91H179.396c-3.367-21-21.967-37.91-44.343-37.91
			s-40.976,16.91-44.343,37.91h-1.747c-8.74,0-16.22-7.006-16.22-15.74v-21.84c0.091-7.17,4.929-13.41,11.851-15.283l59.892-16.337
			c2.133-0.577,4.017-1.837,5.366-3.587l35.773-46.75c4.667-6.013,11.867-9.51,19.478-9.463h112.9
			c8.404-0.098,16.255,4.177,20.734,11.288l27.78,44.264c1.044,1.65,2.554,2.955,4.338,3.749l32.42,14.628
			c5.691,2.547,9.385,8.167,9.468,14.401V156.414z"/>
	</g>
</g>
<g>
</g>
<g>
</g>
<g>
</g>
<g>
</g>
<g>
</g>
<g>
</g>
<g>
</g>
<g>
</g>
<g>
</g>
<g>
</g>
<g>
</g>
<g>
</g>
<g>
</g>
<g>
</g>
<g>
</g>
</svg>
