<?xml version="1.0" encoding="iso-8859-1"?>
<!-- Generator: Adobe Illustrator 19.0.0, SVG Export Plug-In . SVG Version: 6.00 Build 0)  -->
<svg version="1.1" id="Capa_1" xmlns="http://www.w3.org/2000/svg" xmlns:xlink="http://www.w3.org/1999/xlink" x="0px" y="0px"
	 viewBox="0 0 468.152 468.152" style="enable-background:new 0 0 468.152 468.152;" xml:space="preserve">
<g>
	<g>
		<path style="fill:#00ACEA;" d="M430.117,249.73c9.497,9.156,9.849,24.251,0.79,33.84l-93.86,97.69
			c-5.535,5.538-12.956,8.784-20.78,9.09l-158.39,5.37l-51.72,57.22l-71.81-85.36l106.24-103.25c4.81-4.018,10.639-6.624,16.84-7.53
			l113.37-17.95c12.503-2.196,24.539,5.772,27.4,18.14c2.72,12.13-4.12,24.84-16.34,28.5l-66.02,20.28l23.39,31.09l80.96-11.8
			c0,0,48.08-48.5,74.76-75.61c9.558-9.586,25.051-9.693,34.74-0.24L430.117,249.73z"/>
		<path style="fill:#D4E1F4;" d="M404.367,161.18v40.17c0,11.373-9.217,20.594-20.59,20.6h-17.17c-11.377,0-20.6-9.223-20.6-20.6
			c0,0,0,0,0,0v-19.57h37.77c11.374-0.002,20.592-9.224,20.59-20.598C404.367,161.181,404.367,161.181,404.367,161.18z"/>
		<path style="fill:#00EFD1;" d="M404.367,156.03v5.15c0.003,11.374-9.214,20.597-20.588,20.6c-0.001,0-0.001,0-0.002,0h-249.93
			c-11.377,0-20.6-9.223-20.6-20.6c0,0,0,0,0,0v-51.27c0.001-9.074,3.99-17.69,10.91-23.56l11.75-9.97h249.93v0.35l8.85,8.36
			c6.178,5.837,9.68,13.961,9.68,22.46V156.03z M374.157,149.16v-33.64h-49.09v33.64H374.157z M192.547,149.16v-33.64h-49.09v33.64
			H192.547z"/>
		<g>
			<path style="fill:#D4E1F4;" d="M363.847,22.78l23.02,53.6h-30.56c-0.009-21.045-17.077-38.098-38.121-38.089
				c-21.032,0.009-38.08,17.057-38.089,38.089h-145.22l23.01-53.6c3.324-7.744,10.943-12.763,19.37-12.76h167.23
				C352.912,10.017,360.527,15.037,363.847,22.78z"/>
			<rect x="325.067" y="115.52" style="fill:#D4E1F4;" width="49.09" height="33.64"/>
			<path style="fill:#D4E1F4;" d="M356.307,76.38h-76.21c0.009-21.045,17.077-38.098,38.121-38.089
				C339.25,38.3,356.298,55.348,356.307,76.38L356.307,76.38z"/>
			<rect x="143.457" y="115.52" style="fill:#D4E1F4;" width="49.09" height="33.64"/>
			<path style="fill:#D4E1F4;" d="M171.607,182.12v19.23c0,11.377-9.223,20.6-20.6,20.6c0,0,0,0,0,0h-17.16
				c-11.377,0-20.6-9.223-20.6-20.6c0,0,0,0,0,0v-40.17c0,11.377,9.223,20.6,20.6,20.6c0,0,0,0,0,0h37.76V182.12z"/>
		</g>
	</g>
	<g>
		<g>
			<path style="fill:#083863;" d="M414.547,159.319V107.55c-0.053-11.257-4.715-22.001-12.9-29.73l-5.387-5.046
				c-0.055-0.145-0.117-0.292-0.179-0.435l-23.034-53.554C368.151,7.366,356.911-0.027,344.487,0h-167.23
				c-12.429-0.003-23.663,7.402-28.56,18.825l-22.676,52.829l-8.182,7.07c-9.128,7.78-14.358,19.192-14.292,31.186v51.27
				c-0.097,1.41-0.097,2.825,0,4.235v35.935c-0.126,16.801,13.392,30.523,30.193,30.649c0.036,0,0.071,0,0.107,0.001h17.16
				c16.89-0.047,30.553-13.76,30.54-30.65V192h154v9.35c0,16.873,14.187,30.65,31.06,30.65h17.17
				c16.934-0.03,30.673-13.716,30.77-30.65V159.319z M167.074,26.528c1.767-4.031,5.783-6.605,10.183-6.528h167.23
				c4.397-0.079,8.41,2.496,10.171,6.526L371.69,66h-6.436c-4.617-21-23.959-38.1-47.057-38.1S275.765,45,271.147,66h-121.1
				L167.074,26.528z M344.461,66h-52.514c4.04-10,14.282-18.1,26.255-18.1S340.42,56,344.461,66z M130.777,93.975L140.026,86
				h241.062l6.82,6.358c4.196,3.944,6.594,9.434,6.639,15.192v53.63c-0.071,5.927-4.844,10.722-10.77,10.82h-249.93
				c-4.941-0.104-9.181-3.546-10.3-8.36v-53.73C123.486,103.791,126.132,97.959,130.777,93.975z M161.547,201.35
				c0.028,5.85-4.69,10.617-10.54,10.65h-17.16c-5.744-0.054-10.356-4.753-10.303-10.497c0-0.051,0.001-0.102,0.003-0.153v-11.359
				c3.292,1.258,6.777,1.938,10.3,2.009h27.7V201.35z M383.777,212h-17.17c-5.845,0-11.06-4.8-11.06-10.65V192h28.23
				c3.692-0.071,7.341-0.811,10.77-2.184v11.534C394.462,207.243,389.671,211.982,383.777,212z"/>
			<path style="fill:#083863;" d="M143.547,160h49c5.523,0,10-4.477,10-10v-34c0-5.523-4.477-10-10-10h-49c-5.523,0-10,4.477-10,10
				v34C133.547,155.523,138.024,160,143.547,160z M153.547,126h29v13h-29V126z"/>
			<path style="fill:#083863;" d="M325.547,160h49c5.523,0,10-4.477,10-10v-34c0-5.523-4.477-10-10-10h-49c-5.523,0-10,4.477-10,10
				v34C315.547,155.523,320.024,160,325.547,160z M335.547,126h29v13h-29V126z"/>
			<path style="fill:#083863;" d="M227.397,158h62.82c5.523,0,10-4.477,10-10s-4.477-10-10-10h-62.82c-5.523,0-10,4.477-10,10
				S221.874,158,227.397,158z"/>
			<path style="fill:#083863;" d="M227.397,132h62.82c5.523,0,10-4.477,10-10s-4.477-10-10-10h-62.82c-5.523,0-10,4.477-10,10
				S221.874,132,227.397,132z"/>
		</g>
		<path style="fill:#083863;" d="M105.887,468.152L20.703,366.9l113.462-110.236c6.224-5.198,13.764-8.574,21.787-9.755
			l113.211-17.925c17.737-3.062,34.773,8.277,38.793,25.822c3.924,17.5-6.28,35.187-23.23,40.264l-52.331,16.075l11.257,14.964
			l71.785-10.463c9.987-10.076,49.381-49.837,72.383-73.21c6.414-6.556,15.199-10.25,24.371-10.246h0.185
			c9.083-0.033,17.814,3.514,24.3,9.873l0.375,0.366l0.46,0.555c12.96,13.018,13.286,33.961,0.736,47.375l-0.132,0.14l-94.037,97.87
			c-7.319,7.308-17.126,11.585-27.461,11.976l-154.167,5.227L105.887,468.152z M47.987,368.265l58.438,69.463l46.873-51.858
			l162.627-5.514c5.27-0.22,10.266-2.405,14.005-6.125l93.687-97.51c5.337-5.621,5.113-14.501-0.5-19.846l-0.373-0.365l-0.386-0.466
			c-2.725-2.498-6.292-3.875-9.989-3.855h-0.08c-3.834-0.014-7.512,1.519-10.2,4.253c-26.409,26.834-74.326,75.172-74.808,75.657
			l-2.352,2.374l-90.135,13.137l-35.515-47.21l79.641-24.464c7.069-2.231,11.221-9.538,9.52-16.753
			c-1.676-7.175-8.675-11.782-15.928-10.483l-0.152,0.025l-113.556,17.98c-4.229,0.637-8.211,2.39-11.537,5.078L47.987,368.265z"/>
	</g>
</g>
<g>
</g>
<g>
</g>
<g>
</g>
<g>
</g>
<g>
</g>
<g>
</g>
<g>
</g>
<g>
</g>
<g>
</g>
<g>
</g>
<g>
</g>
<g>
</g>
<g>
</g>
<g>
</g>
<g>
</g>
</svg>
