<?xml version="1.0" encoding="iso-8859-1"?>
<!-- Generator: Adobe Illustrator 19.0.0, SVG Export Plug-In . SVG Version: 6.00 Build 0)  -->
<svg version="1.1" id="Capa_1" xmlns="http://www.w3.org/2000/svg" xmlns:xlink="http://www.w3.org/1999/xlink" x="0px" y="0px"
	 viewBox="0 0 453.9 453.9" style="enable-background:new 0 0 453.9 453.9;" xml:space="preserve">
<g>
	<g>
		<path style="fill:#00ACEA;" d="M422.989,235.48c9.497,9.156,9.849,24.251,0.79,33.84l-93.86,97.69
			c-5.535,5.538-12.956,8.784-20.78,9.09l-158.39,5.37l-51.72,57.22l-71.81-85.36l106.24-103.25c4.81-4.018,10.639-6.624,16.84-7.53
			l113.37-17.95c12.503-2.196,24.539,5.772,27.4,18.14c2.72,12.13-4.12,24.84-16.34,28.5l-66.02,20.27l23.39,31.1l80.96-11.8
			c0,0,48.08-48.51,74.76-75.62c9.561-9.583,25.053-9.686,34.74-0.23L422.989,235.48z"/>
		<path style="fill:#00CEB4;" d="M346.169,101.18l-28.28-60.9v-0.39h31.56c5.974,0,11.726,2.27,16.09,6.35l51.34,47.95
			c4.771,4.46,7.479,10.699,7.48,17.23v47.91c0.002,13.016-10.548,23.568-23.564,23.57c-0.002,0-0.004,0-0.006,0h-11.79l-0.11-0.01
			c0.07-0.9,0.11-1.82,0.11-2.74c0.013-18.662-15.106-33.8-33.767-33.813c-18.662-0.013-33.8,15.106-33.813,33.767
			c0,0.015,0,0.03,0,0.045c0,0.92,0.04,1.84,0.11,2.74l-0.11,0.01h-48.72v-81.72H346.169z"/>
		<g>
			<path style="fill:#D4E1F4;" d="M388.999,180.15c0,0.92-0.04,1.84-0.11,2.74c-1.511,18.601-17.816,32.455-36.417,30.943
				c-16.502-1.341-29.603-14.441-30.943-30.943c-0.07-0.9-0.11-1.82-0.11-2.74c0-18.662,15.128-33.79,33.79-33.79
				S388.999,161.488,388.999,180.15L388.999,180.15z"/>
			<polygon style="fill:#D4E1F4;" points="317.889,40.28 346.169,101.18 272.699,101.18 272.699,39.89 317.889,39.89 			"/>
		</g>
		<path style="fill:#00EFD1;" d="M272.699,101.18v81.72h-90.36l-0.11-0.01c0.07-0.9,0.11-1.82,0.11-2.74
			c0-18.662-15.128-33.79-33.79-33.79s-33.79,15.128-33.79,33.79l0,0c0,0.92,0.04,1.84,0.11,2.74l-0.11,0.01h-12.18
			c-13.02,0.003-23.577-10.55-23.58-23.57c0,0,0,0,0,0v-18.86c-0.001-21.699,17.589-39.289,39.288-39.29c0.001,0,0.001,0,0.002,0
			h38.89c0.916,0.003,1.831-0.053,2.74-0.17l0.02,0.17H272.699z"/>
		<g>
			<path style="fill:#D4E1F4;" d="M272.699,39.89v61.29h-112.76l-0.02-0.17c5.535-0.638,10.663-3.221,14.47-7.29l43.39-46.37
				c4.459-4.759,10.689-7.46,17.21-7.46C234.989,39.89,272.699,39.89,272.699,39.89z"/>
			<path style="fill:#D4E1F4;" d="M182.339,180.15c0,0.92-0.04,1.84-0.11,2.74c-1.511,18.601-17.816,32.455-36.417,30.943
				c-16.502-1.341-29.602-14.441-30.943-30.943c-0.07-0.9-0.11-1.82-0.11-2.74c0-18.662,15.128-33.79,33.79-33.79
				S182.339,161.488,182.339,180.15L182.339,180.15z"/>
		</g>
	</g>
	<g>
		<path style="fill:#083863;" d="M423.734,86.882l-51.348-47.889c-6.221-5.81-14.425-9.026-22.937-8.993h-11.03V20h10.11
			c5.523,0,10-4.477,10-10s-4.477-10-10-10h-113.15c-5.523,0-10,4.477-10,10s4.477,10,10,10h10.04v10h-10.43
			c-9.279-0.006-18.148,3.82-24.512,10.573L167.09,86.912c-2.187,2.334-5.132,3.814-8.309,4.176
			c-0.057,0.007-0.113-0.083-0.171-0.076c-0.477,0.024-0.955,0.02-1.431-0.012h-38.89c-27.179,0-48.87,22.292-48.87,49.47v18.86
			c-0.181,18.414,14.6,33.488,33.014,33.669c0.049,0,0.097,0.001,0.146,0.001h4.093c7.033,23.126,31.482,36.172,54.608,29.139
			c13.964-4.247,24.893-15.175,29.139-29.139h122.91c7.029,23.127,31.476,36.177,54.603,29.148
			c13.97-4.246,24.902-15.178,29.148-29.148h3.7c18.566-0.058,33.598-15.104,33.639-33.67v-47.91
			C434.393,102.117,430.527,93.238,423.734,86.882z M358.713,53.513L399.006,91H352.55l-19.173-41h16.072
			C352.873,49.941,356.189,51.199,358.713,53.513z M311.326,50L330.5,91h-48.081V50H311.326z M265.419,20h53v10h-53V20z
			 M225.076,54.152c2.587-2.696,6.176-4.2,9.913-4.152h27.43v41h-71.958L225.076,54.152z M89.419,159.33v-18.86
			c0-16.15,12.72-29.47,28.87-29.47h38.89c0.594,0,1.167-0.022,1.735-0.052c0.341,0.035,0.683,0.052,1.025,0.052h102.48v62h-70.691
			c-3.999-23.847-26.573-39.937-50.42-35.938c-18.418,3.089-32.849,17.52-35.938,35.938h-2.791
			C95.091,173,89.419,166.812,89.419,159.33z M148.549,203.94c-12.365-0.047-22.65-9.521-23.711-21.84
			c-0.052-0.677-0.079-1.334-0.079-1.954c-0.003-13.139,10.646-23.792,23.785-23.795s23.792,10.646,23.795,23.785
			c0,0.004,0,0.007,0,0.011c0,0.621-0.027,1.283-0.078,1.943C171.206,194.413,160.918,203.893,148.549,203.94z M355.209,203.94
			c-12.364-0.048-22.65-9.521-23.711-21.84c-0.053-0.677-0.079-1.334-0.079-1.954c0-13.139,10.651-23.79,23.79-23.79
			s23.79,10.651,23.79,23.79c0,0.622-0.027,1.282-0.078,1.943C377.866,194.413,367.578,203.893,355.209,203.94z M414.419,159.33
			c-0.029,7.522-6.108,13.619-13.63,13.67h-2.4c-3.999-23.847-26.573-39.937-50.42-35.938c-18.418,3.089-32.849,17.52-35.938,35.938
			h-29.612v-62h131.928c0.031,0.139,0.055,0.279,0.072,0.42V159.33z"/>
		<path style="fill:#083863;" d="M98.758,453.9L13.575,352.646l113.463-110.232c6.224-5.198,13.764-8.574,21.786-9.755
			l113.211-17.925c17.737-3.062,34.773,8.277,38.793,25.822c3.924,17.5-6.28,35.187-23.23,40.264l-52.332,16.067l11.259,14.972
			l71.784-10.459c9.99-10.083,49.381-49.85,72.383-73.222c6.416-6.551,15.201-10.242,24.371-10.24
			c9.147-0.066,17.95,3.486,24.492,9.88l0.373,0.365l0.458,0.553c12.96,13.018,13.286,33.961,0.736,47.375l-0.132,0.14
			l-94.037,97.87c-7.319,7.308-17.126,11.585-27.461,11.976l-154.167,5.227L98.758,453.9z M40.863,354.015l58.436,69.463
			l46.874-51.858l162.627-5.514c5.27-0.22,10.266-2.405,14.005-6.125l93.687-97.51c5.337-5.621,5.113-14.501-0.5-19.846
			l-0.373-0.365l-0.388-0.468c-2.723-2.5-6.291-3.878-9.987-3.857h-0.08c-3.834-0.013-7.511,1.52-10.2,4.252
			c-26.406,26.83-74.323,75.177-74.8,75.663l-2.352,2.374l-90.137,13.137l-35.52-47.229l79.642-24.451
			c7.068-2.233,11.219-9.538,9.518-16.753c-1.68-7.171-8.678-11.774-15.928-10.476l-0.152,0.025l-113.559,17.978
			c-4.229,0.638-8.211,2.39-11.537,5.078L40.863,354.015z"/>
	</g>
</g>
<g>
</g>
<g>
</g>
<g>
</g>
<g>
</g>
<g>
</g>
<g>
</g>
<g>
</g>
<g>
</g>
<g>
</g>
<g>
</g>
<g>
</g>
<g>
</g>
<g>
</g>
<g>
</g>
<g>
</g>
</svg>
