<?xml version="1.0" encoding="iso-8859-1"?>
<!-- Generator: Adobe Illustrator 19.0.0, SVG Export Plug-In . SVG Version: 6.00 Build 0)  -->
<svg version="1.1" id="Capa_1" xmlns="http://www.w3.org/2000/svg" xmlns:xlink="http://www.w3.org/1999/xlink" x="0px" y="0px"
	 viewBox="0 0 448.699 448.699" style="enable-background:new 0 0 448.699 448.699;" xml:space="preserve">
<g>
	<g>
		<path style="fill:#00EFD1;" d="M438.49,111.739v24.93c-0.004,14.275-11.575,25.846-25.85,25.85h-13.35l-2.27-0.2
			c0.07-0.93,0.11-1.87,0.11-2.82c0-19.269-15.621-34.89-34.89-34.89c-19.269,0-34.89,15.621-34.89,34.89l0,0
			c0,1,0.04,1.99,0.13,2.97l-0.56,0.05H186.49l-0.56-0.05c0.09-0.98,0.13-1.97,0.13-2.97c-0.326-19.272-16.214-34.63-35.486-34.304
			c-18.812,0.319-33.985,15.492-34.304,34.304c0,1.02,0.04,2.03,0.13,3.02h-11.33c-14.275-0.004-25.846-11.575-25.85-25.85v-21.84
			c0.002-11.652,7.8-21.861,19.04-24.93l59.8-16.34l35.74-46.94c6.519-8.559,16.661-13.582,27.42-13.58h112.9
			c11.869,0,22.902,6.11,29.2,16.17l27.78,44.35l32.24,14.65C432.563,92.408,438.484,101.605,438.49,111.739z"/>
		<path style="fill:#00ACEA;" d="M409.41,227.089c9.507,9.151,9.86,24.255,0.79,33.84l-93.85,97.69
			c-5.539,5.538-12.963,8.784-20.79,9.09l-158.39,5.37l-51.71,57.22l-71.82-85.36l106.24-103.25
			c4.811-4.016,10.639-6.622,16.84-7.53l113.38-17.95c12.501-2.196,24.534,5.774,27.39,18.14c2.72,12.13-4.12,24.84-16.33,28.5
			l-66.02,20.27l23.38,31.1l80.96-11.8c0,0,48.09-48.51,74.76-75.62c9.561-9.583,25.053-9.686,34.74-0.23L409.41,227.089z"/>
		<g>
			<path style="fill:#D4E1F4;" d="M397.13,159.499c0,0.95-0.04,1.89-0.11,2.82c-1.555,19.206-18.385,33.516-37.591,31.961
				c-16.991-1.375-30.5-14.827-31.949-31.811c-0.09-0.98-0.13-1.97-0.13-2.97c0-19.269,15.621-34.89,34.89-34.89
				C381.509,124.609,397.13,140.23,397.13,159.499z"/>
			<path style="fill:#D4E1F4;" d="M116.4,162.519c-0.09-0.99-0.13-2-0.13-3.02c0.326-19.272,16.214-34.63,35.486-34.304
				c18.812,0.319,33.985,15.492,34.304,34.304c0,1-0.04,1.99-0.13,2.97c-1.642,19.201-18.538,33.436-37.74,31.795
				C131.285,192.818,117.87,179.422,116.4,162.519L116.4,162.519z"/>
		</g>
	</g>
	<g>
		<path style="fill:#083863;" d="M427.582,79.105l-29.553-13.4l-26.208-41.729c-8.113-12.997-22.38-20.864-37.701-20.787h-112.9
			c-13.861,0.009-26.931,6.456-35.376,17.447l-33.688,44.207L95.865,80.271C80.346,84.568,69.627,98.726,69.7,114.829v21.84
			c-0.177,19.44,15.439,35.342,34.878,35.519c0.164,0.001,0.328,0.002,0.492,0.001h3.15c7.181,23.721,32.232,37.129,55.952,29.948
			c14.362-4.348,25.6-15.586,29.948-29.948H319.3c7.174,23.714,32.214,37.122,55.928,29.948
			c14.363-4.345,25.602-15.585,29.948-29.948h7.463c19.768,0,36.06-15.752,36.06-35.52v-24.93
			C448.631,97.672,440.386,84.93,427.582,79.105z M175.965,161.633c-1.185,13.697-13.249,23.841-26.946,22.657
			c-12.042-1.041-21.596-10.583-22.654-22.624v-0.056c-0.059-0.647-0.089-1.358-0.089-2.111
			c0.276-13.749,11.645-24.672,25.394-24.396c13.361,0.268,24.128,11.035,24.396,24.396
			C176.06,160.226,176.03,160.918,175.965,161.633z M387.052,161.519c-1.113,13.701-13.123,23.906-26.824,22.793
			c-12.112-0.984-21.743-10.571-22.783-22.679l-0.007-0.077c-0.058-0.638-0.088-1.33-0.088-2.057
			c-0.002-13.746,11.14-24.892,24.886-24.894c13.746-0.002,24.892,11.14,24.894,24.886c0,0.003,0,0.005,0,0.008
			C387.13,160.151,387.1,160.846,387.052,161.519z M428.7,136.669c0,8.74-7.32,15.52-16.06,15.52h-6.055
			c-3.364-21-21.967-37.91-44.345-37.91s-40.981,16.91-44.34,37.91H195.514c-3.364-21-21.971-37.91-44.354-37.91
			s-40.981,16.91-44.345,37.91h-1.745c-8.385,0.105-15.268-6.608-15.373-14.993c-0.002-0.176-0.001-0.351,0.003-0.527v-21.84
			c-0.089-7.097,4.603-13.367,11.436-15.284l59.68-16.339c2.102-0.581,3.952-1.843,5.26-3.589l35.709-46.864
			c4.639-6.037,11.822-9.571,19.435-9.564h112.9c8.419-0.055,16.264,4.26,20.726,11.4l27.779,44.312
			c1.043,1.658,2.552,2.972,4.338,3.777l32.337,14.64c5.675,2.565,9.344,8.193,9.4,14.421V136.669z"/>
		<path style="fill:#083863;" d="M85.19,445.511L0,344.255l113.467-110.238c6.224-5.191,13.759-8.565,21.777-9.749l113.222-17.925
			c17.734-3.062,34.767,8.279,38.782,25.822c3.924,17.5-6.274,35.184-23.216,40.263l-52.338,16.069l11.254,14.971l71.782-10.463
			c9.989-10.078,49.388-49.846,72.381-73.219c6.416-6.553,15.201-10.245,24.372-10.242c9.15-0.075,17.956,3.478,24.493,9.88
			l0.375,0.367l0.456,0.551c12.973,13.015,13.297,33.97,0.732,47.38l-0.128,0.135l-94.033,97.876
			c-7.324,7.302-17.13,11.577-27.465,11.97l-154.167,5.227L85.19,445.511z M27.284,345.623l58.445,69.466l46.865-51.857
			l162.627-5.514c5.273-0.222,10.272-2.407,14.016-6.126l93.68-97.513c5.34-5.615,5.118-14.496-0.497-19.837
			c-0.001-0.001-0.002-0.002-0.003-0.002l-0.377-0.368l-0.387-0.469c-5.794-5.259-14.684-5.086-20.268,0.395
			c-26.394,26.831-74.323,75.179-74.8,75.665l-2.352,2.373l-90.137,13.137l-35.506-47.229l79.635-24.455
			c7.065-2.236,11.21-9.541,9.507-16.753c-1.676-7.169-8.67-11.772-15.917-10.476l-0.152,0.025L138.1,244.064
			c-4.233,0.624-8.22,2.379-11.539,5.08L27.284,345.623z"/>
	</g>
</g>
<g>
</g>
<g>
</g>
<g>
</g>
<g>
</g>
<g>
</g>
<g>
</g>
<g>
</g>
<g>
</g>
<g>
</g>
<g>
</g>
<g>
</g>
<g>
</g>
<g>
</g>
<g>
</g>
<g>
</g>
</svg>
