<?xml version="1.0" encoding="iso-8859-1"?>
<!-- Generator: Adobe Illustrator 19.0.0, SVG Export Plug-In . SVG Version: 6.00 Build 0)  -->
<svg version="1.1" id="Capa_1" xmlns="http://www.w3.org/2000/svg" xmlns:xlink="http://www.w3.org/1999/xlink" x="0px" y="0px"
	 viewBox="0 0 436.349 436.349" style="enable-background:new 0 0 436.349 436.349;" xml:space="preserve">
<g>
	<g>
		<path style="fill:#00CEB4;" d="M426.598,269.089v57.08c-0.003,15.511-12.579,28.082-28.09,28.08h-14.04l-0.13-0.01
			c0.09-1.08,0.13-2.17,0.13-3.27c0-22.229-18.021-40.25-40.25-40.25s-40.25,18.021-40.25,40.25c0,1.1,0.04,2.19,0.13,3.27
			l-0.13,0.01h-58.03v-97.35h176.81l0.92-0.29C425.595,260.487,426.598,264.759,426.598,269.089z"/>
		<g>
			<path style="fill:#D4E1F4;" d="M423.668,256.609l-0.92,0.29h-89.29l-33.7-72.54v-0.47h37.6c7.117-0.002,13.97,2.701,19.17,7.56
				l61.15,57.12C420.143,250.866,422.173,253.59,423.668,256.609z"/>
			<path style="fill:#D4E1F4;" d="M384.468,350.969c0,1.1-0.04,2.19-0.13,3.27c-1.806,22.158-21.232,38.656-43.39,36.85
				c-19.65-1.601-35.249-17.2-36.85-36.85c-0.09-1.08-0.13-2.17-0.13-3.27c0-22.229,18.021-40.25,40.25-40.25
				S384.468,328.74,384.468,350.969L384.468,350.969z"/>
			<polygon style="fill:#D4E1F4;" points="299.758,184.359 333.458,256.899 245.938,256.899 245.938,183.889 299.758,183.889 			"/>
		</g>
		<path style="fill:#00EFD1;" d="M245.938,256.899v97.35h-107.65l-0.13-0.01c0.09-1.08,0.13-2.17,0.13-3.27
			c0-22.229-18.021-40.25-40.25-40.25s-40.25,18.021-40.25,40.25c0,1.1,0.04,2.19,0.13,3.27l-0.13,0.01h-14.51
			c-15.507-0.002-28.078-12.573-28.08-28.08v-22.47c0-25.847,20.953-46.8,46.8-46.8c0.003,0,0.007,0,0.01,0h46.32
			c1.093,0.004,2.185-0.063,3.27-0.2l0.02,0.2H245.938z"/>
		<g>
			<path style="fill:#D4E1F4;" d="M245.938,183.889v73.01h-134.32l-0.02-0.2c6.591-0.765,12.697-3.844,17.23-8.69l51.69-55.23
				c5.31-5.671,12.731-8.889,20.5-8.89H245.938z"/>
			<path style="fill:#D4E1F4;" d="M138.288,350.969c0,1.1-0.04,2.19-0.13,3.27c-1.806,22.158-21.232,38.656-43.389,36.851
				c-19.651-1.601-35.249-17.2-36.851-36.851c-0.09-1.08-0.13-2.17-0.13-3.27c0-22.229,18.021-40.25,40.25-40.25
				S138.288,328.74,138.288,350.969L138.288,350.969z"/>
		</g>
	</g>
	<g>
		<path style="fill:#083863;" d="M432.505,252.172c-2.003-4.096-4.736-7.793-8.063-10.911l-61.116-56.962
			c-7.05-6.557-16.34-10.17-25.968-10.1h-15.01v-16h13.92c5.523,0,10-4.477,10-10s-4.477-10-10-10h-134.79c-5.523,0-10,4.477-10,10
			s4.477,10,10,10h13.87v16h-14.33c-10.512-0.04-20.573,4.266-27.8,11.9l-51.687,55.15c-0.034,0.036-0.071,0.028-0.1,0.063
			l-68.183-53.587c-0.122-0.1-0.247-0.2-0.374-0.29c-12.246-8.783-28.932-7.953-40.247,2l-9.11,7.968
			c-4.205,3.581-4.711,9.892-1.13,14.097s9.892,4.711,14.097,1.13c0.068-0.058,0.135-0.116,0.201-0.176l9.111-7.971
			c4.326-3.735,10.642-4.04,15.307-0.738l55.108,43.454H62.008c-31.196-0.096-56.564,25.116-56.66,56.312c0,0.063,0,0.126,0,0.188
			v22.47c-0.043,20.961,16.915,37.987,37.876,38.03c0.018,0,0.036,0,0.054,0h6.3c5.888,21,25.626,36.97,48.459,36.97
			s42.589-15.97,48.465-36.97h149.257c5.888,21,25.626,36.97,48.459,36.97s42.584-15.97,48.464-36.97h5.826
			c20.917-0.018,37.858-16.989,37.84-37.906c0-0.041,0-0.083,0-0.124v-57.08C436.385,263.23,435.07,257.44,432.505,252.172z
			 M349.705,199.062l51.536,48.137h-61.4l-24.627-53h22.144c4.584-0.009,8.998,1.73,12.344,4.863L349.705,199.062z M293.159,194.199
			l24.627,53h-61.438v-53H293.159z M235.348,158.199h67v16h-67V158.199z M187.817,199.92c3.424-3.645,8.2-5.714,13.201-5.721h35.33
			v53h-92.785L187.817,199.92z M25.348,326.169v-22.47c-0.021-20.138,16.287-36.48,36.425-36.501c0.078,0,0.156,0,0.235,0.001h46.32
			c0.749,0,1.471-0.023,2.181-0.065c0.368,0.042,0.738,0.064,1.109,0.065h124.73v77h-88.522c-3.3-24-24.359-43.53-49.788-43.53
			s-46.49,19.53-49.79,43.53h-4.97c-9.902,0-17.93-8.027-17.93-17.93C25.347,326.236,25.348,326.203,25.348,326.169z
			 M98.038,381.219c-15.725-0.062-28.804-12.112-30.152-27.779v-0.03c-0.063-0.761-0.1-1.583-0.1-2.441
			c0-16.707,13.543-30.25,30.25-30.25s30.25,13.543,30.25,30.25c0,0.859-0.032,1.677-0.1,2.471
			C126.839,369.106,113.761,381.156,98.038,381.219z M344.218,381.219c-15.725-0.062-28.804-12.112-30.152-27.779v-0.03
			c-0.064-0.761-0.1-1.583-0.1-2.441c0-16.707,13.543-30.25,30.25-30.25s30.25,13.543,30.25,30.25c0,0.858-0.032,1.68-0.1,2.471
			C373.018,369.106,359.941,381.155,344.218,381.219z M416.348,326.169c0.099,9.858-7.813,17.93-17.671,18.029
			c-0.056,0.001-0.113,0.001-0.169,0.001h-4.5c-3.3-24-24.358-43.53-49.787-43.53s-46.494,19.53-49.79,43.53h-38.083v-77H416.46
			c0.09,0-0.112,1.158-0.112,1.89V326.169z"/>
		<path style="fill:#083863;" d="M82.058,161.079c-5.523,0-10-4.477-10-10c0-3.7-0.835-5-2.663-7.859
			c-2.454-3.834-5.817-9.085-5.817-18.631s3.364-14.807,5.82-18.642c1.826-2.853,2.66-4.156,2.66-7.848s-0.834-4.994-2.661-7.846
			c-2.455-3.832-5.819-9.081-5.819-18.624s3.366-14.8,5.823-18.628c1.824-2.845,2.657-4.144,2.657-7.822c0-5.523,4.477-10,10-10
			s10,4.477,10,10c0,9.54-3.364,14.786-5.82,18.617c-1.827,2.848-2.66,4.148-2.66,7.833s0.833,4.986,2.659,7.835
			c2.457,3.834,5.821,9.085,5.821,18.635s-3.362,14.8-5.816,18.631c-1.829,2.856-2.664,4.16-2.664,7.859
			c0,3.699,0.834,4.994,2.661,7.847c2.456,3.836,5.819,9.09,5.819,18.643C92.058,156.602,87.581,161.079,82.058,161.079z"/>
		<path style="fill:#083863;" d="M120.558,161.079c-5.523,0-10-4.477-10-10c0-3.7-0.834-5.006-2.661-7.863
			c-2.451-3.834-5.809-9.084-5.809-18.627s3.359-14.8,5.812-18.638c1.825-2.855,2.658-4.157,2.658-7.852s-0.833-5-2.659-7.85
			c-2.452-3.832-5.811-9.08-5.811-18.62c0-5.523,4.477-10,10-10s10,4.477,10,10c0,3.688,0.832,4.989,2.656,7.839
			c2.454,3.834,5.814,9.084,5.814,18.631s-3.357,14.793-5.809,18.627c-1.827,2.857-2.661,4.161-2.661,7.863
			c0,3.702,0.833,5,2.658,7.852c2.454,3.835,5.812,9.088,5.812,18.638C130.558,156.602,126.081,161.079,120.558,161.079
			L120.558,161.079z"/>
		<path style="fill:#083863;" d="M43.548,161.079c-5.523,0-10-4.477-10-10c0-3.7-0.835-5-2.663-7.859
			c-2.455-3.834-5.817-9.085-5.817-18.631s3.363-14.807,5.819-18.642c1.827-2.854,2.661-4.156,2.661-7.848s-0.834-4.994-2.661-7.845
			c-2.456-3.833-5.819-9.082-5.819-18.625c0-5.523,4.477-10,10-10s10,4.477,10,10c0,3.685,0.833,4.986,2.659,7.835
			c2.456,3.835,5.821,9.085,5.821,18.635s-3.362,14.8-5.817,18.632c-1.828,2.856-2.663,4.159-2.663,7.858
			c0,3.699,0.834,4.994,2.66,7.847c2.457,3.836,5.82,9.09,5.82,18.643C53.548,156.602,49.071,161.079,43.548,161.079z"/>
	</g>
</g>
<g>
</g>
<g>
</g>
<g>
</g>
<g>
</g>
<g>
</g>
<g>
</g>
<g>
</g>
<g>
</g>
<g>
</g>
<g>
</g>
<g>
</g>
<g>
</g>
<g>
</g>
<g>
</g>
<g>
</g>
</svg>
