<?xml version="1.0" encoding="iso-8859-1"?>
<!-- Generator: Adobe Illustrator 19.0.0, SVG Export Plug-In . SVG Version: 6.00 Build 0)  -->
<svg version="1.1" id="Capa_1" xmlns="http://www.w3.org/2000/svg" xmlns:xlink="http://www.w3.org/1999/xlink" x="0px" y="0px"
	 viewBox="0 0 465.725 465.725" style="enable-background:new 0 0 465.725 465.725;" xml:space="preserve">
<g>
	<g>
		<path style="fill:#00EFD1;" d="M455.495,307.111v30.35c0.003,17.383-14.087,31.477-31.47,31.48c-0.003,0-0.007,0-0.01,0h-18.26
			l-0.78-0.07c0.1-1.19,0.15-2.39,0.15-3.6c-0.36-23.469-19.678-42.203-43.147-41.843c-22.962,0.352-41.49,18.881-41.843,41.843
			c0,1.22,0.05,2.42,0.15,3.61l-0.67,0.06h-171.03l-0.67-0.06c0.1-1.19,0.15-2.39,0.15-3.61
			c-0.36-23.469-19.678-42.203-43.147-41.843c-22.962,0.352-41.491,18.881-41.843,41.843c0,1.23,0.05,2.45,0.16,3.66l-0.06,0.01
			h-13.74c-17.383,0.003-31.477-14.087-31.48-31.47c0-0.003,0-0.007,0-0.01v-26.59c-0.002-14.191,9.491-26.628,23.18-30.37
			l72.83-19.89l1-1.32l0.76,0.58h280l1.15-0.72l0.91,1.46l39.26,17.84C448.281,283.563,455.494,294.767,455.495,307.111z"/>
		<g>
			<path style="fill:#D4E1F4;" d="M405.125,365.271c0,1.21-0.05,2.41-0.15,3.6c-2,23.387-22.58,40.724-45.967,38.724
				c-20.609-1.762-36.956-18.106-38.723-38.714c-0.1-1.19-0.15-2.39-0.15-3.61c0.36-23.469,19.678-42.203,43.147-41.843
				C386.244,323.781,404.773,342.31,405.125,365.271L405.125,365.271z"/>
			<path style="fill:#D4E1F4;" d="M396.875,259.151l-1.15,0.72h-143v-72.97h75.66c14.455,0.003,27.893,7.442,35.57,19.69
				L396.875,259.151z"/>
			<path style="fill:#D4E1F4;" d="M252.725,258.871v1h-137l-0.76-0.58l42.53-55.85c7.94-10.421,20.289-16.538,33.39-16.54h61.84
				V258.871z"/>
			<path style="fill:#D4E1F4;" d="M148.065,365.271c0,1.22-0.05,2.42-0.15,3.61c-2.021,23.385-22.617,40.704-46.001,38.683
				c-20.563-1.777-36.877-18.072-38.679-38.633c-0.11-1.21-0.16-2.43-0.16-3.66c0.36-23.469,19.678-42.203,43.147-41.843
				C129.184,323.78,147.713,342.309,148.065,365.271L148.065,365.271z"/>
		</g>
	</g>
	<g>
		<path style="fill:#083863;" d="M441.297,269.347l-36.572-16.591l-32.27-51.492c-9.477-15.212-26.148-24.439-44.07-24.393h-137.5
			c-16.215,0.054-31.488,7.627-41.347,20.5l-33.744,44.32l-64.1-45.664c-12.008-8.608-28.367-7.792-39.458,1.969l-8.86,7.751
			c-4.138,3.658-4.526,9.978-0.868,14.115c3.631,4.107,9.891,4.525,14.036,0.938l8.862-7.752c4.128-3.631,10.215-3.933,14.682-0.73
			l58.962,42l-60.666,16.536c-18.043,4.946-30.579,21.309-30.659,40.017v26.59c0.14,22.929,18.781,41.435,41.71,41.41h5.45
			c2.448,9.626,7.699,18.309,15.086,24.948c20.106,18.577,51.119,18.565,71.211-0.027c7.383-6.631,12.63-15.304,15.077-24.921
			H311.94c2.447,9.619,7.695,18.295,15.078,24.929c20.106,18.598,51.138,18.591,71.235-0.017c7.376-6.63,12.619-15.3,15.065-24.912
			h10.7c22.928,0.024,41.567-18.482,41.707-41.41v-30.35C465.654,290.833,456.115,276.086,441.297,269.347z M355.481,211.884
			l23.783,37.987H262.725v-53h65.66C339.408,196.846,349.659,202.525,355.481,211.884L355.481,211.884z M165.449,209.484
			c6.065-7.92,15.461-12.579,25.436-12.613h51.84v53H134.711L165.449,209.484z M137.949,368.04
			c-1.555,17.882-17.312,31.117-35.194,29.562c-15.71-1.366-28.172-13.813-29.558-29.522c0-0.017,0-0.035-0.005-0.052
			c-0.079-0.878-0.119-1.806-0.119-2.76c0.315-17.947,15.119-32.24,33.065-31.925c17.503,0.307,31.618,14.422,31.925,31.925
			c0.002,0.936-0.038,1.871-0.112,2.775L137.949,368.04z M395.008,368.031c-1.535,17.883-17.277,31.136-35.161,29.601
			c-15.75-1.352-28.243-13.842-29.6-29.592c-0.076-0.907-0.114-1.839-0.114-2.772c0.315-17.947,15.119-32.24,33.065-31.925
			c17.503,0.307,31.617,14.422,31.925,31.925c0.002,0.922-0.037,1.853-0.113,2.766L395.008,368.031z M445.725,337.461
			c-0.128,11.888-9.821,21.447-21.71,21.41h-9.285c-3.491-28.774-29.647-49.27-58.421-45.779
			c-23.976,2.909-42.871,21.804-45.779,45.779H157.669c-3.491-28.774-29.647-49.27-58.421-45.779
			C75.273,316,56.378,334.896,53.469,358.871h-4.034c-11.889,0.038-21.582-9.522-21.71-21.41v-26.59
			c0.064-9.698,6.575-18.168,15.93-20.723l72.887-19.89c0.399-0.107,0.792-0.236,1.177-0.387h276.272l39.028,17.682
			c7.686,3.485,12.646,11.119,12.706,19.558V337.461z"/>
		<path style="fill:#083863;" d="M93.305,170.921c-5.523,0-10-4.477-10-10c0-3.518-0.8-4.764-2.542-7.494
			c-2.4-3.756-5.688-8.9-5.688-18.256s3.289-14.51,5.69-18.267c1.744-2.727,2.54-3.972,2.54-7.483s-0.8-4.755-2.54-7.481
			c-2.4-3.754-5.69-8.895-5.69-18.249s3.291-14.5,5.694-18.253c1.741-2.719,2.536-3.96,2.536-7.457c0-5.523,4.477-10,10-10
			s10,4.477,10,10c0,9.351-3.29,14.489-5.692,18.242c-1.743,2.721-2.538,3.964-2.538,7.468s0.8,4.747,2.538,7.471
			c2.4,3.755,5.692,8.9,5.692,18.259s-3.288,14.5-5.688,18.256c-1.746,2.73-2.542,3.976-2.542,7.494s0.8,4.756,2.54,7.483
			c2.4,3.757,5.69,8.9,5.69,18.267C103.305,166.444,98.828,170.921,93.305,170.921z"/>
		<path style="fill:#083863;" d="M130.745,170.921c-5.523,0-10-4.477-10-10c0-3.515-0.8-4.761-2.544-7.49
			c-2.4-3.756-5.7-8.9-5.7-18.26s3.293-14.513,5.7-18.271c1.744-2.727,2.541-3.971,2.541-7.479s-0.8-4.752-2.542-7.477
			c-2.405-3.755-5.7-8.9-5.7-18.253c0-5.523,4.477-10,10-10c5.523,0,10,4.477,10,10c0,3.5,0.8,4.744,2.539,7.467
			c2.407,3.755,5.7,8.9,5.7,18.263s-3.292,14.5-5.7,18.26c-1.747,2.729-2.544,3.975-2.544,7.49s0.8,4.752,2.541,7.479
			c2.406,3.758,5.7,8.9,5.7,18.271C140.736,166.441,136.265,170.916,130.745,170.921z"/>
		<path style="fill:#083863;" d="M55.875,170.921c-5.523,0-10-4.477-10-10c0-3.515-0.8-4.761-2.544-7.49
			c-2.4-3.756-5.7-8.9-5.7-18.26s3.294-14.514,5.7-18.271c1.746-2.727,2.542-3.971,2.542-7.479s-0.8-4.752-2.542-7.477
			c-2.4-3.754-5.7-8.9-5.7-18.253c0-5.523,4.477-10,10-10s10,4.477,10,10c0,3.5,0.8,4.743,2.54,7.466
			c2.405,3.756,5.7,8.9,5.7,18.264s-3.292,14.5-5.7,18.26c-1.747,2.729-2.544,3.975-2.544,7.49s0.8,4.752,2.542,7.479
			c2.4,3.757,5.7,8.9,5.7,18.271C65.869,166.442,61.396,170.918,55.875,170.921z"/>
	</g>
</g>
<g>
</g>
<g>
</g>
<g>
</g>
<g>
</g>
<g>
</g>
<g>
</g>
<g>
</g>
<g>
</g>
<g>
</g>
<g>
</g>
<g>
</g>
<g>
</g>
<g>
</g>
<g>
</g>
<g>
</g>
</svg>
