<?xml version="1.0" encoding="iso-8859-1"?>
<!-- Generator: Adobe Illustrator 19.0.0, SVG Export Plug-In . SVG Version: 6.00 Build 0)  -->
<svg version="1.1" id="Capa_1" xmlns="http://www.w3.org/2000/svg" xmlns:xlink="http://www.w3.org/1999/xlink" x="0px" y="0px"
	 viewBox="0 0 444 444" style="enable-background:new 0 0 444 444;" xml:space="preserve">
<g>
	<g>
		<path style="fill:#00EFD1;" d="M434.04,91.9v317.11H9.96V91.9H434.04z M374.31,349.28V241.221H69.69v108.06L374.31,349.28z"/>
		<g>
			<rect x="297.41" y="34.991" style="fill:#00ACEA;" width="88.1" height="56.91"/>
			<rect x="69.69" y="241.22" style="fill:#00ACEA;" width="304.62" height="108.06"/>
			<rect x="58.49" y="34.991" style="fill:#00ACEA;" width="88.1" height="56.91"/>
		</g>
	</g>
	<g>
		<path style="fill:#083863;" d="M374.31,359.281H69.69c-5.523,0-10-4.477-10-10v-108.06c0-5.523,4.477-10,10-10h304.62
			c5.523,0,10,4.477,10,10v108.06C384.31,354.804,379.833,359.281,374.31,359.281z M79.69,339.281h284.62v-88.06H79.69V339.281z"/>
		<path style="fill:#083863;" d="M126,158h-13v-14c0-5.523-4.477-10-10-10s-10,4.477-10,10v14H79c-5.523,0-10,4.477-10,10
			s4.477,10,10,10h14v14c0,5.523,4.477,10,10,10s10-4.477,10-10v-14h13c5.523,0,10-4.477,10-10S131.523,158,126,158z"/>
		<path style="fill:#083863;" d="M434.04,82H396V34.991c0-5.523-4.968-9.991-10.49-9.991h-88.1c-5.522,0-10.41,4.468-10.41,9.991V82
			H157V34.991c0-5.523-4.888-9.991-10.41-9.991h-88.1C52.968,25,48,29.468,48,34.991V82H9.96C4.503,81.957,0.043,86.346,0,91.804
			c0,0.032,0,0.064,0,0.096v317.11c-0.018,5.499,4.425,9.972,9.924,9.99c0.012,0,0.024,0,0.036,0h424.08
			c5.499,0.002,9.958-4.455,9.96-9.954c0-0.012,0-0.023,0-0.035V91.9c0.01-5.458-4.406-9.89-9.864-9.9
			C434.104,82,434.072,82,434.04,82z M307,45h69v37h-69V45z M68,45h69v37H68V45z M424,399H20V102h404V399z"/>
		<path style="fill:#083863;" d="M365,178h-47c-5.523,0-10-4.477-10-10s4.477-10,10-10h47c5.523,0,10,4.477,10,10
			S370.523,178,365,178z"/>
	</g>
</g>
<g>
</g>
<g>
</g>
<g>
</g>
<g>
</g>
<g>
</g>
<g>
</g>
<g>
</g>
<g>
</g>
<g>
</g>
<g>
</g>
<g>
</g>
<g>
</g>
<g>
</g>
<g>
</g>
<g>
</g>
</svg>
