<?xml version="1.0" encoding="iso-8859-1"?>
<!-- Generator: Adobe Illustrator 19.0.0, SVG Export Plug-In . SVG Version: 6.00 Build 0)  -->
<svg version="1.1" id="Capa_1" xmlns="http://www.w3.org/2000/svg" xmlns:xlink="http://www.w3.org/1999/xlink" x="0px" y="0px"
	 viewBox="0 0 476 476" style="enable-background:new 0 0 476 476;" xml:space="preserve">
<g>
	<g>
		<path style="fill:#00CEB4;" d="M465.77,240.666v63.2c-0.001,17.17-13.92,31.089-31.09,31.09h-15.55l-0.15-0.01
			c0.1-1.19,0.15-2.39,0.15-3.61c0-24.615-19.955-44.57-44.57-44.57s-44.57,19.955-44.57,44.57c0,1.22,0.05,2.42,0.15,3.61
			l-0.15,0.01h-64.26v-107.79h196.95C464.716,231.374,465.773,235.99,465.77,240.666z"/>
		<g>
			<path style="fill:#D4E1F4;" d="M462.68,227.166H362.64l-37.31-80.33v-0.52h41.63c7.882-0.001,15.47,2.991,21.23,8.37
				l67.71,63.259C458.713,220.571,461.012,223.698,462.68,227.166z"/>
			<path style="fill:#D4E1F4;" d="M419.13,331.336c0,1.22-0.05,2.42-0.15,3.61c-1.991,24.532-23.492,42.806-48.024,40.815
				c-21.768-1.766-39.049-19.047-40.816-40.815c-0.1-1.19-0.15-2.39-0.15-3.61c0.014-24.615,19.981-44.558,44.596-44.544
				C399.181,286.806,419.116,306.74,419.13,331.336z"/>
			<polygon style="fill:#D4E1F4;" points="325.33,146.836 362.64,227.166 265.73,227.166 265.73,146.316 325.33,146.316 			"/>
		</g>
		<path style="fill:#00EFD1;" d="M265.73,227.166v107.79h-119.2l-0.15-0.01c0.1-1.19,0.15-2.39,0.15-3.61
			c0-24.615-19.955-44.57-44.57-44.57s-44.57,19.955-44.57,44.57c0,1.22,0.05,2.42,0.15,3.61l-0.15,0.01H41.32
			c-17.17-0.001-31.089-13.92-31.09-31.09v-24.88c-0.001-28.619,23.199-51.819,51.818-51.82c0.001,0,0.001,0,0.002,0h51.3
			c1.21,0.002,2.419-0.071,3.62-0.22l0.02,0.22H265.73z"/>
		<g>
			<path style="fill:#D4E1F4;" d="M265.73,146.316v80.85H116.99l-0.02-0.22c7.299-0.851,14.06-4.264,19.08-9.63l57.23-61.15
				c5.879-6.287,14.102-9.854,22.71-9.85H265.73L265.73,146.316z"/>
			<path style="fill:#D4E1F4;" d="M146.53,331.336c0,1.22-0.05,2.42-0.15,3.61c-1.991,24.532-23.492,42.806-48.024,40.815
				c-21.768-1.766-39.049-19.047-40.816-40.815c-0.1-1.19-0.15-2.39-0.15-3.61c-0.01-24.615,19.936-44.578,44.552-44.588
				c24.615-0.01,44.578,19.936,44.588,44.552C146.53,331.311,146.53,331.323,146.53,331.336z"/>
		</g>
	</g>
	<g>
		<rect x="146.53" y="324.955" style="fill:#083863;" width="183.46" height="20"/>
		<path style="fill:#083863;" d="M471.806,222.831c-2.222-4.59-5.282-8.725-9.022-12.192l-67.739-63.4
			c-7.603-7.158-17.642-11.159-28.085-11.194H349v-26h16.75c5.523,0,10-4.477,10-10s-4.477-10-10-10H216.49c-5.523,0-10,4.477-10,10
			s4.477,10,10,10H233v26h-17.01c-11.388,0.064-22.245,4.822-30.011,13.152l-57.227,61.214c-3.43,3.649-8.045,5.96-13.022,6.518
			c-0.79,0.088-1.585,0.127-2.38,0.116h-51.3C27.855,217.121,0.137,244.791,0,278.986v24.88c0.127,22.745,18.575,41.13,41.32,41.179
			h7.816c6.115,23,27.744,40.906,52.824,40.906c28.372-0.125,51.962-21.876,54.385-50.145c0.123-1.462,0.185-2.97,0.185-4.459
			c-0.018-30.134-24.461-54.547-54.595-54.529c-27.671,0.017-50.948,20.744-54.16,48.227H41.32
			c-11.705-0.037-21.206-9.475-21.32-21.179v-24.88c0.125-23.154,18.896-41.877,42.05-41.941h51.3c1.265,0,2.65,0.047,3.65-0.062
			v0.062h139v99h20v-99h179.474c0.283,1.189,0.459,2.401,0.526,3.621v63.2c-0.114,11.704-9.615,21.142-21.32,21.179h-5.935
			c-3.499-29.93-30.598-51.357-60.528-47.858c-27.488,3.213-48.216,26.496-48.227,54.171c0,1.483,0.062,2.963,0.184,4.421
			c2.418,28.276,26.007,50.039,54.386,50.177c25.091,0,46.728-17.911,52.829-40.911h7.291c22.745-0.049,41.193-18.434,41.32-41.179
			v-63.2C475.956,234.481,474.522,228.386,471.806,222.831z M101.96,296.766c19.084,0.021,34.549,15.486,34.57,34.57
			c0,0.932-0.039,1.865-0.118,2.814c-1.563,19.026-18.253,33.183-37.279,31.62c-16.857-1.384-30.236-14.764-31.621-31.62v-0.042
			c-0.077-0.907-0.115-1.84-0.115-2.772C67.418,312.255,82.879,296.791,101.96,296.766z M409.012,334.15
			c-1.563,19.026-18.253,33.183-37.28,31.62c-16.857-1.385-30.236-14.764-31.62-31.62v-0.04c-0.076-0.909-0.115-1.842-0.115-2.774
			c0-19.092,15.478-34.57,34.57-34.57s34.57,15.478,34.57,34.57C409.13,332.27,409.091,333.203,409.012,334.15z M381.363,161.797
			l59.054,55.248h-71.4l-28.262-61h26.2C372.314,156.063,377.465,158.12,381.363,161.797z M253,110.045h76v26h-76V110.045z
			 M149.887,217.045l50.7-54.246c3.986-4.276,9.558-6.719,15.403-6.754H256v61H149.887z M276,156.045h42.707l28.262,61H276V156.045z
			"/>
	</g>
</g>
<g>
</g>
<g>
</g>
<g>
</g>
<g>
</g>
<g>
</g>
<g>
</g>
<g>
</g>
<g>
</g>
<g>
</g>
<g>
</g>
<g>
</g>
<g>
</g>
<g>
</g>
<g>
</g>
<g>
</g>
</svg>
