<?xml version="1.0" encoding="iso-8859-1"?>
<!-- Generator: Adobe Illustrator 19.0.0, SVG Export Plug-In . SVG Version: 6.00 Build 0)  -->
<svg version="1.1" id="Capa_1" xmlns="http://www.w3.org/2000/svg" xmlns:xlink="http://www.w3.org/1999/xlink" x="0px" y="0px"
	 viewBox="0 0 452 452" style="enable-background:new 0 0 452 452;" xml:space="preserve">
<g>
	<g>
		<path style="fill:#D4E1F4;" d="M441.71,210.44v31.12c0.001,8.592-6.964,15.559-15.556,15.56c-0.001,0-0.003,0-0.004,0h-33.8
			v-62.24h33.8c8.592-0.001,15.559,6.964,15.56,15.556C441.71,210.437,441.71,210.439,441.71,210.44z"/>
		<path style="fill:#00EFD1;" d="M186.87,215.47l205.48,0.94v116.15c0.013,17.18-13.904,31.117-31.084,31.13
			c-0.012,0-0.024,0-0.036,0H90.77c-17.18,0.007-31.113-13.914-31.12-31.094c0-0.012,0-0.024,0-0.036V214.88l42.85,0.2
			L186.87,215.47z M358.9,312.01v-37.25h-54.35v37.25H358.9z M147.45,312.01v-37.25H93.1v37.25H147.45z"/>
		<path style="fill:#D4E1F4;" d="M392.35,194.88v21.53l-205.48-0.94c-0.234-23.3-19.312-41.998-42.612-41.764
			c-22.818,0.229-41.318,18.559-41.758,41.374l-42.85-0.2V95.58l332.7,1.52V194.88z"/>
		<path style="fill:#00EFD1;" d="M392.35,76.21V97.1l-332.7-1.52V74.97c-0.004-17.189,13.927-31.126,31.116-31.13
			c0.048,0,0.096,0,0.144,0l270.46,1.24C378.505,45.161,392.352,59.075,392.35,76.21z"/>
		<g>
			<path style="fill:#D4E1F4;" d="M371.6,363.17v29.43c0.001,8.592-6.964,15.559-15.556,15.56c-0.001,0-0.003,0-0.004,0h-33.49
				c-8.596,0.002-15.566-6.964-15.57-15.56v-28.91h54.25c3.394,0.002,6.765-0.552,9.98-1.64L371.6,363.17z"/>
			<rect x="304.55" y="274.76" style="fill:#D4E1F4;" width="54.35" height="37.25"/>
			<path style="fill:#D4E1F4;" d="M186.87,215.47l-84.37-0.39c0.45-23.297,19.7-41.817,42.997-41.368
				C168.311,174.153,186.64,192.653,186.87,215.47z"/>
			<rect x="93.1" y="274.76" style="fill:#D4E1F4;" width="54.35" height="37.25"/>
			<path style="fill:#D4E1F4;" d="M145.02,364.07v28.53c-0.004,8.596-6.974,15.562-15.57,15.56H95.96
				c-8.592,0.001-15.559-6.964-15.56-15.556c0-0.001,0-0.003,0-0.004v-29.3l0.39-1.25c3.215,1.088,6.586,1.642,9.98,1.64h54.25
				V364.07z"/>
			<path style="fill:#D4E1F4;" d="M59.65,214.88v42.24h-33.8c-8.592,0.001-15.559-6.964-15.56-15.556c0-0.001,0-0.003,0-0.004
				v-31.12c-0.001-8.592,6.964-15.559,15.556-15.56c0.001,0,0.003,0,0.004,0h33.8L59.65,214.88z"/>
		</g>
	</g>
	<g>
		<path style="fill:#083863;" d="M358.9,322.01h-54.35c-5.523,0-10-4.477-10-10v-37.25c0-5.523,4.477-10,10-10h54.35
			c5.523,0,10,4.477,10,10v37.25C368.9,317.533,364.423,322.01,358.9,322.01z M314.55,302.01h34.35v-17.25h-34.35V302.01z"/>
		<path style="fill:#083863;" d="M147.45,322.01H93.1c-5.523,0-10-4.477-10-10v-37.25c0-5.523,4.477-10,10-10h54.35
			c5.523,0,10,4.477,10,10v37.25C157.45,317.533,152.973,322.01,147.45,322.01z M103.1,302.01h34.35v-17.25H103.1V302.01z"/>
		<path style="fill:#083863;" d="M265.97,320.24h-79.94c-5.523,0-10-4.477-10-10s4.477-10,10-10h79.94c5.523,0,10,4.477,10,10
			S271.493,320.24,265.97,320.24z"/>
		<path style="fill:#083863;" d="M265.97,292.36h-79.94c-5.523,0-10-4.477-10-10s4.477-10,10-10h79.94c5.523,0,10,4.477,10,10
			S271.493,292.36,265.97,292.36z"/>
		<path style="fill:#083863;" d="M426.15,185H402V76.21c0.028-22.569-18.19-40.917-40.759-41.05L90.957,34h-0.2
			c-22.472-0.038-40.72,18.148-40.758,40.62c0,0.117,0,0.233,0.001,0.35V185H25.85C11.756,185,0,196.346,0,210.44v31.12
			C0,255.654,11.756,267,25.85,267H50v65.56c-0.014,14.582,7.563,28.121,20,35.734V392.6c0,14.094,11.866,25.4,25.96,25.4h33.49
			c14.051,0.06,25.49-11.281,25.55-25.332c0-0.023,0-0.046,0-0.068V374h142v18.6c0.023,14.051,11.431,25.423,25.482,25.4
			c0.023,0,0.046,0,0.068,0h33.49c14.094,0,25.96-11.306,25.96-25.4v-24.307c12.437-7.613,20.014-21.151,20-35.733V267h24.15
			c14.094,0,25.85-11.346,25.85-25.44v-31.12C452,196.346,440.244,185,426.15,185z M195.65,205.506
			c-4.962-24.275-26.276-41.737-51.053-41.826c-24.877,0-45.769,17.819-50.814,41.356L70,204.926v-99.3l312,1.429v99.309
			L195.65,205.506z M175.128,205.411l-60.761-0.28c5.92-16.752,24.299-25.533,41.051-19.613
			C164.681,188.791,171.94,196.118,175.128,205.411z M76.05,60.069c3.886-3.924,9.192-6.112,14.714-6.069h0.1l270.284,1.16
			c11.57,0.056,20.905,9.48,20.852,21.05v10.844L70,85.626V74.97C69.92,69.389,72.102,64.014,76.05,60.069z M25.85,247
			c-3.103,0.074-5.698-2.34-5.85-5.44v-31.12c0.152-3.1,2.747-5.514,5.85-5.44H50v42H25.85z M135,392.6
			c-0.01,2.993-2.445,5.412-5.438,5.402c-0.037,0-0.074-0.001-0.112-0.002H95.96c-3.065,0-5.96-2.334-5.96-5.4v-18.918
			c1,0,0.646,0.318,0.77,0.318H135V392.6z M356.04,398h-33.49c-2.993,0.072-5.477-2.296-5.548-5.288
			c-0.001-0.037-0.001-0.074-0.002-0.112V374h44.23c0.124,0-0.23-0.316,0.77-0.318V392.6C362,395.666,359.105,398,356.04,398z
			 M367.827,352.733c-2.114,0.788-4.345,1.217-6.6,1.267H90.77c-2.255-0.051-4.486-0.479-6.6-1.267
			c-8.558-2.993-14.257-11.107-14.17-20.173V224.926l312,1.438v106.2C382.085,341.629,376.385,349.741,367.827,352.733z M432,241.56
			c-0.152,3.1-2.747,5.514-5.85,5.44H402v-42h24.15c3.103-0.074,5.698,2.34,5.85,5.44V241.56z"/>
	</g>
</g>
<g>
</g>
<g>
</g>
<g>
</g>
<g>
</g>
<g>
</g>
<g>
</g>
<g>
</g>
<g>
</g>
<g>
</g>
<g>
</g>
<g>
</g>
<g>
</g>
<g>
</g>
<g>
</g>
<g>
</g>
</svg>
